M48
; DRILL file {KiCad (6.0.5)} date Tue Jul 19 18:24:47 2022
; FORMAT={-:-/ absolute / inch / decimal}
; #@! TF.CreationDate,2022-07-19T18:24:47-04:00
; #@! TF.GenerationSoftware,Kicad,Pcbnew,(6.0.5)
; #@! TF.FileFunction,Plated,1,2,PTH
FMAT,2
INCH
; #@! TA.AperFunction,Plated,PTH,ViaDrill
T1C0.0118
; #@! TA.AperFunction,Plated,PTH,ViaDrill
T2C0.0157
; #@! TA.AperFunction,Plated,PTH,ComponentDrill
T3C0.0197
%
G90
G05
T1
X6.783Y-1.5893
X6.7831Y-1.8097
X6.7831Y-1.3688
X6.7831Y-1.4003
X6.7831Y-1.4318
X6.7831Y-1.4633
X6.7831Y-1.4948
X6.7831Y-1.5263
X6.7831Y-1.5578
X6.7831Y-1.6208
X6.7831Y-1.6523
X6.7831Y-1.6838
X6.7831Y-1.7153
X6.7831Y-1.7468
X6.7831Y-1.7783
X6.8142Y-1.5574
X6.8143Y-2.6916
X6.8145Y-1.432
X6.8146Y-1.3688
X6.8146Y-1.4003
X6.8146Y-1.4633
X6.8146Y-1.4948
X6.8146Y-1.5263
X6.8146Y-2.3767
X6.8146Y-2.4082
X6.8146Y-2.4397
X6.8146Y-2.4712
X6.8146Y-2.5027
X6.8146Y-2.5342
X6.8146Y-2.5657
X6.8146Y-2.5972
X6.8146Y-2.6287
X6.8146Y-2.6602
X6.8146Y-2.7231
X6.8461Y-1.526
X6.8461Y-2.3136
X6.8461Y-2.6295
X6.8461Y-1.3688
X6.8461Y-1.4003
X6.8461Y-1.4318
X6.8461Y-1.4633
X6.8461Y-1.4948
X6.8461Y-2.2822
X6.8461Y-2.4082
X6.8461Y-2.4397
X6.8461Y-2.4712
X6.8461Y-2.5027
X6.8461Y-2.5342
X6.8461Y-2.5657
X6.8461Y-2.5972
X6.8461Y-2.6602
X6.8461Y-2.6917
X6.8461Y-2.7231
X6.8775Y-1.4631
X6.8776Y-1.4316
X6.8776Y-1.3688
X6.8776Y-1.4003
X6.8776Y-1.4948
X6.8776Y-2.7231
X6.89Y-2.33
X6.89Y-2.36
X6.89Y-2.46
X6.89Y-2.5
X6.89Y-2.54
X6.89Y-2.58
X6.89Y-2.62
X6.89Y-2.66
X6.9089Y-1.4631
X6.909Y-1.4003
X6.9091Y-1.3688
X6.9091Y-1.4318
X6.9091Y-2.7231
X6.9094Y-1.4945
X6.93Y-2.36
X6.93Y-2.4
X6.93Y-2.5
X6.93Y-2.54
X6.93Y-2.58
X6.93Y-2.62
X6.93Y-2.66
X6.9398Y-1.4001
X6.9404Y-1.4631
X6.9406Y-1.3688
X6.9406Y-1.4318
X6.9406Y-1.4948
X6.9406Y-2.7231
X6.97Y-2.4
X6.97Y-2.54
X6.97Y-2.58
X6.97Y-2.62
X6.97Y-2.66
X6.9718Y-1.4945
X6.972Y-1.4001
X6.9721Y-1.3688
X6.9721Y-1.4318
X6.9721Y-1.4633
X6.9721Y-2.7231
X7.0Y-2.66
X7.0036Y-1.3688
X7.0036Y-1.4003
X7.0036Y-1.4318
X7.0036Y-1.4633
X7.0036Y-1.4948
X7.0036Y-2.7231
X7.01Y-2.62
X7.02Y-2.44
X7.02Y-2.48
X7.0351Y-1.3688
X7.0351Y-1.4003
X7.0351Y-1.4318
X7.0351Y-1.4633
X7.0351Y-1.4948
X7.0351Y-2.7231
X7.05Y-2.66
X7.0663Y-1.4948
X7.0664Y-2.7229
X7.0666Y-1.4001
X7.0666Y-1.3688
X7.0666Y-1.4318
X7.0666Y-1.4633
X7.07Y-2.48
X7.07Y-2.52
X7.08Y-2.33
X7.08Y-2.36
X7.0981Y-1.3688
X7.0981Y-1.4003
X7.0981Y-1.4318
X7.0981Y-1.4633
X7.0981Y-1.4948
X7.0981Y-2.7231
X7.11Y-2.48
X7.11Y-2.52
X7.11Y-2.56
X7.12Y-2.33
X7.12Y-2.3609
X7.12Y-2.4
X7.1296Y-1.3688
X7.1296Y-1.4003
X7.1296Y-1.4318
X7.1296Y-1.4633
X7.1296Y-1.4948
X7.1296Y-2.7231
X7.15Y-2.48
X7.15Y-2.52
X7.15Y-2.56
X7.15Y-2.6
X7.16Y-2.33
X7.16Y-2.36
X7.16Y-2.4
X7.1611Y-1.3688
X7.1611Y-1.4003
X7.1611Y-1.4318
X7.1611Y-1.4633
X7.1611Y-2.7231
X7.19Y-2.33
X7.19Y-2.36
X7.19Y-2.4
X7.19Y-2.48
X7.19Y-2.53
X7.19Y-2.58
X7.19Y-2.62
X7.19Y-2.66
X7.1926Y-1.3688
X7.1926Y-1.4003
X7.1926Y-1.4318
X7.2241Y-1.3688
X7.2241Y-1.4003
X7.239Y-2.6593
X7.24Y-2.33
X7.24Y-2.36
X7.24Y-2.4
X7.24Y-2.48
X7.24Y-2.53
X7.24Y-2.58
X7.24Y-2.62
X7.2555Y-2.723
X7.2556Y-1.3688
X7.28Y-2.66
X7.2871Y-1.3688
X7.2871Y-2.7231
X7.3186Y-1.3688
X7.3186Y-2.7231
X7.3501Y-1.3688
X7.3501Y-2.6287
X7.3501Y-2.6602
X7.3501Y-2.6917
X7.3501Y-2.7231
X7.3814Y-2.6284
X7.3816Y-1.3688
X7.3816Y-2.6602
X7.4131Y-1.3688
X7.4131Y-2.6287
X7.4131Y-2.6602
X7.43Y-1.43
X7.44Y-1.47
X7.44Y-1.51
X7.44Y-1.55
X7.44Y-1.59
X7.44Y-1.63
X7.44Y-1.67
X7.44Y-1.71
X7.44Y-1.75
X7.4443Y-2.6284
X7.4446Y-1.3688
X7.4446Y-2.5972
X7.4446Y-2.6602
X7.47Y-1.43
X7.4761Y-1.3688
X7.4761Y-1.8098
X7.48Y-1.47
X7.48Y-1.51
X7.48Y-1.55
X7.48Y-1.59
X7.48Y-1.63
X7.48Y-1.67
X7.48Y-1.71
X7.48Y-1.75
X7.5076Y-1.3688
X7.5076Y-1.8098
X7.51Y-1.43
X7.52Y-1.47
X7.52Y-1.51
X7.52Y-1.55
X7.52Y-1.59
X7.52Y-1.63
X7.52Y-1.67
X7.52Y-1.71
X7.52Y-1.75
X7.5391Y-1.3688
X7.5391Y-1.8098
X7.555Y-1.43
X7.56Y-1.47
X7.56Y-1.51
X7.56Y-1.55
X7.56Y-1.59
X7.56Y-1.63
X7.56Y-1.67
X7.56Y-1.71
X7.56Y-1.75
X7.5706Y-1.3688
X7.5706Y-1.8098
X7.59Y-1.43
X7.59Y-1.47
X7.6Y-1.75
X7.602Y-1.3688
X7.62Y-1.51
X7.62Y-1.55
X7.62Y-1.59
X7.62Y-1.63
X7.62Y-1.67
X7.62Y-1.71
X7.63Y-1.43
X7.63Y-1.47
X7.6335Y-1.3688
X7.64Y-1.75
X7.66Y-1.47
X7.66Y-1.51
X7.66Y-1.55
X7.66Y-1.59
X7.66Y-1.63
X7.66Y-1.67
X7.66Y-1.71
X7.665Y-1.43
X7.665Y-1.8096
X7.665Y-1.3688
X7.68Y-1.75
X7.69Y-1.59
X7.69Y-1.67
X7.6965Y-1.3688
X7.6965Y-1.8098
X7.7Y-1.43
X7.7Y-1.47
X7.7Y-1.51
X7.7Y-1.55
X7.7Y-1.63
X7.7Y-1.71
X7.72Y-1.75
X7.728Y-1.3688
X7.728Y-1.8098
X7.73Y-1.59
X7.73Y-1.67
X7.735Y-1.43
X7.74Y-1.47
X7.74Y-1.51
X7.74Y-1.55
X7.74Y-1.63
X7.74Y-1.71
X7.7595Y-1.3688
X7.7595Y-1.8098
X7.77Y-1.43
X7.77Y-1.59
X7.77Y-1.67
X7.77Y-1.75
X7.78Y-1.47
X7.78Y-1.51
X7.78Y-1.55
X7.78Y-1.63
X7.78Y-1.71
X7.791Y-1.3688
X7.791Y-1.8098
X7.81Y-1.43
X7.81Y-1.47
X7.81Y-1.51
X7.81Y-1.55
X7.81Y-1.59
X7.81Y-1.63
X7.81Y-1.67
X7.81Y-1.71
X7.81Y-1.75
X7.8225Y-1.3688
X7.8539Y-1.4948
X7.854Y-1.3688
X7.854Y-1.4003
X7.854Y-1.4318
X7.854Y-1.4633
X7.854Y-1.5263
X7.854Y-1.5578
X7.854Y-1.5893
X7.854Y-1.6208
X7.854Y-1.6523
X7.854Y-1.6838
X7.854Y-1.7153
X7.854Y-1.7468
T2
X6.8422Y-2.1995
X6.8737Y-1.985
X6.8776Y-2.1798
X6.8934Y-2.1011
X6.9101Y-1.8366
X6.9162Y-2.027
X6.9528Y-2.1342
X7.0162Y-2.0991
X7.0863Y-2.1336
X7.115Y-1.68
X7.2339Y-1.6424
X7.348Y-2.404
X7.3524Y-2.5684
X7.375Y-1.41
X7.394Y-2.07
X7.4544Y-2.2763
X7.4682Y-2.4121
X7.52Y-2.255
X7.6296Y-2.5621
X7.67Y-2.238
X7.7261Y-2.6149
X7.854Y-2.222
X7.858Y-1.798
T3
X7.3607Y-2.2098
X7.494Y-2.728
X7.5334Y-2.728
X7.5727Y-2.728
X7.6121Y-2.728
X7.6515Y-2.728
X7.6909Y-2.728
X7.832Y-2.3026
X7.832Y-2.342
X7.832Y-2.3814
T0
M30
