%TF.GenerationSoftware,KiCad,Pcbnew,(6.0.5)*%
%TF.CreationDate,2022-07-19T18:24:44-04:00*%
%TF.ProjectId,torque_motor_design,746f7271-7565-45f6-9d6f-746f725f6465,rev?*%
%TF.SameCoordinates,Original*%
%TF.FileFunction,Copper,L1,Top*%
%TF.FilePolarity,Positive*%
%FSLAX46Y46*%
G04 Gerber Fmt 4.6, Leading zero omitted, Abs format (unit mm)*
G04 Created by KiCad (PCBNEW (6.0.5)) date 2022-07-19 18:24:44*
%MOMM*%
%LPD*%
G01*
G04 APERTURE LIST*
G04 Aperture macros list*
%AMRoundRect*
0 Rectangle with rounded corners*
0 $1 Rounding radius*
0 $2 $3 $4 $5 $6 $7 $8 $9 X,Y pos of 4 corners*
0 Add a 4 corners polygon primitive as box body*
4,1,4,$2,$3,$4,$5,$6,$7,$8,$9,$2,$3,0*
0 Add four circle primitives for the rounded corners*
1,1,$1+$1,$2,$3*
1,1,$1+$1,$4,$5*
1,1,$1+$1,$6,$7*
1,1,$1+$1,$8,$9*
0 Add four rect primitives between the rounded corners*
20,1,$1+$1,$2,$3,$4,$5,0*
20,1,$1+$1,$4,$5,$6,$7,0*
20,1,$1+$1,$6,$7,$8,$9,0*
20,1,$1+$1,$8,$9,$2,$3,0*%
G04 Aperture macros list end*
%TA.AperFunction,SMDPad,CuDef*%
%ADD10RoundRect,0.225000X0.250000X-0.225000X0.250000X0.225000X-0.250000X0.225000X-0.250000X-0.225000X0*%
%TD*%
%TA.AperFunction,SMDPad,CuDef*%
%ADD11RoundRect,0.250000X0.425000X-0.450000X0.425000X0.450000X-0.425000X0.450000X-0.425000X-0.450000X0*%
%TD*%
%TA.AperFunction,SMDPad,CuDef*%
%ADD12RoundRect,0.250000X-0.450000X-0.425000X0.450000X-0.425000X0.450000X0.425000X-0.450000X0.425000X0*%
%TD*%
%TA.AperFunction,SMDPad,CuDef*%
%ADD13R,1.300000X1.600000*%
%TD*%
%TA.AperFunction,SMDPad,CuDef*%
%ADD14R,2.000000X1.600000*%
%TD*%
%TA.AperFunction,SMDPad,CuDef*%
%ADD15RoundRect,0.225000X-0.250000X0.225000X-0.250000X-0.225000X0.250000X-0.225000X0.250000X0.225000X0*%
%TD*%
%TA.AperFunction,SMDPad,CuDef*%
%ADD16RoundRect,0.200000X0.200000X0.275000X-0.200000X0.275000X-0.200000X-0.275000X0.200000X-0.275000X0*%
%TD*%
%TA.AperFunction,SMDPad,CuDef*%
%ADD17R,1.100000X4.600000*%
%TD*%
%TA.AperFunction,SMDPad,CuDef*%
%ADD18R,10.800000X9.400000*%
%TD*%
%TA.AperFunction,SMDPad,CuDef*%
%ADD19RoundRect,0.250000X0.250000X0.750000X-0.250000X0.750000X-0.250000X-0.750000X0.250000X-0.750000X0*%
%TD*%
%TA.AperFunction,SMDPad,CuDef*%
%ADD20RoundRect,0.200000X-0.200000X-0.275000X0.200000X-0.275000X0.200000X0.275000X-0.200000X0.275000X0*%
%TD*%
%TA.AperFunction,SMDPad,CuDef*%
%ADD21R,1.200000X0.900000*%
%TD*%
%TA.AperFunction,SMDPad,CuDef*%
%ADD22RoundRect,0.250000X-0.425000X0.450000X-0.425000X-0.450000X0.425000X-0.450000X0.425000X0.450000X0*%
%TD*%
%TA.AperFunction,SMDPad,CuDef*%
%ADD23R,0.900000X1.200000*%
%TD*%
%TA.AperFunction,SMDPad,CuDef*%
%ADD24RoundRect,0.250000X0.750000X-0.250000X0.750000X0.250000X-0.750000X0.250000X-0.750000X-0.250000X0*%
%TD*%
%TA.AperFunction,SMDPad,CuDef*%
%ADD25RoundRect,0.200000X-0.275000X0.200000X-0.275000X-0.200000X0.275000X-0.200000X0.275000X0.200000X0*%
%TD*%
%TA.AperFunction,ComponentPad*%
%ADD26R,0.850000X0.850000*%
%TD*%
%TA.AperFunction,ComponentPad*%
%ADD27O,0.850000X0.850000*%
%TD*%
%TA.AperFunction,ViaPad*%
%ADD28C,0.800000*%
%TD*%
%TA.AperFunction,ViaPad*%
%ADD29C,0.600000*%
%TD*%
%TA.AperFunction,Conductor*%
%ADD30C,0.400000*%
%TD*%
%TA.AperFunction,Conductor*%
%ADD31C,0.250000*%
%TD*%
G04 APERTURE END LIST*
D10*
%TO.P,C8,1*%
%TO.N,+V*%
X179070000Y-49543000D03*
%TO.P,C8,2*%
%TO.N,GND*%
X179070000Y-47993000D03*
%TD*%
D11*
%TO.P,C6,1*%
%TO.N,+V*%
X177165000Y-50245000D03*
%TO.P,C6,2*%
%TO.N,GND*%
X177165000Y-47545000D03*
%TD*%
D12*
%TO.P,C10,1*%
%TO.N,GND*%
X180112000Y-45178000D03*
%TO.P,C10,2*%
%TO.N,-V*%
X182812000Y-45178000D03*
%TD*%
D13*
%TO.P,RV1,1,1*%
%TO.N,GND*%
X183742000Y-41718000D03*
D14*
%TO.P,RV1,2,2*%
X184992000Y-38818000D03*
D13*
%TO.P,RV1,3,3*%
%TO.N,Net-(R1-Pad2)*%
X186242000Y-41718000D03*
%TD*%
D15*
%TO.P,C7,1*%
%TO.N,+V*%
X194665600Y-53581000D03*
%TO.P,C7,2*%
%TO.N,GND*%
X194665600Y-55131000D03*
%TD*%
D16*
%TO.P,R6,1*%
%TO.N,Net-(R5-Pad2)*%
X179793400Y-41503600D03*
%TO.P,R6,2*%
%TO.N,-V*%
X178143400Y-41503600D03*
%TD*%
D17*
%TO.P,U3,1,+*%
%TO.N,Net-(R1-Pad2)*%
X190092000Y-49443000D03*
%TO.P,U3,2,-*%
%TO.N,Net-(Motor-1-Pad1)*%
X191792000Y-49443000D03*
%TO.P,U3,3*%
%TO.N,-V*%
X193492000Y-49443000D03*
%TO.P,U3,4,V+*%
%TO.N,Net-(D1-Pad2)*%
X195192000Y-49443000D03*
%TO.P,U3,5,V-*%
%TO.N,+V*%
X196892000Y-49443000D03*
D18*
%TO.P,U3,6*%
%TO.N,-V*%
X193492000Y-40293000D03*
%TD*%
D19*
%TO.P,Motor+1,1,Pin_1*%
%TO.N,Net-(D1-Pad2)*%
X191820800Y-63601600D03*
%TD*%
D15*
%TO.P,C5,1*%
%TO.N,-V*%
X192532000Y-53581000D03*
%TO.P,C5,2*%
%TO.N,GND*%
X192532000Y-55131000D03*
%TD*%
D20*
%TO.P,R5,1*%
%TO.N,+V*%
X178143400Y-39624000D03*
%TO.P,R5,2*%
%TO.N,Net-(R5-Pad2)*%
X179793400Y-39624000D03*
%TD*%
D21*
%TO.P,D7,1,K*%
%TO.N,GND*%
X196242000Y-64268000D03*
%TO.P,D7,2,A*%
%TO.N,-V*%
X196242000Y-67568000D03*
%TD*%
D12*
%TO.P,C9,1*%
%TO.N,+V*%
X175307000Y-45085000D03*
%TO.P,C9,2*%
%TO.N,GND*%
X178007000Y-45085000D03*
%TD*%
D17*
%TO.P,U2,1,+*%
%TO.N,Net-(R5-Pad2)*%
X183392000Y-54193000D03*
%TO.P,U2,2,-*%
%TO.N,GND*%
X181692000Y-54193000D03*
%TO.P,U2,3*%
%TO.N,-V*%
X179992000Y-54193000D03*
%TO.P,U2,4,V+*%
%TO.N,GND*%
X178292000Y-54193000D03*
%TO.P,U2,5,V-*%
%TO.N,+V*%
X176592000Y-54193000D03*
D18*
%TO.P,U2,6*%
%TO.N,-V*%
X179992000Y-63343000D03*
%TD*%
D11*
%TO.P,C4,1*%
%TO.N,GND*%
X190500000Y-56214000D03*
%TO.P,C4,2*%
%TO.N,-V*%
X190500000Y-53514000D03*
%TD*%
D22*
%TO.P,C12,1*%
%TO.N,+V*%
X196646800Y-53056800D03*
%TO.P,C12,2*%
%TO.N,GND*%
X196646800Y-55756800D03*
%TD*%
D23*
%TO.P,D1,1,K*%
%TO.N,+V*%
X190342000Y-59568000D03*
%TO.P,D1,2,A*%
%TO.N,Net-(D1-Pad2)*%
X193642000Y-59568000D03*
%TD*%
D24*
%TO.P,External_(-12V)1,1,Pin_1*%
%TO.N,-V*%
X175798000Y-41862000D03*
%TD*%
%TO.P,External_(+12V)1,1,Pin_1*%
%TO.N,+V*%
X175798000Y-39818000D03*
%TD*%
D19*
%TO.P,Motor-1,1,Pin_1*%
%TO.N,Net-(Motor-1-Pad1)*%
X189492000Y-63568000D03*
%TD*%
D25*
%TO.P,R1,1*%
%TO.N,Torque_Mode*%
X186892000Y-43643000D03*
%TO.P,R1,2*%
%TO.N,Net-(R1-Pad2)*%
X186892000Y-45293000D03*
%TD*%
D10*
%TO.P,C11,1*%
%TO.N,-V*%
X180848000Y-49543000D03*
%TO.P,C11,2*%
%TO.N,GND*%
X180848000Y-47993000D03*
%TD*%
D21*
%TO.P,D5,1,K*%
%TO.N,Net-(D1-Pad2)*%
X196292000Y-59168000D03*
%TO.P,D5,2,A*%
%TO.N,-V*%
X196292000Y-62468000D03*
%TD*%
D22*
%TO.P,C3,1*%
%TO.N,GND*%
X182880000Y-47672000D03*
%TO.P,C3,2*%
%TO.N,-V*%
X182880000Y-50372000D03*
%TD*%
D23*
%TO.P,D6,1,K*%
%TO.N,+V*%
X193877200Y-66903600D03*
%TO.P,D6,2,A*%
%TO.N,GND*%
X190577200Y-66903600D03*
%TD*%
D26*
%TO.P,header_2,1*%
%TO.N,N/C*%
X198932800Y-58486800D03*
D27*
%TO.P,header_2,2*%
%TO.N,GND*%
X198932800Y-59486800D03*
%TO.P,header_2,3*%
%TO.N,+V*%
X198932800Y-60486800D03*
%TD*%
D26*
%TO.P,Current_Sense,1*%
%TO.N,current_sense*%
X186962000Y-56128000D03*
%TD*%
%TO.P,header,1*%
%TO.N,N/C*%
X190347600Y-69291200D03*
D27*
%TO.P,header,2*%
X191347600Y-69291200D03*
%TO.P,header,3*%
X192347600Y-69291200D03*
%TO.P,header,4*%
%TO.N,Net-(Motor-1-Pad1)*%
X193347600Y-69291200D03*
%TO.P,header,5*%
%TO.N,Torque_Mode*%
X194347600Y-69291200D03*
%TO.P,header,6*%
%TO.N,current_sense*%
X195347600Y-69291200D03*
%TD*%
D28*
%TO.N,+V*%
X174592000Y-50418000D03*
X176602000Y-54208000D03*
X173792000Y-55868000D03*
X193792000Y-65078000D03*
X175092000Y-53368000D03*
X189692000Y-61268000D03*
D29*
%TO.N,-V*%
X173092000Y-35568000D03*
X175006000Y-62484000D03*
X192786000Y-36322000D03*
X189992000Y-41402000D03*
X189892000Y-45968000D03*
X196088000Y-44450000D03*
X173092000Y-65168000D03*
X178692000Y-69168000D03*
X192292000Y-34768000D03*
X183492000Y-34768000D03*
X181864000Y-60960000D03*
X199492000Y-38768000D03*
X187492000Y-67568000D03*
D28*
X175517500Y-46649601D03*
D29*
X197358000Y-44450000D03*
X197612000Y-39370000D03*
X185892000Y-34768000D03*
X185892000Y-69168000D03*
X196342000Y-42418000D03*
X189992000Y-43434000D03*
X185092000Y-69168000D03*
X181864000Y-59182000D03*
X195326000Y-42418000D03*
X179832000Y-59182000D03*
X180594000Y-64008000D03*
X189992000Y-40386000D03*
X195580000Y-38354000D03*
X177892000Y-36368000D03*
X195580000Y-36322000D03*
X178054000Y-66548000D03*
X186692000Y-34768000D03*
X183896000Y-59944000D03*
X189092000Y-67568000D03*
X172292000Y-36368000D03*
X181864000Y-59944000D03*
X198374000Y-39370000D03*
X173892000Y-57968000D03*
X175006000Y-65532000D03*
X194564000Y-43434000D03*
X196292000Y-34768000D03*
X174692000Y-34768000D03*
X177083969Y-37961077D03*
X182692000Y-35568000D03*
X195580000Y-39370000D03*
X172292000Y-39568000D03*
X173892000Y-37968000D03*
X174688787Y-37162683D03*
X179492000Y-37168000D03*
X176022000Y-60960000D03*
X188976000Y-38354000D03*
X197612000Y-43434000D03*
X173092000Y-61968000D03*
X181892000Y-69168000D03*
X188976000Y-44450000D03*
X192024000Y-40386000D03*
X192024000Y-42418000D03*
X196596000Y-39370000D03*
X172292000Y-44368000D03*
X197358000Y-40386000D03*
X173891999Y-66789876D03*
X173892000Y-37168000D03*
X191897000Y-36322000D03*
X194691866Y-45964521D03*
X181092000Y-35568000D03*
X179070000Y-67564000D03*
X197612000Y-41402000D03*
X192292000Y-45968000D03*
X176285575Y-37162683D03*
X173892000Y-34768000D03*
X177092000Y-69168000D03*
X199492000Y-41168000D03*
X188976000Y-40386000D03*
X199492000Y-35568000D03*
X182626000Y-64262000D03*
X179486781Y-69162781D03*
X182626000Y-59944000D03*
D28*
X189342000Y-57818000D03*
D29*
X187492000Y-34768000D03*
X177038000Y-65532000D03*
X180292000Y-37968000D03*
X189892000Y-34768000D03*
X173892000Y-68368000D03*
X196596000Y-43434000D03*
X183896000Y-64262000D03*
X198374000Y-40386000D03*
X184288521Y-69164521D03*
D28*
X196242000Y-66418000D03*
D29*
X180292000Y-34768000D03*
X192024000Y-44450000D03*
X183896000Y-59182000D03*
X193548000Y-38354000D03*
X182626000Y-60960000D03*
X188292000Y-34768000D03*
X173092000Y-69168000D03*
X196292000Y-45968000D03*
X172292000Y-43568000D03*
X199492000Y-37168000D03*
X193548000Y-43434000D03*
X173080258Y-39557864D03*
X181092000Y-69168000D03*
X173892000Y-65968000D03*
X194056000Y-44450000D03*
X184292000Y-34768000D03*
X174690393Y-36362781D03*
D28*
X174692000Y-55368000D03*
D29*
X174692000Y-35568000D03*
X182626000Y-65532000D03*
X175006000Y-59944000D03*
X176022000Y-67564000D03*
X183870642Y-67546787D03*
X173892000Y-61968000D03*
X189738000Y-36322000D03*
X173892000Y-35568000D03*
X199492000Y-42768000D03*
X175492000Y-69168000D03*
X178692000Y-37968000D03*
X178692000Y-35568000D03*
X195580000Y-41402000D03*
X193548000Y-40386000D03*
X179491599Y-35562781D03*
X191492000Y-34768000D03*
X176022000Y-63500000D03*
X188976000Y-43434000D03*
X189092000Y-65968000D03*
X196469000Y-36322000D03*
X177038000Y-66548000D03*
X175006000Y-67564000D03*
X190692000Y-45968000D03*
X193548000Y-39370000D03*
X191492000Y-45968000D03*
X192786000Y-37338000D03*
X173892000Y-65168000D03*
X183896000Y-62992000D03*
X198692000Y-34768000D03*
X172288521Y-40367999D03*
X194564000Y-39370000D03*
X175488654Y-35567999D03*
X191008000Y-39370000D03*
X194564000Y-37338000D03*
X192024000Y-41402000D03*
X183896000Y-66548000D03*
X180848000Y-60960000D03*
X199492000Y-43568000D03*
X181610000Y-66040000D03*
X173092000Y-65968000D03*
X176270726Y-35562781D03*
X195580000Y-37338000D03*
X177092000Y-37168000D03*
X188292000Y-67568000D03*
X180848000Y-59968000D03*
X182626000Y-66548000D03*
X193548000Y-41402000D03*
X184912000Y-67564000D03*
X181610000Y-62992000D03*
X189085575Y-66761778D03*
X197892000Y-45968000D03*
X186692000Y-67568000D03*
X189992000Y-42418000D03*
X177892000Y-37968000D03*
X179578000Y-62992000D03*
X177892000Y-37168000D03*
X177038000Y-60960000D03*
X186692000Y-69168000D03*
X193548000Y-42418000D03*
X179578000Y-64008000D03*
X181892000Y-34768000D03*
X173084172Y-68366393D03*
X186692000Y-66768000D03*
X177089993Y-35562781D03*
X181610000Y-64008000D03*
X173092000Y-34768000D03*
X177038000Y-67564000D03*
X180594000Y-62992000D03*
X173890393Y-58766393D03*
X191008000Y-37338000D03*
X189992000Y-44450000D03*
X181892000Y-36368000D03*
X198374000Y-42418000D03*
X198374000Y-38354000D03*
X199492000Y-40368000D03*
X196596000Y-38354000D03*
X188976000Y-37338000D03*
X179484172Y-37967999D03*
X173092000Y-64368000D03*
X172292000Y-34768000D03*
X176292000Y-69168000D03*
X173892000Y-36368000D03*
X198374000Y-37338000D03*
X173092000Y-60368000D03*
X180292000Y-36368000D03*
X199492000Y-44368000D03*
X181092000Y-34768000D03*
X176022000Y-64516000D03*
X193802000Y-37338000D03*
X173092000Y-66768000D03*
X182626000Y-62992000D03*
X189092000Y-34768000D03*
X175006000Y-59182000D03*
X173892000Y-64368000D03*
X173890393Y-38759471D03*
X182626000Y-59182000D03*
X194564000Y-40386000D03*
X181892000Y-37168000D03*
X178692000Y-37168000D03*
X197358000Y-42418000D03*
X180292000Y-37168000D03*
X173092000Y-37968000D03*
X175487181Y-37162683D03*
X178308000Y-62992000D03*
X199492000Y-39568000D03*
X189992000Y-38354000D03*
X178692000Y-34768000D03*
X192024000Y-39370000D03*
X174692000Y-37968000D03*
X181092000Y-36368000D03*
X173088521Y-36371612D03*
X176022000Y-65532000D03*
X183896000Y-60960000D03*
X172292000Y-35568000D03*
X177892000Y-34768000D03*
X194564000Y-38354000D03*
X176022000Y-66548000D03*
X175492000Y-34768000D03*
X175006000Y-63500000D03*
X198374000Y-36322000D03*
X181610000Y-65024000D03*
X180848000Y-59182000D03*
X181092000Y-37968000D03*
X176292000Y-37968000D03*
X188292000Y-66768000D03*
X173092000Y-67568000D03*
X173092000Y-63568000D03*
X172289680Y-45965680D03*
X173092000Y-37168000D03*
X191008000Y-43434000D03*
X199492000Y-41968000D03*
X187488787Y-66761778D03*
X186692000Y-68368000D03*
X172292000Y-41968000D03*
X173092000Y-38768000D03*
X191008000Y-41402000D03*
X190692000Y-34768000D03*
X173092000Y-62768000D03*
X172292000Y-37168000D03*
X179492000Y-36368000D03*
X182692000Y-34768000D03*
X190754000Y-36322000D03*
X175492000Y-36368000D03*
X176292000Y-34768000D03*
X172292000Y-38768000D03*
X183896000Y-65532000D03*
X196596000Y-41402000D03*
X175006000Y-64516000D03*
X178308000Y-61976000D03*
X199492000Y-34768000D03*
X194691000Y-36322000D03*
X177892000Y-35568000D03*
X179492000Y-34768000D03*
X197612000Y-37338000D03*
X191008000Y-44450000D03*
X183492000Y-35568000D03*
X192024000Y-37338000D03*
X199488521Y-37967999D03*
X199492000Y-36368000D03*
X197092000Y-45968000D03*
X195072000Y-44450000D03*
X198374000Y-41402000D03*
X177092000Y-34768000D03*
X180292000Y-35568000D03*
X196342000Y-40386000D03*
X188976000Y-42418000D03*
X181892000Y-35568000D03*
X174692000Y-69168000D03*
X193040000Y-44450000D03*
X193892000Y-34768000D03*
X180292000Y-69168000D03*
X177092000Y-36368000D03*
X191008000Y-38354000D03*
X188722000Y-36322000D03*
X197892000Y-34768000D03*
X193802000Y-36322000D03*
X185092000Y-34768000D03*
D28*
X199491600Y-56438800D03*
D29*
X172292000Y-45168000D03*
X191008000Y-42418000D03*
X176022000Y-59944000D03*
X173092000Y-61168000D03*
X177892000Y-69168000D03*
X198374000Y-44450000D03*
X172292000Y-41168000D03*
X175498922Y-37961077D03*
X193092000Y-34768000D03*
X182626000Y-67564000D03*
D28*
X199592000Y-45668000D03*
D29*
X195326000Y-40386000D03*
X188976000Y-41402000D03*
X172292000Y-42768000D03*
X173892000Y-69168000D03*
X178692000Y-36368000D03*
X177800000Y-67564000D03*
X198374000Y-43434000D03*
X173892000Y-67568000D03*
X182692000Y-36368000D03*
X188976000Y-39370000D03*
X180594000Y-65024000D03*
X192024000Y-43434000D03*
X181092000Y-37168000D03*
X173892000Y-62768000D03*
X197612000Y-38354000D03*
X195580000Y-43434000D03*
X195492000Y-45968000D03*
X192024000Y-38354000D03*
X191008000Y-40386000D03*
X189992000Y-37338000D03*
X194692000Y-34768000D03*
D28*
X179992000Y-54193000D03*
D29*
X195492000Y-34768000D03*
X173892000Y-61168000D03*
X175006000Y-66548000D03*
X194564000Y-41402000D03*
X177038000Y-64516000D03*
X172292000Y-37968000D03*
X197358000Y-36322000D03*
X194564000Y-42418000D03*
X189992000Y-39370000D03*
X176292000Y-36368000D03*
X196596000Y-37338000D03*
X173892000Y-63568000D03*
X197092000Y-34768000D03*
X179832000Y-59944000D03*
D28*
%TO.N,Torque_Mode*%
X187325000Y-35814000D03*
%TO.N,GND*%
X191008000Y-57277000D03*
X187807600Y-52578000D03*
X186639200Y-61061600D03*
X180721000Y-42672000D03*
X183742000Y-41718000D03*
X175671854Y-51486867D03*
X178212000Y-53318000D03*
X194818000Y-56845200D03*
%TO.N,Net-(Motor-1-Pad1)*%
X186752000Y-65238000D03*
%TD*%
D30*
%TO.N,+V*%
X192884400Y-65078000D02*
X193792000Y-65078000D01*
X190342000Y-59568000D02*
X190342000Y-60618000D01*
X193877200Y-66903600D02*
X193877200Y-65163200D01*
X174592000Y-45800000D02*
X175307000Y-45085000D01*
X177165000Y-50245000D02*
X177165000Y-53620000D01*
X196892000Y-52811600D02*
X196646800Y-53056800D01*
X176602000Y-54208000D02*
X176602000Y-54203000D01*
X191008000Y-65278000D02*
X192684400Y-65278000D01*
X193649600Y-56260400D02*
X190342000Y-59568000D01*
X189692000Y-61849441D02*
X190642480Y-62799921D01*
X175798000Y-39818000D02*
X177949400Y-39818000D01*
X174592000Y-50418000D02*
X174592000Y-45800000D01*
X193877200Y-65163200D02*
X193792000Y-65078000D01*
X196892000Y-49443000D02*
X196892000Y-52811600D01*
X194170600Y-53581000D02*
X193649600Y-54102000D01*
X174710400Y-39818000D02*
X173634400Y-40894000D01*
X190642480Y-64912480D02*
X191008000Y-65278000D01*
X196646800Y-53056800D02*
X195189800Y-53056800D01*
X193649600Y-54102000D02*
X193649600Y-56260400D01*
X195189800Y-53056800D02*
X194665600Y-53581000D01*
X190642480Y-62799921D02*
X190642480Y-64912480D01*
X177949400Y-39818000D02*
X178143400Y-39624000D01*
X173634400Y-43412400D02*
X175307000Y-45085000D01*
X176602000Y-54203000D02*
X176592000Y-54193000D01*
X192684400Y-65278000D02*
X192884400Y-65078000D01*
X190342000Y-60618000D02*
X189692000Y-61268000D01*
X177165000Y-50245000D02*
X178368000Y-50245000D01*
X194665600Y-53581000D02*
X194170600Y-53581000D01*
X173634400Y-40894000D02*
X173634400Y-43412400D01*
X175798000Y-39818000D02*
X174710400Y-39818000D01*
X177165000Y-53620000D02*
X176592000Y-54193000D01*
X173792000Y-54668000D02*
X175092000Y-53368000D01*
X189692000Y-61268000D02*
X189692000Y-61849441D01*
X178368000Y-50245000D02*
X179070000Y-49543000D01*
X173792000Y-55868000D02*
X173792000Y-54668000D01*
%TO.N,-V*%
X180848000Y-49543000D02*
X182051000Y-49543000D01*
X179992000Y-54193000D02*
X179992000Y-52343978D01*
X179992000Y-52343978D02*
X181963978Y-50372000D01*
D31*
X199592000Y-45668000D02*
X198867000Y-45668000D01*
D30*
X179992000Y-62968000D02*
X179992000Y-63343000D01*
X177785000Y-41862000D02*
X178143400Y-41503600D01*
X176642000Y-42706000D02*
X175798000Y-41862000D01*
X196408800Y-62468000D02*
X197916800Y-60960000D01*
X197916800Y-60960000D02*
X197916800Y-58064400D01*
X176642000Y-45807931D02*
X176642000Y-42706000D01*
X193492000Y-49443000D02*
X193492000Y-52621000D01*
D31*
X192465000Y-53514000D02*
X192532000Y-53581000D01*
X189956000Y-53514000D02*
X189342000Y-54128000D01*
D30*
X196242000Y-67568000D02*
X196242000Y-66418000D01*
X175798000Y-41862000D02*
X177946480Y-44010480D01*
X193492000Y-40293000D02*
X193492000Y-49443000D01*
D31*
X190500000Y-53514000D02*
X189945000Y-53514000D01*
D30*
X177946480Y-44010480D02*
X181644480Y-44010480D01*
X175517500Y-46649601D02*
X175800330Y-46649601D01*
D31*
X190500000Y-53514000D02*
X192465000Y-53514000D01*
X199592000Y-56338400D02*
X199491600Y-56438800D01*
D30*
X193492000Y-52621000D02*
X192532000Y-53581000D01*
X174692000Y-57668000D02*
X179992000Y-62968000D01*
D31*
X190500000Y-53514000D02*
X189956000Y-53514000D01*
D30*
X174692000Y-55368000D02*
X174692000Y-57668000D01*
D31*
X199592000Y-45668000D02*
X199592000Y-56338400D01*
D30*
X181963978Y-50372000D02*
X182880000Y-50372000D01*
X181644480Y-44010480D02*
X182812000Y-45178000D01*
X175798000Y-41862000D02*
X177785000Y-41862000D01*
X197916800Y-58064400D02*
X199491600Y-56489600D01*
D31*
X189342000Y-54128000D02*
X189342000Y-57818000D01*
D30*
X175804000Y-41868000D02*
X175798000Y-41862000D01*
X199491600Y-56489600D02*
X199491600Y-56438800D01*
X175800330Y-46649601D02*
X176642000Y-45807931D01*
X196292000Y-62468000D02*
X196408800Y-62468000D01*
X182051000Y-49543000D02*
X182880000Y-50372000D01*
D31*
X198867000Y-45668000D02*
X193492000Y-40293000D01*
%TO.N,Torque_Mode*%
X187325000Y-43210000D02*
X187325000Y-35814000D01*
X186892000Y-43643000D02*
X187325000Y-43210000D01*
%TO.N,Net-(R1-Pad2)*%
X189682000Y-49443000D02*
X189682000Y-48083000D01*
X186892000Y-45293000D02*
X186092480Y-44493480D01*
X186092480Y-44493480D02*
X186092480Y-41867520D01*
X189682000Y-48083000D02*
X186892000Y-45293000D01*
X186092480Y-41867520D02*
X186242000Y-41718000D01*
D30*
%TO.N,Net-(R5-Pad2)*%
X183083200Y-43434000D02*
X184150000Y-43434000D01*
X184912000Y-52673000D02*
X183392000Y-54193000D01*
X179793400Y-41503600D02*
X181152800Y-41503600D01*
X184150000Y-43434000D02*
X184912000Y-44196000D01*
X184912000Y-44196000D02*
X184912000Y-52673000D01*
X179793400Y-39624000D02*
X179793400Y-41503600D01*
X181152800Y-41503600D02*
X183083200Y-43434000D01*
%TO.N,GND*%
X182559000Y-47993000D02*
X182880000Y-47672000D01*
D31*
X176165480Y-47026235D02*
X178007000Y-45184715D01*
X181692000Y-52443000D02*
X182573000Y-51562000D01*
X199632311Y-60186311D02*
X199632311Y-66915289D01*
X183896000Y-51562000D02*
X184150000Y-51308000D01*
X184150000Y-48942000D02*
X182880000Y-47672000D01*
X197199600Y-64268000D02*
X196242000Y-64268000D01*
D30*
X190577200Y-67103200D02*
X191642000Y-68168000D01*
X180112000Y-45178000D02*
X180386000Y-45178000D01*
D31*
X186639200Y-61061600D02*
X187807600Y-59893200D01*
X178007000Y-45184715D02*
X178007000Y-45085000D01*
D30*
X180386000Y-45178000D02*
X182880000Y-47672000D01*
D31*
X199745600Y-60299600D02*
X199745600Y-61722000D01*
X180006000Y-45085000D02*
X178007000Y-45085000D01*
D30*
X194665600Y-56692800D02*
X194818000Y-56845200D01*
D31*
X183742000Y-40068000D02*
X184992000Y-38818000D01*
D30*
X194792000Y-65718000D02*
X194792000Y-68067022D01*
X180848000Y-47993000D02*
X182559000Y-47993000D01*
D31*
X178622000Y-47545000D02*
X179070000Y-47993000D01*
X199632311Y-66915289D02*
X196392800Y-70154800D01*
X176152241Y-51006480D02*
X175671854Y-51486867D01*
X178212000Y-54113000D02*
X178292000Y-54193000D01*
X198932800Y-59486800D02*
X199745600Y-60299600D01*
D30*
X196646800Y-55756800D02*
X195291400Y-55756800D01*
D31*
X183742000Y-41718000D02*
X183742000Y-40068000D01*
D30*
X194665600Y-55131000D02*
X194665600Y-56692800D01*
X196242000Y-64268000D02*
X194792000Y-65718000D01*
D31*
X199745600Y-61722000D02*
X197199600Y-64268000D01*
X187807600Y-59893200D02*
X187807600Y-52578000D01*
X176215480Y-48494520D02*
X177165000Y-47545000D01*
X176215480Y-49748424D02*
X176215480Y-48494520D01*
D30*
X194691022Y-68168000D02*
X191642000Y-68168000D01*
D31*
X171958000Y-54005904D02*
X176215480Y-49748424D01*
D30*
X192532000Y-55131000D02*
X191583000Y-55131000D01*
D31*
X171958000Y-70154800D02*
X171958000Y-54005904D01*
X176165480Y-51006480D02*
X176165480Y-47026235D01*
D30*
X195291400Y-55756800D02*
X194665600Y-55131000D01*
D31*
X194619200Y-56845200D02*
X194818000Y-56845200D01*
X184150000Y-51308000D02*
X184150000Y-48942000D01*
X181692000Y-54193000D02*
X181692000Y-52443000D01*
D30*
X190577200Y-66903600D02*
X190577200Y-67103200D01*
X191583000Y-55131000D02*
X190500000Y-56214000D01*
D31*
X196392800Y-70154800D02*
X171958000Y-70154800D01*
X191008000Y-57277000D02*
X191008000Y-56722000D01*
X198932800Y-59486800D02*
X199632311Y-60186311D01*
X176165480Y-51006480D02*
X176152241Y-51006480D01*
X177165000Y-47545000D02*
X178622000Y-47545000D01*
D30*
X194792000Y-68067022D02*
X194691022Y-68168000D01*
D31*
X191008000Y-56722000D02*
X190500000Y-56214000D01*
X178212000Y-53318000D02*
X178212000Y-54113000D01*
X182573000Y-51562000D02*
X183896000Y-51562000D01*
D30*
%TO.N,Net-(Motor-1-Pad1)*%
X191747480Y-52232520D02*
X191747480Y-49443000D01*
X186752000Y-65238000D02*
X187822000Y-65238000D01*
X188492000Y-53388000D02*
X189522000Y-52358000D01*
X186752000Y-65238000D02*
X188492000Y-63498000D01*
X191622000Y-52358000D02*
X191747480Y-52232520D01*
X189522000Y-52358000D02*
X191622000Y-52358000D01*
X187822000Y-65238000D02*
X189492000Y-63568000D01*
X188492000Y-63498000D02*
X188492000Y-53388000D01*
%TO.N,Net-(D1-Pad2)*%
X198272000Y-56540800D02*
X198272000Y-52169441D01*
X196646800Y-57658000D02*
X197154800Y-57658000D01*
X197154800Y-57658000D02*
X198272000Y-56540800D01*
X193642000Y-59568000D02*
X193642000Y-61780400D01*
X196292000Y-59168000D02*
X196292000Y-58012800D01*
X196177000Y-46708000D02*
X195192000Y-47693000D01*
X195892000Y-59568000D02*
X196292000Y-59168000D01*
X195192000Y-47693000D02*
X195192000Y-49443000D01*
X198272000Y-46708000D02*
X196177000Y-46708000D01*
X198272000Y-52169441D02*
X198272000Y-46708000D01*
X193642000Y-61780400D02*
X191820800Y-63601600D01*
X193642000Y-59568000D02*
X195892000Y-59568000D01*
X196292000Y-58012800D02*
X196646800Y-57658000D01*
%TD*%
%TA.AperFunction,Conductor*%
%TO.N,-V*%
G36*
X187116221Y-57278002D02*
G01*
X187162714Y-57331658D01*
X187174100Y-57384000D01*
X187174100Y-59578605D01*
X187154098Y-59646726D01*
X187137195Y-59667701D01*
X186688699Y-60116196D01*
X186626387Y-60150221D01*
X186599604Y-60153100D01*
X186543713Y-60153100D01*
X186537261Y-60154472D01*
X186537256Y-60154472D01*
X186450312Y-60172953D01*
X186356912Y-60192806D01*
X186350882Y-60195491D01*
X186350881Y-60195491D01*
X186188478Y-60267797D01*
X186188476Y-60267798D01*
X186182448Y-60270482D01*
X186177107Y-60274362D01*
X186177106Y-60274363D01*
X186153320Y-60291645D01*
X186027947Y-60382734D01*
X186023526Y-60387644D01*
X186023525Y-60387645D01*
X185928335Y-60493365D01*
X185900160Y-60524656D01*
X185804673Y-60690044D01*
X185745658Y-60871672D01*
X185744968Y-60878233D01*
X185744968Y-60878235D01*
X185735973Y-60963815D01*
X185725696Y-61061600D01*
X185726386Y-61068165D01*
X185744562Y-61241097D01*
X185745658Y-61251528D01*
X185804673Y-61433156D01*
X185900160Y-61598544D01*
X186027947Y-61740466D01*
X186182448Y-61852718D01*
X186188476Y-61855402D01*
X186188478Y-61855403D01*
X186350881Y-61927709D01*
X186356912Y-61930394D01*
X186450313Y-61950247D01*
X186537256Y-61968728D01*
X186537261Y-61968728D01*
X186543713Y-61970100D01*
X186734687Y-61970100D01*
X186741139Y-61968728D01*
X186741144Y-61968728D01*
X186828087Y-61950247D01*
X186921488Y-61930394D01*
X186927519Y-61927709D01*
X187089922Y-61855403D01*
X187089924Y-61855402D01*
X187095952Y-61852718D01*
X187250453Y-61740466D01*
X187378240Y-61598544D01*
X187473727Y-61433156D01*
X187532742Y-61251528D01*
X187533432Y-61244965D01*
X187534254Y-61241097D01*
X187567982Y-61178624D01*
X187630132Y-61144303D01*
X187700971Y-61149032D01*
X187758009Y-61191308D01*
X187783135Y-61257710D01*
X187783500Y-61267295D01*
X187783500Y-63152339D01*
X187763498Y-63220460D01*
X187746595Y-63241434D01*
X186685467Y-64302563D01*
X186622569Y-64336715D01*
X186469712Y-64369206D01*
X186463682Y-64371891D01*
X186463681Y-64371891D01*
X186301278Y-64444197D01*
X186301276Y-64444198D01*
X186295248Y-64446882D01*
X186140747Y-64559134D01*
X186136326Y-64564044D01*
X186136325Y-64564045D01*
X186018569Y-64694827D01*
X186012960Y-64701056D01*
X185969356Y-64776580D01*
X185923371Y-64856229D01*
X185917473Y-64866444D01*
X185858458Y-65048072D01*
X185857768Y-65054633D01*
X185857768Y-65054635D01*
X185845457Y-65171767D01*
X185838496Y-65238000D01*
X185839186Y-65244565D01*
X185847795Y-65326471D01*
X185858458Y-65427928D01*
X185917473Y-65609556D01*
X186012960Y-65774944D01*
X186017378Y-65779851D01*
X186017379Y-65779852D01*
X186120367Y-65894232D01*
X186140747Y-65916866D01*
X186295248Y-66029118D01*
X186301276Y-66031802D01*
X186301278Y-66031803D01*
X186376521Y-66065303D01*
X186469712Y-66106794D01*
X186563112Y-66126647D01*
X186650056Y-66145128D01*
X186650061Y-66145128D01*
X186656513Y-66146500D01*
X186847487Y-66146500D01*
X186853939Y-66145128D01*
X186853944Y-66145128D01*
X186940888Y-66126647D01*
X187034288Y-66106794D01*
X187127479Y-66065303D01*
X187202722Y-66031803D01*
X187202724Y-66031802D01*
X187208752Y-66029118D01*
X187289344Y-65970564D01*
X187356211Y-65946706D01*
X187363405Y-65946500D01*
X187793088Y-65946500D01*
X187801658Y-65946792D01*
X187851776Y-65950209D01*
X187851780Y-65950209D01*
X187859352Y-65950725D01*
X187866829Y-65949420D01*
X187866830Y-65949420D01*
X187893308Y-65944799D01*
X187922303Y-65939738D01*
X187928821Y-65938777D01*
X187992242Y-65931102D01*
X187999343Y-65928419D01*
X188001952Y-65927778D01*
X188018262Y-65923315D01*
X188020798Y-65922550D01*
X188028284Y-65921243D01*
X188086800Y-65895556D01*
X188092904Y-65893065D01*
X188145548Y-65873173D01*
X188145549Y-65873172D01*
X188152656Y-65870487D01*
X188158919Y-65866183D01*
X188161285Y-65864946D01*
X188176097Y-65856701D01*
X188178351Y-65855368D01*
X188185305Y-65852315D01*
X188236002Y-65813413D01*
X188241332Y-65809541D01*
X188287720Y-65777661D01*
X188287725Y-65777656D01*
X188293981Y-65773357D01*
X188335436Y-65726829D01*
X188340416Y-65721554D01*
X188964387Y-65097583D01*
X189026699Y-65063557D01*
X189079899Y-65063478D01*
X189080602Y-65063629D01*
X189087139Y-65065797D01*
X189093982Y-65066498D01*
X189093986Y-65066499D01*
X189148665Y-65072101D01*
X189191600Y-65076500D01*
X189792400Y-65076500D01*
X189795646Y-65076163D01*
X189795650Y-65076163D01*
X189823358Y-65073288D01*
X189842796Y-65071271D01*
X189912616Y-65084136D01*
X189964399Y-65132706D01*
X189971172Y-65145952D01*
X189984922Y-65177275D01*
X189987415Y-65183384D01*
X190005572Y-65231435D01*
X190009993Y-65243136D01*
X190014297Y-65249399D01*
X190015534Y-65251765D01*
X190023779Y-65266577D01*
X190025112Y-65268831D01*
X190028165Y-65275785D01*
X190032787Y-65281808D01*
X190067059Y-65326471D01*
X190070939Y-65331812D01*
X190102819Y-65378200D01*
X190102824Y-65378205D01*
X190107123Y-65384461D01*
X190112792Y-65389511D01*
X190112792Y-65389512D01*
X190153649Y-65425914D01*
X190158925Y-65430896D01*
X190308034Y-65580005D01*
X190342060Y-65642317D01*
X190336995Y-65713132D01*
X190294448Y-65769968D01*
X190227928Y-65794779D01*
X190218939Y-65795100D01*
X190079066Y-65795100D01*
X190016884Y-65801855D01*
X189880495Y-65852985D01*
X189763939Y-65940339D01*
X189676585Y-66056895D01*
X189625455Y-66193284D01*
X189618700Y-66255466D01*
X189618700Y-67551734D01*
X189625455Y-67613916D01*
X189676585Y-67750305D01*
X189763939Y-67866861D01*
X189880495Y-67954215D01*
X190016884Y-68005345D01*
X190079066Y-68012100D01*
X190431940Y-68012100D01*
X190500061Y-68032102D01*
X190521035Y-68049005D01*
X190614635Y-68142605D01*
X190648661Y-68204917D01*
X190643596Y-68275732D01*
X190601049Y-68332568D01*
X190534529Y-68357379D01*
X190525540Y-68357700D01*
X189874466Y-68357700D01*
X189812284Y-68364455D01*
X189675895Y-68415585D01*
X189559339Y-68502939D01*
X189471985Y-68619495D01*
X189420855Y-68755884D01*
X189414100Y-68818066D01*
X189414100Y-69395300D01*
X189394098Y-69463421D01*
X189340442Y-69509914D01*
X189288100Y-69521300D01*
X172717500Y-69521300D01*
X172649379Y-69501298D01*
X172602886Y-69447642D01*
X172591500Y-69395300D01*
X172591500Y-57384000D01*
X172611502Y-57315879D01*
X172665158Y-57269386D01*
X172717500Y-57258000D01*
X187048100Y-57258000D01*
X187116221Y-57278002D01*
G37*
%TD.AperFunction*%
%TA.AperFunction,Conductor*%
G36*
X198916844Y-63550828D02*
G01*
X198973679Y-63593375D01*
X198998490Y-63659895D01*
X198998811Y-63668884D01*
X198998811Y-66600694D01*
X198978809Y-66668815D01*
X198961906Y-66689789D01*
X196480063Y-69171632D01*
X196417751Y-69205658D01*
X196346936Y-69200593D01*
X196290100Y-69158046D01*
X196267722Y-69108734D01*
X196266420Y-69102607D01*
X196265730Y-69096045D01*
X196205092Y-68909420D01*
X196106977Y-68739480D01*
X195975674Y-68593653D01*
X195816921Y-68478312D01*
X195810893Y-68475628D01*
X195810891Y-68475627D01*
X195643687Y-68401183D01*
X195643686Y-68401183D01*
X195637656Y-68398498D01*
X195581407Y-68386542D01*
X195518934Y-68352814D01*
X195484612Y-68290664D01*
X195485354Y-68244785D01*
X195483282Y-68244512D01*
X195491622Y-68181161D01*
X195492654Y-68174645D01*
X195502911Y-68119303D01*
X195504295Y-68111836D01*
X195500709Y-68049642D01*
X195500500Y-68042389D01*
X195500500Y-66063660D01*
X195520502Y-65995539D01*
X195537405Y-65974565D01*
X196248565Y-65263405D01*
X196310877Y-65229379D01*
X196337660Y-65226500D01*
X196890134Y-65226500D01*
X196952316Y-65219745D01*
X197088705Y-65168615D01*
X197205261Y-65081261D01*
X197292615Y-64964705D01*
X197295967Y-64955764D01*
X197296306Y-64955313D01*
X197300077Y-64948425D01*
X197301071Y-64948969D01*
X197338610Y-64899001D01*
X197367563Y-64882846D01*
X197399510Y-64870197D01*
X197410742Y-64866351D01*
X197445583Y-64856229D01*
X197445584Y-64856229D01*
X197453193Y-64854018D01*
X197460012Y-64849985D01*
X197460017Y-64849983D01*
X197470628Y-64843707D01*
X197488376Y-64835012D01*
X197507217Y-64827552D01*
X197542987Y-64801564D01*
X197552907Y-64795048D01*
X197584135Y-64776580D01*
X197584138Y-64776578D01*
X197590962Y-64772542D01*
X197605283Y-64758221D01*
X197620317Y-64745380D01*
X197630294Y-64738131D01*
X197636707Y-64733472D01*
X197664898Y-64699395D01*
X197672888Y-64690616D01*
X198783716Y-63579789D01*
X198846028Y-63545763D01*
X198916844Y-63550828D01*
G37*
%TD.AperFunction*%
%TA.AperFunction,Conductor*%
G36*
X197917332Y-58001605D02*
G01*
X197974168Y-58044152D01*
X197998979Y-58110672D01*
X197999300Y-58119661D01*
X197999300Y-58959934D01*
X198006055Y-59022116D01*
X198008827Y-59029512D01*
X198008829Y-59029518D01*
X198042116Y-59118311D01*
X198047299Y-59189118D01*
X198043967Y-59201475D01*
X198016711Y-59285363D01*
X198014670Y-59291645D01*
X197994158Y-59486800D01*
X198014670Y-59681955D01*
X198016710Y-59688233D01*
X198016710Y-59688234D01*
X198032138Y-59735715D01*
X198075308Y-59868580D01*
X198078611Y-59874302D01*
X198078612Y-59874303D01*
X198107189Y-59923800D01*
X198123927Y-59992796D01*
X198107189Y-60049800D01*
X198094507Y-60071767D01*
X198075308Y-60105020D01*
X198068449Y-60126131D01*
X198022101Y-60268776D01*
X198014670Y-60291645D01*
X197994158Y-60486800D01*
X197994848Y-60493365D01*
X198012670Y-60662922D01*
X198014670Y-60681955D01*
X198016710Y-60688233D01*
X198016710Y-60688234D01*
X198029915Y-60728874D01*
X198075308Y-60868580D01*
X198173423Y-61038520D01*
X198177841Y-61043427D01*
X198177842Y-61043428D01*
X198268670Y-61144303D01*
X198304726Y-61184347D01*
X198310068Y-61188228D01*
X198310070Y-61188230D01*
X198405701Y-61257710D01*
X198463479Y-61299688D01*
X198469507Y-61302372D01*
X198469509Y-61302373D01*
X198636713Y-61376817D01*
X198642744Y-61379502D01*
X198738715Y-61399901D01*
X198828228Y-61418928D01*
X198828232Y-61418928D01*
X198834685Y-61420300D01*
X198847206Y-61420300D01*
X198915327Y-61440302D01*
X198961820Y-61493958D01*
X198971924Y-61564232D01*
X198942430Y-61628812D01*
X198936301Y-61635395D01*
X197229247Y-63342449D01*
X197166935Y-63376475D01*
X197096120Y-63371410D01*
X197090874Y-63369011D01*
X197088705Y-63367385D01*
X197081022Y-63364505D01*
X197081016Y-63364502D01*
X196997606Y-63333234D01*
X196952316Y-63316255D01*
X196890134Y-63309500D01*
X195593866Y-63309500D01*
X195531684Y-63316255D01*
X195395295Y-63367385D01*
X195278739Y-63454739D01*
X195191385Y-63571295D01*
X195140255Y-63707684D01*
X195133500Y-63769866D01*
X195133500Y-64322338D01*
X195113498Y-64390459D01*
X195096596Y-64411433D01*
X194943985Y-64564045D01*
X194806715Y-64701315D01*
X194744402Y-64735340D01*
X194673587Y-64730276D01*
X194616751Y-64687729D01*
X194608500Y-64675220D01*
X194541477Y-64559134D01*
X194531040Y-64541056D01*
X194446246Y-64446882D01*
X194407675Y-64404045D01*
X194407674Y-64404044D01*
X194403253Y-64399134D01*
X194270335Y-64302563D01*
X194254094Y-64290763D01*
X194254093Y-64290762D01*
X194248752Y-64286882D01*
X194242724Y-64284198D01*
X194242722Y-64284197D01*
X194080319Y-64211891D01*
X194080318Y-64211891D01*
X194074288Y-64209206D01*
X193980887Y-64189353D01*
X193893944Y-64170872D01*
X193893939Y-64170872D01*
X193887487Y-64169500D01*
X193696513Y-64169500D01*
X193690061Y-64170872D01*
X193690056Y-64170872D01*
X193603113Y-64189353D01*
X193509712Y-64209206D01*
X193503682Y-64211891D01*
X193503681Y-64211891D01*
X193341278Y-64284197D01*
X193341276Y-64284198D01*
X193335248Y-64286882D01*
X193329907Y-64290762D01*
X193329906Y-64290763D01*
X193254656Y-64345436D01*
X193187789Y-64369294D01*
X193180595Y-64369500D01*
X192955300Y-64369500D01*
X192887179Y-64349498D01*
X192840686Y-64295842D01*
X192829300Y-64243500D01*
X192829300Y-63647260D01*
X192849302Y-63579139D01*
X192866205Y-63558165D01*
X194122520Y-62301850D01*
X194128785Y-62295996D01*
X194166660Y-62262955D01*
X194172385Y-62257961D01*
X194209114Y-62205700D01*
X194213046Y-62200405D01*
X194247791Y-62156094D01*
X194252477Y-62150118D01*
X194255602Y-62143196D01*
X194256964Y-62140948D01*
X194265368Y-62126215D01*
X194266622Y-62123876D01*
X194270990Y-62117661D01*
X194273749Y-62110585D01*
X194273751Y-62110581D01*
X194294200Y-62058131D01*
X194296749Y-62052066D01*
X194323045Y-61993827D01*
X194324429Y-61986362D01*
X194325226Y-61983818D01*
X194329859Y-61967552D01*
X194330521Y-61964972D01*
X194333282Y-61957891D01*
X194341622Y-61894543D01*
X194342653Y-61888029D01*
X194352912Y-61832678D01*
X194354296Y-61825213D01*
X194350709Y-61763002D01*
X194350500Y-61755749D01*
X194350500Y-60672802D01*
X194370502Y-60604681D01*
X194400935Y-60571976D01*
X194448081Y-60536642D01*
X194455261Y-60531261D01*
X194542615Y-60414705D01*
X194550334Y-60394114D01*
X194563772Y-60358270D01*
X194606414Y-60301505D01*
X194672976Y-60276806D01*
X194681754Y-60276500D01*
X195863088Y-60276500D01*
X195871658Y-60276792D01*
X195921776Y-60280209D01*
X195921780Y-60280209D01*
X195929352Y-60280725D01*
X195936829Y-60279420D01*
X195936830Y-60279420D01*
X195988168Y-60270460D01*
X195992303Y-60269738D01*
X195998821Y-60268777D01*
X196062242Y-60261102D01*
X196069343Y-60258419D01*
X196071952Y-60257778D01*
X196088262Y-60253315D01*
X196090798Y-60252550D01*
X196098284Y-60251243D01*
X196156800Y-60225556D01*
X196162904Y-60223065D01*
X196215548Y-60203173D01*
X196215549Y-60203172D01*
X196222656Y-60200487D01*
X196228919Y-60196183D01*
X196231285Y-60194946D01*
X196246097Y-60186701D01*
X196248352Y-60185367D01*
X196255305Y-60182315D01*
X196261324Y-60177696D01*
X196261333Y-60177691D01*
X196294110Y-60152539D01*
X196360330Y-60126937D01*
X196370815Y-60126500D01*
X196940134Y-60126500D01*
X197002316Y-60119745D01*
X197138705Y-60068615D01*
X197255261Y-59981261D01*
X197342615Y-59864705D01*
X197393745Y-59728316D01*
X197400500Y-59666134D01*
X197400500Y-58669866D01*
X197393745Y-58607684D01*
X197345222Y-58478249D01*
X197340039Y-58407443D01*
X197373960Y-58345074D01*
X197412556Y-58318648D01*
X197419619Y-58315548D01*
X197425704Y-58313065D01*
X197478348Y-58293173D01*
X197478349Y-58293172D01*
X197485456Y-58290487D01*
X197491719Y-58286183D01*
X197494085Y-58284946D01*
X197508897Y-58276701D01*
X197511151Y-58275368D01*
X197518105Y-58272315D01*
X197568802Y-58233413D01*
X197574132Y-58229541D01*
X197620520Y-58197661D01*
X197620525Y-58197656D01*
X197626781Y-58193357D01*
X197668227Y-58146839D01*
X197673208Y-58141563D01*
X197784205Y-58030566D01*
X197846517Y-57996540D01*
X197917332Y-58001605D01*
G37*
%TD.AperFunction*%
%TA.AperFunction,Conductor*%
G36*
X189623492Y-57276740D02*
G01*
X189686987Y-57315879D01*
X189712586Y-57331658D01*
X189752262Y-57356115D01*
X189813507Y-57376429D01*
X189913611Y-57409632D01*
X189913613Y-57409632D01*
X189920139Y-57411797D01*
X189926975Y-57412497D01*
X189926978Y-57412498D01*
X190020988Y-57422130D01*
X190086715Y-57448971D01*
X190127978Y-57508538D01*
X190173473Y-57648556D01*
X190268960Y-57813944D01*
X190396747Y-57955866D01*
X190403153Y-57960520D01*
X190504036Y-58033816D01*
X190551248Y-58068118D01*
X190557276Y-58070802D01*
X190557278Y-58070803D01*
X190583503Y-58082479D01*
X190637599Y-58128460D01*
X190658248Y-58196387D01*
X190638895Y-58264695D01*
X190621349Y-58286681D01*
X190485435Y-58422595D01*
X190423123Y-58456621D01*
X190396340Y-58459500D01*
X189843866Y-58459500D01*
X189781684Y-58466255D01*
X189645295Y-58517385D01*
X189528739Y-58604739D01*
X189441385Y-58721295D01*
X189438236Y-58729696D01*
X189437019Y-58731918D01*
X189386760Y-58782064D01*
X189317369Y-58797077D01*
X189250877Y-58772191D01*
X189208395Y-58715307D01*
X189200500Y-58671408D01*
X189200500Y-57384000D01*
X189220502Y-57315879D01*
X189274158Y-57269386D01*
X189326500Y-57258000D01*
X189557377Y-57258000D01*
X189623492Y-57276740D01*
G37*
%TD.AperFunction*%
%TD*%
%TA.AperFunction,Conductor*%
%TO.N,-V*%
G36*
X199605194Y-34056799D02*
G01*
X199651715Y-34110431D01*
X199663129Y-34162906D01*
X199656095Y-46222073D01*
X199636053Y-46290183D01*
X199582370Y-46336644D01*
X199530095Y-46348000D01*
X198955487Y-46348000D01*
X198887366Y-46327998D01*
X198860539Y-46304831D01*
X198837555Y-46278484D01*
X198828664Y-46267021D01*
X198811661Y-46242280D01*
X198811656Y-46242275D01*
X198807357Y-46236019D01*
X198782537Y-46213905D01*
X198771412Y-46202662D01*
X198754557Y-46183341D01*
X198754553Y-46183338D01*
X198749561Y-46177615D01*
X198743347Y-46173247D01*
X198743344Y-46173245D01*
X198718778Y-46155979D01*
X198707414Y-46146972D01*
X198691259Y-46132579D01*
X198679321Y-46121943D01*
X198672612Y-46118391D01*
X198672608Y-46118388D01*
X198649946Y-46106389D01*
X198636459Y-46098124D01*
X198615481Y-46083381D01*
X198615478Y-46083379D01*
X198609261Y-46079010D01*
X198602180Y-46076249D01*
X198602176Y-46076247D01*
X198574210Y-46065343D01*
X198561023Y-46059306D01*
X198534482Y-46045254D01*
X198534480Y-46045253D01*
X198527769Y-46041700D01*
X198520409Y-46039851D01*
X198520403Y-46039849D01*
X198495534Y-46033603D01*
X198480457Y-46028791D01*
X198456573Y-46019479D01*
X198456572Y-46019479D01*
X198449491Y-46016718D01*
X198441961Y-46015727D01*
X198441958Y-46015726D01*
X198412193Y-46011808D01*
X198397941Y-46009090D01*
X198390508Y-46007223D01*
X198361451Y-45999924D01*
X198353853Y-45999884D01*
X198353852Y-45999884D01*
X198347239Y-45999849D01*
X198321324Y-45999713D01*
X198319965Y-45999665D01*
X198318706Y-45999500D01*
X198280762Y-45999500D01*
X198280102Y-45999498D01*
X198194372Y-45999049D01*
X198194371Y-45999049D01*
X198189969Y-45999026D01*
X198188452Y-45999390D01*
X198186550Y-45999500D01*
X196205912Y-45999500D01*
X196197342Y-45999208D01*
X196147224Y-45995791D01*
X196147220Y-45995791D01*
X196139648Y-45995275D01*
X196132171Y-45996580D01*
X196132170Y-45996580D01*
X196103981Y-46001500D01*
X196076703Y-46006261D01*
X196070186Y-46007222D01*
X196006758Y-46014898D01*
X195999650Y-46017584D01*
X195997056Y-46018221D01*
X195980750Y-46022682D01*
X195978199Y-46023452D01*
X195970716Y-46024758D01*
X195963764Y-46027810D01*
X195963763Y-46027810D01*
X195912212Y-46050439D01*
X195906105Y-46052931D01*
X195880242Y-46062704D01*
X195846344Y-46075513D01*
X195840083Y-46079816D01*
X195837717Y-46081053D01*
X195822937Y-46089280D01*
X195820652Y-46090631D01*
X195813695Y-46093685D01*
X195807675Y-46098305D01*
X195807669Y-46098308D01*
X195781502Y-46118388D01*
X195762998Y-46132587D01*
X195757668Y-46136459D01*
X195711280Y-46168339D01*
X195711275Y-46168344D01*
X195705019Y-46172643D01*
X195699968Y-46178313D01*
X195699966Y-46178314D01*
X195663565Y-46219170D01*
X195658584Y-46224446D01*
X195571935Y-46311095D01*
X195509623Y-46345121D01*
X195482840Y-46348000D01*
X188895095Y-46348000D01*
X188826974Y-46327998D01*
X188806000Y-46311095D01*
X187912405Y-45417500D01*
X187878379Y-45355188D01*
X187875500Y-45328405D01*
X187875499Y-45039249D01*
X187875499Y-45036366D01*
X187868753Y-44962938D01*
X187817472Y-44799301D01*
X187728639Y-44652619D01*
X187633115Y-44557095D01*
X187599089Y-44494783D01*
X187604154Y-44423968D01*
X187633115Y-44378905D01*
X187728639Y-44283381D01*
X187817472Y-44136699D01*
X187868753Y-43973062D01*
X187875500Y-43899635D01*
X187875499Y-43559087D01*
X187885862Y-43509047D01*
X187892170Y-43494470D01*
X187897383Y-43483827D01*
X187918695Y-43445060D01*
X187920666Y-43437383D01*
X187920668Y-43437378D01*
X187923732Y-43425442D01*
X187930138Y-43406730D01*
X187935034Y-43395417D01*
X187938181Y-43388145D01*
X187943471Y-43354749D01*
X187945097Y-43344481D01*
X187947504Y-43332860D01*
X187956528Y-43297711D01*
X187956528Y-43297710D01*
X187958500Y-43290030D01*
X187958500Y-43269769D01*
X187960051Y-43250058D01*
X187961979Y-43237885D01*
X187963219Y-43230057D01*
X187959059Y-43186046D01*
X187958500Y-43174189D01*
X187958500Y-36516524D01*
X187978502Y-36448403D01*
X187990858Y-36432221D01*
X188064040Y-36350944D01*
X188159527Y-36185556D01*
X188218542Y-36003928D01*
X188238504Y-35814000D01*
X188218542Y-35624072D01*
X188159527Y-35442444D01*
X188064040Y-35277056D01*
X187936253Y-35135134D01*
X187781752Y-35022882D01*
X187775724Y-35020198D01*
X187775722Y-35020197D01*
X187613319Y-34947891D01*
X187613318Y-34947891D01*
X187607288Y-34945206D01*
X187513888Y-34925353D01*
X187426944Y-34906872D01*
X187426939Y-34906872D01*
X187420487Y-34905500D01*
X187229513Y-34905500D01*
X187223061Y-34906872D01*
X187223056Y-34906872D01*
X187136112Y-34925353D01*
X187042712Y-34945206D01*
X187036682Y-34947891D01*
X187036681Y-34947891D01*
X186874278Y-35020197D01*
X186874276Y-35020198D01*
X186868248Y-35022882D01*
X186713747Y-35135134D01*
X186585960Y-35277056D01*
X186490473Y-35442444D01*
X186431458Y-35624072D01*
X186411496Y-35814000D01*
X186431458Y-36003928D01*
X186490473Y-36185556D01*
X186585960Y-36350944D01*
X186659137Y-36432215D01*
X186689853Y-36496221D01*
X186691500Y-36516524D01*
X186691500Y-37740144D01*
X186671498Y-37808265D01*
X186617842Y-37854758D01*
X186547568Y-37864862D01*
X186482988Y-37835368D01*
X186447518Y-37784373D01*
X186445768Y-37779705D01*
X186445767Y-37779703D01*
X186442615Y-37771295D01*
X186355261Y-37654739D01*
X186238705Y-37567385D01*
X186102316Y-37516255D01*
X186040134Y-37509500D01*
X183943866Y-37509500D01*
X183881684Y-37516255D01*
X183745295Y-37567385D01*
X183628739Y-37654739D01*
X183541385Y-37771295D01*
X183490255Y-37907684D01*
X183483500Y-37969866D01*
X183483500Y-39378405D01*
X183463498Y-39446526D01*
X183446595Y-39467500D01*
X183349747Y-39564348D01*
X183341461Y-39571888D01*
X183334982Y-39576000D01*
X183329557Y-39581777D01*
X183288357Y-39625651D01*
X183285602Y-39628493D01*
X183265865Y-39648230D01*
X183263385Y-39651427D01*
X183255682Y-39660447D01*
X183225414Y-39692679D01*
X183221595Y-39699625D01*
X183221593Y-39699628D01*
X183215652Y-39710434D01*
X183204801Y-39726953D01*
X183192386Y-39742959D01*
X183189241Y-39750228D01*
X183189238Y-39750232D01*
X183174826Y-39783537D01*
X183169609Y-39794187D01*
X183148305Y-39832940D01*
X183146334Y-39840615D01*
X183146334Y-39840616D01*
X183143267Y-39852562D01*
X183136863Y-39871266D01*
X183128819Y-39889855D01*
X183127580Y-39897678D01*
X183127577Y-39897688D01*
X183121901Y-39933524D01*
X183119495Y-39945144D01*
X183112066Y-39974081D01*
X183108500Y-39987970D01*
X183108500Y-40008224D01*
X183106949Y-40027934D01*
X183103780Y-40047943D01*
X183104526Y-40055835D01*
X183107941Y-40091961D01*
X183108500Y-40103819D01*
X183108500Y-40289425D01*
X183088498Y-40357546D01*
X183034842Y-40404039D01*
X182996108Y-40414688D01*
X182995037Y-40414804D01*
X182981684Y-40416255D01*
X182845295Y-40467385D01*
X182728739Y-40554739D01*
X182641385Y-40671295D01*
X182590255Y-40807684D01*
X182583500Y-40869866D01*
X182583500Y-41628140D01*
X182563498Y-41696261D01*
X182509842Y-41742754D01*
X182439568Y-41752858D01*
X182374988Y-41723364D01*
X182368405Y-41717235D01*
X181674250Y-41023080D01*
X181668396Y-41016815D01*
X181668001Y-41016362D01*
X181630361Y-40973215D01*
X181578080Y-40936471D01*
X181572786Y-40932539D01*
X181528493Y-40897809D01*
X181522518Y-40893124D01*
X181515602Y-40890001D01*
X181513316Y-40888617D01*
X181498635Y-40880243D01*
X181496275Y-40878978D01*
X181490061Y-40874610D01*
X181482982Y-40871850D01*
X181482980Y-40871849D01*
X181430525Y-40851398D01*
X181424456Y-40848847D01*
X181366227Y-40822555D01*
X181358760Y-40821171D01*
X181356205Y-40820370D01*
X181339952Y-40815741D01*
X181337372Y-40815078D01*
X181330291Y-40812318D01*
X181322760Y-40811327D01*
X181322758Y-40811326D01*
X181293139Y-40807427D01*
X181266939Y-40803978D01*
X181260441Y-40802948D01*
X181197614Y-40791304D01*
X181190034Y-40791741D01*
X181190033Y-40791741D01*
X181135408Y-40794891D01*
X181128154Y-40795100D01*
X180627900Y-40795100D01*
X180559779Y-40775098D01*
X180513286Y-40721442D01*
X180501900Y-40669100D01*
X180501900Y-40444710D01*
X180521902Y-40376589D01*
X180538805Y-40355615D01*
X180555039Y-40339381D01*
X180643872Y-40192699D01*
X180695153Y-40029062D01*
X180701900Y-39955635D01*
X180701899Y-39292366D01*
X180700611Y-39278339D01*
X180695764Y-39225592D01*
X180695153Y-39218938D01*
X180643872Y-39055301D01*
X180555039Y-38908619D01*
X180433781Y-38787361D01*
X180287099Y-38698528D01*
X180279852Y-38696257D01*
X180279850Y-38696256D01*
X180213564Y-38675483D01*
X180123462Y-38647247D01*
X180050035Y-38640500D01*
X180047137Y-38640500D01*
X179792735Y-38640501D01*
X179536766Y-38640501D01*
X179533908Y-38640764D01*
X179533899Y-38640764D01*
X179498396Y-38644026D01*
X179463338Y-38647247D01*
X179456960Y-38649246D01*
X179456959Y-38649246D01*
X179306950Y-38696256D01*
X179306948Y-38696257D01*
X179299701Y-38698528D01*
X179153019Y-38787361D01*
X179057495Y-38882885D01*
X178995183Y-38916911D01*
X178924368Y-38911846D01*
X178879305Y-38882885D01*
X178783781Y-38787361D01*
X178637099Y-38698528D01*
X178629852Y-38696257D01*
X178629850Y-38696256D01*
X178563564Y-38675483D01*
X178473462Y-38647247D01*
X178400035Y-38640500D01*
X178397137Y-38640500D01*
X178142735Y-38640501D01*
X177886766Y-38640501D01*
X177883908Y-38640764D01*
X177883899Y-38640764D01*
X177848396Y-38644026D01*
X177813338Y-38647247D01*
X177806960Y-38649246D01*
X177806959Y-38649246D01*
X177656950Y-38696256D01*
X177656948Y-38696257D01*
X177649701Y-38698528D01*
X177503019Y-38787361D01*
X177381761Y-38908619D01*
X177377824Y-38915120D01*
X177306443Y-39032985D01*
X177254046Y-39080892D01*
X177184066Y-39092865D01*
X177118722Y-39065104D01*
X177109649Y-39056887D01*
X177026483Y-38973866D01*
X177021303Y-38968695D01*
X177015072Y-38964854D01*
X176876968Y-38879725D01*
X176876966Y-38879724D01*
X176870738Y-38875885D01*
X176710254Y-38822655D01*
X176709389Y-38822368D01*
X176709387Y-38822368D01*
X176702861Y-38820203D01*
X176696025Y-38819503D01*
X176696022Y-38819502D01*
X176652969Y-38815091D01*
X176598400Y-38809500D01*
X174997600Y-38809500D01*
X174994354Y-38809837D01*
X174994350Y-38809837D01*
X174898692Y-38819762D01*
X174898688Y-38819763D01*
X174891834Y-38820474D01*
X174885298Y-38822655D01*
X174885296Y-38822655D01*
X174753194Y-38866728D01*
X174724054Y-38876450D01*
X174573652Y-38969522D01*
X174448695Y-39094697D01*
X174444855Y-39100927D01*
X174444854Y-39100928D01*
X174416126Y-39147534D01*
X174378028Y-39183021D01*
X174379742Y-39185515D01*
X174374091Y-39189398D01*
X174356337Y-39199280D01*
X174354052Y-39200631D01*
X174347095Y-39203685D01*
X174341075Y-39208305D01*
X174341069Y-39208308D01*
X174309942Y-39232194D01*
X174296398Y-39242587D01*
X174291068Y-39246459D01*
X174244680Y-39278339D01*
X174244675Y-39278344D01*
X174238419Y-39282643D01*
X174233368Y-39288313D01*
X174233366Y-39288314D01*
X174196965Y-39329170D01*
X174191984Y-39334446D01*
X173153880Y-40372550D01*
X173147615Y-40378404D01*
X173104015Y-40416439D01*
X173070425Y-40464233D01*
X173067272Y-40468719D01*
X173063339Y-40474014D01*
X173023924Y-40524282D01*
X173020801Y-40531198D01*
X173019417Y-40533484D01*
X173011043Y-40548165D01*
X173009778Y-40550525D01*
X173005410Y-40556739D01*
X173002650Y-40563818D01*
X173002649Y-40563820D01*
X172982198Y-40616275D01*
X172979647Y-40622344D01*
X172953355Y-40680573D01*
X172951971Y-40688040D01*
X172951170Y-40690595D01*
X172946541Y-40706848D01*
X172945878Y-40709428D01*
X172943118Y-40716509D01*
X172935815Y-40771985D01*
X172934779Y-40779852D01*
X172933748Y-40786359D01*
X172922104Y-40849186D01*
X172922541Y-40856766D01*
X172922541Y-40856767D01*
X172925691Y-40911392D01*
X172925900Y-40918646D01*
X172925900Y-43383488D01*
X172925608Y-43392058D01*
X172922519Y-43437378D01*
X172921675Y-43449752D01*
X172922980Y-43457229D01*
X172922980Y-43457230D01*
X172932661Y-43512699D01*
X172933623Y-43519221D01*
X172941298Y-43582642D01*
X172943981Y-43589743D01*
X172944622Y-43592352D01*
X172949085Y-43608662D01*
X172949850Y-43611198D01*
X172951157Y-43618684D01*
X172954211Y-43625641D01*
X172976842Y-43677195D01*
X172979333Y-43683299D01*
X173001913Y-43743056D01*
X173006217Y-43749319D01*
X173007454Y-43751685D01*
X173015699Y-43766497D01*
X173017032Y-43768751D01*
X173020085Y-43775705D01*
X173024707Y-43781728D01*
X173058979Y-43826391D01*
X173062859Y-43831732D01*
X173094739Y-43878120D01*
X173094744Y-43878125D01*
X173099043Y-43884381D01*
X173104713Y-43889432D01*
X173104714Y-43889434D01*
X173145570Y-43925835D01*
X173150846Y-43930816D01*
X174061595Y-44841565D01*
X174095621Y-44903877D01*
X174098500Y-44930660D01*
X174098500Y-45234470D01*
X174078498Y-45302591D01*
X174066791Y-45317923D01*
X174061615Y-45322439D01*
X174057248Y-45328653D01*
X174024872Y-45374719D01*
X174020939Y-45380014D01*
X173981524Y-45430282D01*
X173978401Y-45437198D01*
X173977017Y-45439484D01*
X173968643Y-45454165D01*
X173967378Y-45456525D01*
X173963010Y-45462739D01*
X173960250Y-45469818D01*
X173960249Y-45469820D01*
X173939798Y-45522275D01*
X173937247Y-45528344D01*
X173910955Y-45586573D01*
X173909571Y-45594040D01*
X173908770Y-45596595D01*
X173904141Y-45612848D01*
X173903478Y-45615428D01*
X173900718Y-45622509D01*
X173899727Y-45630040D01*
X173899726Y-45630042D01*
X173892379Y-45685852D01*
X173891348Y-45692359D01*
X173879704Y-45755186D01*
X173880141Y-45762766D01*
X173880141Y-45762767D01*
X173883291Y-45817392D01*
X173883500Y-45824646D01*
X173883500Y-46222000D01*
X173863498Y-46290121D01*
X173809842Y-46336614D01*
X173757500Y-46348000D01*
X172165609Y-46348000D01*
X172097488Y-46327998D01*
X172050995Y-46274342D01*
X172039609Y-46221892D01*
X172049955Y-34177060D01*
X172070016Y-34108956D01*
X172123711Y-34062509D01*
X172175889Y-34051168D01*
X199537063Y-34036833D01*
X199605194Y-34056799D01*
G37*
%TD.AperFunction*%
%TA.AperFunction,Conductor*%
G36*
X179002932Y-40345654D02*
G01*
X179059768Y-40388201D01*
X179084579Y-40454721D01*
X179084900Y-40463710D01*
X179084900Y-40682890D01*
X179064898Y-40751011D01*
X179047995Y-40771985D01*
X179031761Y-40788219D01*
X178942928Y-40934901D01*
X178940657Y-40942148D01*
X178940656Y-40942150D01*
X178919883Y-41008436D01*
X178891647Y-41098538D01*
X178884900Y-41171965D01*
X178884901Y-41835234D01*
X178891647Y-41908662D01*
X178942928Y-42072299D01*
X179031761Y-42218981D01*
X179153019Y-42340239D01*
X179299701Y-42429072D01*
X179306948Y-42431343D01*
X179306950Y-42431344D01*
X179373236Y-42452117D01*
X179463338Y-42480353D01*
X179536765Y-42487100D01*
X179542652Y-42487100D01*
X179686993Y-42487099D01*
X179755112Y-42507101D01*
X179801605Y-42560756D01*
X179812302Y-42626268D01*
X179812087Y-42628316D01*
X179807496Y-42672000D01*
X179808186Y-42678565D01*
X179817240Y-42764705D01*
X179827458Y-42861928D01*
X179886473Y-43043556D01*
X179981960Y-43208944D01*
X179986378Y-43213851D01*
X179986379Y-43213852D01*
X180018979Y-43250058D01*
X180109747Y-43350866D01*
X180264248Y-43463118D01*
X180270276Y-43465802D01*
X180270278Y-43465803D01*
X180432681Y-43538109D01*
X180438712Y-43540794D01*
X180532113Y-43560647D01*
X180619056Y-43579128D01*
X180619061Y-43579128D01*
X180625513Y-43580500D01*
X180816487Y-43580500D01*
X180822939Y-43579128D01*
X180822944Y-43579128D01*
X180909888Y-43560647D01*
X181003288Y-43540794D01*
X181009319Y-43538109D01*
X181171722Y-43465803D01*
X181171724Y-43465802D01*
X181177752Y-43463118D01*
X181332253Y-43350866D01*
X181423021Y-43250058D01*
X181455621Y-43213852D01*
X181455622Y-43213851D01*
X181460040Y-43208944D01*
X181522933Y-43100010D01*
X181574314Y-43051018D01*
X181644028Y-43037581D01*
X181709939Y-43063968D01*
X181721146Y-43073916D01*
X182561750Y-43914520D01*
X182567604Y-43920785D01*
X182605639Y-43964385D01*
X182617985Y-43973062D01*
X182657919Y-44001128D01*
X182663214Y-44005061D01*
X182713482Y-44044476D01*
X182720398Y-44047599D01*
X182722684Y-44048983D01*
X182737365Y-44057357D01*
X182739725Y-44058622D01*
X182745939Y-44062990D01*
X182753018Y-44065750D01*
X182753020Y-44065751D01*
X182805475Y-44086202D01*
X182811544Y-44088753D01*
X182869773Y-44115045D01*
X182877240Y-44116429D01*
X182879795Y-44117230D01*
X182896048Y-44121859D01*
X182898628Y-44122522D01*
X182905709Y-44125282D01*
X182913240Y-44126273D01*
X182913242Y-44126274D01*
X182937368Y-44129450D01*
X182969061Y-44133622D01*
X182975559Y-44134652D01*
X183038386Y-44146296D01*
X183045966Y-44145859D01*
X183045967Y-44145859D01*
X183100592Y-44142709D01*
X183107846Y-44142500D01*
X183804340Y-44142500D01*
X183872461Y-44162502D01*
X183893435Y-44179405D01*
X184166595Y-44452565D01*
X184200621Y-44514877D01*
X184203500Y-44541660D01*
X184203500Y-46222000D01*
X184183498Y-46290121D01*
X184129842Y-46336614D01*
X184077500Y-46348000D01*
X182610161Y-46348000D01*
X182542040Y-46327998D01*
X182521066Y-46311095D01*
X181357405Y-45147435D01*
X181323380Y-45085123D01*
X181320500Y-45058340D01*
X181320500Y-44702600D01*
X181315314Y-44652619D01*
X181310238Y-44603692D01*
X181310237Y-44603688D01*
X181309526Y-44596834D01*
X181291119Y-44541660D01*
X181255868Y-44436002D01*
X181253550Y-44429054D01*
X181160478Y-44278652D01*
X181035303Y-44153695D01*
X181022591Y-44145859D01*
X180890968Y-44064725D01*
X180890966Y-44064724D01*
X180884738Y-44060885D01*
X180724254Y-44007655D01*
X180723389Y-44007368D01*
X180723387Y-44007368D01*
X180716861Y-44005203D01*
X180710025Y-44004503D01*
X180710022Y-44004502D01*
X180666969Y-44000091D01*
X180612400Y-43994500D01*
X179611600Y-43994500D01*
X179608354Y-43994837D01*
X179608350Y-43994837D01*
X179512692Y-44004762D01*
X179512688Y-44004763D01*
X179505834Y-44005474D01*
X179499298Y-44007655D01*
X179499296Y-44007655D01*
X179402974Y-44039791D01*
X179338054Y-44061450D01*
X179187652Y-44154522D01*
X179184180Y-44158000D01*
X179119286Y-44184265D01*
X179049522Y-44171093D01*
X179017817Y-44148055D01*
X178935488Y-44065870D01*
X178935483Y-44065866D01*
X178930303Y-44060695D01*
X178843791Y-44007368D01*
X178785968Y-43971725D01*
X178785966Y-43971724D01*
X178779738Y-43967885D01*
X178667978Y-43930816D01*
X178618389Y-43914368D01*
X178618387Y-43914368D01*
X178611861Y-43912203D01*
X178605025Y-43911503D01*
X178605022Y-43911502D01*
X178561969Y-43907091D01*
X178507400Y-43901500D01*
X177506600Y-43901500D01*
X177503354Y-43901837D01*
X177503350Y-43901837D01*
X177407692Y-43911762D01*
X177407688Y-43911763D01*
X177400834Y-43912474D01*
X177394298Y-43914655D01*
X177394296Y-43914655D01*
X177345856Y-43930816D01*
X177233054Y-43968450D01*
X177082652Y-44061522D01*
X176957695Y-44186697D01*
X176953855Y-44192927D01*
X176953854Y-44192928D01*
X176904202Y-44273479D01*
X176864885Y-44337262D01*
X176862581Y-44344209D01*
X176836506Y-44422824D01*
X176809203Y-44505139D01*
X176798500Y-44609600D01*
X176798500Y-45445120D01*
X176778498Y-45513241D01*
X176761595Y-45534215D01*
X176730595Y-45565215D01*
X176668283Y-45599241D01*
X176597468Y-45594176D01*
X176540632Y-45551629D01*
X176515821Y-45485109D01*
X176515500Y-45476120D01*
X176515500Y-44609600D01*
X176514887Y-44603692D01*
X176505238Y-44510692D01*
X176505237Y-44510688D01*
X176504526Y-44503834D01*
X176501507Y-44494783D01*
X176450868Y-44343002D01*
X176448550Y-44336054D01*
X176355478Y-44185652D01*
X176230303Y-44060695D01*
X176143791Y-44007368D01*
X176085968Y-43971725D01*
X176085966Y-43971724D01*
X176079738Y-43967885D01*
X175967978Y-43930816D01*
X175918389Y-43914368D01*
X175918387Y-43914368D01*
X175911861Y-43912203D01*
X175905025Y-43911503D01*
X175905022Y-43911502D01*
X175861969Y-43907091D01*
X175807400Y-43901500D01*
X175177662Y-43901500D01*
X175109541Y-43881498D01*
X175088567Y-43864596D01*
X174379805Y-43155835D01*
X174345780Y-43093522D01*
X174342900Y-43066739D01*
X174342900Y-41239660D01*
X174362902Y-41171539D01*
X174379805Y-41150565D01*
X174704076Y-40826294D01*
X174766388Y-40792268D01*
X174832838Y-40795796D01*
X174893139Y-40815797D01*
X174899972Y-40816497D01*
X174899976Y-40816498D01*
X174955852Y-40822222D01*
X174997600Y-40826500D01*
X176598400Y-40826500D01*
X176601646Y-40826163D01*
X176601650Y-40826163D01*
X176697308Y-40816238D01*
X176697312Y-40816237D01*
X176704166Y-40815526D01*
X176710702Y-40813345D01*
X176710704Y-40813345D01*
X176864998Y-40761868D01*
X176871946Y-40759550D01*
X177022348Y-40666478D01*
X177072464Y-40616275D01*
X177125165Y-40563482D01*
X177187448Y-40529403D01*
X177214338Y-40526500D01*
X177576591Y-40526500D01*
X177635979Y-40543082D01*
X177636282Y-40542411D01*
X177640664Y-40544389D01*
X177641860Y-40544723D01*
X177649701Y-40549472D01*
X177813338Y-40600753D01*
X177886765Y-40607500D01*
X177889663Y-40607500D01*
X178144065Y-40607499D01*
X178400034Y-40607499D01*
X178402892Y-40607236D01*
X178402901Y-40607236D01*
X178438404Y-40603974D01*
X178473462Y-40600753D01*
X178591315Y-40563820D01*
X178629850Y-40551744D01*
X178629852Y-40551743D01*
X178637099Y-40549472D01*
X178783781Y-40460639D01*
X178869805Y-40374615D01*
X178932117Y-40340589D01*
X179002932Y-40345654D01*
G37*
%TD.AperFunction*%
%TD*%
M02*
