%TF.GenerationSoftware,KiCad,Pcbnew,(6.0.5)*%
%TF.CreationDate,2022-07-13T16:28:14-04:00*%
%TF.ProjectId,torque_motor_design,746f7271-7565-45f6-9d6f-746f725f6465,rev?*%
%TF.SameCoordinates,Original*%
%TF.FileFunction,Legend,Bot*%
%TF.FilePolarity,Positive*%
%FSLAX46Y46*%
G04 Gerber Fmt 4.6, Leading zero omitted, Abs format (unit mm)*
G04 Created by KiCad (PCBNEW (6.0.5)) date 2022-07-13 16:28:14*
%MOMM*%
%LPD*%
G01*
G04 APERTURE LIST*
%ADD10C,0.037500*%
%ADD11C,0.120000*%
%ADD12C,0.150000*%
G04 APERTURE END LIST*
D10*
X189725714Y-55786785D02*
X189725714Y-55968928D01*
X189718571Y-55990357D01*
X189711428Y-56001071D01*
X189697142Y-56011785D01*
X189668571Y-56011785D01*
X189654285Y-56001071D01*
X189647142Y-55990357D01*
X189640000Y-55968928D01*
X189640000Y-55786785D01*
X189568571Y-55861785D02*
X189568571Y-56011785D01*
X189568571Y-55883214D02*
X189561428Y-55872500D01*
X189547142Y-55861785D01*
X189525714Y-55861785D01*
X189511428Y-55872500D01*
X189504285Y-55893928D01*
X189504285Y-56011785D01*
X189432857Y-55926071D02*
X189318571Y-55926071D01*
X189161428Y-55990357D02*
X189168571Y-56001071D01*
X189190000Y-56011785D01*
X189204285Y-56011785D01*
X189225714Y-56001071D01*
X189240000Y-55979642D01*
X189247142Y-55958214D01*
X189254285Y-55915357D01*
X189254285Y-55883214D01*
X189247142Y-55840357D01*
X189240000Y-55818928D01*
X189225714Y-55797500D01*
X189204285Y-55786785D01*
X189190000Y-55786785D01*
X189168571Y-55797500D01*
X189161428Y-55808214D01*
X189075714Y-56011785D02*
X189090000Y-56001071D01*
X189097142Y-55990357D01*
X189104285Y-55968928D01*
X189104285Y-55904642D01*
X189097142Y-55883214D01*
X189090000Y-55872500D01*
X189075714Y-55861785D01*
X189054285Y-55861785D01*
X189040000Y-55872500D01*
X189032857Y-55883214D01*
X189025714Y-55904642D01*
X189025714Y-55968928D01*
X189032857Y-55990357D01*
X189040000Y-56001071D01*
X189054285Y-56011785D01*
X189075714Y-56011785D01*
X188961428Y-55861785D02*
X188961428Y-56011785D01*
X188961428Y-55883214D02*
X188954285Y-55872500D01*
X188940000Y-55861785D01*
X188918571Y-55861785D01*
X188904285Y-55872500D01*
X188897142Y-55893928D01*
X188897142Y-56011785D01*
X188825714Y-55861785D02*
X188825714Y-56011785D01*
X188825714Y-55883214D02*
X188818571Y-55872500D01*
X188804285Y-55861785D01*
X188782857Y-55861785D01*
X188768571Y-55872500D01*
X188761428Y-55893928D01*
X188761428Y-56011785D01*
X188632857Y-56001071D02*
X188647142Y-56011785D01*
X188675714Y-56011785D01*
X188690000Y-56001071D01*
X188697142Y-55979642D01*
X188697142Y-55893928D01*
X188690000Y-55872500D01*
X188675714Y-55861785D01*
X188647142Y-55861785D01*
X188632857Y-55872500D01*
X188625714Y-55893928D01*
X188625714Y-55915357D01*
X188697142Y-55936785D01*
X188497142Y-56001071D02*
X188511428Y-56011785D01*
X188540000Y-56011785D01*
X188554285Y-56001071D01*
X188561428Y-55990357D01*
X188568571Y-55968928D01*
X188568571Y-55904642D01*
X188561428Y-55883214D01*
X188554285Y-55872500D01*
X188540000Y-55861785D01*
X188511428Y-55861785D01*
X188497142Y-55872500D01*
X188454285Y-55861785D02*
X188397142Y-55861785D01*
X188432857Y-55786785D02*
X188432857Y-55979642D01*
X188425714Y-56001071D01*
X188411428Y-56011785D01*
X188397142Y-56011785D01*
X188290000Y-56001071D02*
X188304285Y-56011785D01*
X188332857Y-56011785D01*
X188347142Y-56001071D01*
X188354285Y-55979642D01*
X188354285Y-55893928D01*
X188347142Y-55872500D01*
X188332857Y-55861785D01*
X188304285Y-55861785D01*
X188290000Y-55872500D01*
X188282857Y-55893928D01*
X188282857Y-55915357D01*
X188354285Y-55936785D01*
X188154285Y-56011785D02*
X188154285Y-55786785D01*
X188154285Y-56001071D02*
X188168571Y-56011785D01*
X188197142Y-56011785D01*
X188211428Y-56001071D01*
X188218571Y-55990357D01*
X188225714Y-55968928D01*
X188225714Y-55904642D01*
X188218571Y-55883214D01*
X188211428Y-55872500D01*
X188197142Y-55861785D01*
X188168571Y-55861785D01*
X188154285Y-55872500D01*
X188325000Y-57971785D02*
X188375000Y-57864642D01*
X188410714Y-57971785D02*
X188410714Y-57746785D01*
X188353571Y-57746785D01*
X188339285Y-57757500D01*
X188332142Y-57768214D01*
X188325000Y-57789642D01*
X188325000Y-57821785D01*
X188332142Y-57843214D01*
X188339285Y-57853928D01*
X188353571Y-57864642D01*
X188410714Y-57864642D01*
X188275000Y-57746785D02*
X188175000Y-57971785D01*
X188175000Y-57746785D02*
X188275000Y-57971785D01*
X188394285Y-56686785D02*
X188308571Y-56686785D01*
X188351428Y-56911785D02*
X188351428Y-56686785D01*
X188272857Y-56686785D02*
X188172857Y-56911785D01*
X188172857Y-56686785D02*
X188272857Y-56911785D01*
X188817142Y-58856785D02*
X188731428Y-58856785D01*
X188774285Y-59081785D02*
X188774285Y-58856785D01*
X188660000Y-59081785D02*
X188674285Y-59071071D01*
X188681428Y-59060357D01*
X188688571Y-59038928D01*
X188688571Y-58974642D01*
X188681428Y-58953214D01*
X188674285Y-58942500D01*
X188660000Y-58931785D01*
X188638571Y-58931785D01*
X188624285Y-58942500D01*
X188617142Y-58953214D01*
X188610000Y-58974642D01*
X188610000Y-59038928D01*
X188617142Y-59060357D01*
X188624285Y-59071071D01*
X188638571Y-59081785D01*
X188660000Y-59081785D01*
X188545714Y-59081785D02*
X188545714Y-58931785D01*
X188545714Y-58974642D02*
X188538571Y-58953214D01*
X188531428Y-58942500D01*
X188517142Y-58931785D01*
X188502857Y-58931785D01*
X188388571Y-58931785D02*
X188388571Y-59156785D01*
X188388571Y-59071071D02*
X188402857Y-59081785D01*
X188431428Y-59081785D01*
X188445714Y-59071071D01*
X188452857Y-59060357D01*
X188460000Y-59038928D01*
X188460000Y-58974642D01*
X188452857Y-58953214D01*
X188445714Y-58942500D01*
X188431428Y-58931785D01*
X188402857Y-58931785D01*
X188388571Y-58942500D01*
X188252857Y-58931785D02*
X188252857Y-59081785D01*
X188317142Y-58931785D02*
X188317142Y-59049642D01*
X188310000Y-59071071D01*
X188295714Y-59081785D01*
X188274285Y-59081785D01*
X188260000Y-59071071D01*
X188252857Y-59060357D01*
X188124285Y-59071071D02*
X188138571Y-59081785D01*
X188167142Y-59081785D01*
X188181428Y-59071071D01*
X188188571Y-59049642D01*
X188188571Y-58963928D01*
X188181428Y-58942500D01*
X188167142Y-58931785D01*
X188138571Y-58931785D01*
X188124285Y-58942500D01*
X188117142Y-58963928D01*
X188117142Y-58985357D01*
X188188571Y-59006785D01*
X188865000Y-53746785D02*
X188936428Y-53746785D01*
X188943571Y-53853928D01*
X188936428Y-53843214D01*
X188922142Y-53832500D01*
X188886428Y-53832500D01*
X188872142Y-53843214D01*
X188865000Y-53853928D01*
X188857857Y-53875357D01*
X188857857Y-53928928D01*
X188865000Y-53950357D01*
X188872142Y-53961071D01*
X188886428Y-53971785D01*
X188922142Y-53971785D01*
X188936428Y-53961071D01*
X188943571Y-53950357D01*
X188815000Y-53746785D02*
X188765000Y-53971785D01*
X188715000Y-53746785D01*
X188700714Y-53993214D02*
X188586428Y-53993214D01*
X188550714Y-53971785D02*
X188550714Y-53746785D01*
X188500714Y-53907500D01*
X188450714Y-53746785D01*
X188450714Y-53971785D01*
X188293571Y-53950357D02*
X188300714Y-53961071D01*
X188322142Y-53971785D01*
X188336428Y-53971785D01*
X188357857Y-53961071D01*
X188372142Y-53939642D01*
X188379285Y-53918214D01*
X188386428Y-53875357D01*
X188386428Y-53843214D01*
X188379285Y-53800357D01*
X188372142Y-53778928D01*
X188357857Y-53757500D01*
X188336428Y-53746785D01*
X188322142Y-53746785D01*
X188300714Y-53757500D01*
X188293571Y-53768214D01*
X188229285Y-53746785D02*
X188229285Y-53928928D01*
X188222142Y-53950357D01*
X188215000Y-53961071D01*
X188200714Y-53971785D01*
X188172142Y-53971785D01*
X188157857Y-53961071D01*
X188150714Y-53950357D01*
X188143571Y-53928928D01*
X188143571Y-53746785D01*
X188464285Y-54677500D02*
X188478571Y-54666785D01*
X188500000Y-54666785D01*
X188521428Y-54677500D01*
X188535714Y-54698928D01*
X188542857Y-54720357D01*
X188550000Y-54763214D01*
X188550000Y-54795357D01*
X188542857Y-54838214D01*
X188535714Y-54859642D01*
X188521428Y-54881071D01*
X188500000Y-54891785D01*
X188485714Y-54891785D01*
X188464285Y-54881071D01*
X188457142Y-54870357D01*
X188457142Y-54795357D01*
X188485714Y-54795357D01*
X188392857Y-54891785D02*
X188392857Y-54666785D01*
X188307142Y-54891785D01*
X188307142Y-54666785D01*
X188235714Y-54891785D02*
X188235714Y-54666785D01*
X188200000Y-54666785D01*
X188178571Y-54677500D01*
X188164285Y-54698928D01*
X188157142Y-54720357D01*
X188150000Y-54763214D01*
X188150000Y-54795357D01*
X188157142Y-54838214D01*
X188164285Y-54859642D01*
X188178571Y-54881071D01*
X188200000Y-54891785D01*
X188235714Y-54891785D01*
%TO.C,U4*%
X191914285Y-42007857D02*
X191914285Y-42129285D01*
X191907142Y-42143571D01*
X191900000Y-42150714D01*
X191885714Y-42157857D01*
X191857142Y-42157857D01*
X191842857Y-42150714D01*
X191835714Y-42143571D01*
X191828571Y-42129285D01*
X191828571Y-42007857D01*
X191692857Y-42057857D02*
X191692857Y-42157857D01*
X191728571Y-42000714D02*
X191764285Y-42107857D01*
X191671428Y-42107857D01*
%TO.C,Enable_Current_sense*%
X182702142Y-66529928D02*
X182652142Y-66529928D01*
X182630714Y-66647785D02*
X182702142Y-66647785D01*
X182702142Y-66422785D01*
X182630714Y-66422785D01*
X182566428Y-66497785D02*
X182566428Y-66647785D01*
X182566428Y-66519214D02*
X182559285Y-66508500D01*
X182545000Y-66497785D01*
X182523571Y-66497785D01*
X182509285Y-66508500D01*
X182502142Y-66529928D01*
X182502142Y-66647785D01*
X182366428Y-66647785D02*
X182366428Y-66529928D01*
X182373571Y-66508500D01*
X182387857Y-66497785D01*
X182416428Y-66497785D01*
X182430714Y-66508500D01*
X182366428Y-66637071D02*
X182380714Y-66647785D01*
X182416428Y-66647785D01*
X182430714Y-66637071D01*
X182437857Y-66615642D01*
X182437857Y-66594214D01*
X182430714Y-66572785D01*
X182416428Y-66562071D01*
X182380714Y-66562071D01*
X182366428Y-66551357D01*
X182295000Y-66647785D02*
X182295000Y-66422785D01*
X182295000Y-66508500D02*
X182280714Y-66497785D01*
X182252142Y-66497785D01*
X182237857Y-66508500D01*
X182230714Y-66519214D01*
X182223571Y-66540642D01*
X182223571Y-66604928D01*
X182230714Y-66626357D01*
X182237857Y-66637071D01*
X182252142Y-66647785D01*
X182280714Y-66647785D01*
X182295000Y-66637071D01*
X182137857Y-66647785D02*
X182152142Y-66637071D01*
X182159285Y-66615642D01*
X182159285Y-66422785D01*
X182023571Y-66637071D02*
X182037857Y-66647785D01*
X182066428Y-66647785D01*
X182080714Y-66637071D01*
X182087857Y-66615642D01*
X182087857Y-66529928D01*
X182080714Y-66508500D01*
X182066428Y-66497785D01*
X182037857Y-66497785D01*
X182023571Y-66508500D01*
X182016428Y-66529928D01*
X182016428Y-66551357D01*
X182087857Y-66572785D01*
X181987857Y-66669214D02*
X181873571Y-66669214D01*
X181752142Y-66626357D02*
X181759285Y-66637071D01*
X181780714Y-66647785D01*
X181795000Y-66647785D01*
X181816428Y-66637071D01*
X181830714Y-66615642D01*
X181837857Y-66594214D01*
X181845000Y-66551357D01*
X181845000Y-66519214D01*
X181837857Y-66476357D01*
X181830714Y-66454928D01*
X181816428Y-66433500D01*
X181795000Y-66422785D01*
X181780714Y-66422785D01*
X181759285Y-66433500D01*
X181752142Y-66444214D01*
X181623571Y-66497785D02*
X181623571Y-66647785D01*
X181687857Y-66497785D02*
X181687857Y-66615642D01*
X181680714Y-66637071D01*
X181666428Y-66647785D01*
X181645000Y-66647785D01*
X181630714Y-66637071D01*
X181623571Y-66626357D01*
X181552142Y-66647785D02*
X181552142Y-66497785D01*
X181552142Y-66540642D02*
X181545000Y-66519214D01*
X181537857Y-66508500D01*
X181523571Y-66497785D01*
X181509285Y-66497785D01*
X181459285Y-66647785D02*
X181459285Y-66497785D01*
X181459285Y-66540642D02*
X181452142Y-66519214D01*
X181445000Y-66508500D01*
X181430714Y-66497785D01*
X181416428Y-66497785D01*
X181309285Y-66637071D02*
X181323571Y-66647785D01*
X181352142Y-66647785D01*
X181366428Y-66637071D01*
X181373571Y-66615642D01*
X181373571Y-66529928D01*
X181366428Y-66508500D01*
X181352142Y-66497785D01*
X181323571Y-66497785D01*
X181309285Y-66508500D01*
X181302142Y-66529928D01*
X181302142Y-66551357D01*
X181373571Y-66572785D01*
X181237857Y-66497785D02*
X181237857Y-66647785D01*
X181237857Y-66519214D02*
X181230714Y-66508500D01*
X181216428Y-66497785D01*
X181195000Y-66497785D01*
X181180714Y-66508500D01*
X181173571Y-66529928D01*
X181173571Y-66647785D01*
X181123571Y-66497785D02*
X181066428Y-66497785D01*
X181102142Y-66422785D02*
X181102142Y-66615642D01*
X181095000Y-66637071D01*
X181080714Y-66647785D01*
X181066428Y-66647785D01*
X181052142Y-66669214D02*
X180937857Y-66669214D01*
X180909285Y-66637071D02*
X180895000Y-66647785D01*
X180866428Y-66647785D01*
X180852142Y-66637071D01*
X180845000Y-66615642D01*
X180845000Y-66604928D01*
X180852142Y-66583500D01*
X180866428Y-66572785D01*
X180887857Y-66572785D01*
X180902142Y-66562071D01*
X180909285Y-66540642D01*
X180909285Y-66529928D01*
X180902142Y-66508500D01*
X180887857Y-66497785D01*
X180866428Y-66497785D01*
X180852142Y-66508500D01*
X180723571Y-66637071D02*
X180737857Y-66647785D01*
X180766428Y-66647785D01*
X180780714Y-66637071D01*
X180787857Y-66615642D01*
X180787857Y-66529928D01*
X180780714Y-66508500D01*
X180766428Y-66497785D01*
X180737857Y-66497785D01*
X180723571Y-66508500D01*
X180716428Y-66529928D01*
X180716428Y-66551357D01*
X180787857Y-66572785D01*
X180652142Y-66497785D02*
X180652142Y-66647785D01*
X180652142Y-66519214D02*
X180645000Y-66508500D01*
X180630714Y-66497785D01*
X180609285Y-66497785D01*
X180595000Y-66508500D01*
X180587857Y-66529928D01*
X180587857Y-66647785D01*
X180523571Y-66637071D02*
X180509285Y-66647785D01*
X180480714Y-66647785D01*
X180466428Y-66637071D01*
X180459285Y-66615642D01*
X180459285Y-66604928D01*
X180466428Y-66583500D01*
X180480714Y-66572785D01*
X180502142Y-66572785D01*
X180516428Y-66562071D01*
X180523571Y-66540642D01*
X180523571Y-66529928D01*
X180516428Y-66508500D01*
X180502142Y-66497785D01*
X180480714Y-66497785D01*
X180466428Y-66508500D01*
X180337857Y-66637071D02*
X180352142Y-66647785D01*
X180380714Y-66647785D01*
X180395000Y-66637071D01*
X180402142Y-66615642D01*
X180402142Y-66529928D01*
X180395000Y-66508500D01*
X180380714Y-66497785D01*
X180352142Y-66497785D01*
X180337857Y-66508500D01*
X180330714Y-66529928D01*
X180330714Y-66551357D01*
X180402142Y-66572785D01*
%TO.C,JP1*%
X178433000Y-49914785D02*
X178433000Y-50075500D01*
X178440142Y-50107642D01*
X178454428Y-50129071D01*
X178475857Y-50139785D01*
X178490142Y-50139785D01*
X178361571Y-50139785D02*
X178361571Y-49914785D01*
X178304428Y-49914785D01*
X178290142Y-49925500D01*
X178283000Y-49936214D01*
X178275857Y-49957642D01*
X178275857Y-49989785D01*
X178283000Y-50011214D01*
X178290142Y-50021928D01*
X178304428Y-50032642D01*
X178361571Y-50032642D01*
X178133000Y-50139785D02*
X178218714Y-50139785D01*
X178175857Y-50139785D02*
X178175857Y-49914785D01*
X178190142Y-49946928D01*
X178204428Y-49968357D01*
X178218714Y-49979071D01*
%TO.C,Current_Sense*%
X181015000Y-39042571D02*
X181022142Y-39049714D01*
X181043571Y-39056857D01*
X181057857Y-39056857D01*
X181079285Y-39049714D01*
X181093571Y-39035428D01*
X181100714Y-39021142D01*
X181107857Y-38992571D01*
X181107857Y-38971142D01*
X181100714Y-38942571D01*
X181093571Y-38928285D01*
X181079285Y-38914000D01*
X181057857Y-38906857D01*
X181043571Y-38906857D01*
X181022142Y-38914000D01*
X181015000Y-38921142D01*
X180886428Y-38956857D02*
X180886428Y-39056857D01*
X180950714Y-38956857D02*
X180950714Y-39035428D01*
X180943571Y-39049714D01*
X180929285Y-39056857D01*
X180907857Y-39056857D01*
X180893571Y-39049714D01*
X180886428Y-39042571D01*
X180815000Y-39056857D02*
X180815000Y-38956857D01*
X180815000Y-38985428D02*
X180807857Y-38971142D01*
X180800714Y-38964000D01*
X180786428Y-38956857D01*
X180772142Y-38956857D01*
X180722142Y-39056857D02*
X180722142Y-38956857D01*
X180722142Y-38985428D02*
X180715000Y-38971142D01*
X180707857Y-38964000D01*
X180693571Y-38956857D01*
X180679285Y-38956857D01*
X180572142Y-39049714D02*
X180586428Y-39056857D01*
X180615000Y-39056857D01*
X180629285Y-39049714D01*
X180636428Y-39035428D01*
X180636428Y-38978285D01*
X180629285Y-38964000D01*
X180615000Y-38956857D01*
X180586428Y-38956857D01*
X180572142Y-38964000D01*
X180565000Y-38978285D01*
X180565000Y-38992571D01*
X180636428Y-39006857D01*
X180500714Y-38956857D02*
X180500714Y-39056857D01*
X180500714Y-38971142D02*
X180493571Y-38964000D01*
X180479285Y-38956857D01*
X180457857Y-38956857D01*
X180443571Y-38964000D01*
X180436428Y-38978285D01*
X180436428Y-39056857D01*
X180386428Y-38956857D02*
X180329285Y-38956857D01*
X180365000Y-38906857D02*
X180365000Y-39035428D01*
X180357857Y-39049714D01*
X180343571Y-39056857D01*
X180329285Y-39056857D01*
X180315000Y-39071142D02*
X180200714Y-39071142D01*
X180172142Y-39049714D02*
X180150714Y-39056857D01*
X180115000Y-39056857D01*
X180100714Y-39049714D01*
X180093571Y-39042571D01*
X180086428Y-39028285D01*
X180086428Y-39014000D01*
X180093571Y-38999714D01*
X180100714Y-38992571D01*
X180115000Y-38985428D01*
X180143571Y-38978285D01*
X180157857Y-38971142D01*
X180165000Y-38964000D01*
X180172142Y-38949714D01*
X180172142Y-38935428D01*
X180165000Y-38921142D01*
X180157857Y-38914000D01*
X180143571Y-38906857D01*
X180107857Y-38906857D01*
X180086428Y-38914000D01*
X179965000Y-39049714D02*
X179979285Y-39056857D01*
X180007857Y-39056857D01*
X180022142Y-39049714D01*
X180029285Y-39035428D01*
X180029285Y-38978285D01*
X180022142Y-38964000D01*
X180007857Y-38956857D01*
X179979285Y-38956857D01*
X179965000Y-38964000D01*
X179957857Y-38978285D01*
X179957857Y-38992571D01*
X180029285Y-39006857D01*
X179893571Y-38956857D02*
X179893571Y-39056857D01*
X179893571Y-38971142D02*
X179886428Y-38964000D01*
X179872142Y-38956857D01*
X179850714Y-38956857D01*
X179836428Y-38964000D01*
X179829285Y-38978285D01*
X179829285Y-39056857D01*
X179765000Y-39049714D02*
X179750714Y-39056857D01*
X179722142Y-39056857D01*
X179707857Y-39049714D01*
X179700714Y-39035428D01*
X179700714Y-39028285D01*
X179707857Y-39014000D01*
X179722142Y-39006857D01*
X179743571Y-39006857D01*
X179757857Y-38999714D01*
X179765000Y-38985428D01*
X179765000Y-38978285D01*
X179757857Y-38964000D01*
X179743571Y-38956857D01*
X179722142Y-38956857D01*
X179707857Y-38964000D01*
X179579285Y-39049714D02*
X179593571Y-39056857D01*
X179622142Y-39056857D01*
X179636428Y-39049714D01*
X179643571Y-39035428D01*
X179643571Y-38978285D01*
X179636428Y-38964000D01*
X179622142Y-38956857D01*
X179593571Y-38956857D01*
X179579285Y-38964000D01*
X179572142Y-38978285D01*
X179572142Y-38992571D01*
X179643571Y-39006857D01*
%TO.C,U1*%
X185162285Y-52876785D02*
X185162285Y-53058928D01*
X185155142Y-53080357D01*
X185148000Y-53091071D01*
X185133714Y-53101785D01*
X185105142Y-53101785D01*
X185090857Y-53091071D01*
X185083714Y-53080357D01*
X185076571Y-53058928D01*
X185076571Y-52876785D01*
X184926571Y-53101785D02*
X185012285Y-53101785D01*
X184969428Y-53101785D02*
X184969428Y-52876785D01*
X184983714Y-52908928D01*
X184998000Y-52930357D01*
X185012285Y-52941071D01*
%TO.C,C2*%
X197002000Y-39805971D02*
X197009142Y-39813114D01*
X197030571Y-39820257D01*
X197044857Y-39820257D01*
X197066285Y-39813114D01*
X197080571Y-39798828D01*
X197087714Y-39784542D01*
X197094857Y-39755971D01*
X197094857Y-39734542D01*
X197087714Y-39705971D01*
X197080571Y-39691685D01*
X197066285Y-39677400D01*
X197044857Y-39670257D01*
X197030571Y-39670257D01*
X197009142Y-39677400D01*
X197002000Y-39684542D01*
X196944857Y-39684542D02*
X196937714Y-39677400D01*
X196923428Y-39670257D01*
X196887714Y-39670257D01*
X196873428Y-39677400D01*
X196866285Y-39684542D01*
X196859142Y-39698828D01*
X196859142Y-39713114D01*
X196866285Y-39734542D01*
X196952000Y-39820257D01*
X196859142Y-39820257D01*
%TO.C,R8*%
X195663000Y-52401785D02*
X195713000Y-52294642D01*
X195748714Y-52401785D02*
X195748714Y-52176785D01*
X195691571Y-52176785D01*
X195677285Y-52187500D01*
X195670142Y-52198214D01*
X195663000Y-52219642D01*
X195663000Y-52251785D01*
X195670142Y-52273214D01*
X195677285Y-52283928D01*
X195691571Y-52294642D01*
X195748714Y-52294642D01*
X195577285Y-52273214D02*
X195591571Y-52262500D01*
X195598714Y-52251785D01*
X195605857Y-52230357D01*
X195605857Y-52219642D01*
X195598714Y-52198214D01*
X195591571Y-52187500D01*
X195577285Y-52176785D01*
X195548714Y-52176785D01*
X195534428Y-52187500D01*
X195527285Y-52198214D01*
X195520142Y-52219642D01*
X195520142Y-52230357D01*
X195527285Y-52251785D01*
X195534428Y-52262500D01*
X195548714Y-52273214D01*
X195577285Y-52273214D01*
X195591571Y-52283928D01*
X195598714Y-52294642D01*
X195605857Y-52316071D01*
X195605857Y-52358928D01*
X195598714Y-52380357D01*
X195591571Y-52391071D01*
X195577285Y-52401785D01*
X195548714Y-52401785D01*
X195534428Y-52391071D01*
X195527285Y-52380357D01*
X195520142Y-52358928D01*
X195520142Y-52316071D01*
X195527285Y-52294642D01*
X195534428Y-52283928D01*
X195548714Y-52273214D01*
%TO.C,D4*%
X191101785Y-50189285D02*
X190876785Y-50189285D01*
X190876785Y-50225000D01*
X190887500Y-50246428D01*
X190908928Y-50260714D01*
X190930357Y-50267857D01*
X190973214Y-50275000D01*
X191005357Y-50275000D01*
X191048214Y-50267857D01*
X191069642Y-50260714D01*
X191091071Y-50246428D01*
X191101785Y-50225000D01*
X191101785Y-50189285D01*
X190951785Y-50403571D02*
X191101785Y-50403571D01*
X190866071Y-50367857D02*
X191026785Y-50332142D01*
X191026785Y-50425000D01*
%TO.C,R7*%
X197187000Y-48801785D02*
X197237000Y-48694642D01*
X197272714Y-48801785D02*
X197272714Y-48576785D01*
X197215571Y-48576785D01*
X197201285Y-48587500D01*
X197194142Y-48598214D01*
X197187000Y-48619642D01*
X197187000Y-48651785D01*
X197194142Y-48673214D01*
X197201285Y-48683928D01*
X197215571Y-48694642D01*
X197272714Y-48694642D01*
X197137000Y-48576785D02*
X197037000Y-48576785D01*
X197101285Y-48801785D01*
%TO.C,R3*%
X189117857Y-64335000D02*
X189046428Y-64285000D01*
X189117857Y-64249285D02*
X188967857Y-64249285D01*
X188967857Y-64306428D01*
X188975000Y-64320714D01*
X188982142Y-64327857D01*
X188996428Y-64335000D01*
X189017857Y-64335000D01*
X189032142Y-64327857D01*
X189039285Y-64320714D01*
X189046428Y-64306428D01*
X189046428Y-64249285D01*
X188967857Y-64385000D02*
X188967857Y-64477857D01*
X189025000Y-64427857D01*
X189025000Y-64449285D01*
X189032142Y-64463571D01*
X189039285Y-64470714D01*
X189053571Y-64477857D01*
X189089285Y-64477857D01*
X189103571Y-64470714D01*
X189110714Y-64463571D01*
X189117857Y-64449285D01*
X189117857Y-64406428D01*
X189110714Y-64392142D01*
X189103571Y-64385000D01*
%TO.C,Torque_mode_EN*%
X182917785Y-56797142D02*
X182917785Y-56882857D01*
X183142785Y-56840000D02*
X182917785Y-56840000D01*
X183142785Y-56954285D02*
X183132071Y-56940000D01*
X183121357Y-56932857D01*
X183099928Y-56925714D01*
X183035642Y-56925714D01*
X183014214Y-56932857D01*
X183003500Y-56940000D01*
X182992785Y-56954285D01*
X182992785Y-56975714D01*
X183003500Y-56990000D01*
X183014214Y-56997142D01*
X183035642Y-57004285D01*
X183099928Y-57004285D01*
X183121357Y-56997142D01*
X183132071Y-56990000D01*
X183142785Y-56975714D01*
X183142785Y-56954285D01*
X183142785Y-57068571D02*
X182992785Y-57068571D01*
X183035642Y-57068571D02*
X183014214Y-57075714D01*
X183003500Y-57082857D01*
X182992785Y-57097142D01*
X182992785Y-57111428D01*
X182992785Y-57225714D02*
X183217785Y-57225714D01*
X183132071Y-57225714D02*
X183142785Y-57211428D01*
X183142785Y-57182857D01*
X183132071Y-57168571D01*
X183121357Y-57161428D01*
X183099928Y-57154285D01*
X183035642Y-57154285D01*
X183014214Y-57161428D01*
X183003500Y-57168571D01*
X182992785Y-57182857D01*
X182992785Y-57211428D01*
X183003500Y-57225714D01*
X182992785Y-57361428D02*
X183142785Y-57361428D01*
X182992785Y-57297142D02*
X183110642Y-57297142D01*
X183132071Y-57304285D01*
X183142785Y-57318571D01*
X183142785Y-57340000D01*
X183132071Y-57354285D01*
X183121357Y-57361428D01*
X183132071Y-57490000D02*
X183142785Y-57475714D01*
X183142785Y-57447142D01*
X183132071Y-57432857D01*
X183110642Y-57425714D01*
X183024928Y-57425714D01*
X183003500Y-57432857D01*
X182992785Y-57447142D01*
X182992785Y-57475714D01*
X183003500Y-57490000D01*
X183024928Y-57497142D01*
X183046357Y-57497142D01*
X183067785Y-57425714D01*
X183164214Y-57525714D02*
X183164214Y-57640000D01*
X183142785Y-57675714D02*
X182992785Y-57675714D01*
X183014214Y-57675714D02*
X183003500Y-57682857D01*
X182992785Y-57697142D01*
X182992785Y-57718571D01*
X183003500Y-57732857D01*
X183024928Y-57740000D01*
X183142785Y-57740000D01*
X183024928Y-57740000D02*
X183003500Y-57747142D01*
X182992785Y-57761428D01*
X182992785Y-57782857D01*
X183003500Y-57797142D01*
X183024928Y-57804285D01*
X183142785Y-57804285D01*
X183142785Y-57897142D02*
X183132071Y-57882857D01*
X183121357Y-57875714D01*
X183099928Y-57868571D01*
X183035642Y-57868571D01*
X183014214Y-57875714D01*
X183003500Y-57882857D01*
X182992785Y-57897142D01*
X182992785Y-57918571D01*
X183003500Y-57932857D01*
X183014214Y-57940000D01*
X183035642Y-57947142D01*
X183099928Y-57947142D01*
X183121357Y-57940000D01*
X183132071Y-57932857D01*
X183142785Y-57918571D01*
X183142785Y-57897142D01*
X183142785Y-58075714D02*
X182917785Y-58075714D01*
X183132071Y-58075714D02*
X183142785Y-58061428D01*
X183142785Y-58032857D01*
X183132071Y-58018571D01*
X183121357Y-58011428D01*
X183099928Y-58004285D01*
X183035642Y-58004285D01*
X183014214Y-58011428D01*
X183003500Y-58018571D01*
X182992785Y-58032857D01*
X182992785Y-58061428D01*
X183003500Y-58075714D01*
X183132071Y-58204285D02*
X183142785Y-58190000D01*
X183142785Y-58161428D01*
X183132071Y-58147142D01*
X183110642Y-58140000D01*
X183024928Y-58140000D01*
X183003500Y-58147142D01*
X182992785Y-58161428D01*
X182992785Y-58190000D01*
X183003500Y-58204285D01*
X183024928Y-58211428D01*
X183046357Y-58211428D01*
X183067785Y-58140000D01*
X183164214Y-58240000D02*
X183164214Y-58354285D01*
X183024928Y-58390000D02*
X183024928Y-58440000D01*
X183142785Y-58461428D02*
X183142785Y-58390000D01*
X182917785Y-58390000D01*
X182917785Y-58461428D01*
X183142785Y-58525714D02*
X182917785Y-58525714D01*
X183142785Y-58611428D01*
X182917785Y-58611428D01*
%TO.C,C1*%
X197129000Y-37011971D02*
X197136142Y-37019114D01*
X197157571Y-37026257D01*
X197171857Y-37026257D01*
X197193285Y-37019114D01*
X197207571Y-37004828D01*
X197214714Y-36990542D01*
X197221857Y-36961971D01*
X197221857Y-36940542D01*
X197214714Y-36911971D01*
X197207571Y-36897685D01*
X197193285Y-36883400D01*
X197171857Y-36876257D01*
X197157571Y-36876257D01*
X197136142Y-36883400D01*
X197129000Y-36890542D01*
X196986142Y-37026257D02*
X197071857Y-37026257D01*
X197029000Y-37026257D02*
X197029000Y-36876257D01*
X197043285Y-36897685D01*
X197057571Y-36911971D01*
X197071857Y-36919114D01*
%TO.C,D3*%
X193210714Y-48601785D02*
X193210714Y-48376785D01*
X193175000Y-48376785D01*
X193153571Y-48387500D01*
X193139285Y-48408928D01*
X193132142Y-48430357D01*
X193125000Y-48473214D01*
X193125000Y-48505357D01*
X193132142Y-48548214D01*
X193139285Y-48569642D01*
X193153571Y-48591071D01*
X193175000Y-48601785D01*
X193210714Y-48601785D01*
X193075000Y-48376785D02*
X192982142Y-48376785D01*
X193032142Y-48462500D01*
X193010714Y-48462500D01*
X192996428Y-48473214D01*
X192989285Y-48483928D01*
X192982142Y-48505357D01*
X192982142Y-48558928D01*
X192989285Y-48580357D01*
X192996428Y-48591071D01*
X193010714Y-48601785D01*
X193053571Y-48601785D01*
X193067857Y-48591071D01*
X193075000Y-48580357D01*
D11*
%TO.C,U4*%
X193430000Y-41857000D02*
X193430000Y-40547000D01*
X189570000Y-41627000D02*
X190710000Y-41627000D01*
X190710000Y-41857000D02*
X193430000Y-41857000D01*
X190710000Y-41857000D02*
X190710000Y-41627000D01*
X190710000Y-37137000D02*
X190710000Y-37367000D01*
X193430000Y-37137000D02*
X190710000Y-37137000D01*
X193430000Y-38447000D02*
X193430000Y-37137000D01*
%TO.C,Enable_Current_sense*%
X182920000Y-68370000D02*
X182920000Y-67770000D01*
X182220000Y-67070000D02*
X180820000Y-67070000D01*
X180120000Y-67770000D02*
X180120000Y-68370000D01*
X180820000Y-69070000D02*
X182220000Y-69070000D01*
X180820000Y-67070000D02*
G75*
G03*
X180120000Y-67770000I0J-700000D01*
G01*
X180120000Y-68370000D02*
G75*
G03*
X180820000Y-69070000I700000J0D01*
G01*
X182220000Y-69070000D02*
G75*
G03*
X182920000Y-68370000I1J699999D01*
G01*
X182920000Y-67770000D02*
G75*
G03*
X182220000Y-67070000I-699999J1D01*
G01*
%TO.C,JP1*%
X176840800Y-51208800D02*
X176840800Y-51808800D01*
X179640800Y-51808800D02*
X179640800Y-51208800D01*
X178940800Y-50508800D02*
X177540800Y-50508800D01*
X177540800Y-52508800D02*
X178940800Y-52508800D01*
X177540800Y-50508800D02*
G75*
G03*
X176840800Y-51208800I0J-700000D01*
G01*
X178940800Y-52508800D02*
G75*
G03*
X179640800Y-51808800I1J699999D01*
G01*
X176840800Y-51808800D02*
G75*
G03*
X177540800Y-52508800I700000J0D01*
G01*
X179640800Y-51208800D02*
G75*
G03*
X178940800Y-50508800I-699999J1D01*
G01*
%TO.C,Current_Sense*%
X181035000Y-40944000D02*
X180948276Y-40944000D01*
X181035000Y-39574000D02*
X180340000Y-39574000D01*
X179645000Y-40944000D02*
X179645000Y-40819000D01*
X181035000Y-40944000D02*
X179645000Y-40944000D01*
X181035000Y-40259000D02*
X181035000Y-39574000D01*
X179731724Y-40944000D02*
X179645000Y-40944000D01*
X181035000Y-40944000D02*
X181035000Y-40819000D01*
D12*
%TO.C,U1*%
X187798000Y-46925000D02*
X187798000Y-47225000D01*
X187798000Y-52435000D02*
X187798000Y-52135000D01*
X182298000Y-52435000D02*
X182298000Y-52230000D01*
X182298000Y-46925000D02*
X182298000Y-47225000D01*
X182298000Y-52435000D02*
X187798000Y-52435000D01*
X182298000Y-52230000D02*
X180548000Y-52230000D01*
X182298000Y-46925000D02*
X187798000Y-46925000D01*
D11*
%TO.C,C2*%
X195377000Y-40086000D02*
X199287000Y-40086000D01*
X199287000Y-40086000D02*
X199287000Y-41956000D01*
X199287000Y-41956000D02*
X195377000Y-41956000D01*
%TO.C,R8*%
X195410936Y-50339500D02*
X195865064Y-50339500D01*
X195410936Y-51809500D02*
X195865064Y-51809500D01*
%TO.C,D4*%
X191347000Y-48827500D02*
X192817000Y-48827500D01*
X191347000Y-51112500D02*
X191347000Y-48827500D01*
X192817000Y-48827500D02*
X192817000Y-51112500D01*
%TO.C,ONEV_2*%
X187895000Y-54535000D02*
X187895000Y-59410000D01*
X187895000Y-53850000D02*
X187895000Y-53165000D01*
X186505000Y-54535000D02*
X186505000Y-59410000D01*
X187895000Y-59410000D02*
X187594493Y-59410000D01*
X186805507Y-59410000D02*
X186505000Y-59410000D01*
X186591724Y-54535000D02*
X186505000Y-54535000D01*
X187895000Y-53165000D02*
X187200000Y-53165000D01*
X187895000Y-54535000D02*
X187808276Y-54535000D01*
%TO.C,R7*%
X197389064Y-48253500D02*
X196934936Y-48253500D01*
X197389064Y-46783500D02*
X196934936Y-46783500D01*
%TO.C,R3*%
X188680000Y-66537064D02*
X188680000Y-62182936D01*
X185260000Y-66537064D02*
X185260000Y-62182936D01*
%TO.C,Torque_mode_EN*%
X185540000Y-58560000D02*
X185540000Y-57160000D01*
X184840000Y-56460000D02*
X184240000Y-56460000D01*
X183540000Y-57160000D02*
X183540000Y-58560000D01*
X184240000Y-59260000D02*
X184840000Y-59260000D01*
X184840000Y-59260000D02*
G75*
G03*
X185540000Y-58560000I1J699999D01*
G01*
X185540000Y-57160000D02*
G75*
G03*
X184840000Y-56460000I-700000J0D01*
G01*
X183540000Y-58560000D02*
G75*
G03*
X184240000Y-59260000I699999J-1D01*
G01*
X184240000Y-56460000D02*
G75*
G03*
X183540000Y-57160000I0J-700000D01*
G01*
%TO.C,C1*%
X199414000Y-37165000D02*
X199414000Y-39035000D01*
X199414000Y-39035000D02*
X195504000Y-39035000D01*
X195504000Y-37165000D02*
X199414000Y-37165000D01*
%TO.C,D3*%
X193898000Y-48253500D02*
X191613000Y-48253500D01*
X191613000Y-46783500D02*
X193898000Y-46783500D01*
X191613000Y-48253500D02*
X191613000Y-46783500D01*
%TD*%
M02*
