M48
; DRILL file {KiCad (6.0.5)} date Tue Jul 12 16:10:38 2022
; FORMAT={-:-/ absolute / inch / decimal}
; #@! TF.CreationDate,2022-07-12T16:10:38-04:00
; #@! TF.GenerationSoftware,Kicad,Pcbnew,(6.0.5)
; #@! TF.FileFunction,Plated,1,2,PTH
FMAT,2
INCH
; #@! TA.AperFunction,Plated,PTH,ViaDrill
T1C0.0157
; #@! TA.AperFunction,Plated,PTH,ComponentDrill
T2C0.0197
%
G90
G05
T1
X6.86Y-1.59
X6.8622Y-2.2795
X6.8937Y-2.065
X6.8976Y-2.2598
X6.9134Y-2.1811
X6.9301Y-1.9166
X7.0157Y-1.689
X7.0571Y-2.2283
X7.0682Y-1.7723
X7.095Y-1.689
X7.1063Y-2.2136
X7.135Y-1.76
X7.215Y-1.65
X7.295Y-1.535
X7.3051Y-2.19
X7.3071Y-2.0354
X7.3513Y-1.5127
X7.3665Y-1.66
X7.3669Y-2.4154
X7.3681Y-2.063
X7.3724Y-2.6484
X7.395Y-1.49
X7.4744Y-2.3563
X7.4839Y-1.4248
X7.4882Y-2.4921
X7.54Y-2.335
X7.6575Y-2.3031
X7.813Y-2.7382
X7.878Y-1.878
X7.878Y-2.3622
T2
X7.1Y-1.585
X7.3701Y-2.1201
X7.3701Y-2.1594
X7.3701Y-2.1988
X7.3701Y-2.2382
X7.3701Y-2.2776
X7.3701Y-2.3169
T0
M30
