M48
; DRILL file {KiCad (6.0.5)} date Sun Jul 17 20:22:08 2022
; FORMAT={-:-/ absolute / inch / decimal}
; #@! TF.CreationDate,2022-07-17T20:22:08-04:00
; #@! TF.GenerationSoftware,Kicad,Pcbnew,(6.0.5)
; #@! TF.FileFunction,Plated,1,2,PTH
FMAT,2
INCH
; #@! TA.AperFunction,Plated,PTH,ViaDrill
T1C0.0118
; #@! TA.AperFunction,Plated,PTH,ViaDrill
T2C0.0157
; #@! TA.AperFunction,Plated,PTH,ComponentDrill
T3C0.0197
%
G90
G05
T1
X6.803Y-1.6693
X6.8031Y-1.8897
X6.8031Y-1.4488
X6.8031Y-1.4803
X6.8031Y-1.5118
X6.8031Y-1.5433
X6.8031Y-1.5748
X6.8031Y-1.6063
X6.8031Y-1.6378
X6.8031Y-1.7008
X6.8031Y-1.7323
X6.8031Y-1.7638
X6.8031Y-1.7953
X6.8031Y-1.8268
X6.8031Y-1.8583
X6.8342Y-1.6374
X6.8343Y-2.7716
X6.8345Y-1.512
X6.8346Y-1.4488
X6.8346Y-1.4803
X6.8346Y-1.5433
X6.8346Y-1.5748
X6.8346Y-1.6063
X6.8346Y-2.4567
X6.8346Y-2.4882
X6.8346Y-2.5197
X6.8346Y-2.5512
X6.8346Y-2.5827
X6.8346Y-2.6142
X6.8346Y-2.6457
X6.8346Y-2.6772
X6.8346Y-2.7087
X6.8346Y-2.7402
X6.8346Y-2.8031
X6.8661Y-1.606
X6.8661Y-2.3936
X6.8661Y-2.7095
X6.8661Y-1.4488
X6.8661Y-1.4803
X6.8661Y-1.5118
X6.8661Y-1.5433
X6.8661Y-1.5748
X6.8661Y-2.3622
X6.8661Y-2.4882
X6.8661Y-2.5197
X6.8661Y-2.5512
X6.8661Y-2.5827
X6.8661Y-2.6142
X6.8661Y-2.6457
X6.8661Y-2.6772
X6.8661Y-2.7402
X6.8661Y-2.7717
X6.8661Y-2.8031
X6.8975Y-1.5431
X6.8976Y-1.5116
X6.8976Y-1.4488
X6.8976Y-1.4803
X6.8976Y-1.5748
X6.8976Y-2.8031
X6.91Y-2.41
X6.91Y-2.44
X6.91Y-2.54
X6.91Y-2.58
X6.91Y-2.62
X6.91Y-2.66
X6.91Y-2.7
X6.91Y-2.74
X6.9289Y-1.5431
X6.929Y-1.4803
X6.9291Y-1.4488
X6.9291Y-1.5118
X6.9291Y-2.8031
X6.9294Y-1.5745
X6.95Y-2.44
X6.95Y-2.48
X6.95Y-2.58
X6.95Y-2.62
X6.95Y-2.66
X6.95Y-2.7
X6.95Y-2.74
X6.9598Y-1.4801
X6.9604Y-1.5431
X6.9606Y-1.4488
X6.9606Y-1.5118
X6.9606Y-1.5748
X6.9606Y-2.8031
X6.99Y-2.48
X6.99Y-2.62
X6.99Y-2.66
X6.99Y-2.7
X6.99Y-2.74
X6.9918Y-1.5745
X6.992Y-1.4801
X6.9921Y-1.4488
X6.9921Y-1.5118
X6.9921Y-1.5433
X6.9921Y-2.8031
X7.02Y-2.74
X7.0236Y-1.4488
X7.0236Y-1.4803
X7.0236Y-1.5118
X7.0236Y-1.5433
X7.0236Y-1.5748
X7.0236Y-2.8031
X7.03Y-2.7
X7.04Y-2.52
X7.04Y-2.56
X7.0551Y-1.4488
X7.0551Y-1.4803
X7.0551Y-1.5118
X7.0551Y-1.5433
X7.0551Y-1.5748
X7.0551Y-2.8031
X7.07Y-2.74
X7.0863Y-1.5748
X7.0864Y-2.8029
X7.0866Y-1.4801
X7.0866Y-1.4488
X7.0866Y-1.5118
X7.0866Y-1.5433
X7.09Y-2.56
X7.09Y-2.6
X7.1Y-2.41
X7.1Y-2.44
X7.1181Y-1.4488
X7.1181Y-1.4803
X7.1181Y-1.5118
X7.1181Y-1.5433
X7.1181Y-1.5748
X7.1181Y-2.8031
X7.13Y-2.56
X7.13Y-2.6
X7.13Y-2.64
X7.14Y-2.41
X7.14Y-2.4409
X7.14Y-2.48
X7.1496Y-1.4488
X7.1496Y-1.4803
X7.1496Y-1.5118
X7.1496Y-1.5433
X7.1496Y-1.5748
X7.1496Y-2.8031
X7.17Y-2.56
X7.17Y-2.6
X7.17Y-2.64
X7.17Y-2.68
X7.18Y-2.41
X7.18Y-2.44
X7.18Y-2.48
X7.1811Y-1.4488
X7.1811Y-1.4803
X7.1811Y-1.5118
X7.1811Y-1.5433
X7.1811Y-2.8031
X7.21Y-2.41
X7.21Y-2.44
X7.21Y-2.48
X7.21Y-2.56
X7.21Y-2.61
X7.21Y-2.66
X7.21Y-2.7
X7.21Y-2.74
X7.2126Y-1.4488
X7.2126Y-1.4803
X7.2126Y-1.5118
X7.2441Y-1.4488
X7.2441Y-1.4803
X7.259Y-2.7393
X7.26Y-2.41
X7.26Y-2.44
X7.26Y-2.48
X7.26Y-2.56
X7.26Y-2.61
X7.26Y-2.66
X7.26Y-2.7
X7.2755Y-2.803
X7.2756Y-1.4488
X7.3Y-2.74
X7.3071Y-1.4488
X7.3071Y-2.8031
X7.3386Y-1.4488
X7.3386Y-2.8031
X7.3701Y-1.4488
X7.3701Y-2.7087
X7.3701Y-2.7402
X7.3701Y-2.7717
X7.3701Y-2.8031
X7.4014Y-2.7084
X7.4016Y-1.4488
X7.4016Y-2.7402
X7.4331Y-1.4488
X7.4331Y-2.7087
X7.4331Y-2.7402
X7.45Y-1.51
X7.46Y-1.55
X7.46Y-1.59
X7.46Y-1.63
X7.46Y-1.67
X7.46Y-1.71
X7.46Y-1.75
X7.46Y-1.79
X7.46Y-1.83
X7.4643Y-2.7084
X7.4646Y-1.4488
X7.4646Y-2.6772
X7.4646Y-2.7402
X7.49Y-1.51
X7.4961Y-1.4488
X7.4961Y-1.8898
X7.5Y-1.55
X7.5Y-1.59
X7.5Y-1.63
X7.5Y-1.67
X7.5Y-1.71
X7.5Y-1.75
X7.5Y-1.79
X7.5Y-1.83
X7.5276Y-1.4488
X7.5276Y-1.8898
X7.53Y-1.51
X7.54Y-1.55
X7.54Y-1.59
X7.54Y-1.63
X7.54Y-1.67
X7.54Y-1.71
X7.54Y-1.75
X7.54Y-1.79
X7.54Y-1.83
X7.5591Y-1.4488
X7.5591Y-1.8898
X7.575Y-1.51
X7.58Y-1.55
X7.58Y-1.59
X7.58Y-1.63
X7.58Y-1.67
X7.58Y-1.71
X7.58Y-1.75
X7.58Y-1.79
X7.58Y-1.83
X7.5906Y-1.4488
X7.5906Y-1.8898
X7.61Y-1.51
X7.61Y-1.55
X7.62Y-1.83
X7.622Y-1.4488
X7.64Y-1.59
X7.64Y-1.63
X7.64Y-1.67
X7.64Y-1.71
X7.64Y-1.75
X7.64Y-1.79
X7.65Y-1.51
X7.65Y-1.55
X7.6535Y-1.4488
X7.66Y-1.83
X7.68Y-1.55
X7.68Y-1.59
X7.68Y-1.63
X7.68Y-1.67
X7.68Y-1.71
X7.68Y-1.75
X7.68Y-1.79
X7.685Y-1.51
X7.685Y-1.8896
X7.685Y-1.4488
X7.7Y-1.83
X7.71Y-1.67
X7.71Y-1.75
X7.7165Y-1.4488
X7.7165Y-1.8898
X7.72Y-1.51
X7.72Y-1.55
X7.72Y-1.59
X7.72Y-1.63
X7.72Y-1.71
X7.72Y-1.79
X7.74Y-1.83
X7.748Y-1.4488
X7.748Y-1.8898
X7.75Y-1.67
X7.75Y-1.75
X7.755Y-1.51
X7.76Y-1.55
X7.76Y-1.59
X7.76Y-1.63
X7.76Y-1.71
X7.76Y-1.79
X7.7795Y-1.4488
X7.7795Y-1.8898
X7.79Y-1.51
X7.79Y-1.67
X7.79Y-1.75
X7.79Y-1.83
X7.8Y-1.55
X7.8Y-1.59
X7.8Y-1.63
X7.8Y-1.71
X7.8Y-1.79
X7.811Y-1.4488
X7.811Y-1.8898
X7.83Y-1.51
X7.83Y-1.55
X7.83Y-1.59
X7.83Y-1.63
X7.83Y-1.67
X7.83Y-1.71
X7.83Y-1.75
X7.83Y-1.79
X7.83Y-1.83
X7.8425Y-1.4488
X7.8739Y-1.5748
X7.874Y-1.4488
X7.874Y-1.4803
X7.874Y-1.5118
X7.874Y-1.5433
X7.874Y-1.6063
X7.874Y-1.6378
X7.874Y-1.6693
X7.874Y-1.7008
X7.874Y-1.7323
X7.874Y-1.7638
X7.874Y-1.7953
X7.874Y-1.8268
T2
X6.8622Y-2.2795
X6.8937Y-2.065
X6.8976Y-2.2598
X6.9134Y-2.1811
X6.9301Y-1.9166
X6.9362Y-2.107
X6.9728Y-2.2142
X7.0362Y-2.1791
X7.1063Y-2.2136
X7.135Y-1.76
X7.2539Y-1.7224
X7.368Y-2.484
X7.3724Y-2.6484
X7.395Y-1.49
X7.414Y-2.15
X7.4744Y-2.3563
X7.4882Y-2.4921
X7.54Y-2.335
X7.6496Y-2.6421
X7.6575Y-2.3031
X7.7461Y-2.6949
X7.874Y-2.302
X7.878Y-1.878
T3
X7.3807Y-2.2898
X7.514Y-2.808
X7.5534Y-2.808
X7.5927Y-2.808
X7.6321Y-2.808
X7.6715Y-2.808
X7.7109Y-2.808
X7.852Y-2.3826
X7.852Y-2.422
X7.852Y-2.4614
T0
M30
