%TF.GenerationSoftware,KiCad,Pcbnew,(6.0.5)*%
%TF.CreationDate,2022-07-17T20:22:06-04:00*%
%TF.ProjectId,torque_motor_design,746f7271-7565-45f6-9d6f-746f725f6465,rev?*%
%TF.SameCoordinates,Original*%
%TF.FileFunction,Copper,L2,Bot*%
%TF.FilePolarity,Positive*%
%FSLAX46Y46*%
G04 Gerber Fmt 4.6, Leading zero omitted, Abs format (unit mm)*
G04 Created by KiCad (PCBNEW (6.0.5)) date 2022-07-17 20:22:06*
%MOMM*%
%LPD*%
G01*
G04 APERTURE LIST*
G04 Aperture macros list*
%AMRoundRect*
0 Rectangle with rounded corners*
0 $1 Rounding radius*
0 $2 $3 $4 $5 $6 $7 $8 $9 X,Y pos of 4 corners*
0 Add a 4 corners polygon primitive as box body*
4,1,4,$2,$3,$4,$5,$6,$7,$8,$9,$2,$3,0*
0 Add four circle primitives for the rounded corners*
1,1,$1+$1,$2,$3*
1,1,$1+$1,$4,$5*
1,1,$1+$1,$6,$7*
1,1,$1+$1,$8,$9*
0 Add four rect primitives between the rounded corners*
20,1,$1+$1,$2,$3,$4,$5,0*
20,1,$1+$1,$4,$5,$6,$7,0*
20,1,$1+$1,$6,$7,$8,$9,0*
20,1,$1+$1,$8,$9,$2,$3,0*%
G04 Aperture macros list end*
%TA.AperFunction,ComponentPad*%
%ADD10R,0.850000X0.850000*%
%TD*%
%TA.AperFunction,ComponentPad*%
%ADD11O,0.850000X0.850000*%
%TD*%
%TA.AperFunction,SMDPad,CuDef*%
%ADD12RoundRect,0.250000X1.425000X-0.362500X1.425000X0.362500X-1.425000X0.362500X-1.425000X-0.362500X0*%
%TD*%
%TA.AperFunction,ViaPad*%
%ADD13C,0.600000*%
%TD*%
%TA.AperFunction,ViaPad*%
%ADD14C,0.800000*%
%TD*%
%TA.AperFunction,Conductor*%
%ADD15C,0.400000*%
%TD*%
%TA.AperFunction,Conductor*%
%ADD16C,0.250000*%
%TD*%
G04 APERTURE END LIST*
D10*
%TO.P,header_2,1*%
%TO.N,N/C*%
X199440800Y-60518800D03*
D11*
%TO.P,header_2,2*%
%TO.N,GND*%
X199440800Y-61518800D03*
%TO.P,header_2,3*%
%TO.N,+V*%
X199440800Y-62518800D03*
%TD*%
D10*
%TO.P,Current_Sense,1*%
%TO.N,current_sense*%
X187470000Y-58160000D03*
%TD*%
%TO.P,header,1*%
%TO.N,N/C*%
X190855600Y-71323200D03*
D11*
%TO.P,header,2*%
X191855600Y-71323200D03*
%TO.P,header,3*%
X192855600Y-71323200D03*
%TO.P,header,4*%
%TO.N,Net-(Motor-1-Pad1)*%
X193855600Y-71323200D03*
%TO.P,header,5*%
%TO.N,Torque_Mode*%
X194855600Y-71323200D03*
%TO.P,header,6*%
%TO.N,current_sense*%
X195855600Y-71323200D03*
%TD*%
D12*
%TO.P,R3,1*%
%TO.N,Net-(Motor-1-Pad1)*%
X186970000Y-67322500D03*
%TO.P,R3,2*%
%TO.N,GND*%
X186970000Y-61397500D03*
%TD*%
D13*
%TO.N,-V*%
X180086000Y-66040000D03*
X182118000Y-68072000D03*
X181102000Y-67056000D03*
X182118000Y-67056000D03*
X182118000Y-66040000D03*
X181102000Y-66040000D03*
X182118000Y-65024000D03*
X181102000Y-65024000D03*
X180086000Y-65024000D03*
X178816000Y-65024000D03*
X178816000Y-64008000D03*
X176530000Y-62992000D03*
X177546000Y-62992000D03*
X176530000Y-61976000D03*
X175514000Y-61976000D03*
X175514000Y-61214000D03*
X181356000Y-62992000D03*
X182372000Y-62992000D03*
X182372000Y-61976000D03*
X181356000Y-62000000D03*
X180340000Y-61976000D03*
X180340000Y-61214000D03*
X181356000Y-61214000D03*
X182372000Y-61214000D03*
X183134000Y-61214000D03*
X184404000Y-61214000D03*
X184404000Y-61976000D03*
X183134000Y-61976000D03*
X183134000Y-62992000D03*
X184404000Y-62992000D03*
X184404000Y-65024000D03*
X183134000Y-65024000D03*
X183134000Y-66294000D03*
X184404000Y-66294000D03*
X184404000Y-67564000D03*
X183134000Y-67564000D03*
X183134000Y-68580000D03*
X184404000Y-68580000D03*
X177546000Y-66548000D03*
X176530000Y-66548000D03*
X176530000Y-65532000D03*
X175514000Y-64516000D03*
X175514000Y-65532000D03*
X175514000Y-66548000D03*
X175514000Y-67564000D03*
X176530000Y-67564000D03*
X177546000Y-67564000D03*
X178562000Y-68580000D03*
X177546000Y-68580000D03*
X176530000Y-68580000D03*
X175514000Y-68580000D03*
X175514000Y-69596000D03*
X176530000Y-69596000D03*
X177546000Y-69596000D03*
X178308000Y-69596000D03*
X179578000Y-69596000D03*
X183134000Y-69596000D03*
X184378642Y-69578787D03*
X185420000Y-69596000D03*
X198120000Y-41402000D03*
X197104000Y-41402000D03*
X196088000Y-41402000D03*
X195072000Y-41402000D03*
X195072000Y-42418000D03*
X195834000Y-42418000D03*
X196850000Y-42418000D03*
X197866000Y-42418000D03*
X198120000Y-43434000D03*
X197104000Y-43434000D03*
X196088000Y-43434000D03*
X195072000Y-43434000D03*
X195072000Y-44450000D03*
X195834000Y-44450000D03*
X196850000Y-44450000D03*
X197866000Y-44450000D03*
X198120000Y-45466000D03*
X197104000Y-45466000D03*
X196088000Y-45466000D03*
X195072000Y-45466000D03*
X194056000Y-45466000D03*
X194056000Y-44450000D03*
X194056000Y-43434000D03*
X194056000Y-42418000D03*
X194056000Y-41402000D03*
X194056000Y-40386000D03*
X195072000Y-40386000D03*
X196088000Y-40386000D03*
X197104000Y-40386000D03*
X198120000Y-40386000D03*
X198120000Y-39370000D03*
X197104000Y-39370000D03*
X196088000Y-39370000D03*
X195072000Y-39370000D03*
X194310000Y-39370000D03*
X193294000Y-39370000D03*
X190500000Y-45466000D03*
X191516000Y-45466000D03*
X192532000Y-45466000D03*
X192532000Y-44450000D03*
X191516000Y-44450000D03*
X190500000Y-44450000D03*
X192532000Y-43434000D03*
X191516000Y-43434000D03*
X190500000Y-43434000D03*
X190500000Y-42418000D03*
X191516000Y-42418000D03*
X192532000Y-42418000D03*
X192532000Y-41402000D03*
X191516000Y-41402000D03*
X190500000Y-41402000D03*
X190500000Y-40386000D03*
X191516000Y-40386000D03*
X192532000Y-40386000D03*
X192532000Y-39370000D03*
X191516000Y-39370000D03*
X190500000Y-39370000D03*
X189484000Y-39370000D03*
X189484000Y-40386000D03*
X189484000Y-41402000D03*
X189484000Y-42418000D03*
X189484000Y-43434000D03*
X189484000Y-44450000D03*
X189484000Y-45466000D03*
X189484000Y-46482000D03*
X190500000Y-46482000D03*
X191516000Y-46482000D03*
X192532000Y-46482000D03*
X193548000Y-46482000D03*
X194564000Y-46482000D03*
X195580000Y-46482000D03*
X196596000Y-46482000D03*
X197866000Y-46482000D03*
X198882000Y-46482000D03*
X198882000Y-45466000D03*
X198882000Y-44450000D03*
X198882000Y-43434000D03*
X198882000Y-42418000D03*
X198882000Y-41402000D03*
X198882000Y-40386000D03*
X198882000Y-39370000D03*
X189230000Y-38354000D03*
X190246000Y-38354000D03*
X191262000Y-38354000D03*
X192405000Y-38354000D03*
X193294000Y-38354000D03*
X194310000Y-38354000D03*
X195199000Y-38354000D03*
X196088000Y-38354000D03*
X196977000Y-38354000D03*
X197866000Y-38354000D03*
X198882000Y-38354000D03*
D14*
%TO.N,+V*%
X175100000Y-52450000D03*
X177110000Y-56240000D03*
X174300000Y-57900000D03*
X194300000Y-67110000D03*
X175600000Y-55400000D03*
X190200000Y-63300000D03*
D13*
%TO.N,-V*%
X173600000Y-37600000D03*
X190400000Y-48000000D03*
X173600000Y-67200000D03*
X179200000Y-71200000D03*
X192800000Y-36800000D03*
X184000000Y-36800000D03*
X200000000Y-40800000D03*
X188000000Y-69600000D03*
D14*
X176025500Y-48681601D03*
D13*
X186400000Y-36800000D03*
X186400000Y-71200000D03*
X185600000Y-71200000D03*
X178400000Y-38400000D03*
X187200000Y-36800000D03*
X189600000Y-69600000D03*
X172800000Y-38400000D03*
X174400000Y-60000000D03*
X196800000Y-36800000D03*
X175200000Y-36800000D03*
X177591969Y-39993077D03*
X183200000Y-37600000D03*
X172800000Y-41600000D03*
X174400000Y-40000000D03*
X175196787Y-39194683D03*
X180000000Y-39200000D03*
X173600000Y-64000000D03*
X182400000Y-71200000D03*
X172800000Y-46400000D03*
X174399999Y-68821876D03*
X174400000Y-39200000D03*
X195199866Y-47996521D03*
X181600000Y-37600000D03*
X192800000Y-48000000D03*
X176793575Y-39194683D03*
X174400000Y-36800000D03*
X177600000Y-71200000D03*
X200000000Y-43200000D03*
X200000000Y-37600000D03*
X179994781Y-71194781D03*
D14*
X189850000Y-59850000D03*
D13*
X188000000Y-36800000D03*
X180800000Y-40000000D03*
X190400000Y-36800000D03*
X174400000Y-70400000D03*
X184796521Y-71196521D03*
D14*
X196750000Y-68450000D03*
D13*
X180800000Y-36800000D03*
X188800000Y-36800000D03*
X173600000Y-71200000D03*
X196800000Y-48000000D03*
X172800000Y-45600000D03*
X200000000Y-39200000D03*
X173588258Y-41589864D03*
X181600000Y-71200000D03*
X174400000Y-68000000D03*
X184800000Y-36800000D03*
X175198393Y-38394781D03*
D14*
X175200000Y-57400000D03*
D13*
X175200000Y-37600000D03*
X174400000Y-64000000D03*
X174400000Y-37600000D03*
X200000000Y-44800000D03*
X176000000Y-71200000D03*
X179200000Y-40000000D03*
X179200000Y-37600000D03*
X179999599Y-37594781D03*
X192000000Y-36800000D03*
X189600000Y-68000000D03*
X191200000Y-48000000D03*
X192000000Y-48000000D03*
X174400000Y-67200000D03*
X199200000Y-36800000D03*
X172796521Y-42399999D03*
X175996654Y-37599999D03*
X200000000Y-45600000D03*
X173600000Y-68000000D03*
X176778726Y-37594781D03*
X177600000Y-39200000D03*
X188800000Y-69600000D03*
X189593575Y-68793778D03*
X198400000Y-48000000D03*
X187200000Y-69600000D03*
X178400000Y-40000000D03*
X178400000Y-39200000D03*
X187200000Y-71200000D03*
X182400000Y-36800000D03*
X173592172Y-70398393D03*
X187200000Y-68800000D03*
X177597993Y-37594781D03*
X173600000Y-36800000D03*
X174398393Y-60798393D03*
X182400000Y-38400000D03*
X200000000Y-42400000D03*
X179992172Y-39999999D03*
X173600000Y-66400000D03*
X172800000Y-36800000D03*
X176800000Y-71200000D03*
X174400000Y-38400000D03*
X173600000Y-62400000D03*
X180800000Y-38400000D03*
X200000000Y-46400000D03*
X181600000Y-36800000D03*
X173600000Y-68800000D03*
X189600000Y-36800000D03*
X174400000Y-66400000D03*
X174398393Y-40791471D03*
X182400000Y-39200000D03*
X179200000Y-39200000D03*
X180800000Y-39200000D03*
X173600000Y-40000000D03*
X175995181Y-39194683D03*
X200000000Y-41600000D03*
X179200000Y-36800000D03*
X175200000Y-40000000D03*
X181600000Y-38400000D03*
X173596521Y-38403612D03*
X172800000Y-37600000D03*
X178400000Y-36800000D03*
X176000000Y-36800000D03*
X181600000Y-40000000D03*
X176800000Y-40000000D03*
X188800000Y-68800000D03*
X173600000Y-69600000D03*
X173600000Y-65600000D03*
X172797680Y-47997680D03*
X173600000Y-39200000D03*
X200000000Y-44000000D03*
X187996787Y-68793778D03*
X187200000Y-70400000D03*
X172800000Y-44000000D03*
X173600000Y-40800000D03*
X191200000Y-36800000D03*
X173600000Y-64800000D03*
X172800000Y-39200000D03*
X180000000Y-38400000D03*
X183200000Y-36800000D03*
X176000000Y-38400000D03*
X176800000Y-36800000D03*
X172800000Y-40800000D03*
X200000000Y-36800000D03*
X178400000Y-37600000D03*
X180000000Y-36800000D03*
X184000000Y-37600000D03*
X199996521Y-39999999D03*
X200000000Y-38400000D03*
X197600000Y-48000000D03*
X177600000Y-36800000D03*
X180800000Y-37600000D03*
X182400000Y-37600000D03*
X175200000Y-71200000D03*
X194400000Y-36800000D03*
X180800000Y-71200000D03*
X177600000Y-38400000D03*
X198400000Y-36800000D03*
X185600000Y-36800000D03*
D14*
X199999600Y-58470800D03*
D13*
X172800000Y-47200000D03*
X173600000Y-63200000D03*
X178400000Y-71200000D03*
X172800000Y-43200000D03*
X176006922Y-39993077D03*
X193600000Y-36800000D03*
D14*
X200100000Y-47700000D03*
D13*
X172800000Y-44800000D03*
X174400000Y-71200000D03*
X179200000Y-38400000D03*
X174400000Y-69600000D03*
X183200000Y-38400000D03*
X181600000Y-39200000D03*
X174400000Y-64800000D03*
X196000000Y-48000000D03*
X195200000Y-36800000D03*
D14*
X180500000Y-56225000D03*
D13*
X196000000Y-36800000D03*
X174400000Y-63200000D03*
X172800000Y-40000000D03*
X176800000Y-38400000D03*
X174400000Y-65600000D03*
X197600000Y-36800000D03*
D14*
%TO.N,Torque_Mode*%
X187833000Y-37846000D03*
%TO.N,GND*%
X191516000Y-59309000D03*
X188315600Y-54610000D03*
X187147200Y-63093600D03*
X181229000Y-44704000D03*
X184250000Y-43750000D03*
X176179854Y-53518867D03*
X178720000Y-55350000D03*
X194500000Y-58500000D03*
%TO.N,Net-(Motor-1-Pad1)*%
X187260000Y-67270000D03*
%TD*%
D15*
%TO.N,+V*%
X199440800Y-66819170D02*
X199440800Y-62518800D01*
X174569320Y-57900000D02*
X180512431Y-63843111D01*
X175600000Y-55400000D02*
X176270000Y-55400000D01*
X176270000Y-55400000D02*
X177110000Y-56240000D01*
X175100000Y-52450000D02*
X175100000Y-54230000D01*
X175100000Y-54230000D02*
X177110000Y-56240000D01*
X196389511Y-69199511D02*
X197060459Y-69199511D01*
X180512431Y-63843111D02*
X189656889Y-63843111D01*
X194300000Y-67110000D02*
X196389511Y-69199511D01*
X189656889Y-63843111D02*
X190200000Y-63300000D01*
X197060459Y-69199511D02*
X199440800Y-66819170D01*
X174300000Y-57900000D02*
X174569320Y-57900000D01*
%TO.N,-V*%
X174300489Y-50406612D02*
X174300489Y-56500489D01*
X196750000Y-66750000D02*
X189850000Y-59850000D01*
X177650000Y-59850000D02*
X175200000Y-57400000D01*
X180500000Y-56225000D02*
X180500000Y-56480680D01*
X176025500Y-48681601D02*
X174300489Y-50406612D01*
X189850000Y-59850000D02*
X177650000Y-59850000D01*
X174300489Y-56500489D02*
X175200000Y-57400000D01*
X180500000Y-56480680D02*
X179580680Y-57400000D01*
X179580680Y-57400000D02*
X175200000Y-57400000D01*
X196750000Y-68450000D02*
X196750000Y-66750000D01*
D16*
%TO.N,Torque_Mode*%
X185724800Y-37846000D02*
X187833000Y-37846000D01*
X184239911Y-72022711D02*
X173532800Y-61315600D01*
X194855600Y-71323200D02*
X194156089Y-72022711D01*
X194156089Y-72022711D02*
X184239911Y-72022711D01*
X173532800Y-50038000D02*
X185724800Y-37846000D01*
X173532800Y-61315600D02*
X173532800Y-50038000D01*
%TO.N,GND*%
X176179854Y-53518867D02*
X178010987Y-55350000D01*
X186970000Y-62916400D02*
X187147200Y-63093600D01*
X181229000Y-44704000D02*
X181229000Y-48469721D01*
X191382489Y-59175489D02*
X186480289Y-59175489D01*
X180823667Y-53518867D02*
X176179854Y-53518867D01*
X181229000Y-47523400D02*
X181229000Y-44704000D01*
X188315600Y-54610000D02*
X181229000Y-47523400D01*
X194500000Y-58500000D02*
X192325000Y-58500000D01*
X199440800Y-61518800D02*
X197518800Y-61518800D01*
X182183000Y-43750000D02*
X184250000Y-43750000D01*
X187017500Y-61350000D02*
X186970000Y-61397500D01*
X178010987Y-55350000D02*
X178720000Y-55350000D01*
X186480289Y-59175489D02*
X180823667Y-53518867D01*
X192325000Y-58500000D02*
X191516000Y-59309000D01*
X197518800Y-61518800D02*
X194500000Y-58500000D01*
X181229000Y-48469721D02*
X176179854Y-53518867D01*
X181229000Y-44704000D02*
X182183000Y-43750000D01*
X187120000Y-61350000D02*
X187017500Y-61350000D01*
X186970000Y-61397500D02*
X186970000Y-62916400D01*
X191516000Y-59309000D02*
X191382489Y-59175489D01*
D15*
%TO.N,Net-(Motor-1-Pad1)*%
X187260000Y-67270000D02*
X190403440Y-67270000D01*
X193855600Y-70722160D02*
X193855600Y-71323200D01*
X187022500Y-67270000D02*
X186970000Y-67322500D01*
X190403440Y-67270000D02*
X193855600Y-70722160D01*
X187260000Y-67270000D02*
X187022500Y-67270000D01*
D16*
%TO.N,current_sense*%
X200253600Y-59436000D02*
X199491600Y-59436000D01*
X199491600Y-59436000D02*
X196291200Y-56235600D01*
X200253600Y-66925200D02*
X200253600Y-59436000D01*
X187470000Y-57182800D02*
X187470000Y-58160000D01*
X195855600Y-71323200D02*
X200253600Y-66925200D01*
X188417200Y-56235600D02*
X187470000Y-57182800D01*
X196291200Y-56235600D02*
X188417200Y-56235600D01*
%TD*%
%TA.AperFunction,Conductor*%
%TO.N,GND*%
G36*
X189306716Y-60578502D02*
G01*
X189312656Y-60582564D01*
X189380916Y-60632158D01*
X189393248Y-60641118D01*
X189399276Y-60643802D01*
X189399278Y-60643803D01*
X189550842Y-60711283D01*
X189567712Y-60718794D01*
X189704411Y-60747850D01*
X189720569Y-60751285D01*
X189783467Y-60785437D01*
X196004595Y-67006565D01*
X196038621Y-67068877D01*
X196041500Y-67095660D01*
X196041500Y-67545340D01*
X196021498Y-67613461D01*
X195967842Y-67659954D01*
X195897568Y-67670058D01*
X195832988Y-67640564D01*
X195826405Y-67634435D01*
X195234665Y-67042695D01*
X195200639Y-66980383D01*
X195198450Y-66966770D01*
X195194232Y-66926637D01*
X195194232Y-66926635D01*
X195193542Y-66920072D01*
X195134527Y-66738444D01*
X195113990Y-66702872D01*
X195083286Y-66649692D01*
X195039040Y-66573056D01*
X195025611Y-66558141D01*
X194915675Y-66436045D01*
X194915674Y-66436044D01*
X194911253Y-66431134D01*
X194756752Y-66318882D01*
X194750724Y-66316198D01*
X194750722Y-66316197D01*
X194588319Y-66243891D01*
X194588318Y-66243891D01*
X194582288Y-66241206D01*
X194462175Y-66215675D01*
X194401944Y-66202872D01*
X194401939Y-66202872D01*
X194395487Y-66201500D01*
X194204513Y-66201500D01*
X194198061Y-66202872D01*
X194198056Y-66202872D01*
X194137825Y-66215675D01*
X194017712Y-66241206D01*
X194011682Y-66243891D01*
X194011681Y-66243891D01*
X193849278Y-66316197D01*
X193849276Y-66316198D01*
X193843248Y-66318882D01*
X193688747Y-66431134D01*
X193684326Y-66436044D01*
X193684325Y-66436045D01*
X193574390Y-66558141D01*
X193560960Y-66573056D01*
X193516714Y-66649692D01*
X193486011Y-66702872D01*
X193465473Y-66738444D01*
X193406458Y-66920072D01*
X193405768Y-66926633D01*
X193405768Y-66926635D01*
X193392826Y-67049771D01*
X193386496Y-67110000D01*
X193387186Y-67116565D01*
X193397264Y-67212448D01*
X193406458Y-67299928D01*
X193465473Y-67481556D01*
X193560960Y-67646944D01*
X193565378Y-67651851D01*
X193565379Y-67651852D01*
X193684325Y-67783955D01*
X193688747Y-67788866D01*
X193777017Y-67852998D01*
X193815125Y-67880685D01*
X193843248Y-67901118D01*
X193849276Y-67903802D01*
X193849278Y-67903803D01*
X194011681Y-67976109D01*
X194017712Y-67978794D01*
X194154411Y-68007850D01*
X194170569Y-68011285D01*
X194233467Y-68045437D01*
X195868061Y-69680031D01*
X195873915Y-69686296D01*
X195911950Y-69729896D01*
X195918168Y-69734266D01*
X195964208Y-69766623D01*
X195969504Y-69770556D01*
X196019793Y-69809988D01*
X196026715Y-69813113D01*
X196028963Y-69814475D01*
X196043696Y-69822879D01*
X196046035Y-69824133D01*
X196052250Y-69828501D01*
X196059326Y-69831260D01*
X196059330Y-69831262D01*
X196111780Y-69851711D01*
X196117858Y-69854266D01*
X196165805Y-69875915D01*
X196219658Y-69922176D01*
X196239953Y-69990210D01*
X196220243Y-70058416D01*
X196203049Y-70079846D01*
X195930100Y-70352795D01*
X195867788Y-70386821D01*
X195841005Y-70389700D01*
X195757485Y-70389700D01*
X195751032Y-70391072D01*
X195751028Y-70391072D01*
X195675873Y-70407047D01*
X195565544Y-70430498D01*
X195559514Y-70433183D01*
X195559513Y-70433183D01*
X195533551Y-70444742D01*
X195406848Y-70501154D01*
X195336482Y-70510588D01*
X195304353Y-70501155D01*
X195177649Y-70444742D01*
X195151687Y-70433183D01*
X195151686Y-70433183D01*
X195145656Y-70430498D01*
X195035327Y-70407047D01*
X194960172Y-70391072D01*
X194960168Y-70391072D01*
X194953715Y-70389700D01*
X194757485Y-70389700D01*
X194748998Y-70391504D01*
X194605851Y-70421930D01*
X194535061Y-70416528D01*
X194478428Y-70373711D01*
X194472545Y-70364846D01*
X194469915Y-70358855D01*
X194465296Y-70352836D01*
X194465294Y-70352832D01*
X194444140Y-70325265D01*
X194431013Y-70308158D01*
X194427141Y-70302828D01*
X194395261Y-70256440D01*
X194395256Y-70256435D01*
X194390957Y-70250179D01*
X194384100Y-70244069D01*
X194344430Y-70208725D01*
X194339154Y-70203744D01*
X190924890Y-66789480D01*
X190919036Y-66783215D01*
X190888045Y-66747690D01*
X190881001Y-66739615D01*
X190828720Y-66702871D01*
X190823426Y-66698939D01*
X190779133Y-66664209D01*
X190773158Y-66659524D01*
X190766242Y-66656401D01*
X190763956Y-66655017D01*
X190749275Y-66646643D01*
X190746915Y-66645378D01*
X190740701Y-66641010D01*
X190733622Y-66638250D01*
X190733620Y-66638249D01*
X190681165Y-66617798D01*
X190675096Y-66615247D01*
X190616867Y-66588955D01*
X190609400Y-66587571D01*
X190606845Y-66586770D01*
X190590592Y-66582141D01*
X190588012Y-66581478D01*
X190580931Y-66578718D01*
X190573400Y-66577727D01*
X190573398Y-66577726D01*
X190543779Y-66573827D01*
X190517579Y-66570378D01*
X190511081Y-66569348D01*
X190448254Y-66557704D01*
X190440674Y-66558141D01*
X190440673Y-66558141D01*
X190386048Y-66561291D01*
X190378794Y-66561500D01*
X189110617Y-66561500D01*
X189042496Y-66541498D01*
X189003474Y-66501805D01*
X188997332Y-66491880D01*
X188993478Y-66485652D01*
X188868303Y-66360695D01*
X188862072Y-66356854D01*
X188723968Y-66271725D01*
X188723966Y-66271724D01*
X188717738Y-66267885D01*
X188616066Y-66234162D01*
X188556389Y-66214368D01*
X188556387Y-66214368D01*
X188549861Y-66212203D01*
X188543025Y-66211503D01*
X188543022Y-66211502D01*
X188499969Y-66207091D01*
X188445400Y-66201500D01*
X185494600Y-66201500D01*
X185491354Y-66201837D01*
X185491350Y-66201837D01*
X185395692Y-66211762D01*
X185395688Y-66211763D01*
X185388834Y-66212474D01*
X185382298Y-66214655D01*
X185382296Y-66214655D01*
X185362709Y-66221190D01*
X185291760Y-66223774D01*
X185230676Y-66187591D01*
X185200514Y-66127443D01*
X185199744Y-66127618D01*
X185199033Y-66124489D01*
X185198851Y-66124126D01*
X185198670Y-66122892D01*
X185198182Y-66120745D01*
X185197397Y-66113745D01*
X185171103Y-66038238D01*
X185140064Y-65949106D01*
X185140062Y-65949103D01*
X185137745Y-65942448D01*
X185041626Y-65788624D01*
X185028935Y-65775844D01*
X185001979Y-65748699D01*
X184968172Y-65686268D01*
X184973484Y-65615470D01*
X185004492Y-65568670D01*
X185013872Y-65559737D01*
X185027266Y-65546982D01*
X185127643Y-65395902D01*
X185192055Y-65226338D01*
X185204010Y-65141273D01*
X185216748Y-65050639D01*
X185216748Y-65050636D01*
X185217299Y-65046717D01*
X185217616Y-65024000D01*
X185197397Y-64843745D01*
X185193546Y-64832685D01*
X185153973Y-64719048D01*
X185150459Y-64648138D01*
X185185841Y-64586586D01*
X185248883Y-64553934D01*
X185272964Y-64551611D01*
X189627977Y-64551611D01*
X189636547Y-64551903D01*
X189686665Y-64555320D01*
X189686669Y-64555320D01*
X189694241Y-64555836D01*
X189701718Y-64554531D01*
X189701719Y-64554531D01*
X189728197Y-64549910D01*
X189757192Y-64544849D01*
X189763710Y-64543888D01*
X189827131Y-64536213D01*
X189834232Y-64533530D01*
X189836841Y-64532889D01*
X189853151Y-64528426D01*
X189855687Y-64527661D01*
X189863173Y-64526354D01*
X189921689Y-64500667D01*
X189927793Y-64498176D01*
X189980437Y-64478284D01*
X189980438Y-64478283D01*
X189987545Y-64475598D01*
X189993808Y-64471294D01*
X189996174Y-64470057D01*
X190010986Y-64461812D01*
X190013240Y-64460479D01*
X190020194Y-64457426D01*
X190070891Y-64418524D01*
X190076221Y-64414652D01*
X190122609Y-64382772D01*
X190122614Y-64382767D01*
X190128870Y-64378468D01*
X190170325Y-64331940D01*
X190175305Y-64326665D01*
X190266533Y-64235437D01*
X190329431Y-64201285D01*
X190345589Y-64197850D01*
X190482288Y-64168794D01*
X190488319Y-64166109D01*
X190650722Y-64093803D01*
X190650724Y-64093802D01*
X190656752Y-64091118D01*
X190811253Y-63978866D01*
X190939040Y-63836944D01*
X191034527Y-63671556D01*
X191093542Y-63489928D01*
X191113504Y-63300000D01*
X191099011Y-63162102D01*
X191094232Y-63116635D01*
X191094232Y-63116633D01*
X191093542Y-63110072D01*
X191034527Y-62928444D01*
X190939040Y-62763056D01*
X190925205Y-62747690D01*
X190815675Y-62626045D01*
X190815674Y-62626044D01*
X190811253Y-62621134D01*
X190656752Y-62508882D01*
X190650724Y-62506198D01*
X190650722Y-62506197D01*
X190488319Y-62433891D01*
X190488318Y-62433891D01*
X190482288Y-62431206D01*
X190388887Y-62411353D01*
X190301944Y-62392872D01*
X190301939Y-62392872D01*
X190295487Y-62391500D01*
X190104513Y-62391500D01*
X190098061Y-62392872D01*
X190098056Y-62392872D01*
X190011113Y-62411353D01*
X189917712Y-62431206D01*
X189911682Y-62433891D01*
X189911681Y-62433891D01*
X189749278Y-62506197D01*
X189749276Y-62506198D01*
X189743248Y-62508882D01*
X189588747Y-62621134D01*
X189584326Y-62626044D01*
X189584325Y-62626045D01*
X189474796Y-62747690D01*
X189460960Y-62763056D01*
X189365473Y-62928444D01*
X189336167Y-63018640D01*
X189326774Y-63047547D01*
X189286701Y-63106153D01*
X189221304Y-63133790D01*
X189206941Y-63134611D01*
X185343397Y-63134611D01*
X185275276Y-63114609D01*
X185228783Y-63060953D01*
X185217409Y-63006855D01*
X185217561Y-62995964D01*
X185217561Y-62995959D01*
X185217616Y-62992000D01*
X185197397Y-62811745D01*
X185195080Y-62805091D01*
X185140064Y-62647106D01*
X185140062Y-62647103D01*
X185137745Y-62640448D01*
X185081674Y-62550715D01*
X185062539Y-62482349D01*
X185083581Y-62414221D01*
X185100706Y-62388446D01*
X185127643Y-62347902D01*
X185180527Y-62208685D01*
X185189555Y-62184920D01*
X185189556Y-62184918D01*
X185192055Y-62178338D01*
X185217299Y-61998717D01*
X185217616Y-61976000D01*
X185197397Y-61795745D01*
X185195080Y-61789091D01*
X185140993Y-61633774D01*
X185137479Y-61562864D01*
X185142196Y-61547594D01*
X185189554Y-61422924D01*
X185189556Y-61422917D01*
X185192055Y-61416338D01*
X185195136Y-61394415D01*
X185216748Y-61240639D01*
X185216748Y-61240636D01*
X185217299Y-61236717D01*
X185217616Y-61214000D01*
X185197397Y-61033745D01*
X185195080Y-61027091D01*
X185140064Y-60869106D01*
X185140062Y-60869103D01*
X185137745Y-60862448D01*
X185068272Y-60751267D01*
X185049137Y-60682900D01*
X185070002Y-60615039D01*
X185124244Y-60569231D01*
X185175127Y-60558500D01*
X189238595Y-60558500D01*
X189306716Y-60578502D01*
G37*
%TD.AperFunction*%
%TA.AperFunction,Conductor*%
G36*
X196044727Y-56889102D02*
G01*
X196065701Y-56906005D01*
X198685643Y-59525948D01*
X198719669Y-59588260D01*
X198714604Y-59659076D01*
X198672113Y-59715869D01*
X198652539Y-59730539D01*
X198565185Y-59847095D01*
X198514055Y-59983484D01*
X198507300Y-60045666D01*
X198507300Y-60991934D01*
X198514055Y-61054116D01*
X198565185Y-61190505D01*
X198652539Y-61307061D01*
X198769095Y-61394415D01*
X198905484Y-61445545D01*
X198913336Y-61446398D01*
X198913340Y-61446399D01*
X198964380Y-61451943D01*
X199029943Y-61479185D01*
X199070369Y-61537548D01*
X199072825Y-61608502D01*
X199036530Y-61669520D01*
X199002023Y-61692312D01*
X198977514Y-61703224D01*
X198977506Y-61703229D01*
X198971479Y-61705912D01*
X198966138Y-61709792D01*
X198966137Y-61709793D01*
X198847835Y-61795745D01*
X198812726Y-61821253D01*
X198808305Y-61826163D01*
X198808304Y-61826164D01*
X198749302Y-61891693D01*
X198681423Y-61967080D01*
X198583308Y-62137020D01*
X198522670Y-62323645D01*
X198502158Y-62518800D01*
X198522670Y-62713955D01*
X198583308Y-62900580D01*
X198586611Y-62906302D01*
X198586612Y-62906303D01*
X198668160Y-63047547D01*
X198681423Y-63070520D01*
X198685845Y-63075431D01*
X198685847Y-63075434D01*
X198699936Y-63091082D01*
X198730654Y-63155089D01*
X198732300Y-63175392D01*
X198732300Y-66473509D01*
X198712298Y-66541630D01*
X198695395Y-66562604D01*
X198141435Y-67116565D01*
X197673595Y-67584405D01*
X197611283Y-67618430D01*
X197540468Y-67613366D01*
X197483632Y-67570819D01*
X197458821Y-67504299D01*
X197458500Y-67495310D01*
X197458500Y-66778927D01*
X197458792Y-66770358D01*
X197462210Y-66720225D01*
X197462210Y-66720221D01*
X197462726Y-66712648D01*
X197451736Y-66649681D01*
X197450775Y-66643165D01*
X197447705Y-66617798D01*
X197443102Y-66579758D01*
X197440419Y-66572657D01*
X197439778Y-66570048D01*
X197435313Y-66553728D01*
X197434548Y-66551195D01*
X197433243Y-66543717D01*
X197407552Y-66485190D01*
X197405067Y-66479102D01*
X197385172Y-66426449D01*
X197385171Y-66426447D01*
X197382487Y-66419344D01*
X197378186Y-66413085D01*
X197376949Y-66410720D01*
X197368727Y-66395948D01*
X197367372Y-66393656D01*
X197364316Y-66386695D01*
X197359691Y-66380668D01*
X197359689Y-66380664D01*
X197325407Y-66335987D01*
X197321529Y-66330650D01*
X197313442Y-66318882D01*
X197285357Y-66278019D01*
X197278712Y-66272098D01*
X197238839Y-66236573D01*
X197233563Y-66231592D01*
X194010656Y-63008685D01*
X190784665Y-59782695D01*
X190750639Y-59720383D01*
X190748450Y-59706770D01*
X190744232Y-59666637D01*
X190743542Y-59660072D01*
X190684527Y-59478444D01*
X190589040Y-59313056D01*
X190461253Y-59171134D01*
X190324293Y-59071626D01*
X190312094Y-59062763D01*
X190312093Y-59062762D01*
X190306752Y-59058882D01*
X190300724Y-59056198D01*
X190300722Y-59056197D01*
X190138319Y-58983891D01*
X190138318Y-58983891D01*
X190132288Y-58981206D01*
X190038887Y-58961353D01*
X189951944Y-58942872D01*
X189951939Y-58942872D01*
X189945487Y-58941500D01*
X189754513Y-58941500D01*
X189748061Y-58942872D01*
X189748056Y-58942872D01*
X189661113Y-58961353D01*
X189567712Y-58981206D01*
X189561682Y-58983891D01*
X189561681Y-58983891D01*
X189399278Y-59056197D01*
X189399276Y-59056198D01*
X189393248Y-59058882D01*
X189387907Y-59062762D01*
X189387906Y-59062763D01*
X189312656Y-59117436D01*
X189245789Y-59141294D01*
X189238595Y-59141500D01*
X188365327Y-59141500D01*
X188297206Y-59121498D01*
X188250713Y-59067842D01*
X188240609Y-58997568D01*
X188264501Y-58939935D01*
X188340229Y-58838891D01*
X188345615Y-58831705D01*
X188396745Y-58695316D01*
X188403500Y-58633134D01*
X188403500Y-57686866D01*
X188396745Y-57624684D01*
X188345615Y-57488295D01*
X188288948Y-57412684D01*
X188264101Y-57346178D01*
X188279154Y-57276796D01*
X188300680Y-57248024D01*
X188445935Y-57102770D01*
X188642701Y-56906004D01*
X188705013Y-56871979D01*
X188731796Y-56869100D01*
X195976606Y-56869100D01*
X196044727Y-56889102D01*
G37*
%TD.AperFunction*%
%TA.AperFunction,Conductor*%
G36*
X187192921Y-38499502D02*
G01*
X187212147Y-38515843D01*
X187212420Y-38515540D01*
X187217332Y-38519963D01*
X187221747Y-38524866D01*
X187227086Y-38528745D01*
X187357988Y-38623851D01*
X187376248Y-38637118D01*
X187382276Y-38639802D01*
X187382278Y-38639803D01*
X187520397Y-38701297D01*
X187550712Y-38714794D01*
X187644112Y-38734647D01*
X187731056Y-38753128D01*
X187731061Y-38753128D01*
X187737513Y-38754500D01*
X187928487Y-38754500D01*
X187934939Y-38753128D01*
X187934944Y-38753128D01*
X188021888Y-38734647D01*
X188115288Y-38714794D01*
X188145603Y-38701297D01*
X188283722Y-38639803D01*
X188283724Y-38639802D01*
X188289752Y-38637118D01*
X188297307Y-38631629D01*
X188298804Y-38631095D01*
X188300811Y-38629936D01*
X188301023Y-38630303D01*
X188364175Y-38607770D01*
X188433327Y-38623851D01*
X188482807Y-38674765D01*
X188486020Y-38682297D01*
X188486240Y-38682195D01*
X188489195Y-38688590D01*
X188491418Y-38695273D01*
X188585380Y-38850424D01*
X188590270Y-38855487D01*
X188590274Y-38855493D01*
X188695763Y-38964729D01*
X188728696Y-39027625D01*
X188723528Y-39095350D01*
X188706554Y-39141986D01*
X188693197Y-39178685D01*
X188670463Y-39358640D01*
X188688163Y-39539160D01*
X188745418Y-39711273D01*
X188749065Y-39717295D01*
X188749066Y-39717297D01*
X188807101Y-39813124D01*
X188825280Y-39881753D01*
X188805236Y-39946650D01*
X188759054Y-40018310D01*
X188759050Y-40018319D01*
X188755235Y-40024238D01*
X188693197Y-40194685D01*
X188670463Y-40374640D01*
X188688163Y-40555160D01*
X188745418Y-40727273D01*
X188749065Y-40733295D01*
X188749066Y-40733297D01*
X188763967Y-40757902D01*
X188797601Y-40813437D01*
X188807101Y-40829124D01*
X188825280Y-40897753D01*
X188805236Y-40962650D01*
X188759054Y-41034310D01*
X188759050Y-41034319D01*
X188755235Y-41040238D01*
X188693197Y-41210685D01*
X188670463Y-41390640D01*
X188688163Y-41571160D01*
X188745418Y-41743273D01*
X188749065Y-41749295D01*
X188749066Y-41749297D01*
X188807101Y-41845124D01*
X188825280Y-41913753D01*
X188805236Y-41978650D01*
X188759054Y-42050310D01*
X188759050Y-42050319D01*
X188755235Y-42056238D01*
X188693197Y-42226685D01*
X188670463Y-42406640D01*
X188688163Y-42587160D01*
X188745418Y-42759273D01*
X188749065Y-42765295D01*
X188749066Y-42765297D01*
X188807101Y-42861124D01*
X188825280Y-42929753D01*
X188805236Y-42994650D01*
X188759054Y-43066310D01*
X188759050Y-43066319D01*
X188755235Y-43072238D01*
X188693197Y-43242685D01*
X188670463Y-43422640D01*
X188688163Y-43603160D01*
X188745418Y-43775273D01*
X188749065Y-43781295D01*
X188749066Y-43781297D01*
X188807101Y-43877124D01*
X188825280Y-43945753D01*
X188805236Y-44010650D01*
X188759054Y-44082310D01*
X188759050Y-44082319D01*
X188755235Y-44088238D01*
X188693197Y-44258685D01*
X188670463Y-44438640D01*
X188688163Y-44619160D01*
X188745418Y-44791273D01*
X188749065Y-44797295D01*
X188749066Y-44797297D01*
X188807101Y-44893124D01*
X188825280Y-44961753D01*
X188805236Y-45026650D01*
X188759054Y-45098310D01*
X188759050Y-45098319D01*
X188755235Y-45104238D01*
X188752826Y-45110858D01*
X188752825Y-45110859D01*
X188701908Y-45250752D01*
X188693197Y-45274685D01*
X188670463Y-45454640D01*
X188688163Y-45635160D01*
X188745418Y-45807273D01*
X188749065Y-45813295D01*
X188749066Y-45813297D01*
X188807101Y-45909124D01*
X188825280Y-45977753D01*
X188805236Y-46042650D01*
X188759054Y-46114310D01*
X188759050Y-46114319D01*
X188755235Y-46120238D01*
X188693197Y-46290685D01*
X188670463Y-46470640D01*
X188688163Y-46651160D01*
X188745418Y-46823273D01*
X188749065Y-46829295D01*
X188749066Y-46829297D01*
X188764697Y-46855106D01*
X188839380Y-46978424D01*
X188965382Y-47108902D01*
X188971278Y-47112760D01*
X189098577Y-47196062D01*
X189117159Y-47208222D01*
X189123763Y-47210678D01*
X189123765Y-47210679D01*
X189280558Y-47268990D01*
X189280560Y-47268990D01*
X189287168Y-47271448D01*
X189370995Y-47282633D01*
X189459980Y-47294507D01*
X189459984Y-47294507D01*
X189466961Y-47295438D01*
X189473972Y-47294800D01*
X189473976Y-47294800D01*
X189562137Y-47286776D01*
X189647600Y-47278998D01*
X189652627Y-47277365D01*
X189722684Y-47283202D01*
X189779017Y-47326413D01*
X189803045Y-47393220D01*
X189787140Y-47462413D01*
X189774915Y-47480366D01*
X189774529Y-47480840D01*
X189769493Y-47485771D01*
X189671235Y-47638238D01*
X189668826Y-47644858D01*
X189668824Y-47644861D01*
X189648755Y-47700000D01*
X189609197Y-47808685D01*
X189586463Y-47988640D01*
X189604163Y-48169160D01*
X189661418Y-48341273D01*
X189665065Y-48347295D01*
X189665066Y-48347297D01*
X189748701Y-48485395D01*
X189755380Y-48496424D01*
X189760269Y-48501487D01*
X189760270Y-48501488D01*
X189781027Y-48522982D01*
X189881382Y-48626902D01*
X190033159Y-48726222D01*
X190039763Y-48728678D01*
X190039765Y-48728679D01*
X190196558Y-48786990D01*
X190196560Y-48786990D01*
X190203168Y-48789448D01*
X190286995Y-48800633D01*
X190375980Y-48812507D01*
X190375984Y-48812507D01*
X190382961Y-48813438D01*
X190389972Y-48812800D01*
X190389976Y-48812800D01*
X190541789Y-48798983D01*
X190563600Y-48796998D01*
X190570302Y-48794820D01*
X190570304Y-48794820D01*
X190729409Y-48743124D01*
X190729412Y-48743123D01*
X190736108Y-48740947D01*
X190742159Y-48737340D01*
X190748574Y-48734430D01*
X190749826Y-48737190D01*
X190805550Y-48722866D01*
X190845185Y-48730694D01*
X191003168Y-48789448D01*
X191086995Y-48800633D01*
X191175980Y-48812507D01*
X191175984Y-48812507D01*
X191182961Y-48813438D01*
X191189972Y-48812800D01*
X191189976Y-48812800D01*
X191341789Y-48798983D01*
X191363600Y-48796998D01*
X191370302Y-48794820D01*
X191370304Y-48794820D01*
X191529409Y-48743124D01*
X191529412Y-48743123D01*
X191536108Y-48740947D01*
X191542159Y-48737340D01*
X191548574Y-48734430D01*
X191549826Y-48737190D01*
X191605550Y-48722866D01*
X191645185Y-48730694D01*
X191803168Y-48789448D01*
X191886995Y-48800633D01*
X191975980Y-48812507D01*
X191975984Y-48812507D01*
X191982961Y-48813438D01*
X191989972Y-48812800D01*
X191989976Y-48812800D01*
X192141789Y-48798983D01*
X192163600Y-48796998D01*
X192170302Y-48794820D01*
X192170304Y-48794820D01*
X192329409Y-48743124D01*
X192329412Y-48743123D01*
X192336108Y-48740947D01*
X192342159Y-48737340D01*
X192348574Y-48734430D01*
X192349826Y-48737190D01*
X192405550Y-48722866D01*
X192445185Y-48730694D01*
X192603168Y-48789448D01*
X192686995Y-48800633D01*
X192775980Y-48812507D01*
X192775984Y-48812507D01*
X192782961Y-48813438D01*
X192789972Y-48812800D01*
X192789976Y-48812800D01*
X192941789Y-48798983D01*
X192963600Y-48796998D01*
X192970302Y-48794820D01*
X192970304Y-48794820D01*
X193129409Y-48743124D01*
X193129412Y-48743123D01*
X193136108Y-48740947D01*
X193291912Y-48648069D01*
X193423266Y-48522982D01*
X193523643Y-48371902D01*
X193578303Y-48228011D01*
X193585555Y-48208920D01*
X193585556Y-48208918D01*
X193588055Y-48202338D01*
X193589361Y-48193046D01*
X193612748Y-48026639D01*
X193612748Y-48026636D01*
X193613299Y-48022717D01*
X193613616Y-48000000D01*
X193593397Y-47819745D01*
X193590272Y-47810771D01*
X193536064Y-47655106D01*
X193536062Y-47655103D01*
X193533745Y-47648448D01*
X193437626Y-47494624D01*
X193438214Y-47494257D01*
X193413543Y-47433296D01*
X193426716Y-47363533D01*
X193475515Y-47311966D01*
X193531155Y-47297565D01*
X193530961Y-47295438D01*
X193711600Y-47278998D01*
X193718302Y-47276820D01*
X193718304Y-47276820D01*
X193877409Y-47225124D01*
X193877412Y-47225123D01*
X193884108Y-47222947D01*
X193904688Y-47210679D01*
X193992072Y-47158588D01*
X194060827Y-47140888D01*
X194125581Y-47161384D01*
X194191263Y-47204365D01*
X194191271Y-47204369D01*
X194197159Y-47208222D01*
X194203763Y-47210678D01*
X194360558Y-47268990D01*
X194360560Y-47268990D01*
X194367168Y-47271448D01*
X194482044Y-47286776D01*
X194546920Y-47315612D01*
X194585908Y-47374945D01*
X194586629Y-47445938D01*
X194568127Y-47481498D01*
X194569359Y-47482292D01*
X194471101Y-47634759D01*
X194468692Y-47641379D01*
X194468690Y-47641382D01*
X194463695Y-47655106D01*
X194409063Y-47805206D01*
X194386329Y-47985161D01*
X194404029Y-48165681D01*
X194461284Y-48337794D01*
X194464931Y-48343816D01*
X194464932Y-48343818D01*
X194550674Y-48485395D01*
X194555246Y-48492945D01*
X194560135Y-48498008D01*
X194560136Y-48498009D01*
X194586704Y-48525521D01*
X194681248Y-48623423D01*
X194724425Y-48651677D01*
X194771005Y-48682158D01*
X194833025Y-48722743D01*
X194839629Y-48725199D01*
X194839631Y-48725200D01*
X194996424Y-48783511D01*
X194996426Y-48783511D01*
X195003034Y-48785969D01*
X195073093Y-48795317D01*
X195175846Y-48809028D01*
X195175850Y-48809028D01*
X195182827Y-48809959D01*
X195189838Y-48809321D01*
X195189842Y-48809321D01*
X195343710Y-48795317D01*
X195363466Y-48793519D01*
X195370168Y-48791341D01*
X195370170Y-48791341D01*
X195529271Y-48739646D01*
X195529272Y-48739646D01*
X195535974Y-48737468D01*
X195542027Y-48733860D01*
X195545042Y-48732492D01*
X195615341Y-48722568D01*
X195641005Y-48729140D01*
X195803168Y-48789448D01*
X195886995Y-48800633D01*
X195975980Y-48812507D01*
X195975984Y-48812507D01*
X195982961Y-48813438D01*
X195989972Y-48812800D01*
X195989976Y-48812800D01*
X196141789Y-48798983D01*
X196163600Y-48796998D01*
X196170302Y-48794820D01*
X196170304Y-48794820D01*
X196329409Y-48743124D01*
X196329412Y-48743123D01*
X196336108Y-48740947D01*
X196342159Y-48737340D01*
X196348574Y-48734430D01*
X196349826Y-48737190D01*
X196405550Y-48722866D01*
X196445185Y-48730694D01*
X196603168Y-48789448D01*
X196686995Y-48800633D01*
X196775980Y-48812507D01*
X196775984Y-48812507D01*
X196782961Y-48813438D01*
X196789972Y-48812800D01*
X196789976Y-48812800D01*
X196941789Y-48798983D01*
X196963600Y-48796998D01*
X196970302Y-48794820D01*
X196970304Y-48794820D01*
X197129409Y-48743124D01*
X197129412Y-48743123D01*
X197136108Y-48740947D01*
X197142159Y-48737340D01*
X197148574Y-48734430D01*
X197149826Y-48737190D01*
X197205550Y-48722866D01*
X197245185Y-48730694D01*
X197403168Y-48789448D01*
X197486995Y-48800633D01*
X197575980Y-48812507D01*
X197575984Y-48812507D01*
X197582961Y-48813438D01*
X197589972Y-48812800D01*
X197589976Y-48812800D01*
X197741789Y-48798983D01*
X197763600Y-48796998D01*
X197770302Y-48794820D01*
X197770304Y-48794820D01*
X197929409Y-48743124D01*
X197929412Y-48743123D01*
X197936108Y-48740947D01*
X197942159Y-48737340D01*
X197948574Y-48734430D01*
X197949826Y-48737190D01*
X198005550Y-48722866D01*
X198045185Y-48730694D01*
X198203168Y-48789448D01*
X198286995Y-48800633D01*
X198375980Y-48812507D01*
X198375984Y-48812507D01*
X198382961Y-48813438D01*
X198389972Y-48812800D01*
X198389976Y-48812800D01*
X198541789Y-48798983D01*
X198563600Y-48796998D01*
X198570302Y-48794820D01*
X198570304Y-48794820D01*
X198729409Y-48743124D01*
X198729412Y-48743123D01*
X198736108Y-48740947D01*
X198891912Y-48648069D01*
X199023266Y-48522982D01*
X199123643Y-48371902D01*
X199126146Y-48365314D01*
X199126147Y-48365312D01*
X199156810Y-48284590D01*
X199199698Y-48228011D01*
X199266367Y-48203602D01*
X199335649Y-48219111D01*
X199368232Y-48245020D01*
X199488747Y-48378866D01*
X199587843Y-48450864D01*
X199637473Y-48486922D01*
X199643248Y-48491118D01*
X199649276Y-48493802D01*
X199649278Y-48493803D01*
X199811681Y-48566109D01*
X199817712Y-48568794D01*
X199911113Y-48588647D01*
X199998056Y-48607128D01*
X199998061Y-48607128D01*
X200004513Y-48608500D01*
X200037815Y-48608500D01*
X200105936Y-48628502D01*
X200152429Y-48682158D01*
X200163815Y-48734573D01*
X200158740Y-57436373D01*
X200138698Y-57504483D01*
X200085015Y-57550944D01*
X200032740Y-57562300D01*
X199904113Y-57562300D01*
X199897661Y-57563672D01*
X199897656Y-57563672D01*
X199810712Y-57582153D01*
X199717312Y-57602006D01*
X199711282Y-57604691D01*
X199711281Y-57604691D01*
X199548878Y-57676997D01*
X199548876Y-57676998D01*
X199542848Y-57679682D01*
X199388347Y-57791934D01*
X199383926Y-57796844D01*
X199383925Y-57796845D01*
X199301102Y-57888830D01*
X199260560Y-57933856D01*
X199216775Y-58009693D01*
X199205330Y-58029517D01*
X199153947Y-58078510D01*
X199084234Y-58091946D01*
X199018323Y-58065560D01*
X199007116Y-58055612D01*
X197956160Y-57004655D01*
X196794852Y-55843347D01*
X196787312Y-55835061D01*
X196783200Y-55828582D01*
X196733548Y-55781956D01*
X196730707Y-55779202D01*
X196710970Y-55759465D01*
X196707773Y-55756985D01*
X196698751Y-55749280D01*
X196685322Y-55736669D01*
X196666521Y-55719014D01*
X196659575Y-55715195D01*
X196659572Y-55715193D01*
X196648766Y-55709252D01*
X196632247Y-55698401D01*
X196631783Y-55698041D01*
X196616241Y-55685986D01*
X196608972Y-55682841D01*
X196608968Y-55682838D01*
X196575663Y-55668426D01*
X196565013Y-55663209D01*
X196526260Y-55641905D01*
X196506637Y-55636867D01*
X196487934Y-55630463D01*
X196476620Y-55625567D01*
X196476619Y-55625567D01*
X196469345Y-55622419D01*
X196461522Y-55621180D01*
X196461512Y-55621177D01*
X196425676Y-55615501D01*
X196414056Y-55613095D01*
X196378911Y-55604072D01*
X196378910Y-55604072D01*
X196371230Y-55602100D01*
X196350976Y-55602100D01*
X196331265Y-55600549D01*
X196319086Y-55598620D01*
X196311257Y-55597380D01*
X196281986Y-55600147D01*
X196267239Y-55601541D01*
X196255381Y-55602100D01*
X188495967Y-55602100D01*
X188484784Y-55601573D01*
X188477291Y-55599898D01*
X188469365Y-55600147D01*
X188469364Y-55600147D01*
X188409214Y-55602038D01*
X188405255Y-55602100D01*
X188377344Y-55602100D01*
X188373410Y-55602597D01*
X188373409Y-55602597D01*
X188373344Y-55602605D01*
X188361507Y-55603538D01*
X188329690Y-55604538D01*
X188325229Y-55604678D01*
X188317310Y-55604927D01*
X188299654Y-55610056D01*
X188297858Y-55610578D01*
X188278506Y-55614586D01*
X188271435Y-55615480D01*
X188258403Y-55617126D01*
X188251034Y-55620043D01*
X188251032Y-55620044D01*
X188217297Y-55633400D01*
X188206069Y-55637245D01*
X188163607Y-55649582D01*
X188156784Y-55653617D01*
X188156782Y-55653618D01*
X188146172Y-55659893D01*
X188128424Y-55668588D01*
X188109583Y-55676048D01*
X188103167Y-55680710D01*
X188103166Y-55680710D01*
X188073813Y-55702036D01*
X188063893Y-55708552D01*
X188032665Y-55727020D01*
X188032662Y-55727022D01*
X188025838Y-55731058D01*
X188011517Y-55745379D01*
X187996484Y-55758219D01*
X187980093Y-55770128D01*
X187975042Y-55776233D01*
X187975037Y-55776238D01*
X187951901Y-55804204D01*
X187943913Y-55812982D01*
X187077747Y-56679148D01*
X187069461Y-56686688D01*
X187062982Y-56690800D01*
X187057557Y-56696577D01*
X187016357Y-56740451D01*
X187013602Y-56743293D01*
X186993865Y-56763030D01*
X186991385Y-56766227D01*
X186983682Y-56775247D01*
X186953414Y-56807479D01*
X186949595Y-56814425D01*
X186949593Y-56814428D01*
X186943652Y-56825234D01*
X186932801Y-56841753D01*
X186920386Y-56857759D01*
X186917241Y-56865028D01*
X186917238Y-56865032D01*
X186902826Y-56898337D01*
X186897609Y-56908987D01*
X186876305Y-56947740D01*
X186874334Y-56955415D01*
X186874334Y-56955416D01*
X186871267Y-56967362D01*
X186864863Y-56986066D01*
X186856819Y-57004655D01*
X186855580Y-57012478D01*
X186855577Y-57012488D01*
X186849901Y-57048324D01*
X186847495Y-57059944D01*
X186836500Y-57102770D01*
X186836500Y-57123024D01*
X186834949Y-57142734D01*
X186831780Y-57162743D01*
X186832526Y-57170635D01*
X186832526Y-57170636D01*
X186833655Y-57182581D01*
X186820152Y-57252282D01*
X186783779Y-57295264D01*
X186681739Y-57371739D01*
X186594385Y-57488295D01*
X186543255Y-57624684D01*
X186536500Y-57686866D01*
X186536500Y-58633134D01*
X186543255Y-58695316D01*
X186594385Y-58831705D01*
X186599771Y-58838891D01*
X186675499Y-58939935D01*
X186700347Y-59006441D01*
X186685294Y-59075824D01*
X186635120Y-59126054D01*
X186574673Y-59141500D01*
X177995660Y-59141500D01*
X177927539Y-59121498D01*
X177906565Y-59104595D01*
X177125565Y-58323595D01*
X177091539Y-58261283D01*
X177096604Y-58190468D01*
X177139151Y-58133632D01*
X177205671Y-58108821D01*
X177214660Y-58108500D01*
X179551768Y-58108500D01*
X179560338Y-58108792D01*
X179610456Y-58112209D01*
X179610460Y-58112209D01*
X179618032Y-58112725D01*
X179625509Y-58111420D01*
X179625510Y-58111420D01*
X179651988Y-58106799D01*
X179680983Y-58101738D01*
X179687501Y-58100777D01*
X179750922Y-58093102D01*
X179758023Y-58090419D01*
X179760632Y-58089778D01*
X179776942Y-58085315D01*
X179779478Y-58084550D01*
X179786964Y-58083243D01*
X179845480Y-58057556D01*
X179851584Y-58055065D01*
X179904228Y-58035173D01*
X179904229Y-58035172D01*
X179911336Y-58032487D01*
X179917599Y-58028183D01*
X179919965Y-58026946D01*
X179934777Y-58018701D01*
X179937031Y-58017368D01*
X179943985Y-58014315D01*
X179994682Y-57975413D01*
X180000012Y-57971541D01*
X180046400Y-57939661D01*
X180046405Y-57939656D01*
X180052661Y-57935357D01*
X180058372Y-57928948D01*
X180094115Y-57888830D01*
X180099096Y-57883554D01*
X180980519Y-57002131D01*
X180986786Y-56996276D01*
X180996130Y-56988125D01*
X181004897Y-56981139D01*
X181050866Y-56947740D01*
X181111253Y-56903866D01*
X181139964Y-56871979D01*
X181234621Y-56766852D01*
X181234622Y-56766851D01*
X181239040Y-56761944D01*
X181301018Y-56654595D01*
X181331223Y-56602279D01*
X181331224Y-56602278D01*
X181334527Y-56596556D01*
X181393542Y-56414928D01*
X181396543Y-56386381D01*
X181412814Y-56231565D01*
X181413504Y-56225000D01*
X181399691Y-56093573D01*
X181394232Y-56041635D01*
X181394232Y-56041633D01*
X181393542Y-56035072D01*
X181334527Y-55853444D01*
X181328698Y-55843347D01*
X181286424Y-55770128D01*
X181239040Y-55688056D01*
X181225602Y-55673131D01*
X181115675Y-55551045D01*
X181115674Y-55551044D01*
X181111253Y-55546134D01*
X181012157Y-55474136D01*
X180962094Y-55437763D01*
X180962093Y-55437762D01*
X180956752Y-55433882D01*
X180950724Y-55431198D01*
X180950722Y-55431197D01*
X180788319Y-55358891D01*
X180788318Y-55358891D01*
X180782288Y-55356206D01*
X180688888Y-55336353D01*
X180601944Y-55317872D01*
X180601939Y-55317872D01*
X180595487Y-55316500D01*
X180404513Y-55316500D01*
X180398061Y-55317872D01*
X180398056Y-55317872D01*
X180311112Y-55336353D01*
X180217712Y-55356206D01*
X180211682Y-55358891D01*
X180211681Y-55358891D01*
X180049278Y-55431197D01*
X180049276Y-55431198D01*
X180043248Y-55433882D01*
X180037907Y-55437762D01*
X180037906Y-55437763D01*
X179987843Y-55474136D01*
X179888747Y-55546134D01*
X179884326Y-55551044D01*
X179884325Y-55551045D01*
X179774399Y-55673131D01*
X179760960Y-55688056D01*
X179713576Y-55770128D01*
X179671303Y-55843347D01*
X179665473Y-55853444D01*
X179606458Y-56035072D01*
X179605768Y-56041633D01*
X179605768Y-56041635D01*
X179600309Y-56093573D01*
X179586496Y-56225000D01*
X179587186Y-56231565D01*
X179596117Y-56316543D01*
X179583344Y-56386381D01*
X179559902Y-56418808D01*
X179324115Y-56654595D01*
X179261803Y-56688621D01*
X179235020Y-56691500D01*
X178091976Y-56691500D01*
X178023855Y-56671498D01*
X177977362Y-56617842D01*
X177967258Y-56547568D01*
X177972143Y-56526564D01*
X178001502Y-56436206D01*
X178003542Y-56429928D01*
X178005809Y-56408365D01*
X178022814Y-56246565D01*
X178023504Y-56240000D01*
X178003542Y-56050072D01*
X177944527Y-55868444D01*
X177939496Y-55859729D01*
X177873475Y-55745379D01*
X177849040Y-55703056D01*
X177840683Y-55693774D01*
X177725675Y-55566045D01*
X177725674Y-55566044D01*
X177721253Y-55561134D01*
X177566752Y-55448882D01*
X177560724Y-55446198D01*
X177560722Y-55446197D01*
X177398319Y-55373891D01*
X177398318Y-55373891D01*
X177392288Y-55371206D01*
X177239431Y-55338715D01*
X177176533Y-55304563D01*
X176791450Y-54919480D01*
X176785596Y-54913215D01*
X176752552Y-54875336D01*
X176752551Y-54875335D01*
X176747561Y-54869615D01*
X176736373Y-54861752D01*
X176719735Y-54847765D01*
X175845405Y-53973435D01*
X175811379Y-53911123D01*
X175808500Y-53884340D01*
X175808500Y-53068744D01*
X175828502Y-53000623D01*
X175832564Y-52994683D01*
X175834621Y-52991852D01*
X175839040Y-52986944D01*
X175934527Y-52821556D01*
X175993542Y-52639928D01*
X176013504Y-52450000D01*
X175993542Y-52260072D01*
X175934527Y-52078444D01*
X175839040Y-51913056D01*
X175711253Y-51771134D01*
X175556752Y-51658882D01*
X175550724Y-51656198D01*
X175550722Y-51656197D01*
X175388319Y-51583891D01*
X175388318Y-51583891D01*
X175382288Y-51581206D01*
X175288888Y-51561353D01*
X175201944Y-51542872D01*
X175201939Y-51542872D01*
X175195487Y-51541500D01*
X175134989Y-51541500D01*
X175066868Y-51521498D01*
X175020375Y-51467842D01*
X175008989Y-51415500D01*
X175008989Y-50752272D01*
X175028991Y-50684151D01*
X175045894Y-50663177D01*
X176092033Y-49617038D01*
X176154931Y-49582886D01*
X176171089Y-49579451D01*
X176307788Y-49550395D01*
X176313819Y-49547710D01*
X176476222Y-49475404D01*
X176476224Y-49475403D01*
X176482252Y-49472719D01*
X176636753Y-49360467D01*
X176764540Y-49218545D01*
X176860027Y-49053157D01*
X176919042Y-48871529D01*
X176920710Y-48855664D01*
X176938314Y-48688166D01*
X176939004Y-48681601D01*
X176934725Y-48640891D01*
X176919732Y-48498236D01*
X176919732Y-48498234D01*
X176919042Y-48491673D01*
X176860027Y-48310045D01*
X176764540Y-48144657D01*
X176636753Y-48002735D01*
X176638467Y-48001191D01*
X176606781Y-47949776D01*
X176608122Y-47878792D01*
X176639231Y-47827473D01*
X181262743Y-43203962D01*
X185950300Y-38516405D01*
X186012612Y-38482379D01*
X186039395Y-38479500D01*
X187124800Y-38479500D01*
X187192921Y-38499502D01*
G37*
%TD.AperFunction*%
%TD*%
M02*
