%TF.GenerationSoftware,KiCad,Pcbnew,(6.0.5)*%
%TF.CreationDate,2022-07-17T20:22:06-04:00*%
%TF.ProjectId,torque_motor_design,746f7271-7565-45f6-9d6f-746f725f6465,rev?*%
%TF.SameCoordinates,Original*%
%TF.FileFunction,Legend,Bot*%
%TF.FilePolarity,Positive*%
%FSLAX46Y46*%
G04 Gerber Fmt 4.6, Leading zero omitted, Abs format (unit mm)*
G04 Created by KiCad (PCBNEW (6.0.5)) date 2022-07-17 20:22:06*
%MOMM*%
%LPD*%
G01*
G04 APERTURE LIST*
%ADD10C,0.037500*%
%ADD11C,0.200000*%
%ADD12C,0.120000*%
G04 APERTURE END LIST*
D10*
X203929557Y-67346766D02*
X203929560Y-67375337D01*
X203936704Y-67389622D01*
X203943847Y-67396764D01*
X203965277Y-67411048D01*
X203993849Y-67418189D01*
X204050992Y-67418184D01*
X204065277Y-67411039D01*
X204072419Y-67403896D01*
X204079561Y-67389610D01*
X204079558Y-67361038D01*
X204072414Y-67346753D01*
X204065271Y-67339611D01*
X204050984Y-67332469D01*
X204015270Y-67332472D01*
X204000985Y-67339616D01*
X203993843Y-67346760D01*
X203986701Y-67361046D01*
X203986704Y-67389618D01*
X203993848Y-67403903D01*
X204000991Y-67411045D01*
X204015278Y-67418187D01*
X203943855Y-67482479D02*
X203936712Y-67489622D01*
X203929569Y-67482480D01*
X203936711Y-67475336D01*
X203943855Y-67482479D01*
X203929569Y-67482480D01*
X203929582Y-67632480D02*
X203929575Y-67546766D01*
X203929578Y-67589623D02*
X204079578Y-67589610D01*
X204058149Y-67575326D01*
X204043862Y-67561041D01*
X204036717Y-67546756D01*
X203929595Y-67775337D02*
X203929587Y-67689623D01*
X203929591Y-67732480D02*
X204079591Y-67732467D01*
X204058161Y-67718183D01*
X204043874Y-67703898D01*
X204036730Y-67689613D01*
X203929607Y-67918194D02*
X203929600Y-67832480D01*
X203929603Y-67875337D02*
X204079603Y-67875324D01*
X204058174Y-67861040D01*
X204043887Y-67846756D01*
X204036743Y-67832470D01*
X204079619Y-68046752D02*
X204079616Y-68018181D01*
X204072472Y-68003896D01*
X204065328Y-67996754D01*
X204043899Y-67982470D01*
X204015327Y-67975330D01*
X203958184Y-67975335D01*
X203943899Y-67982479D01*
X203936756Y-67989622D01*
X203929615Y-68003908D01*
X203929617Y-68032480D01*
X203936761Y-68046765D01*
X203943905Y-68053907D01*
X203958191Y-68061049D01*
X203993905Y-68061046D01*
X204008191Y-68053902D01*
X204015333Y-68046758D01*
X204022474Y-68032472D01*
X204022472Y-68003900D01*
X204015328Y-67989615D01*
X204008184Y-67982473D01*
X203993898Y-67975331D01*
X203929635Y-68239623D02*
X204029635Y-68239614D01*
X204015350Y-68239615D02*
X204022493Y-68246757D01*
X204029637Y-68261043D01*
X204029639Y-68282471D01*
X204022498Y-68296757D01*
X204008213Y-68303902D01*
X203929641Y-68303908D01*
X204008213Y-68303902D02*
X204022499Y-68311043D01*
X204029643Y-68325328D01*
X204029645Y-68346757D01*
X204022503Y-68361043D01*
X204008218Y-68368187D01*
X203929647Y-68368194D01*
X203929653Y-68439623D02*
X204029653Y-68439614D01*
X204015367Y-68439615D02*
X204022511Y-68446757D01*
X204029655Y-68461043D01*
X204029657Y-68482471D01*
X204022515Y-68496757D01*
X204008230Y-68503902D01*
X203929659Y-68503908D01*
X204008230Y-68503902D02*
X204022516Y-68511043D01*
X204029661Y-68525328D01*
X204029662Y-68546757D01*
X204022521Y-68561043D01*
X204008236Y-68568187D01*
X203929664Y-68568194D01*
D11*
X201110000Y-72509956D02*
X204396788Y-72509667D01*
X201109200Y-63398356D02*
X204395988Y-63398067D01*
X203810368Y-72509719D02*
X203809568Y-63398119D01*
X203810368Y-72509719D02*
X203809568Y-63398119D01*
X203810368Y-72509719D02*
X204396690Y-71383164D01*
X203810368Y-72509719D02*
X203223848Y-71383267D01*
X203809568Y-63398119D02*
X203223246Y-64524674D01*
X203809568Y-63398119D02*
X204396088Y-64524571D01*
D10*
X198076028Y-74239485D02*
X198168885Y-74239485D01*
X198118885Y-74325200D01*
X198140314Y-74325200D01*
X198154600Y-74335914D01*
X198161742Y-74346628D01*
X198168885Y-74368057D01*
X198168885Y-74421628D01*
X198161742Y-74443057D01*
X198154600Y-74453771D01*
X198140314Y-74464485D01*
X198097457Y-74464485D01*
X198083171Y-74453771D01*
X198076028Y-74443057D01*
X198233171Y-74443057D02*
X198240314Y-74453771D01*
X198233171Y-74464485D01*
X198226028Y-74453771D01*
X198233171Y-74443057D01*
X198233171Y-74464485D01*
X198326028Y-74335914D02*
X198311742Y-74325200D01*
X198304600Y-74314485D01*
X198297457Y-74293057D01*
X198297457Y-74282342D01*
X198304600Y-74260914D01*
X198311742Y-74250200D01*
X198326028Y-74239485D01*
X198354600Y-74239485D01*
X198368885Y-74250200D01*
X198376028Y-74260914D01*
X198383171Y-74282342D01*
X198383171Y-74293057D01*
X198376028Y-74314485D01*
X198368885Y-74325200D01*
X198354600Y-74335914D01*
X198326028Y-74335914D01*
X198311742Y-74346628D01*
X198304600Y-74357342D01*
X198297457Y-74378771D01*
X198297457Y-74421628D01*
X198304600Y-74443057D01*
X198311742Y-74453771D01*
X198326028Y-74464485D01*
X198354600Y-74464485D01*
X198368885Y-74453771D01*
X198376028Y-74443057D01*
X198383171Y-74421628D01*
X198383171Y-74378771D01*
X198376028Y-74357342D01*
X198368885Y-74346628D01*
X198354600Y-74335914D01*
X198526028Y-74464485D02*
X198440314Y-74464485D01*
X198483171Y-74464485D02*
X198483171Y-74239485D01*
X198468885Y-74271628D01*
X198454600Y-74293057D01*
X198440314Y-74303771D01*
X198618885Y-74239485D02*
X198633171Y-74239485D01*
X198647457Y-74250200D01*
X198654600Y-74260914D01*
X198661742Y-74282342D01*
X198668885Y-74325200D01*
X198668885Y-74378771D01*
X198661742Y-74421628D01*
X198654600Y-74443057D01*
X198647457Y-74453771D01*
X198633171Y-74464485D01*
X198618885Y-74464485D01*
X198604600Y-74453771D01*
X198597457Y-74443057D01*
X198590314Y-74421628D01*
X198583171Y-74378771D01*
X198583171Y-74325200D01*
X198590314Y-74282342D01*
X198597457Y-74260914D01*
X198604600Y-74250200D01*
X198618885Y-74239485D01*
X198754600Y-74335914D02*
X198740314Y-74325200D01*
X198733171Y-74314485D01*
X198726028Y-74293057D01*
X198726028Y-74282342D01*
X198733171Y-74260914D01*
X198740314Y-74250200D01*
X198754600Y-74239485D01*
X198783171Y-74239485D01*
X198797457Y-74250200D01*
X198804600Y-74260914D01*
X198811742Y-74282342D01*
X198811742Y-74293057D01*
X198804600Y-74314485D01*
X198797457Y-74325200D01*
X198783171Y-74335914D01*
X198754600Y-74335914D01*
X198740314Y-74346628D01*
X198733171Y-74357342D01*
X198726028Y-74378771D01*
X198726028Y-74421628D01*
X198733171Y-74443057D01*
X198740314Y-74453771D01*
X198754600Y-74464485D01*
X198783171Y-74464485D01*
X198797457Y-74453771D01*
X198804600Y-74443057D01*
X198811742Y-74421628D01*
X198811742Y-74378771D01*
X198804600Y-74357342D01*
X198797457Y-74346628D01*
X198783171Y-74335914D01*
X198990314Y-74464485D02*
X198990314Y-74314485D01*
X198990314Y-74335914D02*
X198997457Y-74325200D01*
X199011742Y-74314485D01*
X199033171Y-74314485D01*
X199047457Y-74325200D01*
X199054600Y-74346628D01*
X199054600Y-74464485D01*
X199054600Y-74346628D02*
X199061742Y-74325200D01*
X199076028Y-74314485D01*
X199097457Y-74314485D01*
X199111742Y-74325200D01*
X199118885Y-74346628D01*
X199118885Y-74464485D01*
X199190314Y-74464485D02*
X199190314Y-74314485D01*
X199190314Y-74335914D02*
X199197457Y-74325200D01*
X199211742Y-74314485D01*
X199233171Y-74314485D01*
X199247457Y-74325200D01*
X199254600Y-74346628D01*
X199254600Y-74464485D01*
X199254600Y-74346628D02*
X199261742Y-74325200D01*
X199276028Y-74314485D01*
X199297457Y-74314485D01*
X199311742Y-74325200D01*
X199318885Y-74346628D01*
X199318885Y-74464485D01*
D11*
X200610000Y-73010000D02*
X200610000Y-75211620D01*
X196799200Y-75211620D02*
X196799200Y-73042400D01*
X200610000Y-74625200D02*
X196799200Y-74625200D01*
X200610000Y-74625200D02*
X196799200Y-74625200D01*
X200610000Y-74625200D02*
X199483496Y-74038779D01*
X200610000Y-74625200D02*
X199483496Y-75211621D01*
X196799200Y-74625200D02*
X197925704Y-75211621D01*
X196799200Y-74625200D02*
X197925704Y-74038779D01*
D10*
%TO.C,header_2*%
X199923428Y-59426657D02*
X199923428Y-59276657D01*
X199859142Y-59426657D02*
X199859142Y-59348085D01*
X199866285Y-59333800D01*
X199880571Y-59326657D01*
X199902000Y-59326657D01*
X199916285Y-59333800D01*
X199923428Y-59340942D01*
X199730571Y-59419514D02*
X199744857Y-59426657D01*
X199773428Y-59426657D01*
X199787714Y-59419514D01*
X199794857Y-59405228D01*
X199794857Y-59348085D01*
X199787714Y-59333800D01*
X199773428Y-59326657D01*
X199744857Y-59326657D01*
X199730571Y-59333800D01*
X199723428Y-59348085D01*
X199723428Y-59362371D01*
X199794857Y-59376657D01*
X199594857Y-59426657D02*
X199594857Y-59348085D01*
X199602000Y-59333800D01*
X199616285Y-59326657D01*
X199644857Y-59326657D01*
X199659142Y-59333800D01*
X199594857Y-59419514D02*
X199609142Y-59426657D01*
X199644857Y-59426657D01*
X199659142Y-59419514D01*
X199666285Y-59405228D01*
X199666285Y-59390942D01*
X199659142Y-59376657D01*
X199644857Y-59369514D01*
X199609142Y-59369514D01*
X199594857Y-59362371D01*
X199459142Y-59426657D02*
X199459142Y-59276657D01*
X199459142Y-59419514D02*
X199473428Y-59426657D01*
X199502000Y-59426657D01*
X199516285Y-59419514D01*
X199523428Y-59412371D01*
X199530571Y-59398085D01*
X199530571Y-59355228D01*
X199523428Y-59340942D01*
X199516285Y-59333800D01*
X199502000Y-59326657D01*
X199473428Y-59326657D01*
X199459142Y-59333800D01*
X199330571Y-59419514D02*
X199344857Y-59426657D01*
X199373428Y-59426657D01*
X199387714Y-59419514D01*
X199394857Y-59405228D01*
X199394857Y-59348085D01*
X199387714Y-59333800D01*
X199373428Y-59326657D01*
X199344857Y-59326657D01*
X199330571Y-59333800D01*
X199323428Y-59348085D01*
X199323428Y-59362371D01*
X199394857Y-59376657D01*
X199259142Y-59426657D02*
X199259142Y-59326657D01*
X199259142Y-59355228D02*
X199252000Y-59340942D01*
X199244857Y-59333800D01*
X199230571Y-59326657D01*
X199216285Y-59326657D01*
X199202000Y-59440942D02*
X199087714Y-59440942D01*
X199059142Y-59290942D02*
X199052000Y-59283800D01*
X199037714Y-59276657D01*
X199002000Y-59276657D01*
X198987714Y-59283800D01*
X198980571Y-59290942D01*
X198973428Y-59305228D01*
X198973428Y-59319514D01*
X198980571Y-59340942D01*
X199066285Y-59426657D01*
X198973428Y-59426657D01*
%TO.C,Current_Sense*%
X188145000Y-56943571D02*
X188152142Y-56950714D01*
X188173571Y-56957857D01*
X188187857Y-56957857D01*
X188209285Y-56950714D01*
X188223571Y-56936428D01*
X188230714Y-56922142D01*
X188237857Y-56893571D01*
X188237857Y-56872142D01*
X188230714Y-56843571D01*
X188223571Y-56829285D01*
X188209285Y-56815000D01*
X188187857Y-56807857D01*
X188173571Y-56807857D01*
X188152142Y-56815000D01*
X188145000Y-56822142D01*
X188016428Y-56857857D02*
X188016428Y-56957857D01*
X188080714Y-56857857D02*
X188080714Y-56936428D01*
X188073571Y-56950714D01*
X188059285Y-56957857D01*
X188037857Y-56957857D01*
X188023571Y-56950714D01*
X188016428Y-56943571D01*
X187945000Y-56957857D02*
X187945000Y-56857857D01*
X187945000Y-56886428D02*
X187937857Y-56872142D01*
X187930714Y-56865000D01*
X187916428Y-56857857D01*
X187902142Y-56857857D01*
X187852142Y-56957857D02*
X187852142Y-56857857D01*
X187852142Y-56886428D02*
X187845000Y-56872142D01*
X187837857Y-56865000D01*
X187823571Y-56857857D01*
X187809285Y-56857857D01*
X187702142Y-56950714D02*
X187716428Y-56957857D01*
X187745000Y-56957857D01*
X187759285Y-56950714D01*
X187766428Y-56936428D01*
X187766428Y-56879285D01*
X187759285Y-56865000D01*
X187745000Y-56857857D01*
X187716428Y-56857857D01*
X187702142Y-56865000D01*
X187695000Y-56879285D01*
X187695000Y-56893571D01*
X187766428Y-56907857D01*
X187630714Y-56857857D02*
X187630714Y-56957857D01*
X187630714Y-56872142D02*
X187623571Y-56865000D01*
X187609285Y-56857857D01*
X187587857Y-56857857D01*
X187573571Y-56865000D01*
X187566428Y-56879285D01*
X187566428Y-56957857D01*
X187516428Y-56857857D02*
X187459285Y-56857857D01*
X187495000Y-56807857D02*
X187495000Y-56936428D01*
X187487857Y-56950714D01*
X187473571Y-56957857D01*
X187459285Y-56957857D01*
X187445000Y-56972142D02*
X187330714Y-56972142D01*
X187302142Y-56950714D02*
X187280714Y-56957857D01*
X187245000Y-56957857D01*
X187230714Y-56950714D01*
X187223571Y-56943571D01*
X187216428Y-56929285D01*
X187216428Y-56915000D01*
X187223571Y-56900714D01*
X187230714Y-56893571D01*
X187245000Y-56886428D01*
X187273571Y-56879285D01*
X187287857Y-56872142D01*
X187295000Y-56865000D01*
X187302142Y-56850714D01*
X187302142Y-56836428D01*
X187295000Y-56822142D01*
X187287857Y-56815000D01*
X187273571Y-56807857D01*
X187237857Y-56807857D01*
X187216428Y-56815000D01*
X187095000Y-56950714D02*
X187109285Y-56957857D01*
X187137857Y-56957857D01*
X187152142Y-56950714D01*
X187159285Y-56936428D01*
X187159285Y-56879285D01*
X187152142Y-56865000D01*
X187137857Y-56857857D01*
X187109285Y-56857857D01*
X187095000Y-56865000D01*
X187087857Y-56879285D01*
X187087857Y-56893571D01*
X187159285Y-56907857D01*
X187023571Y-56857857D02*
X187023571Y-56957857D01*
X187023571Y-56872142D02*
X187016428Y-56865000D01*
X187002142Y-56857857D01*
X186980714Y-56857857D01*
X186966428Y-56865000D01*
X186959285Y-56879285D01*
X186959285Y-56957857D01*
X186895000Y-56950714D02*
X186880714Y-56957857D01*
X186852142Y-56957857D01*
X186837857Y-56950714D01*
X186830714Y-56936428D01*
X186830714Y-56929285D01*
X186837857Y-56915000D01*
X186852142Y-56907857D01*
X186873571Y-56907857D01*
X186887857Y-56900714D01*
X186895000Y-56886428D01*
X186895000Y-56879285D01*
X186887857Y-56865000D01*
X186873571Y-56857857D01*
X186852142Y-56857857D01*
X186837857Y-56865000D01*
X186709285Y-56950714D02*
X186723571Y-56957857D01*
X186752142Y-56957857D01*
X186766428Y-56950714D01*
X186773571Y-56936428D01*
X186773571Y-56879285D01*
X186766428Y-56865000D01*
X186752142Y-56857857D01*
X186723571Y-56857857D01*
X186709285Y-56865000D01*
X186702142Y-56879285D01*
X186702142Y-56893571D01*
X186773571Y-56907857D01*
%TO.C,header*%
X189776057Y-71797457D02*
X189776057Y-71647457D01*
X189711771Y-71797457D02*
X189711771Y-71718885D01*
X189718914Y-71704600D01*
X189733200Y-71697457D01*
X189754628Y-71697457D01*
X189768914Y-71704600D01*
X189776057Y-71711742D01*
X189583200Y-71790314D02*
X189597485Y-71797457D01*
X189626057Y-71797457D01*
X189640342Y-71790314D01*
X189647485Y-71776028D01*
X189647485Y-71718885D01*
X189640342Y-71704600D01*
X189626057Y-71697457D01*
X189597485Y-71697457D01*
X189583200Y-71704600D01*
X189576057Y-71718885D01*
X189576057Y-71733171D01*
X189647485Y-71747457D01*
X189447485Y-71797457D02*
X189447485Y-71718885D01*
X189454628Y-71704600D01*
X189468914Y-71697457D01*
X189497485Y-71697457D01*
X189511771Y-71704600D01*
X189447485Y-71790314D02*
X189461771Y-71797457D01*
X189497485Y-71797457D01*
X189511771Y-71790314D01*
X189518914Y-71776028D01*
X189518914Y-71761742D01*
X189511771Y-71747457D01*
X189497485Y-71740314D01*
X189461771Y-71740314D01*
X189447485Y-71733171D01*
X189311771Y-71797457D02*
X189311771Y-71647457D01*
X189311771Y-71790314D02*
X189326057Y-71797457D01*
X189354628Y-71797457D01*
X189368914Y-71790314D01*
X189376057Y-71783171D01*
X189383200Y-71768885D01*
X189383200Y-71726028D01*
X189376057Y-71711742D01*
X189368914Y-71704600D01*
X189354628Y-71697457D01*
X189326057Y-71697457D01*
X189311771Y-71704600D01*
X189183200Y-71790314D02*
X189197485Y-71797457D01*
X189226057Y-71797457D01*
X189240342Y-71790314D01*
X189247485Y-71776028D01*
X189247485Y-71718885D01*
X189240342Y-71704600D01*
X189226057Y-71697457D01*
X189197485Y-71697457D01*
X189183200Y-71704600D01*
X189176057Y-71718885D01*
X189176057Y-71733171D01*
X189247485Y-71747457D01*
X189111771Y-71797457D02*
X189111771Y-71697457D01*
X189111771Y-71726028D02*
X189104628Y-71711742D01*
X189097485Y-71704600D01*
X189083200Y-71697457D01*
X189068914Y-71697457D01*
%TO.C,R3*%
X189117857Y-64335000D02*
X189046428Y-64285000D01*
X189117857Y-64249285D02*
X188967857Y-64249285D01*
X188967857Y-64306428D01*
X188975000Y-64320714D01*
X188982142Y-64327857D01*
X188996428Y-64335000D01*
X189017857Y-64335000D01*
X189032142Y-64327857D01*
X189039285Y-64320714D01*
X189046428Y-64306428D01*
X189046428Y-64249285D01*
X188967857Y-64385000D02*
X188967857Y-64477857D01*
X189025000Y-64427857D01*
X189025000Y-64449285D01*
X189032142Y-64463571D01*
X189039285Y-64470714D01*
X189053571Y-64477857D01*
X189089285Y-64477857D01*
X189103571Y-64470714D01*
X189110714Y-64463571D01*
X189117857Y-64449285D01*
X189117857Y-64406428D01*
X189110714Y-64392142D01*
X189103571Y-64385000D01*
D12*
%TO.C,header_2*%
X200135800Y-61203800D02*
X200135800Y-63078800D01*
X198745800Y-61203800D02*
X198745800Y-63078800D01*
X199046307Y-63078800D02*
X198745800Y-63078800D01*
X200135800Y-59833800D02*
X199440800Y-59833800D01*
X200135800Y-61203800D02*
X200049076Y-61203800D01*
X200135800Y-63078800D02*
X199835293Y-63078800D01*
X200135800Y-60518800D02*
X200135800Y-59833800D01*
X198832524Y-61203800D02*
X198745800Y-61203800D01*
%TO.C,Current_Sense*%
X188165000Y-58845000D02*
X188078276Y-58845000D01*
X188165000Y-57475000D02*
X187470000Y-57475000D01*
X186775000Y-58845000D02*
X186775000Y-58720000D01*
X188165000Y-58845000D02*
X186775000Y-58845000D01*
X188165000Y-58160000D02*
X188165000Y-57475000D01*
X186861724Y-58845000D02*
X186775000Y-58845000D01*
X188165000Y-58845000D02*
X188165000Y-58720000D01*
%TO.C,header*%
X191540600Y-70628200D02*
X196415600Y-70628200D01*
X191540600Y-70628200D02*
X191540600Y-70714924D01*
X191540600Y-72018200D02*
X196415600Y-72018200D01*
X191540600Y-71931476D02*
X191540600Y-72018200D01*
X190855600Y-70628200D02*
X190170600Y-70628200D01*
X196415600Y-71717693D02*
X196415600Y-72018200D01*
X190170600Y-70628200D02*
X190170600Y-71323200D01*
X196415600Y-70628200D02*
X196415600Y-70928707D01*
%TO.C,R3*%
X188680000Y-66537064D02*
X188680000Y-62182936D01*
X185260000Y-66537064D02*
X185260000Y-62182936D01*
%TD*%
M02*
