%TF.GenerationSoftware,KiCad,Pcbnew,(6.0.5)*%
%TF.CreationDate,2022-07-13T16:28:14-04:00*%
%TF.ProjectId,torque_motor_design,746f7271-7565-45f6-9d6f-746f725f6465,rev?*%
%TF.SameCoordinates,Original*%
%TF.FileFunction,Soldermask,Top*%
%TF.FilePolarity,Negative*%
%FSLAX46Y46*%
G04 Gerber Fmt 4.6, Leading zero omitted, Abs format (unit mm)*
G04 Created by KiCad (PCBNEW (6.0.5)) date 2022-07-13 16:28:14*
%MOMM*%
%LPD*%
G01*
G04 APERTURE LIST*
G04 Aperture macros list*
%AMRoundRect*
0 Rectangle with rounded corners*
0 $1 Rounding radius*
0 $2 $3 $4 $5 $6 $7 $8 $9 X,Y pos of 4 corners*
0 Add a 4 corners polygon primitive as box body*
4,1,4,$2,$3,$4,$5,$6,$7,$8,$9,$2,$3,0*
0 Add four circle primitives for the rounded corners*
1,1,$1+$1,$2,$3*
1,1,$1+$1,$4,$5*
1,1,$1+$1,$6,$7*
1,1,$1+$1,$8,$9*
0 Add four rect primitives between the rounded corners*
20,1,$1+$1,$2,$3,$4,$5,0*
20,1,$1+$1,$4,$5,$6,$7,0*
20,1,$1+$1,$6,$7,$8,$9,0*
20,1,$1+$1,$8,$9,$2,$3,0*%
G04 Aperture macros list end*
%ADD10R,1.300000X1.600000*%
%ADD11R,2.000000X1.600000*%
%ADD12RoundRect,0.100000X0.100000X-0.130000X0.100000X0.130000X-0.100000X0.130000X-0.100000X-0.130000X0*%
%ADD13RoundRect,0.250000X0.425000X-0.450000X0.425000X0.450000X-0.425000X0.450000X-0.425000X-0.450000X0*%
%ADD14RoundRect,0.250000X0.450000X0.425000X-0.450000X0.425000X-0.450000X-0.425000X0.450000X-0.425000X0*%
%ADD15RoundRect,0.100000X-0.100000X0.130000X-0.100000X-0.130000X0.100000X-0.130000X0.100000X0.130000X0*%
%ADD16RoundRect,0.100000X0.130000X0.100000X-0.130000X0.100000X-0.130000X-0.100000X0.130000X-0.100000X0*%
%ADD17R,0.800000X4.600000*%
%ADD18R,10.800000X9.400000*%
%ADD19RoundRect,0.250000X0.250000X0.750000X-0.250000X0.750000X-0.250000X-0.750000X0.250000X-0.750000X0*%
%ADD20RoundRect,0.100000X-0.130000X-0.100000X0.130000X-0.100000X0.130000X0.100000X-0.130000X0.100000X0*%
%ADD21R,1.200000X0.900000*%
%ADD22RoundRect,0.250000X-0.450000X-0.425000X0.450000X-0.425000X0.450000X0.425000X-0.450000X0.425000X0*%
%ADD23RoundRect,0.250000X-0.425000X0.450000X-0.425000X-0.450000X0.425000X-0.450000X0.425000X0.450000X0*%
%ADD24R,0.900000X1.200000*%
%ADD25RoundRect,0.250000X0.750000X-0.250000X0.750000X0.250000X-0.750000X0.250000X-0.750000X-0.250000X0*%
%ADD26RoundRect,0.200000X-0.275000X0.200000X-0.275000X-0.200000X0.275000X-0.200000X0.275000X0.200000X0*%
%ADD27R,0.850000X0.850000*%
%ADD28O,0.850000X0.850000*%
G04 APERTURE END LIST*
D10*
%TO.C,RV1*%
X184250000Y-43750000D03*
D11*
X185500000Y-40850000D03*
D10*
X186750000Y-43750000D03*
%TD*%
D12*
%TO.C,C8*%
X179250000Y-52743000D03*
X179250000Y-52103000D03*
%TD*%
D13*
%TO.C,C6*%
X177673000Y-52277000D03*
X177673000Y-49577000D03*
%TD*%
D14*
%TO.C,C10*%
X183214000Y-47117000D03*
X180514000Y-47117000D03*
%TD*%
D15*
%TO.C,C7*%
X195250000Y-54980000D03*
X195250000Y-55620000D03*
%TD*%
D16*
%TO.C,R6*%
X179270000Y-43900000D03*
X178630000Y-43900000D03*
%TD*%
D17*
%TO.C,U3*%
X190190000Y-51475000D03*
X191460000Y-51475000D03*
X192730000Y-51475000D03*
X194000000Y-51475000D03*
X195270000Y-51475000D03*
X196540000Y-51475000D03*
X197810000Y-51475000D03*
D18*
X194000000Y-42325000D03*
%TD*%
D19*
%TO.C,Motor+1*%
X192050000Y-65600000D03*
%TD*%
D15*
%TO.C,C5*%
X192750000Y-54980000D03*
X192750000Y-55620000D03*
%TD*%
D20*
%TO.C,R5*%
X178630000Y-41850000D03*
X179270000Y-41850000D03*
%TD*%
D21*
%TO.C,D7*%
X196750000Y-66300000D03*
X196750000Y-69600000D03*
%TD*%
D22*
%TO.C,C9*%
X175815000Y-47117000D03*
X178515000Y-47117000D03*
%TD*%
D17*
%TO.C,U2*%
X184310000Y-56225000D03*
X183040000Y-56225000D03*
X181770000Y-56225000D03*
X180500000Y-56225000D03*
X179230000Y-56225000D03*
X177960000Y-56225000D03*
X176690000Y-56225000D03*
D18*
X180500000Y-65375000D03*
%TD*%
D13*
%TO.C,C4*%
X191008000Y-58246000D03*
X191008000Y-55546000D03*
%TD*%
D23*
%TO.C,C12*%
X196850000Y-55546000D03*
X196850000Y-58246000D03*
%TD*%
D24*
%TO.C,D1*%
X190850000Y-61600000D03*
X194150000Y-61600000D03*
%TD*%
D25*
%TO.C,External_(-6V)1*%
X176306000Y-43894000D03*
%TD*%
%TO.C,External_(+6V)1*%
X176306000Y-41850000D03*
%TD*%
D19*
%TO.C,Motor-1*%
X190000000Y-65600000D03*
%TD*%
D26*
%TO.C,R1*%
X187400000Y-45675000D03*
X187400000Y-47325000D03*
%TD*%
D12*
%TO.C,C11*%
X180500000Y-53020000D03*
X180500000Y-52380000D03*
%TD*%
D21*
%TO.C,D5*%
X196800000Y-61200000D03*
X196800000Y-64500000D03*
%TD*%
D23*
%TO.C,C3*%
X182626000Y-49704000D03*
X182626000Y-52404000D03*
%TD*%
D24*
%TO.C,D6*%
X194400000Y-69150000D03*
X191100000Y-69150000D03*
%TD*%
D27*
%TO.C,Current_Sense*%
X180340000Y-40259000D03*
%TD*%
%TO.C,ONEV_2*%
X187200000Y-53850000D03*
D28*
X187200000Y-54850000D03*
X187200000Y-55850000D03*
X187200000Y-56850000D03*
X187200000Y-57850000D03*
X187200000Y-58850000D03*
%TD*%
M02*
