%TF.GenerationSoftware,KiCad,Pcbnew,(6.0.5)*%
%TF.CreationDate,2022-07-13T16:28:14-04:00*%
%TF.ProjectId,torque_motor_design,746f7271-7565-45f6-9d6f-746f725f6465,rev?*%
%TF.SameCoordinates,Original*%
%TF.FileFunction,Copper,L2,Bot*%
%TF.FilePolarity,Positive*%
%FSLAX46Y46*%
G04 Gerber Fmt 4.6, Leading zero omitted, Abs format (unit mm)*
G04 Created by KiCad (PCBNEW (6.0.5)) date 2022-07-13 16:28:14*
%MOMM*%
%LPD*%
G01*
G04 APERTURE LIST*
G04 Aperture macros list*
%AMRoundRect*
0 Rectangle with rounded corners*
0 $1 Rounding radius*
0 $2 $3 $4 $5 $6 $7 $8 $9 X,Y pos of 4 corners*
0 Add a 4 corners polygon primitive as box body*
4,1,4,$2,$3,$4,$5,$6,$7,$8,$9,$2,$3,0*
0 Add four circle primitives for the rounded corners*
1,1,$1+$1,$2,$3*
1,1,$1+$1,$4,$5*
1,1,$1+$1,$6,$7*
1,1,$1+$1,$8,$9*
0 Add four rect primitives between the rounded corners*
20,1,$1+$1,$2,$3,$4,$5,0*
20,1,$1+$1,$4,$5,$6,$7,0*
20,1,$1+$1,$6,$7,$8,$9,0*
20,1,$1+$1,$8,$9,$2,$3,0*%
%AMFreePoly0*
4,1,9,3.862500,-0.866500,0.737500,-0.866500,0.737500,-0.450000,-0.737500,-0.450000,-0.737500,0.450000,0.737500,0.450000,0.737500,0.866500,3.862500,0.866500,3.862500,-0.866500,3.862500,-0.866500,$1*%
%AMFreePoly1*
4,1,22,0.500000,-0.750000,0.000000,-0.750000,0.000000,-0.745033,-0.079941,-0.743568,-0.215256,-0.701293,-0.333266,-0.622738,-0.424486,-0.514219,-0.481581,-0.384460,-0.499164,-0.250000,-0.500000,-0.250000,-0.500000,0.250000,-0.499164,0.250000,-0.499963,0.256109,-0.478152,0.396186,-0.417904,0.524511,-0.324060,0.630769,-0.204165,0.706417,-0.067858,0.745374,0.000000,0.744959,0.000000,0.750000,
0.500000,0.750000,0.500000,-0.750000,0.500000,-0.750000,$1*%
%AMFreePoly2*
4,1,20,0.000000,0.744959,0.073905,0.744508,0.209726,0.703889,0.328688,0.626782,0.421226,0.519385,0.479903,0.390333,0.500000,0.250000,0.500000,-0.250000,0.499851,-0.262216,0.476331,-0.402017,0.414519,-0.529596,0.319384,-0.634700,0.198574,-0.708877,0.061801,-0.746166,0.000000,-0.745033,0.000000,-0.750000,-0.500000,-0.750000,-0.500000,0.750000,0.000000,0.750000,0.000000,0.744959,
0.000000,0.744959,$1*%
G04 Aperture macros list end*
%TA.AperFunction,SMDPad,CuDef*%
%ADD10R,1.300000X0.900000*%
%TD*%
%TA.AperFunction,SMDPad,CuDef*%
%ADD11FreePoly0,0.000000*%
%TD*%
%TA.AperFunction,SMDPad,CuDef*%
%ADD12FreePoly1,180.000000*%
%TD*%
%TA.AperFunction,SMDPad,CuDef*%
%ADD13FreePoly2,180.000000*%
%TD*%
%TA.AperFunction,ComponentPad*%
%ADD14R,0.850000X0.850000*%
%TD*%
%TA.AperFunction,SMDPad,CuDef*%
%ADD15R,1.700000X0.650000*%
%TD*%
%TA.AperFunction,SMDPad,CuDef*%
%ADD16RoundRect,0.250000X0.450000X0.425000X-0.450000X0.425000X-0.450000X-0.425000X0.450000X-0.425000X0*%
%TD*%
%TA.AperFunction,SMDPad,CuDef*%
%ADD17RoundRect,0.250000X-0.262500X-0.450000X0.262500X-0.450000X0.262500X0.450000X-0.262500X0.450000X0*%
%TD*%
%TA.AperFunction,SMDPad,CuDef*%
%ADD18RoundRect,0.218750X-0.256250X0.218750X-0.256250X-0.218750X0.256250X-0.218750X0.256250X0.218750X0*%
%TD*%
%TA.AperFunction,ComponentPad*%
%ADD19O,0.850000X0.850000*%
%TD*%
%TA.AperFunction,SMDPad,CuDef*%
%ADD20RoundRect,0.250000X0.262500X0.450000X-0.262500X0.450000X-0.262500X-0.450000X0.262500X-0.450000X0*%
%TD*%
%TA.AperFunction,SMDPad,CuDef*%
%ADD21RoundRect,0.250000X1.425000X-0.362500X1.425000X0.362500X-1.425000X0.362500X-1.425000X-0.362500X0*%
%TD*%
%TA.AperFunction,SMDPad,CuDef*%
%ADD22FreePoly1,90.000000*%
%TD*%
%TA.AperFunction,SMDPad,CuDef*%
%ADD23FreePoly2,90.000000*%
%TD*%
%TA.AperFunction,SMDPad,CuDef*%
%ADD24RoundRect,0.218750X-0.218750X-0.256250X0.218750X-0.256250X0.218750X0.256250X-0.218750X0.256250X0*%
%TD*%
%TA.AperFunction,ViaPad*%
%ADD25C,0.800000*%
%TD*%
%TA.AperFunction,Conductor*%
%ADD26C,0.250000*%
%TD*%
%TA.AperFunction,Conductor*%
%ADD27C,0.400000*%
%TD*%
G04 APERTURE END LIST*
D10*
%TO.P,U4,1,OUT*%
%TO.N,GND*%
X190120000Y-40997000D03*
D11*
%TO.P,U4,2,GND*%
%TO.N,+V*%
X190207500Y-39497000D03*
D10*
%TO.P,U4,3,GND*%
%TO.N,VCC_MCU_5V*%
X190120000Y-37997000D03*
%TD*%
D12*
%TO.P,Enable_Current_sense,1,A*%
%TO.N,Net-(Motor-1-Pad1)*%
X182170000Y-68070000D03*
D13*
%TO.P,Enable_Current_sense,2,B*%
%TO.N,unconnected-(U1-Pad2)*%
X180870000Y-68070000D03*
%TD*%
D12*
%TO.P,JP1,1,A*%
%TO.N,Net-(JP1-Pad1)*%
X178890800Y-51508800D03*
D13*
%TO.P,JP1,2,B*%
%TO.N,VCC_MCU_5V*%
X177590800Y-51508800D03*
%TD*%
D14*
%TO.P,Current_Sense,1*%
%TO.N,current_sense*%
X180340000Y-40259000D03*
%TD*%
D15*
%TO.P,U1,1,~{RESET}/PB5*%
%TO.N,Net-(JP1-Pad1)*%
X181398000Y-51585000D03*
%TO.P,U1,2,XTAL1/PB3*%
%TO.N,unconnected-(U1-Pad2)*%
X181398000Y-50315000D03*
%TO.P,U1,3,XTAL2/PB4*%
%TO.N,current_sense*%
X181398000Y-49045000D03*
%TO.P,U1,4,GND*%
%TO.N,GND*%
X181398000Y-47775000D03*
%TO.P,U1,5,AREF/PB0*%
%TO.N,TX_Serial*%
X188698000Y-47775000D03*
%TO.P,U1,6,PB1*%
%TO.N,RX_Serial*%
X188698000Y-49045000D03*
%TO.P,U1,7,PB2*%
%TO.N,Torque_Mode*%
X188698000Y-50315000D03*
%TO.P,U1,8,VCC*%
%TO.N,VCC_MCU_5V*%
X188698000Y-51585000D03*
%TD*%
D16*
%TO.P,C2,1*%
%TO.N,VCC_MCU_5V*%
X198327000Y-41021000D03*
%TO.P,C2,2*%
%TO.N,GND*%
X195627000Y-41021000D03*
%TD*%
D17*
%TO.P,R8,1*%
%TO.N,Net-(D4-Pad2)*%
X194725500Y-51074500D03*
%TO.P,R8,2*%
%TO.N,VCC_MCU_5V*%
X196550500Y-51074500D03*
%TD*%
D18*
%TO.P,D4,1,K*%
%TO.N,RX_Serial*%
X192082000Y-49525000D03*
%TO.P,D4,2,A*%
%TO.N,Net-(D4-Pad2)*%
X192082000Y-51100000D03*
%TD*%
D14*
%TO.P,ONEV_2,1*%
%TO.N,VCC_MCU_5V*%
X187200000Y-53850000D03*
D19*
%TO.P,ONEV_2,2*%
%TO.N,GND*%
X187200000Y-54850000D03*
%TO.P,ONEV_2,3*%
%TO.N,unconnected-(U1-Pad1)*%
X187200000Y-55850000D03*
%TO.P,ONEV_2,4*%
%TO.N,RX_Serial*%
X187200000Y-56850000D03*
%TO.P,ONEV_2,5*%
%TO.N,TX_Serial*%
X187200000Y-57850000D03*
%TO.P,ONEV_2,6*%
%TO.N,Torque_mode_jumper*%
X187200000Y-58850000D03*
%TD*%
D20*
%TO.P,R7,1*%
%TO.N,VCC_MCU_5V*%
X198074500Y-47518500D03*
%TO.P,R7,2*%
%TO.N,Net-(D3-Pad2)*%
X196249500Y-47518500D03*
%TD*%
D21*
%TO.P,R3,1*%
%TO.N,Net-(Motor-1-Pad1)*%
X186970000Y-67322500D03*
%TO.P,R3,2*%
%TO.N,GND*%
X186970000Y-61397500D03*
%TD*%
D22*
%TO.P,Torque_mode_EN,1,A*%
%TO.N,Torque_mode_jumper*%
X184540000Y-58510000D03*
D23*
%TO.P,Torque_mode_EN,2,B*%
%TO.N,Torque_Mode*%
X184540000Y-57210000D03*
%TD*%
D16*
%TO.P,C1,1*%
%TO.N,+V*%
X198454000Y-38100000D03*
%TO.P,C1,2*%
%TO.N,GND*%
X195754000Y-38100000D03*
%TD*%
D24*
%TO.P,D3,1,K*%
%TO.N,TX_Serial*%
X192310500Y-47518500D03*
%TO.P,D3,2,A*%
%TO.N,Net-(D3-Pad2)*%
X193885500Y-47518500D03*
%TD*%
D25*
%TO.N,+V*%
X175100000Y-52450000D03*
X179250000Y-56600000D03*
X174300000Y-57900000D03*
X175600000Y-55400000D03*
X178200000Y-42900000D03*
X190200000Y-63300000D03*
%TO.N,-V*%
X176025500Y-48681601D03*
X189850000Y-59850000D03*
X198450000Y-69550000D03*
X175200000Y-57400000D03*
X200100000Y-60000000D03*
X200100000Y-47700000D03*
X180500000Y-56225000D03*
%TO.N,VCC_MCU_5V*%
X187108500Y-42164000D03*
X186722818Y-38423686D03*
X183261000Y-41910000D03*
X190090000Y-36190000D03*
%TO.N,Torque_Mode*%
X185550000Y-55626000D03*
X185600000Y-51700000D03*
%TO.N,GND*%
X191516000Y-59309000D03*
X179533221Y-45016580D03*
X187150000Y-52400000D03*
X181229000Y-44704000D03*
X187120000Y-61350000D03*
X194500000Y-58500000D03*
%TO.N,Net-(Motor-1-Pad1)*%
X187260000Y-67270000D03*
%TO.N,Torque_mode_jumper*%
X187833000Y-37846000D03*
%TO.N,current_sense*%
X180213000Y-42899989D03*
%TO.N,unconnected-(U1-Pad2)*%
X174244000Y-40386000D03*
X185293000Y-38989000D03*
%TD*%
D26*
%TO.N,+V*%
X191053000Y-39497000D02*
X190207500Y-39497000D01*
X193590000Y-36960000D02*
X191053000Y-39497000D01*
X198454000Y-38100000D02*
X197314000Y-36960000D01*
X178200000Y-42900000D02*
X178200000Y-40999978D01*
X191990000Y-37714500D02*
X190207500Y-39497000D01*
D27*
X175100000Y-52450000D02*
X179250000Y-56600000D01*
X176800000Y-56600000D02*
X179250000Y-56600000D01*
X174569320Y-57900000D02*
X174300000Y-57900000D01*
D26*
X182269978Y-36930000D02*
X191970000Y-36930000D01*
X178200000Y-40999978D02*
X182269978Y-36930000D01*
D27*
X175600000Y-55400000D02*
X176800000Y-56600000D01*
X179969320Y-63300000D02*
X174569320Y-57900000D01*
D26*
X197314000Y-36960000D02*
X193590000Y-36960000D01*
X191990000Y-36950000D02*
X191990000Y-37714500D01*
X191970000Y-36930000D02*
X191990000Y-36950000D01*
D27*
X190200000Y-63300000D02*
X179969320Y-63300000D01*
%TO.N,-V*%
X174300489Y-50406612D02*
X174300489Y-56500489D01*
X189850000Y-59850000D02*
X198450000Y-68450000D01*
X198450000Y-68450000D02*
X198450000Y-69550000D01*
X177650000Y-59850000D02*
X175200000Y-57400000D01*
X180500000Y-56225000D02*
X180500000Y-56480680D01*
X176025500Y-48681601D02*
X174300489Y-50406612D01*
X189850000Y-59850000D02*
X177650000Y-59850000D01*
X174300489Y-56500489D02*
X175200000Y-57400000D01*
X180500000Y-56480680D02*
X179580680Y-57400000D01*
X179580680Y-57400000D02*
X175200000Y-57400000D01*
D26*
%TO.N,VCC_MCU_5V*%
X186819643Y-38520511D02*
X189596489Y-38520511D01*
X199319000Y-41021000D02*
X199860000Y-40480000D01*
X177590800Y-51508800D02*
X177590800Y-51917740D01*
X198074500Y-49550500D02*
X196550500Y-51074500D01*
X177590800Y-51917740D02*
X179523060Y-53850000D01*
X199860000Y-40480000D02*
X199860000Y-36760000D01*
X187200000Y-53658000D02*
X187200000Y-53850000D01*
X186089668Y-53850000D02*
X184425969Y-52186301D01*
X198327000Y-41021000D02*
X199319000Y-41021000D01*
X188698000Y-52160000D02*
X187200000Y-53658000D01*
X198327000Y-41021000D02*
X198327000Y-47266000D01*
X198074500Y-47518500D02*
X198074500Y-49550500D01*
X185293000Y-41910000D02*
X183261000Y-41910000D01*
X199730000Y-36630000D02*
X199290000Y-36190000D01*
X185547000Y-49784000D02*
X185547000Y-42164000D01*
X199860000Y-36760000D02*
X199730000Y-36630000D01*
X198327000Y-47266000D02*
X198074500Y-47518500D01*
X184425969Y-52186301D02*
X184425969Y-50905031D01*
X185547000Y-42164000D02*
X185293000Y-41910000D01*
X179523060Y-53850000D02*
X187200000Y-53850000D01*
X187108500Y-41008500D02*
X190120000Y-37997000D01*
X187108500Y-42164000D02*
X187108500Y-41008500D01*
X199290000Y-36190000D02*
X190090000Y-36190000D01*
X186722818Y-38423686D02*
X186819643Y-38520511D01*
X187200000Y-53850000D02*
X186089668Y-53850000D01*
X188698000Y-51585000D02*
X188698000Y-52160000D01*
X184425969Y-50905031D02*
X185547000Y-49784000D01*
X189596489Y-38520511D02*
X190120000Y-37997000D01*
%TO.N,TX_Serial*%
X190322031Y-55168969D02*
X187641000Y-57850000D01*
X190322031Y-51616670D02*
X190322031Y-55168969D01*
X188698000Y-47775000D02*
X192054000Y-47775000D01*
X192512319Y-50337980D02*
X191600721Y-50337980D01*
X192310500Y-47518500D02*
X192881520Y-48089520D01*
X191600721Y-50337980D02*
X190322031Y-51616670D01*
X192054000Y-47775000D02*
X192310500Y-47518500D01*
X192881520Y-49968779D02*
X192512319Y-50337980D01*
X192881520Y-48089520D02*
X192881520Y-49968779D01*
X187641000Y-57850000D02*
X187200000Y-57850000D01*
%TO.N,Net-(D3-Pad2)*%
X193885500Y-47518500D02*
X196249500Y-47518500D01*
%TO.N,RX_Serial*%
X191602000Y-49045000D02*
X192082000Y-49525000D01*
X191777983Y-49525000D02*
X189872511Y-51430472D01*
X189872511Y-51430472D02*
X189872511Y-54778529D01*
X189872511Y-54778529D02*
X187801040Y-56850000D01*
X192082000Y-49525000D02*
X191777983Y-49525000D01*
X188698000Y-49045000D02*
X191602000Y-49045000D01*
X187801040Y-56850000D02*
X187200000Y-56850000D01*
%TO.N,Net-(D4-Pad2)*%
X192082000Y-51100000D02*
X194700000Y-51100000D01*
X194700000Y-51100000D02*
X194725500Y-51074500D01*
%TO.N,Torque_Mode*%
X186985000Y-50315000D02*
X185600000Y-51700000D01*
X184540000Y-56636000D02*
X185550000Y-55626000D01*
X188698000Y-50315000D02*
X186985000Y-50315000D01*
X184540000Y-57210000D02*
X184540000Y-56636000D01*
%TO.N,GND*%
X187150000Y-52400000D02*
X185346096Y-52400000D01*
X184925489Y-51354511D02*
X187060000Y-49220000D01*
X195754000Y-38100000D02*
X195754000Y-40894000D01*
X186433989Y-39888625D02*
X186433989Y-42443393D01*
X190120000Y-43290000D02*
X190120000Y-40997000D01*
X195603000Y-40997000D02*
X195627000Y-41021000D01*
X187630000Y-43530000D02*
X189880000Y-43530000D01*
X187060000Y-44100000D02*
X187630000Y-43530000D01*
X190120000Y-40997000D02*
X195603000Y-40997000D01*
X181398000Y-47775000D02*
X181398000Y-46881359D01*
X190930000Y-64120000D02*
X197490000Y-70680000D01*
X184992897Y-38264489D02*
X185593103Y-38264489D01*
X181229000Y-42028386D02*
X184992897Y-38264489D01*
X188278489Y-42838511D02*
X190120000Y-40997000D01*
X186433989Y-42443393D02*
X186829107Y-42838511D01*
X194500000Y-58500000D02*
X192325000Y-58500000D01*
X187120000Y-61350000D02*
X187017500Y-61350000D01*
X184925489Y-51979393D02*
X184925489Y-51354511D01*
X189640000Y-61350000D02*
X190930000Y-62640000D01*
X181398000Y-46881359D02*
X179533221Y-45016580D01*
X189880000Y-43530000D02*
X190120000Y-43290000D01*
X187120000Y-61350000D02*
X189640000Y-61350000D01*
X186825614Y-39497000D02*
X186433989Y-39888625D01*
X199220000Y-70680000D02*
X199220000Y-67013000D01*
X195754000Y-40894000D02*
X195627000Y-41021000D01*
X187125489Y-52424511D02*
X187150000Y-52400000D01*
X185593103Y-38264489D02*
X186825614Y-39497000D01*
X187060000Y-49220000D02*
X187060000Y-44100000D01*
X192325000Y-58500000D02*
X191516000Y-59309000D01*
X187017500Y-61350000D02*
X186970000Y-61397500D01*
X197490000Y-70680000D02*
X199220000Y-70680000D01*
X195754000Y-38594000D02*
X195754000Y-38100000D01*
X190930000Y-62640000D02*
X190930000Y-64120000D01*
X199220000Y-67013000D02*
X191516000Y-59309000D01*
X185346096Y-52400000D02*
X184925489Y-51979393D01*
X186829107Y-42838511D02*
X188278489Y-42838511D01*
X181398000Y-47775000D02*
X181923000Y-47775000D01*
X181229000Y-44704000D02*
X181229000Y-42028386D01*
%TO.N,Net-(Motor-1-Pad1)*%
X186222500Y-68070000D02*
X186970000Y-67322500D01*
X182170000Y-68070000D02*
X186222500Y-68070000D01*
D27*
X187260000Y-67270000D02*
X187022500Y-67270000D01*
X187022500Y-67270000D02*
X186970000Y-67322500D01*
D26*
%TO.N,Net-(JP1-Pad1)*%
X181398000Y-51585000D02*
X178967000Y-51585000D01*
X178967000Y-51585000D02*
X178890800Y-51508800D01*
%TO.N,Torque_mode_jumper*%
X180494580Y-54299520D02*
X178886520Y-54299520D01*
X179488489Y-42599886D02*
X184623375Y-37465000D01*
X187200000Y-58850000D02*
X184880000Y-58850000D01*
X176766289Y-45991711D02*
X179488489Y-43269511D01*
X179488489Y-43269511D02*
X179488489Y-42599886D01*
X180494580Y-54873520D02*
X180494580Y-54299520D01*
X184880000Y-58850000D02*
X184540000Y-58510000D01*
X176766289Y-52179289D02*
X176766289Y-45991711D01*
X186690000Y-37465000D02*
X184623375Y-37465000D01*
X184540000Y-58510000D02*
X184131060Y-58510000D01*
X178886520Y-54299520D02*
X176766289Y-52179289D01*
X186690000Y-37465000D02*
X187071000Y-37846000D01*
X184131060Y-58510000D02*
X180494580Y-54873520D01*
X187071000Y-37846000D02*
X187833000Y-37846000D01*
%TO.N,current_sense*%
X182095000Y-49045000D02*
X181398000Y-49045000D01*
X180213000Y-42899989D02*
X180213000Y-44765978D01*
X180213000Y-44765978D02*
X182572511Y-47125489D01*
X182572511Y-48567489D02*
X182095000Y-49045000D01*
X182572511Y-47125489D02*
X182572511Y-48567489D01*
%TO.N,unconnected-(U1-Pad2)*%
X182260000Y-41633104D02*
X184904104Y-38989000D01*
X183050000Y-42723614D02*
X182260000Y-41933614D01*
X183050000Y-49188000D02*
X183050000Y-42723614D01*
X184904104Y-38989000D02*
X185293000Y-38989000D01*
X181923000Y-50315000D02*
X183050000Y-49188000D01*
X174244000Y-40386000D02*
X173575489Y-41054511D01*
X173575489Y-60775489D02*
X180870000Y-68070000D01*
X182260000Y-41933614D02*
X182260000Y-41633104D01*
X173575489Y-41054511D02*
X173575489Y-60775489D01*
X181398000Y-50315000D02*
X181923000Y-50315000D01*
%TD*%
%TA.AperFunction,Conductor*%
%TO.N,GND*%
G36*
X199249144Y-48085057D02*
G01*
X199301980Y-48134788D01*
X199360960Y-48236944D01*
X199365378Y-48241851D01*
X199365379Y-48241852D01*
X199403590Y-48284290D01*
X199488747Y-48378866D01*
X199550831Y-48423973D01*
X199635370Y-48485394D01*
X199643248Y-48491118D01*
X199649276Y-48493802D01*
X199649278Y-48493803D01*
X199811681Y-48566109D01*
X199817712Y-48568794D01*
X199911113Y-48588647D01*
X199998056Y-48607128D01*
X199998061Y-48607128D01*
X200004513Y-48608500D01*
X200025500Y-48608500D01*
X200093621Y-48628502D01*
X200140114Y-48682158D01*
X200151500Y-48734500D01*
X200151500Y-58965500D01*
X200131498Y-59033621D01*
X200077842Y-59080114D01*
X200025500Y-59091500D01*
X200004513Y-59091500D01*
X199998061Y-59092872D01*
X199998056Y-59092872D01*
X199911112Y-59111353D01*
X199817712Y-59131206D01*
X199811682Y-59133891D01*
X199811681Y-59133891D01*
X199649278Y-59206197D01*
X199649276Y-59206198D01*
X199643248Y-59208882D01*
X199488747Y-59321134D01*
X199360960Y-59463056D01*
X199265473Y-59628444D01*
X199206458Y-59810072D01*
X199186496Y-60000000D01*
X199206458Y-60189928D01*
X199265473Y-60371556D01*
X199360960Y-60536944D01*
X199365378Y-60541851D01*
X199365379Y-60541852D01*
X199457176Y-60643803D01*
X199488747Y-60678866D01*
X199643248Y-60791118D01*
X199649276Y-60793802D01*
X199649278Y-60793803D01*
X199811681Y-60866109D01*
X199817712Y-60868794D01*
X199911113Y-60888647D01*
X199998056Y-60907128D01*
X199998061Y-60907128D01*
X200004513Y-60908500D01*
X200025500Y-60908500D01*
X200093621Y-60928502D01*
X200140114Y-60982158D01*
X200151500Y-61034500D01*
X200151500Y-71256625D01*
X200150000Y-71276009D01*
X200146309Y-71299716D01*
X200147474Y-71308621D01*
X200147751Y-71310744D01*
X200148207Y-71339427D01*
X200138085Y-71442204D01*
X200133267Y-71466429D01*
X200097139Y-71585534D01*
X200087686Y-71608355D01*
X200029019Y-71718115D01*
X200015298Y-71738652D01*
X199958118Y-71808327D01*
X199936338Y-71834866D01*
X199918873Y-71852331D01*
X199862912Y-71898257D01*
X199822662Y-71931289D01*
X199802126Y-71945010D01*
X199692356Y-72003685D01*
X199669542Y-72013136D01*
X199550435Y-72049266D01*
X199526212Y-72054084D01*
X199430243Y-72063536D01*
X199414132Y-72063084D01*
X199414123Y-72063787D01*
X199405147Y-72063677D01*
X199396276Y-72062296D01*
X199387374Y-72063460D01*
X199387372Y-72063460D01*
X199372323Y-72065428D01*
X199364714Y-72066423D01*
X199348379Y-72067487D01*
X173404367Y-72067487D01*
X173384982Y-72065987D01*
X173370147Y-72063677D01*
X173370145Y-72063677D01*
X173361276Y-72062296D01*
X173355492Y-72063052D01*
X173289133Y-72042680D01*
X173243301Y-71988459D01*
X173234839Y-71947123D01*
X173233691Y-71947273D01*
X173229563Y-71915699D01*
X173228500Y-71899365D01*
X173228500Y-61628594D01*
X173248502Y-61560473D01*
X173302158Y-61513980D01*
X173372432Y-61503876D01*
X173437012Y-61533370D01*
X173443595Y-61539499D01*
X179819366Y-67915270D01*
X179853392Y-67977582D01*
X179856271Y-68004365D01*
X179856271Y-68240519D01*
X179855767Y-68251777D01*
X179851318Y-68301373D01*
X179851167Y-68313715D01*
X179856317Y-68392829D01*
X179856662Y-68395238D01*
X179875871Y-68529366D01*
X179876621Y-68534606D01*
X179877880Y-68538911D01*
X179877881Y-68538916D01*
X179895765Y-68600073D01*
X179917503Y-68674410D01*
X179976783Y-68804789D01*
X179979195Y-68808560D01*
X179979199Y-68808568D01*
X180052843Y-68923721D01*
X180055258Y-68927497D01*
X180148748Y-69035998D01*
X180258511Y-69131750D01*
X180262272Y-69134188D01*
X180262275Y-69134190D01*
X180330551Y-69178444D01*
X180378696Y-69209650D01*
X180382757Y-69211526D01*
X180382758Y-69211527D01*
X180391543Y-69215586D01*
X180510924Y-69270748D01*
X180579533Y-69291266D01*
X180643844Y-69310499D01*
X180643849Y-69310500D01*
X180648142Y-69311784D01*
X180652574Y-69312446D01*
X180652577Y-69312447D01*
X180787765Y-69332650D01*
X180787768Y-69332650D01*
X180792196Y-69333312D01*
X180866855Y-69333768D01*
X180930945Y-69334160D01*
X180930950Y-69334160D01*
X180935417Y-69334187D01*
X180937861Y-69333852D01*
X180941656Y-69333729D01*
X181370000Y-69333729D01*
X181401986Y-69331441D01*
X181436373Y-69328982D01*
X181436374Y-69328982D01*
X181443111Y-69328500D01*
X181479440Y-69317833D01*
X181532868Y-69314012D01*
X181670000Y-69333729D01*
X182160008Y-69333729D01*
X182160778Y-69333731D01*
X182230931Y-69334160D01*
X182230937Y-69334160D01*
X182235417Y-69334187D01*
X182319507Y-69322669D01*
X182375276Y-69315030D01*
X182375280Y-69315029D01*
X182379727Y-69314420D01*
X182517436Y-69275063D01*
X182650398Y-69215586D01*
X182654180Y-69213200D01*
X182654187Y-69213196D01*
X182767736Y-69141551D01*
X182771526Y-69139160D01*
X182882452Y-69044754D01*
X182977260Y-68937403D01*
X182983767Y-68927497D01*
X183054767Y-68819410D01*
X183054769Y-68819407D01*
X183057226Y-68815666D01*
X183075873Y-68775950D01*
X183122930Y-68722789D01*
X183189928Y-68703500D01*
X186143733Y-68703500D01*
X186154916Y-68704027D01*
X186162409Y-68705702D01*
X186170335Y-68705453D01*
X186170336Y-68705453D01*
X186230486Y-68703562D01*
X186234445Y-68703500D01*
X186262356Y-68703500D01*
X186266291Y-68703003D01*
X186266356Y-68702995D01*
X186278193Y-68702062D01*
X186310451Y-68701048D01*
X186314470Y-68700922D01*
X186322389Y-68700673D01*
X186341843Y-68695021D01*
X186361200Y-68691013D01*
X186373430Y-68689468D01*
X186373431Y-68689468D01*
X186381297Y-68688474D01*
X186388668Y-68685555D01*
X186388670Y-68685555D01*
X186422412Y-68672196D01*
X186433642Y-68668351D01*
X186468483Y-68658229D01*
X186468484Y-68658229D01*
X186476093Y-68656018D01*
X186482912Y-68651985D01*
X186482917Y-68651983D01*
X186493528Y-68645707D01*
X186511276Y-68637012D01*
X186530117Y-68629552D01*
X186565887Y-68603564D01*
X186575807Y-68597048D01*
X186607035Y-68578580D01*
X186607038Y-68578578D01*
X186613862Y-68574542D01*
X186628183Y-68560221D01*
X186643217Y-68547380D01*
X186653194Y-68540131D01*
X186659607Y-68535472D01*
X186687798Y-68501395D01*
X186695788Y-68492616D01*
X186707999Y-68480405D01*
X186770311Y-68446379D01*
X186797094Y-68443500D01*
X188445400Y-68443500D01*
X188448646Y-68443163D01*
X188448650Y-68443163D01*
X188544308Y-68433238D01*
X188544312Y-68433237D01*
X188551166Y-68432526D01*
X188557702Y-68430345D01*
X188557704Y-68430345D01*
X188711998Y-68378868D01*
X188718946Y-68376550D01*
X188869348Y-68283478D01*
X188994305Y-68158303D01*
X189027850Y-68103883D01*
X189083275Y-68013968D01*
X189083276Y-68013966D01*
X189087115Y-68007738D01*
X189142797Y-67839861D01*
X189153500Y-67735400D01*
X189153500Y-66909600D01*
X189153163Y-66906350D01*
X189143238Y-66810692D01*
X189143237Y-66810688D01*
X189142526Y-66803834D01*
X189086550Y-66636054D01*
X188993478Y-66485652D01*
X188868303Y-66360695D01*
X188862072Y-66356854D01*
X188723968Y-66271725D01*
X188723966Y-66271724D01*
X188717738Y-66267885D01*
X188557254Y-66214655D01*
X188556389Y-66214368D01*
X188556387Y-66214368D01*
X188549861Y-66212203D01*
X188543025Y-66211503D01*
X188543022Y-66211502D01*
X188499969Y-66207091D01*
X188445400Y-66201500D01*
X185494600Y-66201500D01*
X185491354Y-66201837D01*
X185491350Y-66201837D01*
X185395692Y-66211762D01*
X185395688Y-66211763D01*
X185388834Y-66212474D01*
X185382298Y-66214655D01*
X185382296Y-66214655D01*
X185250194Y-66258728D01*
X185221054Y-66268450D01*
X185070652Y-66361522D01*
X184945695Y-66486697D01*
X184852885Y-66637262D01*
X184797203Y-66805139D01*
X184796503Y-66811975D01*
X184796502Y-66811978D01*
X184794553Y-66831001D01*
X184786500Y-66909600D01*
X184786500Y-67310500D01*
X184766498Y-67378621D01*
X184712842Y-67425114D01*
X184660500Y-67436500D01*
X183191039Y-67436500D01*
X183122918Y-67416498D01*
X183075709Y-67361243D01*
X183070878Y-67350264D01*
X183069072Y-67346159D01*
X182992103Y-67222504D01*
X182899946Y-67112869D01*
X182791361Y-67015782D01*
X182787628Y-67013297D01*
X182787624Y-67013294D01*
X182675865Y-66938901D01*
X182675863Y-66938900D01*
X182672136Y-66936419D01*
X182540667Y-66873711D01*
X182536388Y-66872374D01*
X182536385Y-66872373D01*
X182460922Y-66848797D01*
X182403961Y-66831001D01*
X182399537Y-66830284D01*
X182399535Y-66830284D01*
X182349419Y-66822167D01*
X182260179Y-66807713D01*
X182190298Y-66806432D01*
X182121461Y-66805170D01*
X182121459Y-66805170D01*
X182116980Y-66805088D01*
X182112535Y-66805641D01*
X182108056Y-66805878D01*
X182108049Y-66805751D01*
X182099661Y-66806271D01*
X181670000Y-66806271D01*
X181639813Y-66808430D01*
X181603627Y-66811018D01*
X181603626Y-66811018D01*
X181596889Y-66811500D01*
X181560560Y-66822167D01*
X181507132Y-66825988D01*
X181370000Y-66806271D01*
X180882678Y-66806271D01*
X180880369Y-66806250D01*
X180821453Y-66805170D01*
X180816980Y-66805088D01*
X180790150Y-66808430D01*
X180676872Y-66822540D01*
X180676868Y-66822541D01*
X180672435Y-66823093D01*
X180668123Y-66824269D01*
X180668111Y-66824271D01*
X180622405Y-66836732D01*
X180551422Y-66835352D01*
X180500169Y-66804264D01*
X174245894Y-60549989D01*
X174211868Y-60487677D01*
X174208989Y-60460894D01*
X174208989Y-58934500D01*
X174228991Y-58866379D01*
X174282647Y-58819886D01*
X174334989Y-58808500D01*
X174395487Y-58808500D01*
X174401942Y-58807128D01*
X174407813Y-58806511D01*
X174477651Y-58819284D01*
X174510076Y-58842726D01*
X179447877Y-63780528D01*
X179453731Y-63786793D01*
X179491759Y-63830385D01*
X179544049Y-63867136D01*
X179549291Y-63871028D01*
X179599602Y-63910476D01*
X179606521Y-63913600D01*
X179608813Y-63914988D01*
X179623485Y-63923357D01*
X179625845Y-63924622D01*
X179632059Y-63928990D01*
X179639138Y-63931750D01*
X179639140Y-63931751D01*
X179691595Y-63952202D01*
X179697664Y-63954753D01*
X179755893Y-63981045D01*
X179763366Y-63982430D01*
X179765932Y-63983234D01*
X179782155Y-63987855D01*
X179784747Y-63988520D01*
X179791829Y-63991282D01*
X179799364Y-63992274D01*
X179855181Y-63999622D01*
X179861697Y-64000654D01*
X179900090Y-64007770D01*
X179924506Y-64012295D01*
X179932086Y-64011858D01*
X179932087Y-64011858D01*
X179986700Y-64008709D01*
X179993953Y-64008500D01*
X189588595Y-64008500D01*
X189656716Y-64028502D01*
X189662656Y-64032564D01*
X189743248Y-64091118D01*
X189749276Y-64093802D01*
X189749278Y-64093803D01*
X189911681Y-64166109D01*
X189917712Y-64168794D01*
X190011113Y-64188647D01*
X190098056Y-64207128D01*
X190098061Y-64207128D01*
X190104513Y-64208500D01*
X190295487Y-64208500D01*
X190301939Y-64207128D01*
X190301944Y-64207128D01*
X190388887Y-64188647D01*
X190482288Y-64168794D01*
X190488319Y-64166109D01*
X190650722Y-64093803D01*
X190650724Y-64093802D01*
X190656752Y-64091118D01*
X190811253Y-63978866D01*
X190835261Y-63952202D01*
X190934621Y-63841852D01*
X190934622Y-63841851D01*
X190939040Y-63836944D01*
X191034527Y-63671556D01*
X191093542Y-63489928D01*
X191113504Y-63300000D01*
X191093542Y-63110072D01*
X191034527Y-62928444D01*
X190939040Y-62763056D01*
X190811253Y-62621134D01*
X190656752Y-62508882D01*
X190650724Y-62506198D01*
X190650722Y-62506197D01*
X190488319Y-62433891D01*
X190488318Y-62433891D01*
X190482288Y-62431206D01*
X190388887Y-62411353D01*
X190301944Y-62392872D01*
X190301939Y-62392872D01*
X190295487Y-62391500D01*
X190104513Y-62391500D01*
X190098061Y-62392872D01*
X190098056Y-62392872D01*
X190011113Y-62411353D01*
X189917712Y-62431206D01*
X189911682Y-62433891D01*
X189911681Y-62433891D01*
X189749278Y-62506197D01*
X189749276Y-62506198D01*
X189743248Y-62508882D01*
X189737907Y-62512762D01*
X189737906Y-62512763D01*
X189662656Y-62567436D01*
X189595789Y-62591294D01*
X189588595Y-62591500D01*
X180314980Y-62591500D01*
X180246859Y-62571498D01*
X180225885Y-62554595D01*
X178444885Y-60773595D01*
X178410859Y-60711283D01*
X178415924Y-60640468D01*
X178458471Y-60583632D01*
X178524991Y-60558821D01*
X178533980Y-60558500D01*
X189238595Y-60558500D01*
X189306716Y-60578502D01*
X189312656Y-60582564D01*
X189393248Y-60641118D01*
X189399276Y-60643802D01*
X189399278Y-60643803D01*
X189486753Y-60682749D01*
X189567712Y-60718794D01*
X189704411Y-60747850D01*
X189720569Y-60751285D01*
X189783467Y-60785437D01*
X197704595Y-68706565D01*
X197738621Y-68768877D01*
X197741500Y-68795660D01*
X197741500Y-68931256D01*
X197721498Y-68999377D01*
X197717436Y-69005317D01*
X197715379Y-69008148D01*
X197710960Y-69013056D01*
X197707659Y-69018774D01*
X197707658Y-69018775D01*
X197690980Y-69047663D01*
X197615473Y-69178444D01*
X197556458Y-69360072D01*
X197536496Y-69550000D01*
X197556458Y-69739928D01*
X197615473Y-69921556D01*
X197710960Y-70086944D01*
X197838747Y-70228866D01*
X197993248Y-70341118D01*
X197999276Y-70343802D01*
X197999278Y-70343803D01*
X198161681Y-70416109D01*
X198167712Y-70418794D01*
X198261113Y-70438647D01*
X198348056Y-70457128D01*
X198348061Y-70457128D01*
X198354513Y-70458500D01*
X198545487Y-70458500D01*
X198551939Y-70457128D01*
X198551944Y-70457128D01*
X198638887Y-70438647D01*
X198732288Y-70418794D01*
X198738319Y-70416109D01*
X198900722Y-70343803D01*
X198900724Y-70343802D01*
X198906752Y-70341118D01*
X199061253Y-70228866D01*
X199189040Y-70086944D01*
X199284527Y-69921556D01*
X199343542Y-69739928D01*
X199363504Y-69550000D01*
X199343542Y-69360072D01*
X199284527Y-69178444D01*
X199209021Y-69047663D01*
X199192342Y-69018775D01*
X199192341Y-69018774D01*
X199189040Y-69013056D01*
X199184621Y-69008148D01*
X199182564Y-69005317D01*
X199158705Y-68938449D01*
X199158500Y-68931256D01*
X199158500Y-68478927D01*
X199158792Y-68470358D01*
X199162210Y-68420225D01*
X199162210Y-68420221D01*
X199162726Y-68412648D01*
X199151736Y-68349681D01*
X199150775Y-68343165D01*
X199146918Y-68311292D01*
X199143102Y-68279758D01*
X199140419Y-68272657D01*
X199139778Y-68270048D01*
X199135313Y-68253728D01*
X199134548Y-68251195D01*
X199133243Y-68243717D01*
X199107552Y-68185190D01*
X199105067Y-68179102D01*
X199085172Y-68126449D01*
X199085171Y-68126447D01*
X199082487Y-68119344D01*
X199078186Y-68113085D01*
X199076949Y-68110720D01*
X199068727Y-68095948D01*
X199067372Y-68093656D01*
X199064316Y-68086695D01*
X199059691Y-68080668D01*
X199059689Y-68080664D01*
X199025407Y-68035987D01*
X199021529Y-68030650D01*
X198989659Y-67984278D01*
X198989658Y-67984277D01*
X198985357Y-67978019D01*
X198938838Y-67936572D01*
X198933563Y-67931592D01*
X190784665Y-59782695D01*
X190750639Y-59720383D01*
X190748450Y-59706770D01*
X190744232Y-59666637D01*
X190743542Y-59660072D01*
X190735308Y-59634729D01*
X190686569Y-59484729D01*
X190684527Y-59478444D01*
X190589040Y-59313056D01*
X190495242Y-59208882D01*
X190465675Y-59176045D01*
X190465674Y-59176044D01*
X190461253Y-59171134D01*
X190335975Y-59080114D01*
X190312094Y-59062763D01*
X190312093Y-59062762D01*
X190306752Y-59058882D01*
X190300724Y-59056198D01*
X190300722Y-59056197D01*
X190138319Y-58983891D01*
X190138318Y-58983891D01*
X190132288Y-58981206D01*
X190038887Y-58961353D01*
X189951944Y-58942872D01*
X189951939Y-58942872D01*
X189945487Y-58941500D01*
X189754513Y-58941500D01*
X189748061Y-58942872D01*
X189748056Y-58942872D01*
X189661113Y-58961353D01*
X189567712Y-58981206D01*
X189561682Y-58983891D01*
X189561681Y-58983891D01*
X189399278Y-59056197D01*
X189399276Y-59056198D01*
X189393248Y-59058882D01*
X189387907Y-59062762D01*
X189387906Y-59062763D01*
X189312656Y-59117436D01*
X189245789Y-59141294D01*
X189238595Y-59141500D01*
X188247941Y-59141500D01*
X188179820Y-59121498D01*
X188133327Y-59067842D01*
X188122631Y-59002329D01*
X188124996Y-58979834D01*
X188138642Y-58850000D01*
X188134071Y-58806511D01*
X188118820Y-58661409D01*
X188118820Y-58661408D01*
X188118130Y-58654845D01*
X188057492Y-58468220D01*
X188054188Y-58462497D01*
X188051504Y-58456469D01*
X188054076Y-58455324D01*
X188040236Y-58398395D01*
X188063424Y-58331292D01*
X188075714Y-58317211D01*
X188078107Y-58315472D01*
X188106298Y-58281395D01*
X188114288Y-58272616D01*
X190714278Y-55672626D01*
X190722568Y-55665082D01*
X190729049Y-55660969D01*
X190775690Y-55611301D01*
X190778444Y-55608460D01*
X190798165Y-55588739D01*
X190800643Y-55585544D01*
X190808349Y-55576522D01*
X190810806Y-55573906D01*
X190838617Y-55544290D01*
X190848377Y-55526537D01*
X190859230Y-55510014D01*
X190866784Y-55500275D01*
X190871644Y-55494010D01*
X190889207Y-55453426D01*
X190894414Y-55442796D01*
X190915726Y-55404029D01*
X190917697Y-55396352D01*
X190917699Y-55396347D01*
X190920763Y-55384411D01*
X190927169Y-55365699D01*
X190932065Y-55354386D01*
X190935212Y-55347114D01*
X190942128Y-55303450D01*
X190944535Y-55291829D01*
X190953559Y-55256680D01*
X190953559Y-55256679D01*
X190955531Y-55248999D01*
X190955531Y-55228738D01*
X190957082Y-55209027D01*
X190959010Y-55196854D01*
X190960250Y-55189026D01*
X190956090Y-55145015D01*
X190955531Y-55133158D01*
X190955531Y-51931264D01*
X190975533Y-51863143D01*
X190992436Y-51842169D01*
X191068137Y-51766468D01*
X191130449Y-51732442D01*
X191201264Y-51737507D01*
X191251467Y-51774018D01*
X191251929Y-51773555D01*
X191371947Y-51893364D01*
X191516308Y-51982349D01*
X191523256Y-51984654D01*
X191523257Y-51984654D01*
X191670738Y-52033572D01*
X191670740Y-52033572D01*
X191677269Y-52035738D01*
X191777428Y-52046000D01*
X192386572Y-52046000D01*
X192389818Y-52045663D01*
X192389822Y-52045663D01*
X192423603Y-52042158D01*
X192487982Y-52035478D01*
X192648849Y-51981808D01*
X192793055Y-51892571D01*
X192806529Y-51879074D01*
X192912864Y-51772553D01*
X192914696Y-51774382D01*
X192962723Y-51740340D01*
X193003673Y-51733500D01*
X193642310Y-51733500D01*
X193710431Y-51753502D01*
X193756924Y-51807158D01*
X193761833Y-51819623D01*
X193769129Y-51841493D01*
X193769134Y-51841503D01*
X193771450Y-51848446D01*
X193864522Y-51998848D01*
X193989697Y-52123805D01*
X193995927Y-52127645D01*
X193995928Y-52127646D01*
X194133090Y-52212194D01*
X194140262Y-52216615D01*
X194206250Y-52238502D01*
X194301611Y-52270132D01*
X194301613Y-52270132D01*
X194308139Y-52272297D01*
X194314975Y-52272997D01*
X194314978Y-52272998D01*
X194358031Y-52277409D01*
X194412600Y-52283000D01*
X195038400Y-52283000D01*
X195041646Y-52282663D01*
X195041650Y-52282663D01*
X195137308Y-52272738D01*
X195137312Y-52272737D01*
X195144166Y-52272026D01*
X195150702Y-52269845D01*
X195150704Y-52269845D01*
X195302669Y-52219145D01*
X195311946Y-52216050D01*
X195462348Y-52122978D01*
X195548784Y-52036391D01*
X195611066Y-52002312D01*
X195681886Y-52007315D01*
X195726975Y-52036236D01*
X195762357Y-52071556D01*
X195814697Y-52123805D01*
X195820927Y-52127645D01*
X195820928Y-52127646D01*
X195958090Y-52212194D01*
X195965262Y-52216615D01*
X196031250Y-52238502D01*
X196126611Y-52270132D01*
X196126613Y-52270132D01*
X196133139Y-52272297D01*
X196139975Y-52272997D01*
X196139978Y-52272998D01*
X196183031Y-52277409D01*
X196237600Y-52283000D01*
X196863400Y-52283000D01*
X196866646Y-52282663D01*
X196866650Y-52282663D01*
X196962308Y-52272738D01*
X196962312Y-52272737D01*
X196969166Y-52272026D01*
X196975702Y-52269845D01*
X196975704Y-52269845D01*
X197127669Y-52219145D01*
X197136946Y-52216050D01*
X197287348Y-52122978D01*
X197344955Y-52065271D01*
X197407134Y-52002983D01*
X197412305Y-51997803D01*
X197424538Y-51977958D01*
X197501275Y-51853468D01*
X197501276Y-51853466D01*
X197505115Y-51847238D01*
X197545756Y-51724708D01*
X197558632Y-51685889D01*
X197558632Y-51685887D01*
X197560797Y-51679361D01*
X197563171Y-51656197D01*
X197565909Y-51629469D01*
X197571500Y-51574900D01*
X197571500Y-51001594D01*
X197591502Y-50933473D01*
X197608405Y-50912499D01*
X198466747Y-50054157D01*
X198475037Y-50046613D01*
X198481518Y-50042500D01*
X198492913Y-50030366D01*
X198528158Y-49992833D01*
X198530913Y-49989991D01*
X198550634Y-49970270D01*
X198553112Y-49967075D01*
X198560818Y-49958053D01*
X198572810Y-49945283D01*
X198591086Y-49925821D01*
X198600846Y-49908068D01*
X198611699Y-49891545D01*
X198612856Y-49890053D01*
X198624113Y-49875541D01*
X198641676Y-49834957D01*
X198646883Y-49824327D01*
X198668195Y-49785560D01*
X198670166Y-49777883D01*
X198670168Y-49777878D01*
X198673232Y-49765942D01*
X198679638Y-49747230D01*
X198680889Y-49744341D01*
X198687681Y-49728645D01*
X198689582Y-49716646D01*
X198694597Y-49684981D01*
X198697004Y-49673360D01*
X198706028Y-49638211D01*
X198706028Y-49638210D01*
X198708000Y-49630530D01*
X198708000Y-49610269D01*
X198709551Y-49590558D01*
X198709624Y-49590101D01*
X198712719Y-49570557D01*
X198708559Y-49526546D01*
X198708000Y-49514689D01*
X198708000Y-48701134D01*
X198728002Y-48633013D01*
X198767697Y-48593990D01*
X198805120Y-48570832D01*
X198811348Y-48566978D01*
X198936305Y-48441803D01*
X198955909Y-48410000D01*
X199025275Y-48297468D01*
X199025276Y-48297466D01*
X199029115Y-48291238D01*
X199068664Y-48172002D01*
X199073268Y-48158121D01*
X199113699Y-48099761D01*
X199179263Y-48072524D01*
X199249144Y-48085057D01*
G37*
%TD.AperFunction*%
%TA.AperFunction,Conductor*%
G36*
X189157044Y-52701029D02*
G01*
X189213879Y-52743576D01*
X189238690Y-52810096D01*
X189239011Y-52819085D01*
X189239011Y-54463934D01*
X189219009Y-54532055D01*
X189202106Y-54553029D01*
X188257281Y-55497854D01*
X188194969Y-55531880D01*
X188124154Y-55526815D01*
X188067318Y-55484268D01*
X188057797Y-55468044D01*
X188057492Y-55468220D01*
X187983052Y-55339287D01*
X187959377Y-55298280D01*
X187948516Y-55286217D01*
X187832496Y-55157364D01*
X187832495Y-55157363D01*
X187828074Y-55152453D01*
X187817837Y-55145015D01*
X187674663Y-55040993D01*
X187674662Y-55040992D01*
X187669321Y-55037112D01*
X187663294Y-55034429D01*
X187663286Y-55034424D01*
X187638777Y-55023512D01*
X187584682Y-54977532D01*
X187564033Y-54909604D01*
X187583386Y-54841296D01*
X187636597Y-54794295D01*
X187676420Y-54783143D01*
X187727460Y-54777599D01*
X187727464Y-54777598D01*
X187735316Y-54776745D01*
X187871705Y-54725615D01*
X187988261Y-54638261D01*
X188075615Y-54521705D01*
X188126745Y-54385316D01*
X188133500Y-54323134D01*
X188133500Y-53672595D01*
X188153502Y-53604474D01*
X188170405Y-53583499D01*
X189023916Y-52729989D01*
X189086228Y-52695964D01*
X189157044Y-52701029D01*
G37*
%TD.AperFunction*%
%TA.AperFunction,Conductor*%
G36*
X186049602Y-54485051D02*
G01*
X186069611Y-54488220D01*
X186077503Y-54487474D01*
X186113629Y-54484059D01*
X186125487Y-54483500D01*
X186232725Y-54483500D01*
X186300846Y-54503502D01*
X186333551Y-54533935D01*
X186411739Y-54638261D01*
X186528295Y-54725615D01*
X186664684Y-54776745D01*
X186672536Y-54777598D01*
X186672540Y-54777599D01*
X186723580Y-54783143D01*
X186789143Y-54810385D01*
X186829569Y-54868748D01*
X186832025Y-54939702D01*
X186795730Y-55000720D01*
X186761223Y-55023512D01*
X186736714Y-55034424D01*
X186736706Y-55034429D01*
X186730679Y-55037112D01*
X186725338Y-55040992D01*
X186725337Y-55040993D01*
X186582164Y-55145015D01*
X186571926Y-55152453D01*
X186567505Y-55157363D01*
X186567504Y-55157364D01*
X186537907Y-55190235D01*
X186477461Y-55227475D01*
X186406478Y-55226123D01*
X186347493Y-55186610D01*
X186335152Y-55168925D01*
X186331332Y-55162307D01*
X186289040Y-55089056D01*
X186279942Y-55078951D01*
X186165675Y-54952045D01*
X186165674Y-54952044D01*
X186161253Y-54947134D01*
X186006752Y-54834882D01*
X186000724Y-54832198D01*
X186000722Y-54832197D01*
X185838319Y-54759891D01*
X185838318Y-54759891D01*
X185832288Y-54757206D01*
X185717218Y-54732747D01*
X185654745Y-54699018D01*
X185620423Y-54636869D01*
X185625151Y-54566030D01*
X185667427Y-54508992D01*
X185733828Y-54483865D01*
X185743415Y-54483500D01*
X186029892Y-54483500D01*
X186049602Y-54485051D01*
G37*
%TD.AperFunction*%
%TA.AperFunction,Conductor*%
G36*
X187262950Y-51037123D02*
G01*
X187319785Y-51079670D01*
X187344596Y-51146190D01*
X187344180Y-51168785D01*
X187339500Y-51211866D01*
X187339500Y-51958134D01*
X187346255Y-52020316D01*
X187397385Y-52156705D01*
X187484739Y-52273261D01*
X187491919Y-52278642D01*
X187498269Y-52284992D01*
X187495643Y-52287618D01*
X187527637Y-52330437D01*
X187532638Y-52401257D01*
X187498637Y-52463459D01*
X187272132Y-52689963D01*
X187082499Y-52879596D01*
X187020187Y-52913621D01*
X186993404Y-52916500D01*
X186726866Y-52916500D01*
X186664684Y-52923255D01*
X186528295Y-52974385D01*
X186411739Y-53061739D01*
X186406358Y-53068919D01*
X186400008Y-53075269D01*
X186398863Y-53074124D01*
X186350179Y-53110528D01*
X186279361Y-53115554D01*
X186217115Y-53081543D01*
X185888813Y-52753240D01*
X185854788Y-52690928D01*
X185859853Y-52620112D01*
X185902400Y-52563277D01*
X185926661Y-52549038D01*
X186050719Y-52493805D01*
X186050726Y-52493801D01*
X186056752Y-52491118D01*
X186062550Y-52486906D01*
X186117863Y-52446718D01*
X186211253Y-52378866D01*
X186241658Y-52345098D01*
X186334621Y-52241852D01*
X186334622Y-52241851D01*
X186339040Y-52236944D01*
X186407021Y-52119198D01*
X186431223Y-52077279D01*
X186431224Y-52077278D01*
X186434527Y-52071556D01*
X186493542Y-51889928D01*
X186510907Y-51724708D01*
X186537920Y-51659051D01*
X186547122Y-51648782D01*
X187129822Y-51066083D01*
X187192134Y-51032058D01*
X187262950Y-51037123D01*
G37*
%TD.AperFunction*%
%TA.AperFunction,Conductor*%
G36*
X179497532Y-44260538D02*
G01*
X179554368Y-44303085D01*
X179579179Y-44369605D01*
X179579500Y-44378594D01*
X179579500Y-44687211D01*
X179578973Y-44698394D01*
X179577298Y-44705887D01*
X179577547Y-44713813D01*
X179577547Y-44713814D01*
X179579438Y-44773964D01*
X179579500Y-44777923D01*
X179579500Y-44805834D01*
X179579997Y-44809768D01*
X179579997Y-44809769D01*
X179580005Y-44809834D01*
X179580938Y-44821671D01*
X179582327Y-44865867D01*
X179587978Y-44885317D01*
X179591987Y-44904678D01*
X179594526Y-44924775D01*
X179597445Y-44932146D01*
X179597445Y-44932148D01*
X179610804Y-44965890D01*
X179614649Y-44977120D01*
X179626982Y-45019571D01*
X179631015Y-45026390D01*
X179631017Y-45026395D01*
X179637293Y-45037006D01*
X179645988Y-45054754D01*
X179653448Y-45073595D01*
X179658110Y-45080011D01*
X179658110Y-45080012D01*
X179679436Y-45109365D01*
X179685952Y-45119285D01*
X179708458Y-45157340D01*
X179722779Y-45171661D01*
X179735619Y-45186694D01*
X179747528Y-45203085D01*
X179753634Y-45208136D01*
X179781605Y-45231276D01*
X179790384Y-45239266D01*
X181902106Y-47350988D01*
X181936132Y-47413300D01*
X181939011Y-47440083D01*
X181939011Y-48085500D01*
X181919009Y-48153621D01*
X181865353Y-48200114D01*
X181813011Y-48211500D01*
X180499866Y-48211500D01*
X180437684Y-48218255D01*
X180301295Y-48269385D01*
X180184739Y-48356739D01*
X180097385Y-48473295D01*
X180046255Y-48609684D01*
X180039500Y-48671866D01*
X180039500Y-49418134D01*
X180046255Y-49480316D01*
X180049029Y-49487715D01*
X180092835Y-49604567D01*
X180097385Y-49616705D01*
X180100727Y-49621164D01*
X180115530Y-49688848D01*
X180100933Y-49738561D01*
X180097385Y-49743295D01*
X180094236Y-49751696D01*
X180094234Y-49751699D01*
X180080644Y-49787952D01*
X180046255Y-49879684D01*
X180039500Y-49941866D01*
X180039500Y-50688134D01*
X180046255Y-50750316D01*
X180046609Y-50751260D01*
X180043069Y-50819108D01*
X180001626Y-50876753D01*
X179935596Y-50902841D01*
X179865944Y-50889090D01*
X179814784Y-50839865D01*
X179808859Y-50828107D01*
X179791682Y-50789071D01*
X179791678Y-50789064D01*
X179789872Y-50784959D01*
X179737040Y-50700082D01*
X179715270Y-50665106D01*
X179715267Y-50665102D01*
X179712903Y-50661304D01*
X179620746Y-50551669D01*
X179512161Y-50454582D01*
X179508428Y-50452097D01*
X179508424Y-50452094D01*
X179396665Y-50377701D01*
X179396663Y-50377700D01*
X179392936Y-50375219D01*
X179261467Y-50312511D01*
X179257188Y-50311174D01*
X179257185Y-50311173D01*
X179161916Y-50281409D01*
X179124761Y-50269801D01*
X179120337Y-50269084D01*
X179120335Y-50269084D01*
X179070219Y-50260967D01*
X178980979Y-50246513D01*
X178911098Y-50245232D01*
X178842261Y-50243970D01*
X178842259Y-50243970D01*
X178837780Y-50243888D01*
X178833335Y-50244441D01*
X178828856Y-50244678D01*
X178828849Y-50244551D01*
X178820461Y-50245071D01*
X178390800Y-50245071D01*
X178360613Y-50247230D01*
X178324427Y-50249818D01*
X178324426Y-50249818D01*
X178317689Y-50250300D01*
X178281360Y-50260967D01*
X178227932Y-50264788D01*
X178090800Y-50245071D01*
X177603478Y-50245071D01*
X177601169Y-50245050D01*
X177542257Y-50243970D01*
X177542256Y-50243970D01*
X177537780Y-50243888D01*
X177533335Y-50244442D01*
X177532441Y-50244489D01*
X177463359Y-50228111D01*
X177414099Y-50176985D01*
X177399789Y-50118665D01*
X177399789Y-46306305D01*
X177419791Y-46238184D01*
X177436694Y-46217210D01*
X179364405Y-44289499D01*
X179426717Y-44255473D01*
X179497532Y-44260538D01*
G37*
%TD.AperFunction*%
%TA.AperFunction,Conductor*%
G36*
X197067527Y-37613502D02*
G01*
X197088501Y-37630405D01*
X197208595Y-37750499D01*
X197242621Y-37812811D01*
X197245500Y-37839594D01*
X197245500Y-38575400D01*
X197245837Y-38578646D01*
X197245837Y-38578650D01*
X197250984Y-38628250D01*
X197256474Y-38681166D01*
X197312450Y-38848946D01*
X197405522Y-38999348D01*
X197530697Y-39124305D01*
X197536927Y-39128145D01*
X197536928Y-39128146D01*
X197671217Y-39210923D01*
X197681262Y-39217115D01*
X197713082Y-39227669D01*
X197842611Y-39270632D01*
X197842613Y-39270632D01*
X197849139Y-39272797D01*
X197855975Y-39273497D01*
X197855978Y-39273498D01*
X197899031Y-39277909D01*
X197953600Y-39283500D01*
X198954400Y-39283500D01*
X198957646Y-39283163D01*
X198957650Y-39283163D01*
X198987583Y-39280057D01*
X199060166Y-39272526D01*
X199066708Y-39270344D01*
X199073443Y-39268889D01*
X199074085Y-39271863D01*
X199131686Y-39269817D01*
X199192736Y-39306057D01*
X199224503Y-39369551D01*
X199226500Y-39391897D01*
X199226500Y-39771388D01*
X199206498Y-39839509D01*
X199152842Y-39886002D01*
X199082568Y-39896106D01*
X199060833Y-39890981D01*
X198964914Y-39859166D01*
X198931861Y-39848203D01*
X198925025Y-39847503D01*
X198925022Y-39847502D01*
X198881969Y-39843091D01*
X198827400Y-39837500D01*
X197826600Y-39837500D01*
X197823354Y-39837837D01*
X197823350Y-39837837D01*
X197727692Y-39847762D01*
X197727688Y-39847763D01*
X197720834Y-39848474D01*
X197714298Y-39850655D01*
X197714296Y-39850655D01*
X197688786Y-39859166D01*
X197553054Y-39904450D01*
X197402652Y-39997522D01*
X197397479Y-40002704D01*
X197385759Y-40014444D01*
X197277695Y-40122697D01*
X197273855Y-40128927D01*
X197273854Y-40128928D01*
X197236336Y-40189794D01*
X197184885Y-40273262D01*
X197179558Y-40289322D01*
X197142210Y-40401925D01*
X197129203Y-40441139D01*
X197128503Y-40447975D01*
X197128502Y-40447978D01*
X197127196Y-40460729D01*
X197118500Y-40545600D01*
X197118500Y-41496400D01*
X197118837Y-41499646D01*
X197118837Y-41499650D01*
X197128384Y-41591659D01*
X197129474Y-41602166D01*
X197131655Y-41608702D01*
X197131655Y-41608704D01*
X197171086Y-41726893D01*
X197185450Y-41769946D01*
X197278522Y-41920348D01*
X197283704Y-41925521D01*
X197303777Y-41945559D01*
X197403697Y-42045305D01*
X197409927Y-42049145D01*
X197409928Y-42049146D01*
X197515530Y-42114240D01*
X197554262Y-42138115D01*
X197602281Y-42154042D01*
X197607168Y-42155663D01*
X197665527Y-42196094D01*
X197692764Y-42261658D01*
X197693500Y-42275256D01*
X197693500Y-46217617D01*
X197673498Y-46285738D01*
X197619842Y-46332231D01*
X197607377Y-46337140D01*
X197488054Y-46376950D01*
X197337652Y-46470022D01*
X197262284Y-46545522D01*
X197251216Y-46556609D01*
X197188934Y-46590688D01*
X197118114Y-46585685D01*
X197073025Y-46556764D01*
X196990483Y-46474366D01*
X196985303Y-46469195D01*
X196979072Y-46465354D01*
X196840968Y-46380225D01*
X196840966Y-46380224D01*
X196834738Y-46376385D01*
X196754995Y-46349936D01*
X196673389Y-46322868D01*
X196673387Y-46322868D01*
X196666861Y-46320703D01*
X196660025Y-46320003D01*
X196660022Y-46320002D01*
X196616969Y-46315591D01*
X196562400Y-46310000D01*
X195936600Y-46310000D01*
X195933354Y-46310337D01*
X195933350Y-46310337D01*
X195837692Y-46320262D01*
X195837688Y-46320263D01*
X195830834Y-46320974D01*
X195824298Y-46323155D01*
X195824296Y-46323155D01*
X195692194Y-46367228D01*
X195663054Y-46376950D01*
X195512652Y-46470022D01*
X195387695Y-46595197D01*
X195383855Y-46601427D01*
X195383854Y-46601428D01*
X195327035Y-46693606D01*
X195294885Y-46745762D01*
X195279259Y-46792872D01*
X195277337Y-46798668D01*
X195236906Y-46857027D01*
X195171342Y-46884264D01*
X195157744Y-46885000D01*
X194796266Y-46885000D01*
X194728145Y-46864998D01*
X194689121Y-46825302D01*
X194681923Y-46813670D01*
X194678071Y-46807445D01*
X194558053Y-46687636D01*
X194413692Y-46598651D01*
X194387662Y-46590017D01*
X194259262Y-46547428D01*
X194259260Y-46547428D01*
X194252731Y-46545262D01*
X194152572Y-46535000D01*
X193618428Y-46535000D01*
X193615182Y-46535337D01*
X193615178Y-46535337D01*
X193581397Y-46538842D01*
X193517018Y-46545522D01*
X193356151Y-46599192D01*
X193211945Y-46688429D01*
X193187113Y-46713305D01*
X193124832Y-46747384D01*
X193054012Y-46742382D01*
X193008922Y-46713460D01*
X192988233Y-46692807D01*
X192983053Y-46687636D01*
X192838692Y-46598651D01*
X192812662Y-46590017D01*
X192684262Y-46547428D01*
X192684260Y-46547428D01*
X192677731Y-46545262D01*
X192577572Y-46535000D01*
X192043428Y-46535000D01*
X192040182Y-46535337D01*
X192040178Y-46535337D01*
X192006397Y-46538842D01*
X191942018Y-46545522D01*
X191781151Y-46599192D01*
X191636945Y-46688429D01*
X191517136Y-46808447D01*
X191428151Y-46952808D01*
X191425846Y-46959756D01*
X191425846Y-46959757D01*
X191394199Y-47055168D01*
X191353768Y-47113528D01*
X191288203Y-47140764D01*
X191274606Y-47141500D01*
X190015329Y-47141500D01*
X189947208Y-47121498D01*
X189923668Y-47099593D01*
X189922992Y-47100269D01*
X189916642Y-47093919D01*
X189911261Y-47086739D01*
X189794705Y-46999385D01*
X189658316Y-46948255D01*
X189596134Y-46941500D01*
X187799866Y-46941500D01*
X187737684Y-46948255D01*
X187601295Y-46999385D01*
X187484739Y-47086739D01*
X187397385Y-47203295D01*
X187346255Y-47339684D01*
X187339500Y-47401866D01*
X187339500Y-48148134D01*
X187346255Y-48210316D01*
X187358077Y-48241852D01*
X187383642Y-48310045D01*
X187397385Y-48346705D01*
X187400727Y-48351164D01*
X187415530Y-48418848D01*
X187400933Y-48468561D01*
X187397385Y-48473295D01*
X187394236Y-48481696D01*
X187394234Y-48481699D01*
X187376722Y-48528414D01*
X187346255Y-48609684D01*
X187339500Y-48671866D01*
X187339500Y-49418134D01*
X187346255Y-49480316D01*
X187349027Y-49487712D01*
X187349029Y-49487718D01*
X187357859Y-49511271D01*
X187363042Y-49582078D01*
X187329121Y-49644447D01*
X187266865Y-49678576D01*
X187239877Y-49681500D01*
X187063768Y-49681500D01*
X187052585Y-49680973D01*
X187045092Y-49679298D01*
X187037166Y-49679547D01*
X187037165Y-49679547D01*
X186977002Y-49681438D01*
X186973044Y-49681500D01*
X186945144Y-49681500D01*
X186941154Y-49682004D01*
X186929320Y-49682936D01*
X186885111Y-49684326D01*
X186877497Y-49686538D01*
X186877492Y-49686539D01*
X186865659Y-49689977D01*
X186846296Y-49693988D01*
X186826203Y-49696526D01*
X186818836Y-49699443D01*
X186818831Y-49699444D01*
X186785092Y-49712802D01*
X186773865Y-49716646D01*
X186731407Y-49728982D01*
X186724581Y-49733019D01*
X186713972Y-49739293D01*
X186696224Y-49747988D01*
X186677383Y-49755448D01*
X186670967Y-49760110D01*
X186670966Y-49760110D01*
X186641613Y-49781436D01*
X186631693Y-49787952D01*
X186600465Y-49806420D01*
X186600462Y-49806422D01*
X186593638Y-49810458D01*
X186579317Y-49824779D01*
X186564284Y-49837619D01*
X186547893Y-49849528D01*
X186542843Y-49855632D01*
X186542838Y-49855637D01*
X186519707Y-49883598D01*
X186511717Y-49892378D01*
X186381965Y-50022130D01*
X186319653Y-50056156D01*
X186248838Y-50051091D01*
X186192002Y-50008544D01*
X186167191Y-49942024D01*
X186170828Y-49901701D01*
X186171425Y-49899378D01*
X186173436Y-49891545D01*
X186178529Y-49871709D01*
X186178530Y-49871705D01*
X186180500Y-49864030D01*
X186180500Y-49843776D01*
X186182051Y-49824065D01*
X186183980Y-49811886D01*
X186185220Y-49804057D01*
X186181059Y-49760038D01*
X186180500Y-49748181D01*
X186180500Y-42819323D01*
X186200502Y-42751202D01*
X186254158Y-42704709D01*
X186324432Y-42694605D01*
X186389012Y-42724099D01*
X186400135Y-42735012D01*
X186497247Y-42842866D01*
X186651748Y-42955118D01*
X186657776Y-42957802D01*
X186657778Y-42957803D01*
X186778216Y-43011425D01*
X186826212Y-43032794D01*
X186919613Y-43052647D01*
X187006556Y-43071128D01*
X187006561Y-43071128D01*
X187013013Y-43072500D01*
X187203987Y-43072500D01*
X187210439Y-43071128D01*
X187210444Y-43071128D01*
X187297387Y-43052647D01*
X187390788Y-43032794D01*
X187438784Y-43011425D01*
X187559222Y-42957803D01*
X187559224Y-42957802D01*
X187565252Y-42955118D01*
X187719753Y-42842866D01*
X187833422Y-42716624D01*
X187843121Y-42705852D01*
X187843122Y-42705851D01*
X187847540Y-42700944D01*
X187943027Y-42535556D01*
X188002042Y-42353928D01*
X188005803Y-42318149D01*
X188021314Y-42170565D01*
X188022004Y-42164000D01*
X188018801Y-42133526D01*
X188002732Y-41980635D01*
X188002732Y-41980633D01*
X188002042Y-41974072D01*
X187943027Y-41792444D01*
X187931592Y-41772637D01*
X187868280Y-41662979D01*
X187847540Y-41627056D01*
X187774363Y-41545785D01*
X187743647Y-41481779D01*
X187742000Y-41461476D01*
X187742000Y-41323094D01*
X187762002Y-41254973D01*
X187778905Y-41233999D01*
X188833371Y-40179533D01*
X188895683Y-40145507D01*
X188966498Y-40150572D01*
X189023334Y-40193119D01*
X189028464Y-40200507D01*
X189076878Y-40275841D01*
X189076880Y-40275844D01*
X189081750Y-40283421D01*
X189088560Y-40289322D01*
X189185445Y-40373274D01*
X189185448Y-40373276D01*
X189192257Y-40379176D01*
X189200454Y-40382920D01*
X189200455Y-40382920D01*
X189258761Y-40409547D01*
X189325266Y-40439919D01*
X189470000Y-40460729D01*
X190349260Y-40460729D01*
X190417381Y-40480731D01*
X190463874Y-40534387D01*
X190470152Y-40551219D01*
X190477696Y-40576911D01*
X190485292Y-40588730D01*
X190551878Y-40692341D01*
X190551880Y-40692344D01*
X190556750Y-40699921D01*
X190563560Y-40705822D01*
X190660445Y-40789774D01*
X190660448Y-40789776D01*
X190667257Y-40795676D01*
X190675454Y-40799420D01*
X190675455Y-40799420D01*
X190702489Y-40811766D01*
X190800266Y-40856419D01*
X190945000Y-40877229D01*
X194070000Y-40877229D01*
X194114812Y-40874024D01*
X194136373Y-40872482D01*
X194136374Y-40872482D01*
X194143111Y-40872000D01*
X194258264Y-40838188D01*
X194274765Y-40833343D01*
X194274767Y-40833342D01*
X194283411Y-40830804D01*
X194340455Y-40794144D01*
X194398841Y-40756622D01*
X194398844Y-40756620D01*
X194406421Y-40751750D01*
X194421197Y-40734698D01*
X194496274Y-40648055D01*
X194496276Y-40648052D01*
X194502176Y-40641243D01*
X194562919Y-40508234D01*
X194583729Y-40363500D01*
X194583729Y-38630500D01*
X194578500Y-38557389D01*
X194537304Y-38417089D01*
X194512035Y-38377770D01*
X194463122Y-38301659D01*
X194463120Y-38301656D01*
X194458250Y-38294079D01*
X194388636Y-38233758D01*
X194354555Y-38204226D01*
X194354552Y-38204224D01*
X194347743Y-38198324D01*
X194214734Y-38137581D01*
X194070000Y-38116771D01*
X193633324Y-38116771D01*
X193565203Y-38096769D01*
X193518710Y-38043113D01*
X193508606Y-37972839D01*
X193538100Y-37908259D01*
X193544229Y-37901676D01*
X193815500Y-37630405D01*
X193877812Y-37596379D01*
X193904595Y-37593500D01*
X196999406Y-37593500D01*
X197067527Y-37613502D01*
G37*
%TD.AperFunction*%
%TA.AperFunction,Conductor*%
G36*
X181543931Y-41544514D02*
G01*
X181600767Y-41587061D01*
X181625339Y-41650703D01*
X181625940Y-41657056D01*
X181626500Y-41668923D01*
X181626500Y-41854847D01*
X181625973Y-41866030D01*
X181624298Y-41873523D01*
X181624547Y-41881449D01*
X181624547Y-41881450D01*
X181626438Y-41941600D01*
X181626500Y-41945559D01*
X181626500Y-41973470D01*
X181626997Y-41977404D01*
X181626997Y-41977405D01*
X181627005Y-41977470D01*
X181627938Y-41989307D01*
X181629327Y-42033503D01*
X181633872Y-42049146D01*
X181634978Y-42052953D01*
X181638987Y-42072314D01*
X181641526Y-42092411D01*
X181644445Y-42099782D01*
X181644445Y-42099784D01*
X181657804Y-42133526D01*
X181661649Y-42144756D01*
X181673982Y-42187207D01*
X181678015Y-42194026D01*
X181678017Y-42194031D01*
X181684293Y-42204642D01*
X181692988Y-42222390D01*
X181700448Y-42241231D01*
X181705110Y-42247647D01*
X181705110Y-42247648D01*
X181726436Y-42277001D01*
X181732952Y-42286921D01*
X181755458Y-42324976D01*
X181769779Y-42339297D01*
X181782619Y-42354330D01*
X181794528Y-42370721D01*
X181800634Y-42375772D01*
X181828605Y-42398912D01*
X181837384Y-42406902D01*
X182379595Y-42949113D01*
X182413621Y-43011425D01*
X182416500Y-43038208D01*
X182416500Y-45769383D01*
X182396498Y-45837504D01*
X182342842Y-45883997D01*
X182272568Y-45894101D01*
X182207988Y-45864607D01*
X182201405Y-45858478D01*
X180883405Y-44540478D01*
X180849379Y-44478166D01*
X180846500Y-44451383D01*
X180846500Y-43602513D01*
X180866502Y-43534392D01*
X180878858Y-43518210D01*
X180952040Y-43436933D01*
X181010314Y-43335999D01*
X181044223Y-43277268D01*
X181044224Y-43277267D01*
X181047527Y-43271545D01*
X181106542Y-43089917D01*
X181126504Y-42899989D01*
X181109165Y-42735013D01*
X181107232Y-42716624D01*
X181107232Y-42716622D01*
X181106542Y-42710061D01*
X181047527Y-42528433D01*
X180952040Y-42363045D01*
X180875312Y-42277830D01*
X180844595Y-42213822D01*
X180853360Y-42143369D01*
X180879854Y-42104425D01*
X181410804Y-41573475D01*
X181473116Y-41539449D01*
X181543931Y-41544514D01*
G37*
%TD.AperFunction*%
%TA.AperFunction,Conductor*%
G36*
X187831015Y-39174013D02*
G01*
X187877508Y-39227669D01*
X187887612Y-39297943D01*
X187858118Y-39362523D01*
X187851989Y-39369106D01*
X186716247Y-40504848D01*
X186707961Y-40512388D01*
X186701482Y-40516500D01*
X186696057Y-40522277D01*
X186654857Y-40566151D01*
X186652102Y-40568993D01*
X186632365Y-40588730D01*
X186629885Y-40591927D01*
X186622182Y-40600947D01*
X186591914Y-40633179D01*
X186588095Y-40640125D01*
X186588093Y-40640128D01*
X186582152Y-40650934D01*
X186571301Y-40667453D01*
X186558886Y-40683459D01*
X186555741Y-40690728D01*
X186555738Y-40690732D01*
X186541326Y-40724037D01*
X186536109Y-40734687D01*
X186514805Y-40773440D01*
X186512834Y-40781115D01*
X186512834Y-40781116D01*
X186509767Y-40793062D01*
X186503363Y-40811766D01*
X186500910Y-40817436D01*
X186495319Y-40830355D01*
X186494080Y-40838178D01*
X186494077Y-40838188D01*
X186488401Y-40874024D01*
X186485995Y-40885644D01*
X186479160Y-40912267D01*
X186475000Y-40928470D01*
X186475000Y-40948724D01*
X186473449Y-40968434D01*
X186470280Y-40988443D01*
X186471026Y-40996335D01*
X186474441Y-41032461D01*
X186475000Y-41044319D01*
X186475000Y-41461476D01*
X186454998Y-41529597D01*
X186442642Y-41545779D01*
X186369460Y-41627056D01*
X186348720Y-41662979D01*
X186277692Y-41786002D01*
X186226309Y-41834995D01*
X186156596Y-41848431D01*
X186090685Y-41822045D01*
X186060120Y-41787141D01*
X186051542Y-41772637D01*
X186037218Y-41758313D01*
X186024376Y-41743278D01*
X186012472Y-41726893D01*
X185978406Y-41698711D01*
X185969627Y-41690722D01*
X185796652Y-41517747D01*
X185789112Y-41509461D01*
X185785000Y-41502982D01*
X185767419Y-41486472D01*
X185735349Y-41456357D01*
X185732507Y-41453602D01*
X185712770Y-41433865D01*
X185709573Y-41431385D01*
X185700551Y-41423680D01*
X185674100Y-41398841D01*
X185668321Y-41393414D01*
X185661375Y-41389595D01*
X185661372Y-41389593D01*
X185650566Y-41383652D01*
X185634047Y-41372801D01*
X185633583Y-41372441D01*
X185618041Y-41360386D01*
X185610772Y-41357241D01*
X185610768Y-41357238D01*
X185577463Y-41342826D01*
X185566813Y-41337609D01*
X185528060Y-41316305D01*
X185508437Y-41311267D01*
X185489734Y-41304863D01*
X185478420Y-41299967D01*
X185478419Y-41299967D01*
X185471145Y-41296819D01*
X185463322Y-41295580D01*
X185463312Y-41295577D01*
X185427476Y-41289901D01*
X185415856Y-41287495D01*
X185380711Y-41278472D01*
X185380710Y-41278472D01*
X185373030Y-41276500D01*
X185352776Y-41276500D01*
X185333065Y-41274949D01*
X185320886Y-41273020D01*
X185313057Y-41271780D01*
X185305165Y-41272526D01*
X185269039Y-41275941D01*
X185257181Y-41276500D01*
X183969200Y-41276500D01*
X183901079Y-41256498D01*
X183881853Y-41240157D01*
X183881580Y-41240460D01*
X183876668Y-41236037D01*
X183872253Y-41231134D01*
X183809519Y-41185555D01*
X183766165Y-41129333D01*
X183760090Y-41058596D01*
X183794485Y-40994524D01*
X184896775Y-39892234D01*
X184959087Y-39858208D01*
X185012067Y-39858082D01*
X185191056Y-39896128D01*
X185191061Y-39896128D01*
X185197513Y-39897500D01*
X185388487Y-39897500D01*
X185394939Y-39896128D01*
X185394944Y-39896128D01*
X185481887Y-39877647D01*
X185575288Y-39857794D01*
X185591323Y-39850655D01*
X185743722Y-39782803D01*
X185743724Y-39782802D01*
X185749752Y-39780118D01*
X185768799Y-39766280D01*
X185877382Y-39687389D01*
X185904253Y-39667866D01*
X185972386Y-39592197D01*
X186027621Y-39530852D01*
X186027622Y-39530851D01*
X186032040Y-39525944D01*
X186127527Y-39360556D01*
X186143165Y-39312426D01*
X186183238Y-39253821D01*
X186248635Y-39226184D01*
X186314246Y-39236256D01*
X186434495Y-39289794D01*
X186434503Y-39289797D01*
X186440530Y-39292480D01*
X186533931Y-39312333D01*
X186620874Y-39330814D01*
X186620879Y-39330814D01*
X186627331Y-39332186D01*
X186818305Y-39332186D01*
X186824757Y-39330814D01*
X186824762Y-39330814D01*
X186911706Y-39312333D01*
X187005106Y-39292480D01*
X187025276Y-39283500D01*
X187173540Y-39217489D01*
X187173542Y-39217488D01*
X187179570Y-39214804D01*
X187211036Y-39191943D01*
X187230123Y-39178075D01*
X187296991Y-39154217D01*
X187304184Y-39154011D01*
X187762894Y-39154011D01*
X187831015Y-39174013D01*
G37*
%TD.AperFunction*%
%TD*%
M02*
