%TF.GenerationSoftware,KiCad,Pcbnew,(6.0.5)*%
%TF.CreationDate,2022-07-17T20:22:06-04:00*%
%TF.ProjectId,torque_motor_design,746f7271-7565-45f6-9d6f-746f725f6465,rev?*%
%TF.SameCoordinates,Original*%
%TF.FileFunction,Copper,L1,Top*%
%TF.FilePolarity,Positive*%
%FSLAX46Y46*%
G04 Gerber Fmt 4.6, Leading zero omitted, Abs format (unit mm)*
G04 Created by KiCad (PCBNEW (6.0.5)) date 2022-07-17 20:22:06*
%MOMM*%
%LPD*%
G01*
G04 APERTURE LIST*
G04 Aperture macros list*
%AMRoundRect*
0 Rectangle with rounded corners*
0 $1 Rounding radius*
0 $2 $3 $4 $5 $6 $7 $8 $9 X,Y pos of 4 corners*
0 Add a 4 corners polygon primitive as box body*
4,1,4,$2,$3,$4,$5,$6,$7,$8,$9,$2,$3,0*
0 Add four circle primitives for the rounded corners*
1,1,$1+$1,$2,$3*
1,1,$1+$1,$4,$5*
1,1,$1+$1,$6,$7*
1,1,$1+$1,$8,$9*
0 Add four rect primitives between the rounded corners*
20,1,$1+$1,$2,$3,$4,$5,0*
20,1,$1+$1,$4,$5,$6,$7,0*
20,1,$1+$1,$6,$7,$8,$9,0*
20,1,$1+$1,$8,$9,$2,$3,0*%
G04 Aperture macros list end*
%TA.AperFunction,SMDPad,CuDef*%
%ADD10RoundRect,0.100000X0.100000X-0.130000X0.100000X0.130000X-0.100000X0.130000X-0.100000X-0.130000X0*%
%TD*%
%TA.AperFunction,SMDPad,CuDef*%
%ADD11RoundRect,0.250000X0.425000X-0.450000X0.425000X0.450000X-0.425000X0.450000X-0.425000X-0.450000X0*%
%TD*%
%TA.AperFunction,SMDPad,CuDef*%
%ADD12RoundRect,0.250000X-0.450000X-0.425000X0.450000X-0.425000X0.450000X0.425000X-0.450000X0.425000X0*%
%TD*%
%TA.AperFunction,SMDPad,CuDef*%
%ADD13R,1.300000X1.600000*%
%TD*%
%TA.AperFunction,SMDPad,CuDef*%
%ADD14R,2.000000X1.600000*%
%TD*%
%TA.AperFunction,SMDPad,CuDef*%
%ADD15RoundRect,0.100000X-0.100000X0.130000X-0.100000X-0.130000X0.100000X-0.130000X0.100000X0.130000X0*%
%TD*%
%TA.AperFunction,SMDPad,CuDef*%
%ADD16RoundRect,0.100000X0.130000X0.100000X-0.130000X0.100000X-0.130000X-0.100000X0.130000X-0.100000X0*%
%TD*%
%TA.AperFunction,SMDPad,CuDef*%
%ADD17R,1.100000X4.600000*%
%TD*%
%TA.AperFunction,SMDPad,CuDef*%
%ADD18R,10.800000X9.400000*%
%TD*%
%TA.AperFunction,SMDPad,CuDef*%
%ADD19RoundRect,0.250000X0.250000X0.750000X-0.250000X0.750000X-0.250000X-0.750000X0.250000X-0.750000X0*%
%TD*%
%TA.AperFunction,SMDPad,CuDef*%
%ADD20RoundRect,0.100000X-0.130000X-0.100000X0.130000X-0.100000X0.130000X0.100000X-0.130000X0.100000X0*%
%TD*%
%TA.AperFunction,SMDPad,CuDef*%
%ADD21R,1.200000X0.900000*%
%TD*%
%TA.AperFunction,SMDPad,CuDef*%
%ADD22RoundRect,0.250000X-0.425000X0.450000X-0.425000X-0.450000X0.425000X-0.450000X0.425000X0.450000X0*%
%TD*%
%TA.AperFunction,SMDPad,CuDef*%
%ADD23R,0.900000X1.200000*%
%TD*%
%TA.AperFunction,SMDPad,CuDef*%
%ADD24RoundRect,0.250000X0.750000X-0.250000X0.750000X0.250000X-0.750000X0.250000X-0.750000X-0.250000X0*%
%TD*%
%TA.AperFunction,SMDPad,CuDef*%
%ADD25RoundRect,0.200000X-0.275000X0.200000X-0.275000X-0.200000X0.275000X-0.200000X0.275000X0.200000X0*%
%TD*%
%TA.AperFunction,ComponentPad*%
%ADD26R,0.850000X0.850000*%
%TD*%
%TA.AperFunction,ComponentPad*%
%ADD27O,0.850000X0.850000*%
%TD*%
%TA.AperFunction,ViaPad*%
%ADD28C,0.600000*%
%TD*%
%TA.AperFunction,ViaPad*%
%ADD29C,0.800000*%
%TD*%
%TA.AperFunction,Conductor*%
%ADD30C,0.400000*%
%TD*%
%TA.AperFunction,Conductor*%
%ADD31C,0.250000*%
%TD*%
G04 APERTURE END LIST*
D10*
%TO.P,C8,1*%
%TO.N,+V*%
X179250000Y-52743000D03*
%TO.P,C8,2*%
%TO.N,GND*%
X179250000Y-52103000D03*
%TD*%
D11*
%TO.P,C6,1*%
%TO.N,+V*%
X177673000Y-52277000D03*
%TO.P,C6,2*%
%TO.N,GND*%
X177673000Y-49577000D03*
%TD*%
D12*
%TO.P,C10,1*%
%TO.N,GND*%
X180620000Y-47210000D03*
%TO.P,C10,2*%
%TO.N,-V*%
X183320000Y-47210000D03*
%TD*%
D13*
%TO.P,RV1,1,1*%
%TO.N,GND*%
X184250000Y-43750000D03*
D14*
%TO.P,RV1,2,2*%
X185500000Y-40850000D03*
D13*
%TO.P,RV1,3,3*%
%TO.N,Net-(R1-Pad2)*%
X186750000Y-43750000D03*
%TD*%
D15*
%TO.P,C7,1*%
%TO.N,+V*%
X195250000Y-54980000D03*
%TO.P,C7,2*%
%TO.N,GND*%
X195250000Y-55620000D03*
%TD*%
D16*
%TO.P,R6,1*%
%TO.N,Net-(R5-Pad2)*%
X179270000Y-43900000D03*
%TO.P,R6,2*%
%TO.N,-V*%
X178630000Y-43900000D03*
%TD*%
D17*
%TO.P,U3,1,+*%
%TO.N,Net-(R1-Pad2)*%
X190600000Y-51475000D03*
%TO.P,U3,2,-*%
%TO.N,Net-(Motor-1-Pad1)*%
X192300000Y-51475000D03*
%TO.P,U3,3*%
%TO.N,-V*%
X194000000Y-51475000D03*
%TO.P,U3,4,V+*%
%TO.N,Net-(D1-Pad2)*%
X195700000Y-51475000D03*
%TO.P,U3,5,V-*%
%TO.N,+V*%
X197400000Y-51475000D03*
D18*
%TO.P,U3,6*%
%TO.N,-V*%
X194000000Y-42325000D03*
%TD*%
D19*
%TO.P,Motor+1,1,Pin_1*%
%TO.N,Net-(D1-Pad2)*%
X192328800Y-65633600D03*
%TD*%
D15*
%TO.P,C5,1*%
%TO.N,-V*%
X192750000Y-54980000D03*
%TO.P,C5,2*%
%TO.N,GND*%
X192750000Y-55620000D03*
%TD*%
D20*
%TO.P,R5,1*%
%TO.N,+V*%
X178630000Y-41850000D03*
%TO.P,R5,2*%
%TO.N,Net-(R5-Pad2)*%
X179270000Y-41850000D03*
%TD*%
D21*
%TO.P,D7,1,K*%
%TO.N,GND*%
X196750000Y-66300000D03*
%TO.P,D7,2,A*%
%TO.N,-V*%
X196750000Y-69600000D03*
%TD*%
D12*
%TO.P,C9,1*%
%TO.N,+V*%
X175815000Y-47117000D03*
%TO.P,C9,2*%
%TO.N,GND*%
X178515000Y-47117000D03*
%TD*%
D17*
%TO.P,U2,1,+*%
%TO.N,Net-(R5-Pad2)*%
X183900000Y-56225000D03*
%TO.P,U2,2,-*%
%TO.N,GND*%
X182200000Y-56225000D03*
%TO.P,U2,3*%
%TO.N,-V*%
X180500000Y-56225000D03*
%TO.P,U2,4,V+*%
%TO.N,GND*%
X178800000Y-56225000D03*
%TO.P,U2,5,V-*%
%TO.N,+V*%
X177100000Y-56225000D03*
D18*
%TO.P,U2,6*%
%TO.N,-V*%
X180500000Y-65375000D03*
%TD*%
D11*
%TO.P,C4,1*%
%TO.N,GND*%
X191008000Y-58246000D03*
%TO.P,C4,2*%
%TO.N,-V*%
X191008000Y-55546000D03*
%TD*%
D22*
%TO.P,C12,1*%
%TO.N,+V*%
X196850000Y-55546000D03*
%TO.P,C12,2*%
%TO.N,GND*%
X196850000Y-58246000D03*
%TD*%
D23*
%TO.P,D1,1,K*%
%TO.N,+V*%
X190850000Y-61600000D03*
%TO.P,D1,2,A*%
%TO.N,Net-(D1-Pad2)*%
X194150000Y-61600000D03*
%TD*%
D24*
%TO.P,External_(-12V)1,1,Pin_1*%
%TO.N,-V*%
X176306000Y-43894000D03*
%TD*%
%TO.P,External_(+12V)1,1,Pin_1*%
%TO.N,+V*%
X176306000Y-41850000D03*
%TD*%
D19*
%TO.P,Motor-1,1,Pin_1*%
%TO.N,Net-(Motor-1-Pad1)*%
X190000000Y-65600000D03*
%TD*%
D25*
%TO.P,R1,1*%
%TO.N,Torque_Mode*%
X187400000Y-45675000D03*
%TO.P,R1,2*%
%TO.N,Net-(R1-Pad2)*%
X187400000Y-47325000D03*
%TD*%
D10*
%TO.P,C11,1*%
%TO.N,-V*%
X180500000Y-53020000D03*
%TO.P,C11,2*%
%TO.N,GND*%
X180500000Y-52380000D03*
%TD*%
D21*
%TO.P,D5,1,K*%
%TO.N,Net-(D1-Pad2)*%
X196800000Y-61200000D03*
%TO.P,D5,2,A*%
%TO.N,-V*%
X196800000Y-64500000D03*
%TD*%
D22*
%TO.P,C3,1*%
%TO.N,GND*%
X182626000Y-49704000D03*
%TO.P,C3,2*%
%TO.N,-V*%
X182626000Y-52404000D03*
%TD*%
D23*
%TO.P,D6,1,K*%
%TO.N,+V*%
X194385200Y-68935600D03*
%TO.P,D6,2,A*%
%TO.N,GND*%
X191085200Y-68935600D03*
%TD*%
D26*
%TO.P,header_2,1*%
%TO.N,N/C*%
X199440800Y-60518800D03*
D27*
%TO.P,header_2,2*%
%TO.N,GND*%
X199440800Y-61518800D03*
%TO.P,header_2,3*%
%TO.N,+V*%
X199440800Y-62518800D03*
%TD*%
D26*
%TO.P,Current_Sense,1*%
%TO.N,current_sense*%
X187470000Y-58160000D03*
%TD*%
%TO.P,header,1*%
%TO.N,N/C*%
X190855600Y-71323200D03*
D27*
%TO.P,header,2*%
X191855600Y-71323200D03*
%TO.P,header,3*%
X192855600Y-71323200D03*
%TO.P,header,4*%
%TO.N,Net-(Motor-1-Pad1)*%
X193855600Y-71323200D03*
%TO.P,header,5*%
%TO.N,Torque_Mode*%
X194855600Y-71323200D03*
%TO.P,header,6*%
%TO.N,current_sense*%
X195855600Y-71323200D03*
%TD*%
D28*
%TO.N,-V*%
X180086000Y-66040000D03*
X182118000Y-68072000D03*
X181102000Y-67056000D03*
X182118000Y-67056000D03*
X182118000Y-66040000D03*
X181102000Y-66040000D03*
X182118000Y-65024000D03*
X181102000Y-65024000D03*
X180086000Y-65024000D03*
X178816000Y-65024000D03*
X178816000Y-64008000D03*
X176530000Y-62992000D03*
X177546000Y-62992000D03*
X176530000Y-61976000D03*
X175514000Y-61976000D03*
X175514000Y-61214000D03*
X181356000Y-62992000D03*
X182372000Y-62992000D03*
X182372000Y-61976000D03*
X181356000Y-62000000D03*
X180340000Y-61976000D03*
X180340000Y-61214000D03*
X181356000Y-61214000D03*
X182372000Y-61214000D03*
X183134000Y-61214000D03*
X184404000Y-61214000D03*
X184404000Y-61976000D03*
X183134000Y-61976000D03*
X183134000Y-62992000D03*
X184404000Y-62992000D03*
X184404000Y-65024000D03*
X183134000Y-65024000D03*
X183134000Y-66294000D03*
X184404000Y-66294000D03*
X184404000Y-67564000D03*
X183134000Y-67564000D03*
X183134000Y-68580000D03*
X184404000Y-68580000D03*
X177546000Y-66548000D03*
X176530000Y-66548000D03*
X176530000Y-65532000D03*
X175514000Y-64516000D03*
X175514000Y-65532000D03*
X175514000Y-66548000D03*
X175514000Y-67564000D03*
X176530000Y-67564000D03*
X177546000Y-67564000D03*
X178562000Y-68580000D03*
X177546000Y-68580000D03*
X176530000Y-68580000D03*
X175514000Y-68580000D03*
X175514000Y-69596000D03*
X176530000Y-69596000D03*
X177546000Y-69596000D03*
X178308000Y-69596000D03*
X179578000Y-69596000D03*
X183134000Y-69596000D03*
X184378642Y-69578787D03*
X185420000Y-69596000D03*
X198120000Y-41402000D03*
X197104000Y-41402000D03*
X196088000Y-41402000D03*
X195072000Y-41402000D03*
X195072000Y-42418000D03*
X195834000Y-42418000D03*
X196850000Y-42418000D03*
X197866000Y-42418000D03*
X198120000Y-43434000D03*
X197104000Y-43434000D03*
X196088000Y-43434000D03*
X195072000Y-43434000D03*
X195072000Y-44450000D03*
X195834000Y-44450000D03*
X196850000Y-44450000D03*
X197866000Y-44450000D03*
X198120000Y-45466000D03*
X197104000Y-45466000D03*
X196088000Y-45466000D03*
X195072000Y-45466000D03*
X194056000Y-45466000D03*
X194056000Y-44450000D03*
X194056000Y-43434000D03*
X194056000Y-42418000D03*
X194056000Y-41402000D03*
X194056000Y-40386000D03*
X195072000Y-40386000D03*
X196088000Y-40386000D03*
X197104000Y-40386000D03*
X198120000Y-40386000D03*
X198120000Y-39370000D03*
X197104000Y-39370000D03*
X196088000Y-39370000D03*
X195072000Y-39370000D03*
X194310000Y-39370000D03*
X193294000Y-39370000D03*
X190500000Y-45466000D03*
X191516000Y-45466000D03*
X192532000Y-45466000D03*
X192532000Y-44450000D03*
X191516000Y-44450000D03*
X190500000Y-44450000D03*
X192532000Y-43434000D03*
X191516000Y-43434000D03*
X190500000Y-43434000D03*
X190500000Y-42418000D03*
X191516000Y-42418000D03*
X192532000Y-42418000D03*
X192532000Y-41402000D03*
X191516000Y-41402000D03*
X190500000Y-41402000D03*
X190500000Y-40386000D03*
X191516000Y-40386000D03*
X192532000Y-40386000D03*
X192532000Y-39370000D03*
X191516000Y-39370000D03*
X190500000Y-39370000D03*
X189484000Y-39370000D03*
X189484000Y-40386000D03*
X189484000Y-41402000D03*
X189484000Y-42418000D03*
X189484000Y-43434000D03*
X189484000Y-44450000D03*
X189484000Y-45466000D03*
X189484000Y-46482000D03*
X190500000Y-46482000D03*
X191516000Y-46482000D03*
X192532000Y-46482000D03*
X193548000Y-46482000D03*
X194564000Y-46482000D03*
X195580000Y-46482000D03*
X196596000Y-46482000D03*
X197866000Y-46482000D03*
X198882000Y-46482000D03*
X198882000Y-45466000D03*
X198882000Y-44450000D03*
X198882000Y-43434000D03*
X198882000Y-42418000D03*
X198882000Y-41402000D03*
X198882000Y-40386000D03*
X198882000Y-39370000D03*
X189230000Y-38354000D03*
X190246000Y-38354000D03*
X191262000Y-38354000D03*
X192405000Y-38354000D03*
X193294000Y-38354000D03*
X194310000Y-38354000D03*
X195199000Y-38354000D03*
X196088000Y-38354000D03*
X196977000Y-38354000D03*
X197866000Y-38354000D03*
X198882000Y-38354000D03*
D29*
%TO.N,+V*%
X175100000Y-52450000D03*
X177110000Y-56240000D03*
X174300000Y-57900000D03*
X194300000Y-67110000D03*
X175600000Y-55400000D03*
X190200000Y-63300000D03*
D28*
%TO.N,-V*%
X173600000Y-37600000D03*
X190400000Y-48000000D03*
X173600000Y-67200000D03*
X179200000Y-71200000D03*
X192800000Y-36800000D03*
X184000000Y-36800000D03*
X200000000Y-40800000D03*
X188000000Y-69600000D03*
D29*
X176025500Y-48681601D03*
D28*
X186400000Y-36800000D03*
X186400000Y-71200000D03*
X185600000Y-71200000D03*
X178400000Y-38400000D03*
X187200000Y-36800000D03*
X189600000Y-69600000D03*
X172800000Y-38400000D03*
X174400000Y-60000000D03*
X196800000Y-36800000D03*
X175200000Y-36800000D03*
X177591969Y-39993077D03*
X183200000Y-37600000D03*
X172800000Y-41600000D03*
X174400000Y-40000000D03*
X175196787Y-39194683D03*
X180000000Y-39200000D03*
X173600000Y-64000000D03*
X182400000Y-71200000D03*
X172800000Y-46400000D03*
X174399999Y-68821876D03*
X174400000Y-39200000D03*
X195199866Y-47996521D03*
X181600000Y-37600000D03*
X192800000Y-48000000D03*
X176793575Y-39194683D03*
X174400000Y-36800000D03*
X177600000Y-71200000D03*
X200000000Y-43200000D03*
X200000000Y-37600000D03*
X179994781Y-71194781D03*
D29*
X189850000Y-59850000D03*
D28*
X188000000Y-36800000D03*
X180800000Y-40000000D03*
X190400000Y-36800000D03*
X174400000Y-70400000D03*
X184796521Y-71196521D03*
D29*
X196750000Y-68450000D03*
D28*
X180800000Y-36800000D03*
X188800000Y-36800000D03*
X173600000Y-71200000D03*
X196800000Y-48000000D03*
X172800000Y-45600000D03*
X200000000Y-39200000D03*
X173588258Y-41589864D03*
X181600000Y-71200000D03*
X174400000Y-68000000D03*
X184800000Y-36800000D03*
X175198393Y-38394781D03*
D29*
X175200000Y-57400000D03*
D28*
X175200000Y-37600000D03*
X174400000Y-64000000D03*
X174400000Y-37600000D03*
X200000000Y-44800000D03*
X176000000Y-71200000D03*
X179200000Y-40000000D03*
X179200000Y-37600000D03*
X179999599Y-37594781D03*
X192000000Y-36800000D03*
X189600000Y-68000000D03*
X191200000Y-48000000D03*
X192000000Y-48000000D03*
X174400000Y-67200000D03*
X199200000Y-36800000D03*
X172796521Y-42399999D03*
X175996654Y-37599999D03*
X200000000Y-45600000D03*
X173600000Y-68000000D03*
X176778726Y-37594781D03*
X177600000Y-39200000D03*
X188800000Y-69600000D03*
X189593575Y-68793778D03*
X198400000Y-48000000D03*
X187200000Y-69600000D03*
X178400000Y-40000000D03*
X178400000Y-39200000D03*
X187200000Y-71200000D03*
X182400000Y-36800000D03*
X173592172Y-70398393D03*
X187200000Y-68800000D03*
X177597993Y-37594781D03*
X173600000Y-36800000D03*
X174398393Y-60798393D03*
X182400000Y-38400000D03*
X200000000Y-42400000D03*
X179992172Y-39999999D03*
X173600000Y-66400000D03*
X172800000Y-36800000D03*
X176800000Y-71200000D03*
X174400000Y-38400000D03*
X173600000Y-62400000D03*
X180800000Y-38400000D03*
X200000000Y-46400000D03*
X181600000Y-36800000D03*
X173600000Y-68800000D03*
X189600000Y-36800000D03*
X174400000Y-66400000D03*
X174398393Y-40791471D03*
X182400000Y-39200000D03*
X179200000Y-39200000D03*
X180800000Y-39200000D03*
X173600000Y-40000000D03*
X175995181Y-39194683D03*
X200000000Y-41600000D03*
X179200000Y-36800000D03*
X175200000Y-40000000D03*
X181600000Y-38400000D03*
X173596521Y-38403612D03*
X172800000Y-37600000D03*
X178400000Y-36800000D03*
X176000000Y-36800000D03*
X181600000Y-40000000D03*
X176800000Y-40000000D03*
X188800000Y-68800000D03*
X173600000Y-69600000D03*
X173600000Y-65600000D03*
X172797680Y-47997680D03*
X173600000Y-39200000D03*
X200000000Y-44000000D03*
X187996787Y-68793778D03*
X187200000Y-70400000D03*
X172800000Y-44000000D03*
X173600000Y-40800000D03*
X191200000Y-36800000D03*
X173600000Y-64800000D03*
X172800000Y-39200000D03*
X180000000Y-38400000D03*
X183200000Y-36800000D03*
X176000000Y-38400000D03*
X176800000Y-36800000D03*
X172800000Y-40800000D03*
X200000000Y-36800000D03*
X178400000Y-37600000D03*
X180000000Y-36800000D03*
X184000000Y-37600000D03*
X199996521Y-39999999D03*
X200000000Y-38400000D03*
X197600000Y-48000000D03*
X177600000Y-36800000D03*
X180800000Y-37600000D03*
X182400000Y-37600000D03*
X175200000Y-71200000D03*
X194400000Y-36800000D03*
X180800000Y-71200000D03*
X177600000Y-38400000D03*
X198400000Y-36800000D03*
X185600000Y-36800000D03*
D29*
X199999600Y-58470800D03*
D28*
X172800000Y-47200000D03*
X173600000Y-63200000D03*
X178400000Y-71200000D03*
X172800000Y-43200000D03*
X176006922Y-39993077D03*
X193600000Y-36800000D03*
D29*
X200100000Y-47700000D03*
D28*
X172800000Y-44800000D03*
X174400000Y-71200000D03*
X179200000Y-38400000D03*
X174400000Y-69600000D03*
X183200000Y-38400000D03*
X181600000Y-39200000D03*
X174400000Y-64800000D03*
X196000000Y-48000000D03*
X195200000Y-36800000D03*
D29*
X180500000Y-56225000D03*
D28*
X196000000Y-36800000D03*
X174400000Y-63200000D03*
X172800000Y-40000000D03*
X176800000Y-38400000D03*
X174400000Y-65600000D03*
X197600000Y-36800000D03*
D29*
%TO.N,Torque_Mode*%
X187833000Y-37846000D03*
%TO.N,GND*%
X191516000Y-59309000D03*
X188315600Y-54610000D03*
X187147200Y-63093600D03*
X181229000Y-44704000D03*
X184250000Y-43750000D03*
X176179854Y-53518867D03*
X178720000Y-55350000D03*
X194500000Y-58500000D03*
%TO.N,Net-(Motor-1-Pad1)*%
X187260000Y-67270000D03*
%TD*%
D30*
%TO.N,+V*%
X193392400Y-67110000D02*
X194300000Y-67110000D01*
X190850000Y-61600000D02*
X190850000Y-62650000D01*
X178270000Y-53300000D02*
X178693000Y-53300000D01*
X194385200Y-68935600D02*
X194385200Y-67195200D01*
X175100000Y-47832000D02*
X175815000Y-47117000D01*
X177673000Y-52277000D02*
X177673000Y-55652000D01*
X177110000Y-56240000D02*
X177110000Y-56235000D01*
X191516000Y-67310000D02*
X193192400Y-67310000D01*
X190200000Y-63881441D02*
X191150480Y-64831921D01*
X175100000Y-52450000D02*
X175100000Y-47832000D01*
X194385200Y-67195200D02*
X194300000Y-67110000D01*
X177673000Y-52703000D02*
X178270000Y-53300000D01*
X175218400Y-41850000D02*
X174142400Y-42926000D01*
X193350000Y-59100000D02*
X193350000Y-56030000D01*
X178693000Y-53300000D02*
X179250000Y-52743000D01*
X191150480Y-66944480D02*
X191516000Y-67310000D01*
X178630000Y-41850000D02*
X176306000Y-41850000D01*
X193350000Y-56030000D02*
X194400000Y-54980000D01*
X178139000Y-52743000D02*
X177673000Y-52277000D01*
X195250000Y-54980000D02*
X196284000Y-54980000D01*
X190850000Y-61600000D02*
X193350000Y-59100000D01*
X191150480Y-64831921D02*
X191150480Y-66944480D01*
X174142400Y-45444400D02*
X175815000Y-47117000D01*
X197400000Y-54996000D02*
X196850000Y-55546000D01*
X177110000Y-56235000D02*
X177100000Y-56225000D01*
X193192400Y-67310000D02*
X193392400Y-67110000D01*
X190850000Y-62650000D02*
X190200000Y-63300000D01*
X196284000Y-54980000D02*
X196850000Y-55546000D01*
X174142400Y-42926000D02*
X174142400Y-45444400D01*
X176306000Y-41850000D02*
X175218400Y-41850000D01*
X197400000Y-51475000D02*
X197400000Y-54996000D01*
X177673000Y-55652000D02*
X177100000Y-56225000D01*
X174300000Y-56700000D02*
X175600000Y-55400000D01*
X190200000Y-63300000D02*
X190200000Y-63881441D01*
X174300000Y-57900000D02*
X174300000Y-56700000D01*
X177673000Y-52277000D02*
X177673000Y-52703000D01*
X194400000Y-54980000D02*
X195250000Y-54980000D01*
D31*
%TO.N,-V*%
X193320000Y-54410000D02*
X193730000Y-54410000D01*
X192010000Y-54930000D02*
X192700000Y-54930000D01*
X200100000Y-47700000D02*
X199375000Y-47700000D01*
D30*
X180500000Y-65000000D02*
X180500000Y-65375000D01*
X177150000Y-44738000D02*
X176306000Y-43894000D01*
X196916800Y-64500000D02*
X198424800Y-62992000D01*
X198424800Y-62992000D02*
X198424800Y-60096400D01*
X182010000Y-53020000D02*
X182626000Y-52404000D01*
X177150000Y-47839931D02*
X177150000Y-44738000D01*
X178630000Y-43900000D02*
X176312000Y-43900000D01*
D31*
X190464000Y-55546000D02*
X189850000Y-56160000D01*
D30*
X196750000Y-69600000D02*
X196750000Y-68450000D01*
D31*
X192700000Y-54930000D02*
X192750000Y-54980000D01*
D30*
X176306000Y-43894000D02*
X178454480Y-46042480D01*
D31*
X191394000Y-55546000D02*
X192010000Y-54930000D01*
D30*
X194000000Y-42325000D02*
X194000000Y-51475000D01*
D31*
X191008000Y-55546000D02*
X190453000Y-55546000D01*
D30*
X178454480Y-46042480D02*
X182152480Y-46042480D01*
X176025500Y-48681601D02*
X176308330Y-48681601D01*
D31*
X192750000Y-54980000D02*
X193320000Y-54410000D01*
X200100000Y-58370400D02*
X199999600Y-58470800D01*
D30*
X180500000Y-53020000D02*
X180500000Y-56225000D01*
D31*
X193730000Y-54410000D02*
X194000000Y-54140000D01*
D30*
X175200000Y-59700000D02*
X180500000Y-65000000D01*
D31*
X191008000Y-55546000D02*
X190464000Y-55546000D01*
D30*
X180500000Y-53020000D02*
X182010000Y-53020000D01*
X175200000Y-57400000D02*
X175200000Y-59700000D01*
D31*
X200100000Y-47700000D02*
X200100000Y-58370400D01*
X194000000Y-54140000D02*
X194000000Y-51475000D01*
D30*
X182152480Y-46042480D02*
X183320000Y-47210000D01*
X198424800Y-60096400D02*
X199999600Y-58521600D01*
D31*
X189850000Y-56160000D02*
X189850000Y-59850000D01*
D30*
X176312000Y-43900000D02*
X176306000Y-43894000D01*
X199999600Y-58521600D02*
X199999600Y-58470800D01*
X176308330Y-48681601D02*
X177150000Y-47839931D01*
X196800000Y-64500000D02*
X196916800Y-64500000D01*
D31*
X191008000Y-55546000D02*
X191394000Y-55546000D01*
X199375000Y-47700000D02*
X194000000Y-42325000D01*
%TO.N,Torque_Mode*%
X187833000Y-45242000D02*
X187833000Y-37846000D01*
X187400000Y-45675000D02*
X187833000Y-45242000D01*
%TO.N,Net-(R1-Pad2)*%
X190190000Y-51475000D02*
X190190000Y-50115000D01*
X187400000Y-47325000D02*
X186600480Y-46525480D01*
X186600480Y-46525480D02*
X186600480Y-43899520D01*
X190190000Y-50115000D02*
X187400000Y-47325000D01*
X186600480Y-43899520D02*
X186750000Y-43750000D01*
D30*
%TO.N,Net-(R5-Pad2)*%
X183591200Y-45466000D02*
X184658000Y-45466000D01*
X184658000Y-45466000D02*
X185420000Y-46228000D01*
X179270000Y-41850000D02*
X179270000Y-43900000D01*
X185420000Y-54705000D02*
X183900000Y-56225000D01*
X179270000Y-43900000D02*
X182025200Y-43900000D01*
X182025200Y-43900000D02*
X183591200Y-45466000D01*
X185420000Y-46228000D02*
X185420000Y-54705000D01*
D31*
%TO.N,GND*%
X176673480Y-49058235D02*
X178515000Y-47216715D01*
X200140311Y-62218311D02*
X200140311Y-68947289D01*
X182200000Y-54475000D02*
X182200000Y-56225000D01*
X183780000Y-53290000D02*
X183780000Y-50850000D01*
X197707600Y-66300000D02*
X196750000Y-66300000D01*
X194625000Y-58375000D02*
X194500000Y-58500000D01*
D30*
X191085200Y-69135200D02*
X192150000Y-70200000D01*
D31*
X187147200Y-63093600D02*
X188315600Y-61925200D01*
D30*
X179250000Y-51154000D02*
X179250000Y-52103000D01*
D31*
X178515000Y-47216715D02*
X178515000Y-47117000D01*
X180500000Y-52380000D02*
X180500000Y-47131000D01*
X182626000Y-49704000D02*
X182626000Y-49216000D01*
X200253600Y-62331600D02*
X200253600Y-63754000D01*
X183583520Y-50653520D02*
X183575520Y-50653520D01*
X183575520Y-50653520D02*
X182626000Y-49704000D01*
X183520000Y-53550000D02*
X183125000Y-53550000D01*
X182626000Y-49216000D02*
X180620000Y-47210000D01*
X180514000Y-47117000D02*
X178515000Y-47117000D01*
X184250000Y-42100000D02*
X185500000Y-40850000D01*
D30*
X195300000Y-67750000D02*
X195300000Y-70099022D01*
D31*
X200140311Y-68947289D02*
X196900800Y-72186800D01*
X176660241Y-53038480D02*
X176179854Y-53518867D01*
X178720000Y-56145000D02*
X178800000Y-56225000D01*
D30*
X195250000Y-57750000D02*
X194500000Y-58500000D01*
D31*
X199440800Y-61518800D02*
X200253600Y-62331600D01*
X184250000Y-43750000D02*
X184250000Y-42100000D01*
D30*
X196750000Y-66300000D02*
X195300000Y-67750000D01*
X196850000Y-58246000D02*
X194754000Y-58246000D01*
D31*
X183780000Y-50850000D02*
X183583520Y-50653520D01*
X200253600Y-63754000D02*
X197707600Y-66300000D01*
X188315600Y-61925200D02*
X188315600Y-54610000D01*
X183125000Y-53550000D02*
X182200000Y-54475000D01*
X176723480Y-50526520D02*
X177673000Y-49577000D01*
X183520000Y-53550000D02*
X183780000Y-53290000D01*
X176723480Y-51780424D02*
X176723480Y-50526520D01*
D30*
X195199022Y-70200000D02*
X192150000Y-70200000D01*
D31*
X172466000Y-56037904D02*
X176723480Y-51780424D01*
X172466000Y-72186800D02*
X172466000Y-56037904D01*
D30*
X194754000Y-58246000D02*
X194500000Y-58500000D01*
D31*
X176673480Y-53038480D02*
X176673480Y-49058235D01*
D30*
X195250000Y-55620000D02*
X195250000Y-57750000D01*
X191085200Y-68935600D02*
X191085200Y-69135200D01*
X177673000Y-49577000D02*
X179250000Y-51154000D01*
D31*
X196900800Y-72186800D02*
X172466000Y-72186800D01*
X191516000Y-59309000D02*
X191516000Y-58754000D01*
X199440800Y-61518800D02*
X200140311Y-62218311D01*
X176673480Y-53038480D02*
X176660241Y-53038480D01*
D30*
X192750000Y-56504000D02*
X191008000Y-58246000D01*
X195300000Y-70099022D02*
X195199022Y-70200000D01*
D31*
X191516000Y-58754000D02*
X191008000Y-58246000D01*
X178720000Y-55350000D02*
X178720000Y-56145000D01*
D30*
X192750000Y-55620000D02*
X192750000Y-56504000D01*
D31*
X180500000Y-47131000D02*
X180514000Y-47117000D01*
D30*
%TO.N,Net-(Motor-1-Pad1)*%
X192255480Y-54264520D02*
X192255480Y-51475000D01*
X187260000Y-67270000D02*
X188330000Y-67270000D01*
X189000000Y-55420000D02*
X190030000Y-54390000D01*
X187260000Y-67270000D02*
X189000000Y-65530000D01*
X192130000Y-54390000D02*
X192255480Y-54264520D01*
X190030000Y-54390000D02*
X192130000Y-54390000D01*
X188330000Y-67270000D02*
X190000000Y-65600000D01*
X189000000Y-65530000D02*
X189000000Y-55420000D01*
%TO.N,Net-(D1-Pad2)*%
X198780000Y-58572800D02*
X198780000Y-54201441D01*
X197154800Y-59690000D02*
X197662800Y-59690000D01*
X197662800Y-59690000D02*
X198780000Y-58572800D01*
X194150000Y-61600000D02*
X194150000Y-63812400D01*
X196800000Y-61200000D02*
X196800000Y-60044800D01*
X196685000Y-48740000D02*
X195700000Y-49725000D01*
X196400000Y-61600000D02*
X196800000Y-61200000D01*
X195700000Y-49725000D02*
X195700000Y-51475000D01*
X198780000Y-48740000D02*
X196685000Y-48740000D01*
X198780000Y-54201441D02*
X198780000Y-48740000D01*
X194150000Y-63812400D02*
X192328800Y-65633600D01*
X194150000Y-61600000D02*
X196400000Y-61600000D01*
X196800000Y-60044800D02*
X197154800Y-59690000D01*
%TD*%
%TA.AperFunction,Conductor*%
%TO.N,-V*%
G36*
X187624221Y-59310002D02*
G01*
X187670714Y-59363658D01*
X187682100Y-59416000D01*
X187682100Y-61610605D01*
X187662098Y-61678726D01*
X187645195Y-61699701D01*
X187196699Y-62148196D01*
X187134387Y-62182221D01*
X187107604Y-62185100D01*
X187051713Y-62185100D01*
X187045261Y-62186472D01*
X187045256Y-62186472D01*
X186958312Y-62204953D01*
X186864912Y-62224806D01*
X186858882Y-62227491D01*
X186858881Y-62227491D01*
X186696478Y-62299797D01*
X186696476Y-62299798D01*
X186690448Y-62302482D01*
X186685107Y-62306362D01*
X186685106Y-62306363D01*
X186661320Y-62323645D01*
X186535947Y-62414734D01*
X186531526Y-62419644D01*
X186531525Y-62419645D01*
X186436335Y-62525365D01*
X186408160Y-62556656D01*
X186312673Y-62722044D01*
X186253658Y-62903672D01*
X186252968Y-62910233D01*
X186252968Y-62910235D01*
X186243973Y-62995815D01*
X186233696Y-63093600D01*
X186234386Y-63100165D01*
X186252562Y-63273097D01*
X186253658Y-63283528D01*
X186312673Y-63465156D01*
X186408160Y-63630544D01*
X186535947Y-63772466D01*
X186690448Y-63884718D01*
X186696476Y-63887402D01*
X186696478Y-63887403D01*
X186858881Y-63959709D01*
X186864912Y-63962394D01*
X186958312Y-63982247D01*
X187045256Y-64000728D01*
X187045261Y-64000728D01*
X187051713Y-64002100D01*
X187242687Y-64002100D01*
X187249139Y-64000728D01*
X187249144Y-64000728D01*
X187336088Y-63982247D01*
X187429488Y-63962394D01*
X187435519Y-63959709D01*
X187597922Y-63887403D01*
X187597924Y-63887402D01*
X187603952Y-63884718D01*
X187758453Y-63772466D01*
X187886240Y-63630544D01*
X187981727Y-63465156D01*
X188040742Y-63283528D01*
X188041432Y-63276965D01*
X188042254Y-63273097D01*
X188075982Y-63210624D01*
X188138132Y-63176303D01*
X188208971Y-63181032D01*
X188266009Y-63223308D01*
X188291135Y-63289710D01*
X188291500Y-63299295D01*
X188291500Y-65184339D01*
X188271498Y-65252460D01*
X188254595Y-65273434D01*
X187193467Y-66334563D01*
X187130569Y-66368715D01*
X186977712Y-66401206D01*
X186971682Y-66403891D01*
X186971681Y-66403891D01*
X186809278Y-66476197D01*
X186809276Y-66476198D01*
X186803248Y-66478882D01*
X186648747Y-66591134D01*
X186644326Y-66596044D01*
X186644325Y-66596045D01*
X186526569Y-66726827D01*
X186520960Y-66733056D01*
X186477356Y-66808580D01*
X186431371Y-66888229D01*
X186425473Y-66898444D01*
X186366458Y-67080072D01*
X186365768Y-67086633D01*
X186365768Y-67086635D01*
X186353457Y-67203767D01*
X186346496Y-67270000D01*
X186347186Y-67276565D01*
X186355795Y-67358471D01*
X186366458Y-67459928D01*
X186425473Y-67641556D01*
X186520960Y-67806944D01*
X186525378Y-67811851D01*
X186525379Y-67811852D01*
X186628367Y-67926232D01*
X186648747Y-67948866D01*
X186803248Y-68061118D01*
X186809276Y-68063802D01*
X186809278Y-68063803D01*
X186884521Y-68097303D01*
X186977712Y-68138794D01*
X187071113Y-68158647D01*
X187158056Y-68177128D01*
X187158061Y-68177128D01*
X187164513Y-68178500D01*
X187355487Y-68178500D01*
X187361939Y-68177128D01*
X187361944Y-68177128D01*
X187448887Y-68158647D01*
X187542288Y-68138794D01*
X187635479Y-68097303D01*
X187710722Y-68063803D01*
X187710724Y-68063802D01*
X187716752Y-68061118D01*
X187797344Y-68002564D01*
X187864211Y-67978706D01*
X187871405Y-67978500D01*
X188301088Y-67978500D01*
X188309658Y-67978792D01*
X188359776Y-67982209D01*
X188359780Y-67982209D01*
X188367352Y-67982725D01*
X188374829Y-67981420D01*
X188374830Y-67981420D01*
X188401308Y-67976799D01*
X188430303Y-67971738D01*
X188436821Y-67970777D01*
X188500242Y-67963102D01*
X188507343Y-67960419D01*
X188509952Y-67959778D01*
X188526262Y-67955315D01*
X188528798Y-67954550D01*
X188536284Y-67953243D01*
X188594800Y-67927556D01*
X188600904Y-67925065D01*
X188653548Y-67905173D01*
X188653549Y-67905172D01*
X188660656Y-67902487D01*
X188666919Y-67898183D01*
X188669285Y-67896946D01*
X188684097Y-67888701D01*
X188686351Y-67887368D01*
X188693305Y-67884315D01*
X188744002Y-67845413D01*
X188749332Y-67841541D01*
X188795720Y-67809661D01*
X188795725Y-67809656D01*
X188801981Y-67805357D01*
X188843436Y-67758829D01*
X188848416Y-67753554D01*
X189472387Y-67129583D01*
X189534699Y-67095557D01*
X189587899Y-67095478D01*
X189588602Y-67095629D01*
X189595139Y-67097797D01*
X189601982Y-67098498D01*
X189601986Y-67098499D01*
X189656665Y-67104101D01*
X189699600Y-67108500D01*
X190300400Y-67108500D01*
X190303646Y-67108163D01*
X190303650Y-67108163D01*
X190331358Y-67105288D01*
X190350796Y-67103271D01*
X190420616Y-67116136D01*
X190472399Y-67164706D01*
X190479172Y-67177952D01*
X190492922Y-67209275D01*
X190495415Y-67215384D01*
X190513572Y-67263435D01*
X190517993Y-67275136D01*
X190522297Y-67281399D01*
X190523534Y-67283765D01*
X190531779Y-67298577D01*
X190533112Y-67300831D01*
X190536165Y-67307785D01*
X190540787Y-67313808D01*
X190575059Y-67358471D01*
X190578939Y-67363812D01*
X190610819Y-67410200D01*
X190610824Y-67410205D01*
X190615123Y-67416461D01*
X190620792Y-67421511D01*
X190620792Y-67421512D01*
X190661649Y-67457914D01*
X190666925Y-67462896D01*
X190816034Y-67612005D01*
X190850060Y-67674317D01*
X190844995Y-67745132D01*
X190802448Y-67801968D01*
X190735928Y-67826779D01*
X190726939Y-67827100D01*
X190587066Y-67827100D01*
X190524884Y-67833855D01*
X190388495Y-67884985D01*
X190271939Y-67972339D01*
X190184585Y-68088895D01*
X190133455Y-68225284D01*
X190126700Y-68287466D01*
X190126700Y-69583734D01*
X190133455Y-69645916D01*
X190184585Y-69782305D01*
X190271939Y-69898861D01*
X190388495Y-69986215D01*
X190524884Y-70037345D01*
X190587066Y-70044100D01*
X190939940Y-70044100D01*
X191008061Y-70064102D01*
X191029035Y-70081005D01*
X191122635Y-70174605D01*
X191156661Y-70236917D01*
X191151596Y-70307732D01*
X191109049Y-70364568D01*
X191042529Y-70389379D01*
X191033540Y-70389700D01*
X190382466Y-70389700D01*
X190320284Y-70396455D01*
X190183895Y-70447585D01*
X190067339Y-70534939D01*
X189979985Y-70651495D01*
X189928855Y-70787884D01*
X189922100Y-70850066D01*
X189922100Y-71427300D01*
X189902098Y-71495421D01*
X189848442Y-71541914D01*
X189796100Y-71553300D01*
X173225500Y-71553300D01*
X173157379Y-71533298D01*
X173110886Y-71479642D01*
X173099500Y-71427300D01*
X173099500Y-59416000D01*
X173119502Y-59347879D01*
X173173158Y-59301386D01*
X173225500Y-59290000D01*
X187556100Y-59290000D01*
X187624221Y-59310002D01*
G37*
%TD.AperFunction*%
%TA.AperFunction,Conductor*%
G36*
X199424844Y-65582828D02*
G01*
X199481679Y-65625375D01*
X199506490Y-65691895D01*
X199506811Y-65700884D01*
X199506811Y-68632694D01*
X199486809Y-68700815D01*
X199469906Y-68721789D01*
X196988063Y-71203632D01*
X196925751Y-71237658D01*
X196854936Y-71232593D01*
X196798100Y-71190046D01*
X196775722Y-71140734D01*
X196774420Y-71134607D01*
X196773730Y-71128045D01*
X196713092Y-70941420D01*
X196614977Y-70771480D01*
X196483674Y-70625653D01*
X196324921Y-70510312D01*
X196318893Y-70507628D01*
X196318891Y-70507627D01*
X196151687Y-70433183D01*
X196151686Y-70433183D01*
X196145656Y-70430498D01*
X196089407Y-70418542D01*
X196026934Y-70384814D01*
X195992612Y-70322664D01*
X195993354Y-70276785D01*
X195991282Y-70276512D01*
X195999622Y-70213161D01*
X196000654Y-70206645D01*
X196010911Y-70151303D01*
X196012295Y-70143836D01*
X196008709Y-70081642D01*
X196008500Y-70074389D01*
X196008500Y-68095660D01*
X196028502Y-68027539D01*
X196045405Y-68006565D01*
X196756565Y-67295405D01*
X196818877Y-67261379D01*
X196845660Y-67258500D01*
X197398134Y-67258500D01*
X197460316Y-67251745D01*
X197596705Y-67200615D01*
X197713261Y-67113261D01*
X197800615Y-66996705D01*
X197803967Y-66987764D01*
X197804306Y-66987313D01*
X197808077Y-66980425D01*
X197809071Y-66980969D01*
X197846610Y-66931001D01*
X197875563Y-66914846D01*
X197907510Y-66902197D01*
X197918742Y-66898351D01*
X197953583Y-66888229D01*
X197953584Y-66888229D01*
X197961193Y-66886018D01*
X197968012Y-66881985D01*
X197968017Y-66881983D01*
X197978628Y-66875707D01*
X197996376Y-66867012D01*
X198015217Y-66859552D01*
X198050987Y-66833564D01*
X198060907Y-66827048D01*
X198092135Y-66808580D01*
X198092138Y-66808578D01*
X198098962Y-66804542D01*
X198113283Y-66790221D01*
X198128317Y-66777380D01*
X198138294Y-66770131D01*
X198144707Y-66765472D01*
X198172898Y-66731395D01*
X198180888Y-66722616D01*
X199291716Y-65611789D01*
X199354028Y-65577763D01*
X199424844Y-65582828D01*
G37*
%TD.AperFunction*%
%TA.AperFunction,Conductor*%
G36*
X198425332Y-60033605D02*
G01*
X198482168Y-60076152D01*
X198506979Y-60142672D01*
X198507300Y-60151661D01*
X198507300Y-60991934D01*
X198514055Y-61054116D01*
X198516827Y-61061512D01*
X198516829Y-61061518D01*
X198550116Y-61150311D01*
X198555299Y-61221118D01*
X198551967Y-61233475D01*
X198524711Y-61317363D01*
X198522670Y-61323645D01*
X198502158Y-61518800D01*
X198522670Y-61713955D01*
X198524710Y-61720233D01*
X198524710Y-61720234D01*
X198540138Y-61767715D01*
X198583308Y-61900580D01*
X198586611Y-61906302D01*
X198586612Y-61906303D01*
X198615189Y-61955800D01*
X198631927Y-62024796D01*
X198615189Y-62081800D01*
X198602507Y-62103767D01*
X198583308Y-62137020D01*
X198576449Y-62158131D01*
X198530101Y-62300776D01*
X198522670Y-62323645D01*
X198502158Y-62518800D01*
X198502848Y-62525365D01*
X198520670Y-62694922D01*
X198522670Y-62713955D01*
X198524710Y-62720233D01*
X198524710Y-62720234D01*
X198537915Y-62760874D01*
X198583308Y-62900580D01*
X198681423Y-63070520D01*
X198685841Y-63075427D01*
X198685842Y-63075428D01*
X198776670Y-63176303D01*
X198812726Y-63216347D01*
X198818068Y-63220228D01*
X198818070Y-63220230D01*
X198913701Y-63289710D01*
X198971479Y-63331688D01*
X198977507Y-63334372D01*
X198977509Y-63334373D01*
X199144713Y-63408817D01*
X199150744Y-63411502D01*
X199246715Y-63431901D01*
X199336228Y-63450928D01*
X199336232Y-63450928D01*
X199342685Y-63452300D01*
X199355206Y-63452300D01*
X199423327Y-63472302D01*
X199469820Y-63525958D01*
X199479924Y-63596232D01*
X199450430Y-63660812D01*
X199444301Y-63667395D01*
X197737247Y-65374449D01*
X197674935Y-65408475D01*
X197604120Y-65403410D01*
X197598874Y-65401011D01*
X197596705Y-65399385D01*
X197589022Y-65396505D01*
X197589016Y-65396502D01*
X197505606Y-65365234D01*
X197460316Y-65348255D01*
X197398134Y-65341500D01*
X196101866Y-65341500D01*
X196039684Y-65348255D01*
X195903295Y-65399385D01*
X195786739Y-65486739D01*
X195699385Y-65603295D01*
X195648255Y-65739684D01*
X195641500Y-65801866D01*
X195641500Y-66354338D01*
X195621498Y-66422459D01*
X195604596Y-66443433D01*
X195451985Y-66596045D01*
X195314715Y-66733315D01*
X195252402Y-66767340D01*
X195181587Y-66762276D01*
X195124751Y-66719729D01*
X195116500Y-66707220D01*
X195049477Y-66591134D01*
X195039040Y-66573056D01*
X194954246Y-66478882D01*
X194915675Y-66436045D01*
X194915674Y-66436044D01*
X194911253Y-66431134D01*
X194778335Y-66334563D01*
X194762094Y-66322763D01*
X194762093Y-66322762D01*
X194756752Y-66318882D01*
X194750724Y-66316198D01*
X194750722Y-66316197D01*
X194588319Y-66243891D01*
X194588318Y-66243891D01*
X194582288Y-66241206D01*
X194488887Y-66221353D01*
X194401944Y-66202872D01*
X194401939Y-66202872D01*
X194395487Y-66201500D01*
X194204513Y-66201500D01*
X194198061Y-66202872D01*
X194198056Y-66202872D01*
X194111113Y-66221353D01*
X194017712Y-66241206D01*
X194011682Y-66243891D01*
X194011681Y-66243891D01*
X193849278Y-66316197D01*
X193849276Y-66316198D01*
X193843248Y-66318882D01*
X193837907Y-66322762D01*
X193837906Y-66322763D01*
X193762656Y-66377436D01*
X193695789Y-66401294D01*
X193688595Y-66401500D01*
X193463300Y-66401500D01*
X193395179Y-66381498D01*
X193348686Y-66327842D01*
X193337300Y-66275500D01*
X193337300Y-65679260D01*
X193357302Y-65611139D01*
X193374205Y-65590165D01*
X194630520Y-64333850D01*
X194636785Y-64327996D01*
X194674660Y-64294955D01*
X194680385Y-64289961D01*
X194717114Y-64237700D01*
X194721046Y-64232405D01*
X194755791Y-64188094D01*
X194760477Y-64182118D01*
X194763602Y-64175196D01*
X194764964Y-64172948D01*
X194773368Y-64158215D01*
X194774622Y-64155876D01*
X194778990Y-64149661D01*
X194781749Y-64142585D01*
X194781751Y-64142581D01*
X194802200Y-64090131D01*
X194804749Y-64084066D01*
X194831045Y-64025827D01*
X194832429Y-64018362D01*
X194833226Y-64015818D01*
X194837859Y-63999552D01*
X194838521Y-63996972D01*
X194841282Y-63989891D01*
X194849622Y-63926543D01*
X194850653Y-63920029D01*
X194860912Y-63864678D01*
X194862296Y-63857213D01*
X194858709Y-63795002D01*
X194858500Y-63787749D01*
X194858500Y-62704802D01*
X194878502Y-62636681D01*
X194908935Y-62603976D01*
X194956081Y-62568642D01*
X194963261Y-62563261D01*
X195050615Y-62446705D01*
X195058334Y-62426114D01*
X195071772Y-62390270D01*
X195114414Y-62333505D01*
X195180976Y-62308806D01*
X195189754Y-62308500D01*
X196371088Y-62308500D01*
X196379658Y-62308792D01*
X196429776Y-62312209D01*
X196429780Y-62312209D01*
X196437352Y-62312725D01*
X196444829Y-62311420D01*
X196444830Y-62311420D01*
X196496168Y-62302460D01*
X196500303Y-62301738D01*
X196506821Y-62300777D01*
X196570242Y-62293102D01*
X196577343Y-62290419D01*
X196579952Y-62289778D01*
X196596262Y-62285315D01*
X196598798Y-62284550D01*
X196606284Y-62283243D01*
X196664800Y-62257556D01*
X196670904Y-62255065D01*
X196723548Y-62235173D01*
X196723549Y-62235172D01*
X196730656Y-62232487D01*
X196736919Y-62228183D01*
X196739285Y-62226946D01*
X196754097Y-62218701D01*
X196756352Y-62217367D01*
X196763305Y-62214315D01*
X196769324Y-62209696D01*
X196769333Y-62209691D01*
X196802110Y-62184539D01*
X196868330Y-62158937D01*
X196878815Y-62158500D01*
X197448134Y-62158500D01*
X197510316Y-62151745D01*
X197646705Y-62100615D01*
X197763261Y-62013261D01*
X197850615Y-61896705D01*
X197901745Y-61760316D01*
X197908500Y-61698134D01*
X197908500Y-60701866D01*
X197901745Y-60639684D01*
X197853222Y-60510249D01*
X197848039Y-60439443D01*
X197881960Y-60377074D01*
X197920556Y-60350648D01*
X197927619Y-60347548D01*
X197933704Y-60345065D01*
X197986348Y-60325173D01*
X197986349Y-60325172D01*
X197993456Y-60322487D01*
X197999719Y-60318183D01*
X198002085Y-60316946D01*
X198016897Y-60308701D01*
X198019151Y-60307368D01*
X198026105Y-60304315D01*
X198076802Y-60265413D01*
X198082132Y-60261541D01*
X198128520Y-60229661D01*
X198128525Y-60229656D01*
X198134781Y-60225357D01*
X198176227Y-60178839D01*
X198181208Y-60173563D01*
X198292205Y-60062566D01*
X198354517Y-60028540D01*
X198425332Y-60033605D01*
G37*
%TD.AperFunction*%
%TA.AperFunction,Conductor*%
G36*
X190131492Y-59308740D02*
G01*
X190168234Y-59331388D01*
X190228918Y-59368794D01*
X190260262Y-59388115D01*
X190317585Y-59407128D01*
X190421611Y-59441632D01*
X190421613Y-59441632D01*
X190428139Y-59443797D01*
X190434975Y-59444497D01*
X190434978Y-59444498D01*
X190528988Y-59454130D01*
X190594715Y-59480971D01*
X190635978Y-59540538D01*
X190681473Y-59680556D01*
X190776960Y-59845944D01*
X190904747Y-59987866D01*
X190911153Y-59992520D01*
X191012036Y-60065816D01*
X191059248Y-60100118D01*
X191065276Y-60102802D01*
X191065278Y-60102803D01*
X191091503Y-60114479D01*
X191145599Y-60160460D01*
X191166248Y-60228387D01*
X191146895Y-60296695D01*
X191129349Y-60318681D01*
X190993435Y-60454595D01*
X190931123Y-60488621D01*
X190904340Y-60491500D01*
X190351866Y-60491500D01*
X190289684Y-60498255D01*
X190153295Y-60549385D01*
X190036739Y-60636739D01*
X189949385Y-60753295D01*
X189946236Y-60761696D01*
X189945019Y-60763918D01*
X189894760Y-60814064D01*
X189825369Y-60829077D01*
X189758877Y-60804191D01*
X189716395Y-60747307D01*
X189708500Y-60703408D01*
X189708500Y-59416000D01*
X189728502Y-59347879D01*
X189782158Y-59301386D01*
X189834500Y-59290000D01*
X190065377Y-59290000D01*
X190131492Y-59308740D01*
G37*
%TD.AperFunction*%
%TD*%
%TA.AperFunction,Conductor*%
%TO.N,-V*%
G36*
X200113194Y-36088799D02*
G01*
X200159715Y-36142431D01*
X200171129Y-36194906D01*
X200164095Y-48254073D01*
X200144053Y-48322183D01*
X200090370Y-48368644D01*
X200038095Y-48380000D01*
X199463487Y-48380000D01*
X199395366Y-48359998D01*
X199368539Y-48336831D01*
X199345555Y-48310484D01*
X199336664Y-48299021D01*
X199319661Y-48274280D01*
X199319656Y-48274275D01*
X199315357Y-48268019D01*
X199290537Y-48245905D01*
X199279412Y-48234662D01*
X199262557Y-48215341D01*
X199262553Y-48215338D01*
X199257561Y-48209615D01*
X199251347Y-48205247D01*
X199251344Y-48205245D01*
X199226778Y-48187979D01*
X199215414Y-48178972D01*
X199199259Y-48164579D01*
X199187321Y-48153943D01*
X199180612Y-48150391D01*
X199180608Y-48150388D01*
X199157946Y-48138389D01*
X199144459Y-48130124D01*
X199123481Y-48115381D01*
X199123478Y-48115379D01*
X199117261Y-48111010D01*
X199110180Y-48108249D01*
X199110176Y-48108247D01*
X199082210Y-48097343D01*
X199069023Y-48091306D01*
X199042482Y-48077254D01*
X199042480Y-48077253D01*
X199035769Y-48073700D01*
X199028409Y-48071851D01*
X199028403Y-48071849D01*
X199003534Y-48065603D01*
X198988457Y-48060791D01*
X198964573Y-48051479D01*
X198964572Y-48051479D01*
X198957491Y-48048718D01*
X198949961Y-48047727D01*
X198949958Y-48047726D01*
X198920193Y-48043808D01*
X198905941Y-48041090D01*
X198898508Y-48039223D01*
X198869451Y-48031924D01*
X198861853Y-48031884D01*
X198861852Y-48031884D01*
X198855239Y-48031849D01*
X198829324Y-48031713D01*
X198827965Y-48031665D01*
X198826706Y-48031500D01*
X198788762Y-48031500D01*
X198788102Y-48031498D01*
X198702372Y-48031049D01*
X198702371Y-48031049D01*
X198697969Y-48031026D01*
X198696452Y-48031390D01*
X198694550Y-48031500D01*
X196713912Y-48031500D01*
X196705342Y-48031208D01*
X196655224Y-48027791D01*
X196655220Y-48027791D01*
X196647648Y-48027275D01*
X196640171Y-48028580D01*
X196640170Y-48028580D01*
X196611981Y-48033500D01*
X196584703Y-48038261D01*
X196578186Y-48039222D01*
X196514758Y-48046898D01*
X196507650Y-48049584D01*
X196505056Y-48050221D01*
X196488750Y-48054682D01*
X196486199Y-48055452D01*
X196478716Y-48056758D01*
X196471764Y-48059810D01*
X196471763Y-48059810D01*
X196420212Y-48082439D01*
X196414105Y-48084931D01*
X196388242Y-48094704D01*
X196354344Y-48107513D01*
X196348083Y-48111816D01*
X196345717Y-48113053D01*
X196330937Y-48121280D01*
X196328652Y-48122631D01*
X196321695Y-48125685D01*
X196315675Y-48130305D01*
X196315669Y-48130308D01*
X196289502Y-48150388D01*
X196270998Y-48164587D01*
X196265668Y-48168459D01*
X196219280Y-48200339D01*
X196219275Y-48200344D01*
X196213019Y-48204643D01*
X196207968Y-48210313D01*
X196207966Y-48210314D01*
X196171565Y-48251170D01*
X196166584Y-48256446D01*
X196079935Y-48343095D01*
X196017623Y-48377121D01*
X195990840Y-48380000D01*
X189403095Y-48380000D01*
X189334974Y-48359998D01*
X189314000Y-48343095D01*
X188420405Y-47449500D01*
X188386379Y-47387188D01*
X188383500Y-47360405D01*
X188383499Y-47071249D01*
X188383499Y-47068366D01*
X188376753Y-46994938D01*
X188325472Y-46831301D01*
X188236639Y-46684619D01*
X188141115Y-46589095D01*
X188107089Y-46526783D01*
X188112154Y-46455968D01*
X188141115Y-46410905D01*
X188236639Y-46315381D01*
X188325472Y-46168699D01*
X188376753Y-46005062D01*
X188383500Y-45931635D01*
X188383499Y-45591087D01*
X188393862Y-45541047D01*
X188400170Y-45526470D01*
X188405383Y-45515827D01*
X188426695Y-45477060D01*
X188428666Y-45469383D01*
X188428668Y-45469378D01*
X188431732Y-45457442D01*
X188438138Y-45438730D01*
X188443034Y-45427417D01*
X188446181Y-45420145D01*
X188451471Y-45386749D01*
X188453097Y-45376481D01*
X188455504Y-45364860D01*
X188464528Y-45329711D01*
X188464528Y-45329710D01*
X188466500Y-45322030D01*
X188466500Y-45301769D01*
X188468051Y-45282058D01*
X188469979Y-45269885D01*
X188471219Y-45262057D01*
X188467059Y-45218046D01*
X188466500Y-45206189D01*
X188466500Y-38548524D01*
X188486502Y-38480403D01*
X188498858Y-38464221D01*
X188572040Y-38382944D01*
X188667527Y-38217556D01*
X188726542Y-38035928D01*
X188746504Y-37846000D01*
X188726542Y-37656072D01*
X188667527Y-37474444D01*
X188572040Y-37309056D01*
X188444253Y-37167134D01*
X188289752Y-37054882D01*
X188283724Y-37052198D01*
X188283722Y-37052197D01*
X188121319Y-36979891D01*
X188121318Y-36979891D01*
X188115288Y-36977206D01*
X188021887Y-36957353D01*
X187934944Y-36938872D01*
X187934939Y-36938872D01*
X187928487Y-36937500D01*
X187737513Y-36937500D01*
X187731061Y-36938872D01*
X187731056Y-36938872D01*
X187644112Y-36957353D01*
X187550712Y-36977206D01*
X187544682Y-36979891D01*
X187544681Y-36979891D01*
X187382278Y-37052197D01*
X187382276Y-37052198D01*
X187376248Y-37054882D01*
X187221747Y-37167134D01*
X187093960Y-37309056D01*
X186998473Y-37474444D01*
X186939458Y-37656072D01*
X186919496Y-37846000D01*
X186939458Y-38035928D01*
X186998473Y-38217556D01*
X187093960Y-38382944D01*
X187167137Y-38464215D01*
X187197853Y-38528221D01*
X187199500Y-38548524D01*
X187199500Y-39772144D01*
X187179498Y-39840265D01*
X187125842Y-39886758D01*
X187055568Y-39896862D01*
X186990988Y-39867368D01*
X186955518Y-39816373D01*
X186953768Y-39811705D01*
X186953767Y-39811703D01*
X186950615Y-39803295D01*
X186863261Y-39686739D01*
X186746705Y-39599385D01*
X186610316Y-39548255D01*
X186548134Y-39541500D01*
X184451866Y-39541500D01*
X184389684Y-39548255D01*
X184253295Y-39599385D01*
X184136739Y-39686739D01*
X184049385Y-39803295D01*
X183998255Y-39939684D01*
X183991500Y-40001866D01*
X183991500Y-41410405D01*
X183971498Y-41478526D01*
X183954595Y-41499500D01*
X183857747Y-41596348D01*
X183849461Y-41603888D01*
X183842982Y-41608000D01*
X183837557Y-41613777D01*
X183796357Y-41657651D01*
X183793602Y-41660493D01*
X183773865Y-41680230D01*
X183771385Y-41683427D01*
X183763682Y-41692447D01*
X183733414Y-41724679D01*
X183729595Y-41731625D01*
X183729593Y-41731628D01*
X183723652Y-41742434D01*
X183712801Y-41758953D01*
X183700386Y-41774959D01*
X183697241Y-41782228D01*
X183697238Y-41782232D01*
X183682826Y-41815537D01*
X183677609Y-41826187D01*
X183656305Y-41864940D01*
X183654334Y-41872615D01*
X183654334Y-41872616D01*
X183651267Y-41884562D01*
X183644863Y-41903266D01*
X183636819Y-41921855D01*
X183635580Y-41929678D01*
X183635577Y-41929688D01*
X183629901Y-41965524D01*
X183627495Y-41977144D01*
X183624224Y-41989885D01*
X183616500Y-42019970D01*
X183616500Y-42040224D01*
X183614949Y-42059934D01*
X183611780Y-42079943D01*
X183612526Y-42087835D01*
X183615941Y-42123961D01*
X183616500Y-42135819D01*
X183616500Y-42321425D01*
X183596498Y-42389546D01*
X183542842Y-42436039D01*
X183504108Y-42446688D01*
X183503037Y-42446804D01*
X183489684Y-42448255D01*
X183353295Y-42499385D01*
X183236739Y-42586739D01*
X183149385Y-42703295D01*
X183098255Y-42839684D01*
X183091500Y-42901866D01*
X183091500Y-43660140D01*
X183071498Y-43728261D01*
X183017842Y-43774754D01*
X182947568Y-43784858D01*
X182882988Y-43755364D01*
X182876405Y-43749235D01*
X182546650Y-43419480D01*
X182540796Y-43413215D01*
X182540401Y-43412762D01*
X182502761Y-43369615D01*
X182450480Y-43332871D01*
X182445186Y-43328939D01*
X182400893Y-43294209D01*
X182394918Y-43289524D01*
X182388002Y-43286401D01*
X182385716Y-43285017D01*
X182371035Y-43276643D01*
X182368675Y-43275378D01*
X182362461Y-43271010D01*
X182355382Y-43268250D01*
X182355380Y-43268249D01*
X182302925Y-43247798D01*
X182296856Y-43245247D01*
X182238627Y-43218955D01*
X182231160Y-43217571D01*
X182228605Y-43216770D01*
X182212352Y-43212141D01*
X182209772Y-43211478D01*
X182202691Y-43208718D01*
X182195160Y-43207727D01*
X182195158Y-43207726D01*
X182163352Y-43203539D01*
X182139339Y-43200378D01*
X182132841Y-43199348D01*
X182070014Y-43187704D01*
X182062434Y-43188141D01*
X182062433Y-43188141D01*
X182007808Y-43191291D01*
X182000554Y-43191500D01*
X180104500Y-43191500D01*
X180036379Y-43171498D01*
X179989886Y-43117842D01*
X179978500Y-43065500D01*
X179978500Y-42168528D01*
X179988092Y-42120309D01*
X179989677Y-42116483D01*
X179989678Y-42116478D01*
X179992838Y-42108850D01*
X180004714Y-42018642D01*
X180007962Y-41993972D01*
X180007962Y-41993971D01*
X180008500Y-41989885D01*
X180008499Y-41710116D01*
X180006174Y-41692449D01*
X179993916Y-41599337D01*
X179993916Y-41599335D01*
X179992838Y-41591150D01*
X179931524Y-41443124D01*
X179926498Y-41436574D01*
X179839014Y-41322564D01*
X179839013Y-41322563D01*
X179833987Y-41316013D01*
X179827437Y-41310987D01*
X179827434Y-41310984D01*
X179770431Y-41267244D01*
X179706875Y-41218476D01*
X179558850Y-41157162D01*
X179550662Y-41156084D01*
X179443972Y-41142038D01*
X179443971Y-41142038D01*
X179439885Y-41141500D01*
X179278852Y-41141500D01*
X179278193Y-41141498D01*
X179192372Y-41141049D01*
X179192371Y-41141049D01*
X179187969Y-41141026D01*
X179186450Y-41141391D01*
X179184544Y-41141501D01*
X179100116Y-41141501D01*
X179096031Y-41142039D01*
X179096027Y-41142039D01*
X179026507Y-41151191D01*
X178981150Y-41157162D01*
X178979400Y-41157887D01*
X178920598Y-41157886D01*
X178918850Y-41157162D01*
X178910666Y-41156085D01*
X178910664Y-41156084D01*
X178803972Y-41142038D01*
X178803971Y-41142038D01*
X178799885Y-41141500D01*
X177722480Y-41141500D01*
X177654359Y-41121498D01*
X177633462Y-41104673D01*
X177534483Y-41005866D01*
X177529303Y-41000695D01*
X177523072Y-40996854D01*
X177384968Y-40911725D01*
X177384966Y-40911724D01*
X177378738Y-40907885D01*
X177218254Y-40854655D01*
X177217389Y-40854368D01*
X177217387Y-40854368D01*
X177210861Y-40852203D01*
X177204025Y-40851503D01*
X177204022Y-40851502D01*
X177160969Y-40847091D01*
X177106400Y-40841500D01*
X175505600Y-40841500D01*
X175502354Y-40841837D01*
X175502350Y-40841837D01*
X175406692Y-40851762D01*
X175406688Y-40851763D01*
X175399834Y-40852474D01*
X175393298Y-40854655D01*
X175393296Y-40854655D01*
X175261194Y-40898728D01*
X175232054Y-40908450D01*
X175081652Y-41001522D01*
X174956695Y-41126697D01*
X174952855Y-41132927D01*
X174952854Y-41132928D01*
X174924126Y-41179534D01*
X174886028Y-41215021D01*
X174887742Y-41217515D01*
X174882091Y-41221398D01*
X174864337Y-41231280D01*
X174862052Y-41232631D01*
X174855095Y-41235685D01*
X174849075Y-41240305D01*
X174849069Y-41240308D01*
X174817942Y-41264194D01*
X174804398Y-41274587D01*
X174799068Y-41278459D01*
X174752680Y-41310339D01*
X174752675Y-41310344D01*
X174746419Y-41314643D01*
X174741368Y-41320313D01*
X174741366Y-41320314D01*
X174704965Y-41361170D01*
X174699984Y-41366446D01*
X173661880Y-42404550D01*
X173655615Y-42410404D01*
X173612015Y-42448439D01*
X173578425Y-42496233D01*
X173575272Y-42500719D01*
X173571339Y-42506014D01*
X173531924Y-42556282D01*
X173528801Y-42563198D01*
X173527417Y-42565484D01*
X173519043Y-42580165D01*
X173517778Y-42582525D01*
X173513410Y-42588739D01*
X173510650Y-42595818D01*
X173510649Y-42595820D01*
X173490198Y-42648275D01*
X173487647Y-42654344D01*
X173461355Y-42712573D01*
X173459971Y-42720040D01*
X173459170Y-42722595D01*
X173454541Y-42738848D01*
X173453878Y-42741428D01*
X173451118Y-42748509D01*
X173450127Y-42756040D01*
X173450126Y-42756042D01*
X173442779Y-42811852D01*
X173441748Y-42818359D01*
X173430104Y-42881186D01*
X173430541Y-42888766D01*
X173430541Y-42888767D01*
X173433691Y-42943392D01*
X173433900Y-42950646D01*
X173433900Y-45415488D01*
X173433608Y-45424058D01*
X173430519Y-45469378D01*
X173429675Y-45481752D01*
X173430980Y-45489229D01*
X173430980Y-45489230D01*
X173440661Y-45544699D01*
X173441623Y-45551221D01*
X173449298Y-45614642D01*
X173451981Y-45621743D01*
X173452622Y-45624352D01*
X173457085Y-45640662D01*
X173457850Y-45643198D01*
X173459157Y-45650684D01*
X173462211Y-45657641D01*
X173484842Y-45709195D01*
X173487333Y-45715299D01*
X173509913Y-45775056D01*
X173514217Y-45781319D01*
X173515454Y-45783685D01*
X173523699Y-45798497D01*
X173525032Y-45800751D01*
X173528085Y-45807705D01*
X173532707Y-45813728D01*
X173566979Y-45858391D01*
X173570859Y-45863732D01*
X173602739Y-45910120D01*
X173602744Y-45910125D01*
X173607043Y-45916381D01*
X173612713Y-45921432D01*
X173612714Y-45921434D01*
X173653570Y-45957835D01*
X173658846Y-45962816D01*
X174569595Y-46873565D01*
X174603621Y-46935877D01*
X174606500Y-46962660D01*
X174606500Y-47266470D01*
X174586498Y-47334591D01*
X174574791Y-47349923D01*
X174569615Y-47354439D01*
X174565248Y-47360653D01*
X174532872Y-47406719D01*
X174528939Y-47412014D01*
X174489524Y-47462282D01*
X174486401Y-47469198D01*
X174485017Y-47471484D01*
X174476643Y-47486165D01*
X174475378Y-47488525D01*
X174471010Y-47494739D01*
X174468250Y-47501818D01*
X174468249Y-47501820D01*
X174447798Y-47554275D01*
X174445247Y-47560344D01*
X174418955Y-47618573D01*
X174417571Y-47626040D01*
X174416770Y-47628595D01*
X174412141Y-47644848D01*
X174411478Y-47647428D01*
X174408718Y-47654509D01*
X174407727Y-47662040D01*
X174407726Y-47662042D01*
X174400379Y-47717852D01*
X174399348Y-47724359D01*
X174387704Y-47787186D01*
X174388141Y-47794766D01*
X174388141Y-47794767D01*
X174391291Y-47849392D01*
X174391500Y-47856646D01*
X174391500Y-48254000D01*
X174371498Y-48322121D01*
X174317842Y-48368614D01*
X174265500Y-48380000D01*
X172673609Y-48380000D01*
X172605488Y-48359998D01*
X172558995Y-48306342D01*
X172547609Y-48253892D01*
X172557955Y-36209060D01*
X172578016Y-36140956D01*
X172631711Y-36094509D01*
X172683889Y-36083168D01*
X200045063Y-36068833D01*
X200113194Y-36088799D01*
G37*
%TD.AperFunction*%
%TA.AperFunction,Conductor*%
G36*
X178503621Y-42578502D02*
G01*
X178550114Y-42632158D01*
X178561500Y-42684500D01*
X178561500Y-43581472D01*
X178551908Y-43629691D01*
X178550323Y-43633517D01*
X178550322Y-43633522D01*
X178547162Y-43641150D01*
X178531500Y-43760115D01*
X178531501Y-44039884D01*
X178547162Y-44158850D01*
X178608476Y-44306876D01*
X178706013Y-44433987D01*
X178712563Y-44439013D01*
X178712566Y-44439016D01*
X178769569Y-44482755D01*
X178833125Y-44531524D01*
X178981150Y-44592838D01*
X179100115Y-44608500D01*
X179261238Y-44608500D01*
X179261898Y-44608502D01*
X179347628Y-44608951D01*
X179347629Y-44608951D01*
X179352031Y-44608974D01*
X179353548Y-44608610D01*
X179355450Y-44608500D01*
X180192007Y-44608500D01*
X180260128Y-44628502D01*
X180306621Y-44682158D01*
X180317317Y-44721329D01*
X180325995Y-44803891D01*
X180335458Y-44893928D01*
X180394473Y-45075556D01*
X180489960Y-45240944D01*
X180494378Y-45245851D01*
X180494379Y-45245852D01*
X180526979Y-45282058D01*
X180617747Y-45382866D01*
X180772248Y-45495118D01*
X180778276Y-45497802D01*
X180778278Y-45497803D01*
X180940681Y-45570109D01*
X180946712Y-45572794D01*
X181040113Y-45592647D01*
X181127056Y-45611128D01*
X181127061Y-45611128D01*
X181133513Y-45612500D01*
X181324487Y-45612500D01*
X181330939Y-45611128D01*
X181330944Y-45611128D01*
X181417887Y-45592647D01*
X181511288Y-45572794D01*
X181517319Y-45570109D01*
X181679722Y-45497803D01*
X181679724Y-45497802D01*
X181685752Y-45495118D01*
X181840253Y-45382866D01*
X181931021Y-45282058D01*
X181963621Y-45245852D01*
X181963622Y-45245851D01*
X181968040Y-45240944D01*
X182030932Y-45132012D01*
X182082315Y-45083019D01*
X182152028Y-45069583D01*
X182217939Y-45095969D01*
X182229146Y-45105916D01*
X182649699Y-45526470D01*
X183069765Y-45946536D01*
X183075618Y-45952801D01*
X183113639Y-45996385D01*
X183165929Y-46033136D01*
X183171171Y-46037028D01*
X183221482Y-46076476D01*
X183228401Y-46079600D01*
X183230693Y-46080988D01*
X183245365Y-46089357D01*
X183247725Y-46090622D01*
X183253939Y-46094990D01*
X183261018Y-46097750D01*
X183261020Y-46097751D01*
X183313475Y-46118202D01*
X183319544Y-46120753D01*
X183377773Y-46147045D01*
X183385246Y-46148430D01*
X183387812Y-46149234D01*
X183404035Y-46153855D01*
X183406627Y-46154520D01*
X183413709Y-46157282D01*
X183421244Y-46158274D01*
X183477061Y-46165622D01*
X183483577Y-46166654D01*
X183494611Y-46168699D01*
X183546386Y-46178295D01*
X183553966Y-46177858D01*
X183553967Y-46177858D01*
X183608580Y-46174709D01*
X183615833Y-46174500D01*
X184312340Y-46174500D01*
X184380461Y-46194502D01*
X184401435Y-46211405D01*
X184674595Y-46484565D01*
X184708621Y-46546877D01*
X184711500Y-46573660D01*
X184711500Y-48254000D01*
X184691498Y-48322121D01*
X184637842Y-48368614D01*
X184585500Y-48380000D01*
X182738095Y-48380000D01*
X182669974Y-48359998D01*
X182649000Y-48343095D01*
X181865405Y-47559500D01*
X181831379Y-47497188D01*
X181828500Y-47470405D01*
X181828500Y-46734600D01*
X181823314Y-46684619D01*
X181818238Y-46635692D01*
X181818237Y-46635688D01*
X181817526Y-46628834D01*
X181799119Y-46573660D01*
X181763868Y-46468002D01*
X181761550Y-46461054D01*
X181668478Y-46310652D01*
X181543303Y-46185695D01*
X181526271Y-46175196D01*
X181398968Y-46096725D01*
X181398966Y-46096724D01*
X181392738Y-46092885D01*
X181232254Y-46039655D01*
X181231389Y-46039368D01*
X181231387Y-46039368D01*
X181224861Y-46037203D01*
X181218025Y-46036503D01*
X181218022Y-46036502D01*
X181174969Y-46032091D01*
X181120400Y-46026500D01*
X180119600Y-46026500D01*
X180116354Y-46026837D01*
X180116350Y-46026837D01*
X180020692Y-46036762D01*
X180020688Y-46036763D01*
X180013834Y-46037474D01*
X180007298Y-46039655D01*
X180007296Y-46039655D01*
X179910968Y-46071793D01*
X179846054Y-46093450D01*
X179695652Y-46186522D01*
X179692180Y-46190000D01*
X179627286Y-46216265D01*
X179557522Y-46203093D01*
X179525817Y-46180055D01*
X179443488Y-46097870D01*
X179443483Y-46097866D01*
X179438303Y-46092695D01*
X179351791Y-46039368D01*
X179293968Y-46003725D01*
X179293966Y-46003724D01*
X179287738Y-45999885D01*
X179175978Y-45962816D01*
X179126389Y-45946368D01*
X179126387Y-45946368D01*
X179119861Y-45944203D01*
X179113025Y-45943503D01*
X179113022Y-45943502D01*
X179069969Y-45939091D01*
X179015400Y-45933500D01*
X178014600Y-45933500D01*
X178011354Y-45933837D01*
X178011350Y-45933837D01*
X177915692Y-45943762D01*
X177915688Y-45943763D01*
X177908834Y-45944474D01*
X177902298Y-45946655D01*
X177902296Y-45946655D01*
X177853856Y-45962816D01*
X177741054Y-46000450D01*
X177590652Y-46093522D01*
X177465695Y-46218697D01*
X177461855Y-46224927D01*
X177461854Y-46224928D01*
X177412202Y-46305479D01*
X177372885Y-46369262D01*
X177370581Y-46376209D01*
X177344506Y-46454824D01*
X177317203Y-46537139D01*
X177306500Y-46641600D01*
X177306500Y-47477120D01*
X177286498Y-47545241D01*
X177269595Y-47566215D01*
X177238595Y-47597215D01*
X177176283Y-47631241D01*
X177105468Y-47626176D01*
X177048632Y-47583629D01*
X177023821Y-47517109D01*
X177023500Y-47508120D01*
X177023500Y-46641600D01*
X177022887Y-46635692D01*
X177013238Y-46542692D01*
X177013237Y-46542688D01*
X177012526Y-46535834D01*
X177009507Y-46526783D01*
X176958868Y-46375002D01*
X176956550Y-46368054D01*
X176863478Y-46217652D01*
X176738303Y-46092695D01*
X176651791Y-46039368D01*
X176593968Y-46003725D01*
X176593966Y-46003724D01*
X176587738Y-45999885D01*
X176475978Y-45962816D01*
X176426389Y-45946368D01*
X176426387Y-45946368D01*
X176419861Y-45944203D01*
X176413025Y-45943503D01*
X176413022Y-45943502D01*
X176369969Y-45939091D01*
X176315400Y-45933500D01*
X175685662Y-45933500D01*
X175617541Y-45913498D01*
X175596567Y-45896596D01*
X174887805Y-45187835D01*
X174853780Y-45125522D01*
X174850900Y-45098739D01*
X174850900Y-43271660D01*
X174870902Y-43203539D01*
X174887805Y-43182565D01*
X175212076Y-42858294D01*
X175274388Y-42824268D01*
X175340838Y-42827796D01*
X175401139Y-42847797D01*
X175407972Y-42848497D01*
X175407976Y-42848498D01*
X175463852Y-42854222D01*
X175505600Y-42858500D01*
X177106400Y-42858500D01*
X177109646Y-42858163D01*
X177109650Y-42858163D01*
X177205308Y-42848238D01*
X177205312Y-42848237D01*
X177212166Y-42847526D01*
X177218702Y-42845345D01*
X177218704Y-42845345D01*
X177372998Y-42793868D01*
X177379946Y-42791550D01*
X177530348Y-42698478D01*
X177580464Y-42648275D01*
X177633165Y-42595482D01*
X177695448Y-42561403D01*
X177722338Y-42558500D01*
X178435500Y-42558500D01*
X178503621Y-42578502D01*
G37*
%TD.AperFunction*%
%TD*%
M02*
