%TF.GenerationSoftware,KiCad,Pcbnew,(6.0.5)*%
%TF.CreationDate,2022-07-13T16:28:14-04:00*%
%TF.ProjectId,torque_motor_design,746f7271-7565-45f6-9d6f-746f725f6465,rev?*%
%TF.SameCoordinates,Original*%
%TF.FileFunction,Copper,L1,Top*%
%TF.FilePolarity,Positive*%
%FSLAX46Y46*%
G04 Gerber Fmt 4.6, Leading zero omitted, Abs format (unit mm)*
G04 Created by KiCad (PCBNEW (6.0.5)) date 2022-07-13 16:28:14*
%MOMM*%
%LPD*%
G01*
G04 APERTURE LIST*
G04 Aperture macros list*
%AMRoundRect*
0 Rectangle with rounded corners*
0 $1 Rounding radius*
0 $2 $3 $4 $5 $6 $7 $8 $9 X,Y pos of 4 corners*
0 Add a 4 corners polygon primitive as box body*
4,1,4,$2,$3,$4,$5,$6,$7,$8,$9,$2,$3,0*
0 Add four circle primitives for the rounded corners*
1,1,$1+$1,$2,$3*
1,1,$1+$1,$4,$5*
1,1,$1+$1,$6,$7*
1,1,$1+$1,$8,$9*
0 Add four rect primitives between the rounded corners*
20,1,$1+$1,$2,$3,$4,$5,0*
20,1,$1+$1,$4,$5,$6,$7,0*
20,1,$1+$1,$6,$7,$8,$9,0*
20,1,$1+$1,$8,$9,$2,$3,0*%
G04 Aperture macros list end*
%TA.AperFunction,SMDPad,CuDef*%
%ADD10R,1.300000X1.600000*%
%TD*%
%TA.AperFunction,SMDPad,CuDef*%
%ADD11R,2.000000X1.600000*%
%TD*%
%TA.AperFunction,SMDPad,CuDef*%
%ADD12RoundRect,0.100000X0.100000X-0.130000X0.100000X0.130000X-0.100000X0.130000X-0.100000X-0.130000X0*%
%TD*%
%TA.AperFunction,SMDPad,CuDef*%
%ADD13RoundRect,0.250000X0.425000X-0.450000X0.425000X0.450000X-0.425000X0.450000X-0.425000X-0.450000X0*%
%TD*%
%TA.AperFunction,SMDPad,CuDef*%
%ADD14RoundRect,0.250000X0.450000X0.425000X-0.450000X0.425000X-0.450000X-0.425000X0.450000X-0.425000X0*%
%TD*%
%TA.AperFunction,SMDPad,CuDef*%
%ADD15RoundRect,0.100000X-0.100000X0.130000X-0.100000X-0.130000X0.100000X-0.130000X0.100000X0.130000X0*%
%TD*%
%TA.AperFunction,SMDPad,CuDef*%
%ADD16RoundRect,0.100000X0.130000X0.100000X-0.130000X0.100000X-0.130000X-0.100000X0.130000X-0.100000X0*%
%TD*%
%TA.AperFunction,SMDPad,CuDef*%
%ADD17R,0.800000X4.600000*%
%TD*%
%TA.AperFunction,SMDPad,CuDef*%
%ADD18R,10.800000X9.400000*%
%TD*%
%TA.AperFunction,SMDPad,CuDef*%
%ADD19RoundRect,0.250000X0.250000X0.750000X-0.250000X0.750000X-0.250000X-0.750000X0.250000X-0.750000X0*%
%TD*%
%TA.AperFunction,SMDPad,CuDef*%
%ADD20RoundRect,0.100000X-0.130000X-0.100000X0.130000X-0.100000X0.130000X0.100000X-0.130000X0.100000X0*%
%TD*%
%TA.AperFunction,SMDPad,CuDef*%
%ADD21R,1.200000X0.900000*%
%TD*%
%TA.AperFunction,SMDPad,CuDef*%
%ADD22RoundRect,0.250000X-0.450000X-0.425000X0.450000X-0.425000X0.450000X0.425000X-0.450000X0.425000X0*%
%TD*%
%TA.AperFunction,SMDPad,CuDef*%
%ADD23RoundRect,0.250000X-0.425000X0.450000X-0.425000X-0.450000X0.425000X-0.450000X0.425000X0.450000X0*%
%TD*%
%TA.AperFunction,SMDPad,CuDef*%
%ADD24R,0.900000X1.200000*%
%TD*%
%TA.AperFunction,SMDPad,CuDef*%
%ADD25RoundRect,0.250000X0.750000X-0.250000X0.750000X0.250000X-0.750000X0.250000X-0.750000X-0.250000X0*%
%TD*%
%TA.AperFunction,SMDPad,CuDef*%
%ADD26RoundRect,0.200000X-0.275000X0.200000X-0.275000X-0.200000X0.275000X-0.200000X0.275000X0.200000X0*%
%TD*%
%TA.AperFunction,ComponentPad*%
%ADD27R,0.850000X0.850000*%
%TD*%
%TA.AperFunction,ComponentPad*%
%ADD28O,0.850000X0.850000*%
%TD*%
%TA.AperFunction,ViaPad*%
%ADD29C,0.800000*%
%TD*%
%TA.AperFunction,Conductor*%
%ADD30C,0.400000*%
%TD*%
%TA.AperFunction,Conductor*%
%ADD31C,0.250000*%
%TD*%
G04 APERTURE END LIST*
D10*
%TO.P,RV1,1,1*%
%TO.N,GND*%
X184250000Y-43750000D03*
D11*
%TO.P,RV1,2,2*%
X185500000Y-40850000D03*
D10*
%TO.P,RV1,3,3*%
%TO.N,Net-(R1-Pad2)*%
X186750000Y-43750000D03*
%TD*%
D12*
%TO.P,C8,1*%
%TO.N,+V*%
X179250000Y-52743000D03*
%TO.P,C8,2*%
%TO.N,GND*%
X179250000Y-52103000D03*
%TD*%
D13*
%TO.P,C6,1*%
%TO.N,+V*%
X177673000Y-52277000D03*
%TO.P,C6,2*%
%TO.N,GND*%
X177673000Y-49577000D03*
%TD*%
D14*
%TO.P,C10,1*%
%TO.N,-V*%
X183214000Y-47117000D03*
%TO.P,C10,2*%
%TO.N,GND*%
X180514000Y-47117000D03*
%TD*%
D15*
%TO.P,C7,1*%
%TO.N,+V*%
X195250000Y-54980000D03*
%TO.P,C7,2*%
%TO.N,GND*%
X195250000Y-55620000D03*
%TD*%
D16*
%TO.P,R6,1*%
%TO.N,Net-(R5-Pad2)*%
X179270000Y-43900000D03*
%TO.P,R6,2*%
%TO.N,-V*%
X178630000Y-43900000D03*
%TD*%
D17*
%TO.P,U3,1,+*%
%TO.N,Net-(R1-Pad2)*%
X190190000Y-51475000D03*
%TO.P,U3,2,-*%
%TO.N,Net-(Motor-1-Pad1)*%
X191460000Y-51475000D03*
%TO.P,U3,3*%
%TO.N,-V*%
X192730000Y-51475000D03*
%TO.P,U3,4,V+*%
X194000000Y-51475000D03*
%TO.P,U3,5,V-*%
%TO.N,+V*%
X195270000Y-51475000D03*
%TO.P,U3,6*%
%TO.N,Net-(D1-Pad2)*%
X196540000Y-51475000D03*
%TO.P,U3,7*%
%TO.N,N/C*%
X197810000Y-51475000D03*
D18*
%TO.P,U3,8*%
%TO.N,-V*%
X194000000Y-42325000D03*
%TD*%
D19*
%TO.P,Motor+1,1,Pin_1*%
%TO.N,Net-(D1-Pad2)*%
X192050000Y-65600000D03*
%TD*%
D15*
%TO.P,C5,1*%
%TO.N,-V*%
X192750000Y-54980000D03*
%TO.P,C5,2*%
%TO.N,GND*%
X192750000Y-55620000D03*
%TD*%
D20*
%TO.P,R5,1*%
%TO.N,+V*%
X178630000Y-41850000D03*
%TO.P,R5,2*%
%TO.N,Net-(R5-Pad2)*%
X179270000Y-41850000D03*
%TD*%
D21*
%TO.P,D7,1,K*%
%TO.N,GND*%
X196750000Y-66300000D03*
%TO.P,D7,2,A*%
%TO.N,-V*%
X196750000Y-69600000D03*
%TD*%
D22*
%TO.P,C9,1*%
%TO.N,+V*%
X175815000Y-47117000D03*
%TO.P,C9,2*%
%TO.N,GND*%
X178515000Y-47117000D03*
%TD*%
D17*
%TO.P,U2,1,+*%
%TO.N,Net-(R5-Pad2)*%
X184310000Y-56225000D03*
%TO.P,U2,2,-*%
%TO.N,GND*%
X183040000Y-56225000D03*
%TO.P,U2,3*%
%TO.N,-V*%
X181770000Y-56225000D03*
%TO.P,U2,4,V+*%
X180500000Y-56225000D03*
%TO.P,U2,5,V-*%
%TO.N,+V*%
X179230000Y-56225000D03*
%TO.P,U2,6*%
%TO.N,GND*%
X177960000Y-56225000D03*
%TO.P,U2,7*%
%TO.N,N/C*%
X176690000Y-56225000D03*
D18*
%TO.P,U2,8*%
%TO.N,-V*%
X180500000Y-65375000D03*
%TD*%
D13*
%TO.P,C4,1*%
%TO.N,GND*%
X191008000Y-58246000D03*
%TO.P,C4,2*%
%TO.N,-V*%
X191008000Y-55546000D03*
%TD*%
D23*
%TO.P,C12,1*%
%TO.N,+V*%
X196850000Y-55546000D03*
%TO.P,C12,2*%
%TO.N,GND*%
X196850000Y-58246000D03*
%TD*%
D24*
%TO.P,D1,1,K*%
%TO.N,+V*%
X190850000Y-61600000D03*
%TO.P,D1,2,A*%
%TO.N,Net-(D1-Pad2)*%
X194150000Y-61600000D03*
%TD*%
D25*
%TO.P,External_(-6V)1,1,Pin_1*%
%TO.N,-V*%
X176306000Y-43894000D03*
%TD*%
%TO.P,External_(+6V)1,1,Pin_1*%
%TO.N,+V*%
X176306000Y-41850000D03*
%TD*%
D19*
%TO.P,Motor-1,1,Pin_1*%
%TO.N,Net-(Motor-1-Pad1)*%
X190000000Y-65600000D03*
%TD*%
D26*
%TO.P,R1,1*%
%TO.N,Torque_mode_jumper*%
X187400000Y-45675000D03*
%TO.P,R1,2*%
%TO.N,Net-(R1-Pad2)*%
X187400000Y-47325000D03*
%TD*%
D12*
%TO.P,C11,1*%
%TO.N,-V*%
X180500000Y-53020000D03*
%TO.P,C11,2*%
%TO.N,GND*%
X180500000Y-52380000D03*
%TD*%
D21*
%TO.P,D5,1,K*%
%TO.N,Net-(D1-Pad2)*%
X196800000Y-61200000D03*
%TO.P,D5,2,A*%
%TO.N,-V*%
X196800000Y-64500000D03*
%TD*%
D23*
%TO.P,C3,1*%
%TO.N,GND*%
X182626000Y-49704000D03*
%TO.P,C3,2*%
%TO.N,-V*%
X182626000Y-52404000D03*
%TD*%
D24*
%TO.P,D6,1,K*%
%TO.N,+V*%
X194400000Y-69150000D03*
%TO.P,D6,2,A*%
%TO.N,GND*%
X191100000Y-69150000D03*
%TD*%
D27*
%TO.P,Current_Sense,1*%
%TO.N,current_sense*%
X180340000Y-40259000D03*
%TD*%
%TO.P,ONEV_2,1*%
%TO.N,VCC_MCU_5V*%
X187200000Y-53850000D03*
D28*
%TO.P,ONEV_2,2*%
%TO.N,GND*%
X187200000Y-54850000D03*
%TO.P,ONEV_2,3*%
%TO.N,unconnected-(U1-Pad1)*%
X187200000Y-55850000D03*
%TO.P,ONEV_2,4*%
%TO.N,RX_Serial*%
X187200000Y-56850000D03*
%TO.P,ONEV_2,5*%
%TO.N,TX_Serial*%
X187200000Y-57850000D03*
%TO.P,ONEV_2,6*%
%TO.N,Torque_mode_jumper*%
X187200000Y-58850000D03*
%TD*%
D29*
%TO.N,+V*%
X175100000Y-52450000D03*
X179250000Y-56600000D03*
X174300000Y-57900000D03*
X175600000Y-55400000D03*
X178200000Y-42900000D03*
X190200000Y-63300000D03*
%TO.N,-V*%
X176025500Y-48681601D03*
X189850000Y-59850000D03*
X198450000Y-69550000D03*
X175200000Y-57400000D03*
X200100000Y-60000000D03*
X200100000Y-47700000D03*
X180500000Y-56225000D03*
%TO.N,VCC_MCU_5V*%
X187108500Y-42164000D03*
X186722818Y-38423686D03*
X183261000Y-41910000D03*
X190090000Y-36190000D03*
%TO.N,Torque_Mode*%
X185550000Y-55626000D03*
X185600000Y-51700000D03*
%TO.N,GND*%
X191516000Y-59309000D03*
X179533221Y-45016580D03*
X187150000Y-52400000D03*
X181229000Y-44704000D03*
X187120000Y-61350000D03*
X194500000Y-58500000D03*
%TO.N,Net-(Motor-1-Pad1)*%
X187260000Y-67270000D03*
%TO.N,Torque_mode_jumper*%
X187833000Y-37846000D03*
%TO.N,current_sense*%
X180213000Y-42899989D03*
%TO.N,unconnected-(U1-Pad2)*%
X174244000Y-40386000D03*
X185293000Y-38989000D03*
%TD*%
D30*
%TO.N,+V*%
X195250000Y-54980000D02*
X194953573Y-54980000D01*
X190850000Y-61600000D02*
X190850000Y-62650000D01*
X178270000Y-53300000D02*
X178693000Y-53300000D01*
X193350000Y-59100000D02*
X190850000Y-61600000D01*
X193681441Y-69150000D02*
X194400000Y-69150000D01*
X196284000Y-54980000D02*
X196850000Y-55546000D01*
X195270000Y-51475000D02*
X195270000Y-54960000D01*
X175100000Y-47832000D02*
X175815000Y-47117000D01*
X174906480Y-43249520D02*
X176306000Y-41850000D01*
X175100000Y-52450000D02*
X175100000Y-47832000D01*
X177673000Y-52703000D02*
X178270000Y-53300000D01*
X193350000Y-56583573D02*
X193350000Y-59100000D01*
X179230000Y-56225000D02*
X179230000Y-53837000D01*
D31*
X177356000Y-42900000D02*
X176306000Y-41850000D01*
D30*
X178693000Y-53300000D02*
X179250000Y-52743000D01*
X178630000Y-41850000D02*
X176306000Y-41850000D01*
X195250000Y-54980000D02*
X196284000Y-54980000D01*
X178139000Y-52743000D02*
X177673000Y-52277000D01*
D31*
X178200000Y-42900000D02*
X177356000Y-42900000D01*
D30*
X191150480Y-64831921D02*
X191150480Y-66619039D01*
X175815000Y-47117000D02*
X174906480Y-46208480D01*
X190850000Y-62650000D02*
X190200000Y-63300000D01*
X190200000Y-63881441D02*
X191150480Y-64831921D01*
X190200000Y-63300000D02*
X190200000Y-63881441D01*
X194953573Y-54980000D02*
X193350000Y-56583573D01*
X179230000Y-53837000D02*
X178693000Y-53300000D01*
X179250000Y-56600000D02*
X179250000Y-56245000D01*
X195270000Y-54960000D02*
X195250000Y-54980000D01*
X179250000Y-56245000D02*
X179230000Y-56225000D01*
X174906480Y-46208480D02*
X174906480Y-43249520D01*
X174300000Y-56700000D02*
X175600000Y-55400000D01*
X191150480Y-66619039D02*
X193681441Y-69150000D01*
X174300000Y-57900000D02*
X174300000Y-56700000D01*
X177673000Y-52277000D02*
X177673000Y-52703000D01*
%TO.N,-V*%
X183214000Y-47117000D02*
X182139480Y-46042480D01*
D31*
X189850000Y-56149000D02*
X189850000Y-59850000D01*
X198400000Y-69600000D02*
X198450000Y-69550000D01*
D30*
X182139480Y-46042480D02*
X178454480Y-46042480D01*
D31*
X191574000Y-54980000D02*
X191008000Y-55546000D01*
X200100000Y-47700000D02*
X200100000Y-60000000D01*
X200100000Y-47700000D02*
X199375000Y-47700000D01*
D30*
X180500000Y-65000000D02*
X180500000Y-65375000D01*
X177150000Y-44738000D02*
X176306000Y-43894000D01*
X182010000Y-53020000D02*
X182626000Y-52404000D01*
X177150000Y-47839931D02*
X177150000Y-44738000D01*
X178630000Y-43900000D02*
X176312000Y-43900000D01*
D31*
X192730000Y-51475000D02*
X194000000Y-51475000D01*
D30*
X194000000Y-42325000D02*
X194000000Y-51475000D01*
D31*
X191008000Y-55546000D02*
X190453000Y-55546000D01*
D30*
X176025500Y-48681601D02*
X176308330Y-48681601D01*
D31*
X192750000Y-54980000D02*
X191574000Y-54980000D01*
D30*
X180500000Y-53020000D02*
X180500000Y-56225000D01*
X181770000Y-56225000D02*
X180500000Y-56225000D01*
X175200000Y-59700000D02*
X180500000Y-65000000D01*
X180500000Y-53020000D02*
X182010000Y-53020000D01*
X175200000Y-57400000D02*
X175200000Y-59700000D01*
X178454480Y-46042480D02*
X176306000Y-43894000D01*
X195270000Y-43595000D02*
X194000000Y-42325000D01*
D31*
X200100000Y-60000000D02*
X196800000Y-63300000D01*
X196800000Y-63300000D02*
X196800000Y-64500000D01*
X199375000Y-47700000D02*
X194000000Y-42325000D01*
X190453000Y-55546000D02*
X189850000Y-56149000D01*
X194000000Y-53730000D02*
X192750000Y-54980000D01*
X196750000Y-69600000D02*
X198400000Y-69600000D01*
X194000000Y-51475000D02*
X194000000Y-53730000D01*
D30*
X176312000Y-43900000D02*
X176306000Y-43894000D01*
X176308330Y-48681601D02*
X177150000Y-47839931D01*
D31*
%TO.N,VCC_MCU_5V*%
X183261000Y-40639978D02*
X184175489Y-39725489D01*
X190090000Y-36190000D02*
X188535096Y-36190000D01*
X186664489Y-39725489D02*
X187108500Y-40169500D01*
X183261000Y-41910000D02*
X183261000Y-40639978D01*
X187108500Y-40169500D02*
X187108500Y-42164000D01*
X188535096Y-36190000D02*
X186722818Y-38002278D01*
X186722818Y-38002278D02*
X186722818Y-38423686D01*
X184175489Y-39725489D02*
X186664489Y-39725489D01*
%TO.N,Torque_Mode*%
X185550000Y-55626000D02*
X185550000Y-51750000D01*
X185550000Y-51750000D02*
X185600000Y-51700000D01*
%TO.N,Net-(R1-Pad2)*%
X190190000Y-51475000D02*
X190190000Y-50115000D01*
X187400000Y-47325000D02*
X186600480Y-46525480D01*
X186600480Y-46525480D02*
X186600480Y-43899520D01*
X190190000Y-50115000D02*
X187400000Y-47325000D01*
X186600480Y-43899520D02*
X186750000Y-43750000D01*
D30*
%TO.N,Net-(R5-Pad2)*%
X184350000Y-46225441D02*
X184350000Y-56185000D01*
X179270000Y-43900000D02*
X182024559Y-43900000D01*
X179270000Y-41850000D02*
X179270000Y-43900000D01*
X184350000Y-56185000D02*
X184310000Y-56225000D01*
X182024559Y-43900000D02*
X184350000Y-46225441D01*
D31*
%TO.N,GND*%
X187820000Y-54850000D02*
X187200000Y-54850000D01*
X177960000Y-56225000D02*
X177960000Y-54325000D01*
X180514000Y-47117000D02*
X180514000Y-47592000D01*
X187949511Y-54500489D02*
X187600000Y-54850000D01*
X194625000Y-58375000D02*
X194500000Y-58500000D01*
X177960000Y-58125000D02*
X177960000Y-56225000D01*
D30*
X179250000Y-51154000D02*
X179250000Y-52103000D01*
D31*
X184250000Y-43750000D02*
X184250000Y-44810717D01*
X183040000Y-58125000D02*
X182315000Y-58850000D01*
D30*
X173200000Y-55480680D02*
X175899511Y-52781169D01*
D31*
X187949511Y-53199511D02*
X187949511Y-54500489D01*
X180500000Y-52380000D02*
X180500000Y-47131000D01*
X184250000Y-44810717D02*
X186450489Y-47011206D01*
X180514000Y-47117000D02*
X178515000Y-47117000D01*
X176673480Y-53038480D02*
X176673480Y-49058235D01*
X176673480Y-49058235D02*
X178515000Y-47216715D01*
X184250000Y-42100000D02*
X185500000Y-40850000D01*
D30*
X195300000Y-67750000D02*
X195300000Y-70099022D01*
D31*
X180916420Y-45016580D02*
X181229000Y-44704000D01*
X186450489Y-55099022D02*
X186699511Y-54850000D01*
X186699511Y-54850000D02*
X187200000Y-54850000D01*
X186450489Y-54650489D02*
X186650000Y-54850000D01*
X186650000Y-54850000D02*
X187200000Y-54850000D01*
X186450489Y-57249511D02*
X186450489Y-55099022D01*
X182315000Y-58850000D02*
X178685000Y-58850000D01*
X179533221Y-45016580D02*
X180916420Y-45016580D01*
X188140000Y-60330000D02*
X188140000Y-55170000D01*
D30*
X195250000Y-57750000D02*
X194500000Y-58500000D01*
X188200000Y-72050000D02*
X191100000Y-69150000D01*
D31*
X184250000Y-43750000D02*
X184250000Y-42100000D01*
X180514000Y-47592000D02*
X182626000Y-49704000D01*
D30*
X196750000Y-66300000D02*
X195300000Y-67750000D01*
X196850000Y-58246000D02*
X194754000Y-58246000D01*
D31*
X187600000Y-54850000D02*
X187200000Y-54850000D01*
D30*
X173200000Y-72050000D02*
X188200000Y-72050000D01*
D31*
X178685000Y-58850000D02*
X177960000Y-58125000D01*
X183764511Y-58849511D02*
X184850489Y-58849511D01*
D30*
X195199022Y-70200000D02*
X192150000Y-70200000D01*
X192150000Y-70200000D02*
X191100000Y-69150000D01*
X194754000Y-58246000D02*
X194500000Y-58500000D01*
D31*
X186450489Y-47011206D02*
X186450489Y-54650489D01*
X178515000Y-47216715D02*
X178515000Y-47117000D01*
D30*
X195250000Y-55620000D02*
X195250000Y-57750000D01*
D31*
X187150000Y-52400000D02*
X187949511Y-53199511D01*
D30*
X175899511Y-52781169D02*
X175899511Y-51350489D01*
D31*
X183040000Y-56225000D02*
X183040000Y-58125000D01*
D30*
X173200000Y-55480680D02*
X173200000Y-72050000D01*
X177673000Y-49577000D02*
X179250000Y-51154000D01*
D31*
X191516000Y-59309000D02*
X191516000Y-58754000D01*
X188140000Y-55170000D02*
X187820000Y-54850000D01*
X187120000Y-61350000D02*
X188140000Y-60330000D01*
X177960000Y-54325000D02*
X176673480Y-53038480D01*
X184850489Y-58849511D02*
X186450489Y-57249511D01*
D30*
X175899511Y-51350489D02*
X177673000Y-49577000D01*
X192750000Y-56504000D02*
X191008000Y-58246000D01*
X195300000Y-70099022D02*
X195199022Y-70200000D01*
D31*
X183040000Y-58125000D02*
X183764511Y-58849511D01*
X191516000Y-58754000D02*
X191008000Y-58246000D01*
D30*
X192750000Y-55620000D02*
X192750000Y-56504000D01*
D31*
X180500000Y-47131000D02*
X180514000Y-47117000D01*
D30*
%TO.N,Net-(Motor-1-Pad1)*%
X191460000Y-51475000D02*
X191460000Y-53704022D01*
X189000000Y-65530000D02*
X187260000Y-67270000D01*
X190506930Y-54174511D02*
X189000000Y-55681441D01*
X187260000Y-67270000D02*
X188330000Y-67270000D01*
X190989511Y-54174511D02*
X190506930Y-54174511D01*
X189000000Y-55681441D02*
X189000000Y-65530000D01*
X188330000Y-67270000D02*
X190000000Y-65600000D01*
X191460000Y-53704022D02*
X190989511Y-54174511D01*
%TO.N,Net-(D1-Pad2)*%
X196540000Y-51475000D02*
X196540000Y-54175000D01*
X194150000Y-61600000D02*
X194150000Y-63500000D01*
X196400000Y-61600000D02*
X196800000Y-61200000D01*
X194150000Y-63500000D02*
X192050000Y-65600000D01*
X198150000Y-54831441D02*
X198150000Y-59850000D01*
X198150000Y-59850000D02*
X196800000Y-61200000D01*
X197493559Y-54175000D02*
X198150000Y-54831441D01*
X196540000Y-54175000D02*
X197493559Y-54175000D01*
X194150000Y-61600000D02*
X196400000Y-61600000D01*
D31*
%TO.N,Torque_mode_jumper*%
X187833000Y-45242000D02*
X187833000Y-37846000D01*
X187400000Y-45675000D02*
X187833000Y-45242000D01*
%TO.N,current_sense*%
X180340000Y-40259000D02*
X180340000Y-42772989D01*
X180340000Y-42772989D02*
X180213000Y-42899989D01*
%TO.N,unconnected-(U1-Pad2)*%
X175641000Y-38989000D02*
X174244000Y-40386000D01*
X185293000Y-38989000D02*
X175641000Y-38989000D01*
%TD*%
%TA.AperFunction,Conductor*%
%TO.N,-V*%
G36*
X200093621Y-59180002D02*
G01*
X200140114Y-59233658D01*
X200151500Y-59286000D01*
X200151500Y-71256625D01*
X200150000Y-71276009D01*
X200146309Y-71299716D01*
X200147474Y-71308621D01*
X200147751Y-71310744D01*
X200148207Y-71339427D01*
X200138085Y-71442204D01*
X200133267Y-71466429D01*
X200097139Y-71585534D01*
X200087686Y-71608355D01*
X200029019Y-71718115D01*
X200015298Y-71738652D01*
X199958118Y-71808327D01*
X199936338Y-71834866D01*
X199918873Y-71852331D01*
X199862912Y-71898257D01*
X199822662Y-71931289D01*
X199802126Y-71945010D01*
X199692356Y-72003685D01*
X199669542Y-72013136D01*
X199550435Y-72049266D01*
X199526212Y-72054084D01*
X199430243Y-72063536D01*
X199414132Y-72063084D01*
X199414123Y-72063787D01*
X199405147Y-72063677D01*
X199396276Y-72062296D01*
X199387374Y-72063460D01*
X199387372Y-72063460D01*
X199372323Y-72065428D01*
X199364714Y-72066423D01*
X199348379Y-72067487D01*
X189488673Y-72067487D01*
X189420552Y-72047485D01*
X189374059Y-71993829D01*
X189363955Y-71923555D01*
X189393449Y-71858975D01*
X189399578Y-71852392D01*
X190956566Y-70295405D01*
X191018878Y-70261379D01*
X191045661Y-70258500D01*
X191154339Y-70258500D01*
X191222460Y-70278502D01*
X191243434Y-70295405D01*
X191628557Y-70680528D01*
X191634411Y-70686793D01*
X191672439Y-70730385D01*
X191724729Y-70767136D01*
X191729971Y-70771028D01*
X191780282Y-70810476D01*
X191787201Y-70813600D01*
X191789493Y-70814988D01*
X191804165Y-70823357D01*
X191806525Y-70824622D01*
X191812739Y-70828990D01*
X191819818Y-70831750D01*
X191819820Y-70831751D01*
X191872275Y-70852202D01*
X191878344Y-70854753D01*
X191936573Y-70881045D01*
X191944046Y-70882430D01*
X191946612Y-70883234D01*
X191962835Y-70887855D01*
X191965427Y-70888520D01*
X191972509Y-70891282D01*
X191980044Y-70892274D01*
X192035861Y-70899622D01*
X192042377Y-70900654D01*
X192080770Y-70907770D01*
X192105186Y-70912295D01*
X192112766Y-70911858D01*
X192112767Y-70911858D01*
X192167380Y-70908709D01*
X192174633Y-70908500D01*
X195170110Y-70908500D01*
X195178680Y-70908792D01*
X195228798Y-70912209D01*
X195228802Y-70912209D01*
X195236374Y-70912725D01*
X195243851Y-70911420D01*
X195243852Y-70911420D01*
X195270330Y-70906799D01*
X195299325Y-70901738D01*
X195305843Y-70900777D01*
X195369264Y-70893102D01*
X195376365Y-70890419D01*
X195378974Y-70889778D01*
X195395284Y-70885315D01*
X195397820Y-70884550D01*
X195405306Y-70883243D01*
X195463822Y-70857556D01*
X195469926Y-70855065D01*
X195522570Y-70835173D01*
X195522571Y-70835172D01*
X195529678Y-70832487D01*
X195535941Y-70828183D01*
X195538307Y-70826946D01*
X195553119Y-70818701D01*
X195555373Y-70817368D01*
X195562327Y-70814315D01*
X195613024Y-70775413D01*
X195618354Y-70771541D01*
X195664742Y-70739661D01*
X195664747Y-70739656D01*
X195671003Y-70735357D01*
X195712456Y-70688831D01*
X195717437Y-70683555D01*
X195780542Y-70620451D01*
X195786807Y-70614599D01*
X195824658Y-70581579D01*
X195830385Y-70576583D01*
X195867136Y-70524293D01*
X195871028Y-70519051D01*
X195910476Y-70468740D01*
X195913600Y-70461821D01*
X195914988Y-70459529D01*
X195923357Y-70444857D01*
X195924622Y-70442497D01*
X195928990Y-70436283D01*
X195952203Y-70376745D01*
X195954759Y-70370664D01*
X195977918Y-70319374D01*
X195981045Y-70312449D01*
X195982430Y-70304976D01*
X195983234Y-70302410D01*
X195987855Y-70286187D01*
X195988520Y-70283595D01*
X195991282Y-70276513D01*
X195999622Y-70213161D01*
X196000654Y-70206645D01*
X196010911Y-70151303D01*
X196012295Y-70143836D01*
X196008709Y-70081642D01*
X196008500Y-70074389D01*
X196008500Y-68095660D01*
X196028502Y-68027539D01*
X196045405Y-68006565D01*
X196756565Y-67295405D01*
X196818877Y-67261379D01*
X196845660Y-67258500D01*
X197398134Y-67258500D01*
X197460316Y-67251745D01*
X197596705Y-67200615D01*
X197713261Y-67113261D01*
X197800615Y-66996705D01*
X197851745Y-66860316D01*
X197858500Y-66798134D01*
X197858500Y-65801866D01*
X197851745Y-65739684D01*
X197800615Y-65603295D01*
X197713261Y-65486739D01*
X197596705Y-65399385D01*
X197460316Y-65348255D01*
X197398134Y-65341500D01*
X196101866Y-65341500D01*
X196039684Y-65348255D01*
X195903295Y-65399385D01*
X195786739Y-65486739D01*
X195699385Y-65603295D01*
X195648255Y-65739684D01*
X195641500Y-65801866D01*
X195641500Y-66354338D01*
X195621498Y-66422459D01*
X195604596Y-66443433D01*
X194819465Y-67228565D01*
X194813198Y-67234419D01*
X194775340Y-67267444D01*
X194775337Y-67267447D01*
X194769615Y-67272439D01*
X194765248Y-67278653D01*
X194732872Y-67324719D01*
X194728939Y-67330014D01*
X194689524Y-67380282D01*
X194686401Y-67387198D01*
X194685017Y-67389484D01*
X194676643Y-67404165D01*
X194675378Y-67406525D01*
X194671010Y-67412739D01*
X194668250Y-67419818D01*
X194668249Y-67419820D01*
X194647798Y-67472275D01*
X194645247Y-67478344D01*
X194618955Y-67536573D01*
X194617571Y-67544040D01*
X194616770Y-67546595D01*
X194612141Y-67562848D01*
X194611478Y-67565428D01*
X194608718Y-67572509D01*
X194607727Y-67580040D01*
X194607726Y-67580042D01*
X194600379Y-67635852D01*
X194599348Y-67642359D01*
X194587704Y-67705186D01*
X194588141Y-67712766D01*
X194588141Y-67712767D01*
X194591291Y-67767392D01*
X194591500Y-67774646D01*
X194591500Y-67915500D01*
X194571498Y-67983621D01*
X194517842Y-68030114D01*
X194465500Y-68041500D01*
X193901866Y-68041500D01*
X193839684Y-68048255D01*
X193815725Y-68057237D01*
X193727980Y-68090131D01*
X193657172Y-68095314D01*
X193594655Y-68061244D01*
X192706197Y-67172786D01*
X192672171Y-67110474D01*
X192677236Y-67039659D01*
X192719783Y-66982823D01*
X192728989Y-66976547D01*
X192768120Y-66952332D01*
X192774348Y-66948478D01*
X192899305Y-66823303D01*
X192912726Y-66801531D01*
X192988275Y-66678968D01*
X192988276Y-66678966D01*
X192992115Y-66672738D01*
X193047797Y-66504861D01*
X193058500Y-66400400D01*
X193058500Y-65645660D01*
X193078502Y-65577539D01*
X193095405Y-65556565D01*
X194630528Y-64021443D01*
X194636793Y-64015589D01*
X194674664Y-63982552D01*
X194674665Y-63982551D01*
X194680385Y-63977561D01*
X194717136Y-63925271D01*
X194721028Y-63920029D01*
X194760476Y-63869718D01*
X194763600Y-63862799D01*
X194764988Y-63860507D01*
X194773357Y-63845835D01*
X194774622Y-63843475D01*
X194778990Y-63837261D01*
X194802203Y-63777723D01*
X194804759Y-63771642D01*
X194827918Y-63720352D01*
X194831045Y-63713427D01*
X194832430Y-63705954D01*
X194833234Y-63703388D01*
X194837855Y-63687165D01*
X194838520Y-63684573D01*
X194841282Y-63677491D01*
X194849622Y-63614139D01*
X194850654Y-63607623D01*
X194860911Y-63552281D01*
X194862295Y-63544814D01*
X194858709Y-63482620D01*
X194858500Y-63475367D01*
X194858500Y-62704802D01*
X194878502Y-62636681D01*
X194908935Y-62603976D01*
X194956081Y-62568642D01*
X194963261Y-62563261D01*
X195050615Y-62446705D01*
X195071772Y-62390270D01*
X195114414Y-62333505D01*
X195180976Y-62308806D01*
X195189754Y-62308500D01*
X196371088Y-62308500D01*
X196379658Y-62308792D01*
X196429776Y-62312209D01*
X196429780Y-62312209D01*
X196437352Y-62312725D01*
X196444829Y-62311420D01*
X196444830Y-62311420D01*
X196496168Y-62302460D01*
X196500303Y-62301738D01*
X196506821Y-62300777D01*
X196570242Y-62293102D01*
X196577343Y-62290419D01*
X196579952Y-62289778D01*
X196596262Y-62285315D01*
X196598798Y-62284550D01*
X196606284Y-62283243D01*
X196664800Y-62257556D01*
X196670904Y-62255065D01*
X196723548Y-62235173D01*
X196723549Y-62235172D01*
X196730656Y-62232487D01*
X196736919Y-62228183D01*
X196739285Y-62226946D01*
X196754097Y-62218701D01*
X196756352Y-62217367D01*
X196763305Y-62214315D01*
X196769324Y-62209696D01*
X196769333Y-62209691D01*
X196802110Y-62184539D01*
X196868330Y-62158937D01*
X196878815Y-62158500D01*
X197448134Y-62158500D01*
X197510316Y-62151745D01*
X197646705Y-62100615D01*
X197763261Y-62013261D01*
X197850615Y-61896705D01*
X197901745Y-61760316D01*
X197908500Y-61698134D01*
X197908500Y-61145661D01*
X197928502Y-61077540D01*
X197945405Y-61056565D01*
X198630536Y-60371435D01*
X198636801Y-60365582D01*
X198674664Y-60332552D01*
X198674665Y-60332551D01*
X198680385Y-60327561D01*
X198717136Y-60275271D01*
X198721028Y-60270029D01*
X198760476Y-60219718D01*
X198763600Y-60212799D01*
X198764988Y-60210507D01*
X198773357Y-60195835D01*
X198774622Y-60193475D01*
X198778990Y-60187261D01*
X198802203Y-60127723D01*
X198804759Y-60121642D01*
X198807994Y-60114479D01*
X198831045Y-60063427D01*
X198832430Y-60055954D01*
X198833234Y-60053388D01*
X198837855Y-60037165D01*
X198838520Y-60034573D01*
X198841282Y-60027491D01*
X198849622Y-59964139D01*
X198850654Y-59957623D01*
X198860911Y-59902281D01*
X198862295Y-59894814D01*
X198858709Y-59832620D01*
X198858500Y-59825367D01*
X198858500Y-59286000D01*
X198878502Y-59217879D01*
X198932158Y-59171386D01*
X198984500Y-59160000D01*
X200025500Y-59160000D01*
X200093621Y-59180002D01*
G37*
%TD.AperFunction*%
%TA.AperFunction,Conductor*%
G36*
X178115026Y-59180002D02*
G01*
X178136000Y-59196905D01*
X178181348Y-59242253D01*
X178188887Y-59250537D01*
X178193000Y-59257018D01*
X178198777Y-59262443D01*
X178242651Y-59303643D01*
X178245493Y-59306398D01*
X178265230Y-59326135D01*
X178268427Y-59328615D01*
X178277447Y-59336318D01*
X178309679Y-59366586D01*
X178316625Y-59370405D01*
X178316628Y-59370407D01*
X178327434Y-59376348D01*
X178343953Y-59387199D01*
X178359959Y-59399614D01*
X178367228Y-59402759D01*
X178367232Y-59402762D01*
X178400537Y-59417174D01*
X178411187Y-59422391D01*
X178449940Y-59443695D01*
X178457615Y-59445666D01*
X178457616Y-59445666D01*
X178469562Y-59448733D01*
X178488267Y-59455137D01*
X178506855Y-59463181D01*
X178514678Y-59464420D01*
X178514688Y-59464423D01*
X178550524Y-59470099D01*
X178562144Y-59472505D01*
X178597289Y-59481528D01*
X178604970Y-59483500D01*
X178625224Y-59483500D01*
X178644934Y-59485051D01*
X178664943Y-59488220D01*
X178672835Y-59487474D01*
X178691580Y-59485702D01*
X178708962Y-59484059D01*
X178720819Y-59483500D01*
X182236233Y-59483500D01*
X182247416Y-59484027D01*
X182254909Y-59485702D01*
X182262835Y-59485453D01*
X182262836Y-59485453D01*
X182322986Y-59483562D01*
X182326945Y-59483500D01*
X182354856Y-59483500D01*
X182358791Y-59483003D01*
X182358856Y-59482995D01*
X182370693Y-59482062D01*
X182403247Y-59481039D01*
X182406970Y-59480922D01*
X182414889Y-59480673D01*
X182434343Y-59475021D01*
X182453700Y-59471013D01*
X182465930Y-59469468D01*
X182465931Y-59469468D01*
X182473797Y-59468474D01*
X182481168Y-59465555D01*
X182481170Y-59465555D01*
X182514912Y-59452196D01*
X182526142Y-59448351D01*
X182560983Y-59438229D01*
X182560984Y-59438229D01*
X182568593Y-59436018D01*
X182575412Y-59431985D01*
X182575417Y-59431983D01*
X182586028Y-59425707D01*
X182603776Y-59417012D01*
X182622617Y-59409552D01*
X182643660Y-59394264D01*
X182658387Y-59383564D01*
X182668307Y-59377048D01*
X182699535Y-59358580D01*
X182699538Y-59358578D01*
X182706362Y-59354542D01*
X182720683Y-59340221D01*
X182735717Y-59327380D01*
X182745693Y-59320132D01*
X182752107Y-59315472D01*
X182780293Y-59281401D01*
X182788282Y-59272622D01*
X182863999Y-59196905D01*
X182926311Y-59162879D01*
X182953094Y-59160000D01*
X183126906Y-59160000D01*
X183195027Y-59180002D01*
X183216001Y-59196905D01*
X183260854Y-59241758D01*
X183268398Y-59250048D01*
X183272511Y-59256529D01*
X183278288Y-59261954D01*
X183322178Y-59303169D01*
X183325020Y-59305924D01*
X183344741Y-59325645D01*
X183347936Y-59328123D01*
X183356958Y-59335829D01*
X183389190Y-59366097D01*
X183396139Y-59369917D01*
X183406943Y-59375857D01*
X183423467Y-59386710D01*
X183439470Y-59399124D01*
X183480054Y-59416687D01*
X183490684Y-59421894D01*
X183529451Y-59443206D01*
X183537128Y-59445177D01*
X183537133Y-59445179D01*
X183549069Y-59448243D01*
X183567777Y-59454648D01*
X183586366Y-59462692D01*
X183594194Y-59463932D01*
X183594201Y-59463934D01*
X183630035Y-59469610D01*
X183641655Y-59472016D01*
X183676535Y-59480971D01*
X183684481Y-59483011D01*
X183704735Y-59483011D01*
X183724445Y-59484562D01*
X183744454Y-59487731D01*
X183752346Y-59486985D01*
X183765918Y-59485702D01*
X183788473Y-59483570D01*
X183800330Y-59483011D01*
X184771722Y-59483011D01*
X184782905Y-59483538D01*
X184790398Y-59485213D01*
X184798324Y-59484964D01*
X184798325Y-59484964D01*
X184858475Y-59483073D01*
X184862434Y-59483011D01*
X184890345Y-59483011D01*
X184894280Y-59482514D01*
X184894345Y-59482506D01*
X184906182Y-59481573D01*
X184938440Y-59480559D01*
X184942459Y-59480433D01*
X184950378Y-59480184D01*
X184969832Y-59474532D01*
X184989189Y-59470524D01*
X185001419Y-59468979D01*
X185001420Y-59468979D01*
X185009286Y-59467985D01*
X185016657Y-59465066D01*
X185016659Y-59465066D01*
X185050401Y-59451707D01*
X185061631Y-59447862D01*
X185096472Y-59437740D01*
X185096473Y-59437740D01*
X185104082Y-59435529D01*
X185110901Y-59431496D01*
X185110906Y-59431494D01*
X185121517Y-59425218D01*
X185139265Y-59416523D01*
X185158106Y-59409063D01*
X185177796Y-59394758D01*
X185193876Y-59383075D01*
X185203796Y-59376559D01*
X185235024Y-59358091D01*
X185235027Y-59358089D01*
X185241851Y-59354053D01*
X185256172Y-59339732D01*
X185271206Y-59326891D01*
X185276106Y-59323331D01*
X185287596Y-59314983D01*
X185315787Y-59280906D01*
X185323777Y-59272127D01*
X185398999Y-59196905D01*
X185461311Y-59162879D01*
X185488094Y-59160000D01*
X186229480Y-59160000D01*
X186297601Y-59180002D01*
X186342193Y-59231962D01*
X186342508Y-59231780D01*
X186345808Y-59237497D01*
X186345810Y-59237500D01*
X186374526Y-59287237D01*
X186440623Y-59401720D01*
X186445041Y-59406627D01*
X186445042Y-59406628D01*
X186518508Y-59488220D01*
X186571926Y-59547547D01*
X186577268Y-59551428D01*
X186577270Y-59551430D01*
X186725337Y-59659007D01*
X186730679Y-59662888D01*
X186736707Y-59665572D01*
X186736709Y-59665573D01*
X186903913Y-59740017D01*
X186909944Y-59742702D01*
X187005915Y-59763101D01*
X187095428Y-59782128D01*
X187095432Y-59782128D01*
X187101885Y-59783500D01*
X187298115Y-59783500D01*
X187304568Y-59782128D01*
X187304572Y-59782128D01*
X187354303Y-59771557D01*
X187425094Y-59776959D01*
X187481727Y-59819776D01*
X187506220Y-59886414D01*
X187506500Y-59894804D01*
X187506500Y-60015405D01*
X187486498Y-60083526D01*
X187469595Y-60104501D01*
X187169499Y-60404596D01*
X187107187Y-60438621D01*
X187080404Y-60441500D01*
X187024513Y-60441500D01*
X187018061Y-60442872D01*
X187018056Y-60442872D01*
X186931112Y-60461353D01*
X186837712Y-60481206D01*
X186831682Y-60483891D01*
X186831681Y-60483891D01*
X186669278Y-60556197D01*
X186669276Y-60556198D01*
X186663248Y-60558882D01*
X186508747Y-60671134D01*
X186504326Y-60676044D01*
X186504325Y-60676045D01*
X186423780Y-60765500D01*
X186380960Y-60813056D01*
X186285473Y-60978444D01*
X186226458Y-61160072D01*
X186206496Y-61350000D01*
X186226458Y-61539928D01*
X186285473Y-61721556D01*
X186380960Y-61886944D01*
X186508747Y-62028866D01*
X186663248Y-62141118D01*
X186669276Y-62143802D01*
X186669278Y-62143803D01*
X186817266Y-62209691D01*
X186837712Y-62218794D01*
X186914769Y-62235173D01*
X187018056Y-62257128D01*
X187018061Y-62257128D01*
X187024513Y-62258500D01*
X187215487Y-62258500D01*
X187221939Y-62257128D01*
X187221944Y-62257128D01*
X187325231Y-62235173D01*
X187402288Y-62218794D01*
X187422734Y-62209691D01*
X187570722Y-62143803D01*
X187570724Y-62143802D01*
X187576752Y-62141118D01*
X187731253Y-62028866D01*
X187859040Y-61886944D01*
X187954527Y-61721556D01*
X188013542Y-61539928D01*
X188030907Y-61374708D01*
X188057920Y-61309051D01*
X188067122Y-61298783D01*
X188076405Y-61289500D01*
X188138717Y-61255474D01*
X188209532Y-61260539D01*
X188266368Y-61303086D01*
X188291179Y-61369606D01*
X188291500Y-61378595D01*
X188291500Y-65184339D01*
X188271498Y-65252460D01*
X188254595Y-65273434D01*
X187193467Y-66334563D01*
X187130569Y-66368715D01*
X186977712Y-66401206D01*
X186971682Y-66403891D01*
X186971681Y-66403891D01*
X186809278Y-66476197D01*
X186809276Y-66476198D01*
X186803248Y-66478882D01*
X186648747Y-66591134D01*
X186644326Y-66596044D01*
X186644325Y-66596045D01*
X186575271Y-66672738D01*
X186520960Y-66733056D01*
X186425473Y-66898444D01*
X186366458Y-67080072D01*
X186365768Y-67086633D01*
X186365768Y-67086635D01*
X186353457Y-67203767D01*
X186346496Y-67270000D01*
X186347186Y-67276565D01*
X186362243Y-67419820D01*
X186366458Y-67459928D01*
X186425473Y-67641556D01*
X186520960Y-67806944D01*
X186525378Y-67811851D01*
X186525379Y-67811852D01*
X186628367Y-67926232D01*
X186648747Y-67948866D01*
X186693554Y-67981420D01*
X186785544Y-68048255D01*
X186803248Y-68061118D01*
X186809276Y-68063802D01*
X186809278Y-68063803D01*
X186957030Y-68129586D01*
X186977712Y-68138794D01*
X187071113Y-68158647D01*
X187158056Y-68177128D01*
X187158061Y-68177128D01*
X187164513Y-68178500D01*
X187355487Y-68178500D01*
X187361939Y-68177128D01*
X187361944Y-68177128D01*
X187448887Y-68158647D01*
X187542288Y-68138794D01*
X187562970Y-68129586D01*
X187710722Y-68063803D01*
X187710724Y-68063802D01*
X187716752Y-68061118D01*
X187734457Y-68048255D01*
X187797344Y-68002564D01*
X187864211Y-67978706D01*
X187871405Y-67978500D01*
X188301088Y-67978500D01*
X188309658Y-67978792D01*
X188359776Y-67982209D01*
X188359780Y-67982209D01*
X188367352Y-67982725D01*
X188374829Y-67981420D01*
X188374830Y-67981420D01*
X188401308Y-67976799D01*
X188430303Y-67971738D01*
X188436821Y-67970777D01*
X188500242Y-67963102D01*
X188507343Y-67960419D01*
X188509952Y-67959778D01*
X188526262Y-67955315D01*
X188528798Y-67954550D01*
X188536284Y-67953243D01*
X188594800Y-67927556D01*
X188600904Y-67925065D01*
X188653548Y-67905173D01*
X188653549Y-67905172D01*
X188660656Y-67902487D01*
X188666919Y-67898183D01*
X188669285Y-67896946D01*
X188684097Y-67888701D01*
X188686351Y-67887368D01*
X188693305Y-67884315D01*
X188744002Y-67845413D01*
X188749332Y-67841541D01*
X188795720Y-67809661D01*
X188795725Y-67809656D01*
X188801981Y-67805357D01*
X188843436Y-67758829D01*
X188848416Y-67753554D01*
X189472387Y-67129583D01*
X189534699Y-67095557D01*
X189587899Y-67095478D01*
X189588602Y-67095629D01*
X189595139Y-67097797D01*
X189601982Y-67098498D01*
X189601986Y-67098499D01*
X189656665Y-67104101D01*
X189699600Y-67108500D01*
X190300400Y-67108500D01*
X190303646Y-67108163D01*
X190303650Y-67108163D01*
X190399308Y-67098238D01*
X190399312Y-67098237D01*
X190406166Y-67097526D01*
X190412699Y-67095346D01*
X190412710Y-67095344D01*
X190494292Y-67068125D01*
X190565242Y-67065539D01*
X190617985Y-67093570D01*
X190661669Y-67132491D01*
X190666926Y-67137455D01*
X191355876Y-67826405D01*
X191389902Y-67888717D01*
X191384837Y-67959532D01*
X191342290Y-68016368D01*
X191275770Y-68041179D01*
X191266781Y-68041500D01*
X190601866Y-68041500D01*
X190539684Y-68048255D01*
X190403295Y-68099385D01*
X190286739Y-68186739D01*
X190199385Y-68303295D01*
X190148255Y-68439684D01*
X190141500Y-68501866D01*
X190141500Y-69054340D01*
X190121498Y-69122461D01*
X190104595Y-69143435D01*
X187943435Y-71304595D01*
X187881123Y-71338621D01*
X187854340Y-71341500D01*
X174034500Y-71341500D01*
X173966379Y-71321498D01*
X173919886Y-71267842D01*
X173908500Y-71215500D01*
X173908500Y-59286000D01*
X173928502Y-59217879D01*
X173982158Y-59171386D01*
X174034500Y-59160000D01*
X178046905Y-59160000D01*
X178115026Y-59180002D01*
G37*
%TD.AperFunction*%
%TA.AperFunction,Conductor*%
G36*
X189990150Y-59180002D02*
G01*
X190011047Y-59196827D01*
X190056552Y-59242253D01*
X190109697Y-59295305D01*
X190115927Y-59299145D01*
X190115928Y-59299146D01*
X190252086Y-59383075D01*
X190260262Y-59388115D01*
X190340005Y-59414564D01*
X190421611Y-59441632D01*
X190421613Y-59441632D01*
X190428139Y-59443797D01*
X190434975Y-59444497D01*
X190434978Y-59444498D01*
X190528988Y-59454130D01*
X190594715Y-59480971D01*
X190635978Y-59540538D01*
X190681473Y-59680556D01*
X190776960Y-59845944D01*
X190904747Y-59987866D01*
X191059248Y-60100118D01*
X191065276Y-60102802D01*
X191065278Y-60102803D01*
X191091503Y-60114479D01*
X191145599Y-60160460D01*
X191166248Y-60228387D01*
X191146895Y-60296695D01*
X191129349Y-60318681D01*
X190993435Y-60454595D01*
X190931123Y-60488621D01*
X190904340Y-60491500D01*
X190351866Y-60491500D01*
X190289684Y-60498255D01*
X190153295Y-60549385D01*
X190036739Y-60636739D01*
X189949385Y-60753295D01*
X189946236Y-60761696D01*
X189945019Y-60763918D01*
X189894760Y-60814064D01*
X189825369Y-60829077D01*
X189758877Y-60804191D01*
X189716395Y-60747307D01*
X189708500Y-60703408D01*
X189708500Y-59286000D01*
X189728502Y-59217879D01*
X189782158Y-59171386D01*
X189834500Y-59160000D01*
X189922029Y-59160000D01*
X189990150Y-59180002D01*
G37*
%TD.AperFunction*%
%TD*%
%TA.AperFunction,Conductor*%
%TO.N,-V*%
G36*
X176299241Y-48320502D02*
G01*
X176345734Y-48374158D01*
X176355838Y-48444432D01*
X176326344Y-48509012D01*
X176320215Y-48515595D01*
X176281227Y-48554583D01*
X176272941Y-48562123D01*
X176266462Y-48566235D01*
X176261037Y-48572012D01*
X176225128Y-48610252D01*
X176163915Y-48646218D01*
X176133277Y-48650000D01*
X175934500Y-48650000D01*
X175866379Y-48629998D01*
X175819886Y-48576342D01*
X175808500Y-48524000D01*
X175808500Y-48426500D01*
X175828502Y-48358379D01*
X175882158Y-48311886D01*
X175934500Y-48300500D01*
X176231120Y-48300500D01*
X176299241Y-48320502D01*
G37*
%TD.AperFunction*%
%TA.AperFunction,Conductor*%
G36*
X199995018Y-36070000D02*
G01*
X200009853Y-36072310D01*
X200009855Y-36072310D01*
X200018724Y-36073691D01*
X200024508Y-36072935D01*
X200090868Y-36093307D01*
X200136700Y-36147528D01*
X200145165Y-36188873D01*
X200146309Y-36188723D01*
X200146309Y-36188724D01*
X200146329Y-36188873D01*
X200150436Y-36220283D01*
X200151500Y-36236621D01*
X200151500Y-48524000D01*
X200131498Y-48592121D01*
X200077842Y-48638614D01*
X200025500Y-48650000D01*
X189673094Y-48650000D01*
X189604973Y-48629998D01*
X189583999Y-48613095D01*
X189538937Y-48568032D01*
X188420405Y-47449500D01*
X188386379Y-47387188D01*
X188383500Y-47360405D01*
X188383499Y-47071249D01*
X188383499Y-47068366D01*
X188376753Y-46994938D01*
X188325472Y-46831301D01*
X188236639Y-46684619D01*
X188141115Y-46589095D01*
X188107089Y-46526783D01*
X188112154Y-46455968D01*
X188141115Y-46410905D01*
X188236639Y-46315381D01*
X188325472Y-46168699D01*
X188376753Y-46005062D01*
X188383500Y-45931635D01*
X188383499Y-45591087D01*
X188393862Y-45541047D01*
X188400170Y-45526470D01*
X188405383Y-45515827D01*
X188426695Y-45477060D01*
X188428666Y-45469383D01*
X188428668Y-45469378D01*
X188431732Y-45457442D01*
X188438138Y-45438730D01*
X188443034Y-45427417D01*
X188446181Y-45420145D01*
X188450345Y-45393859D01*
X188453097Y-45376481D01*
X188455504Y-45364860D01*
X188464528Y-45329711D01*
X188464528Y-45329710D01*
X188466500Y-45322030D01*
X188466500Y-45301769D01*
X188468051Y-45282058D01*
X188469979Y-45269885D01*
X188471219Y-45262057D01*
X188467059Y-45218046D01*
X188466500Y-45206189D01*
X188466500Y-38548524D01*
X188486502Y-38480403D01*
X188498858Y-38464221D01*
X188572040Y-38382944D01*
X188667527Y-38217556D01*
X188726542Y-38035928D01*
X188746504Y-37846000D01*
X188726542Y-37656072D01*
X188667527Y-37474444D01*
X188572040Y-37309056D01*
X188528814Y-37261048D01*
X188498098Y-37197043D01*
X188506861Y-37126590D01*
X188533356Y-37087645D01*
X188760596Y-36860405D01*
X188822908Y-36826379D01*
X188849691Y-36823500D01*
X189381800Y-36823500D01*
X189449921Y-36843502D01*
X189469147Y-36859843D01*
X189469420Y-36859540D01*
X189474332Y-36863963D01*
X189478747Y-36868866D01*
X189633248Y-36981118D01*
X189639276Y-36983802D01*
X189639278Y-36983803D01*
X189801681Y-37056109D01*
X189807712Y-37058794D01*
X189901112Y-37078647D01*
X189988056Y-37097128D01*
X189988061Y-37097128D01*
X189994513Y-37098500D01*
X190185487Y-37098500D01*
X190191939Y-37097128D01*
X190191944Y-37097128D01*
X190278888Y-37078647D01*
X190372288Y-37058794D01*
X190378319Y-37056109D01*
X190540722Y-36983803D01*
X190540724Y-36983802D01*
X190546752Y-36981118D01*
X190701253Y-36868866D01*
X190724091Y-36843502D01*
X190824621Y-36731852D01*
X190824622Y-36731851D01*
X190829040Y-36726944D01*
X190924527Y-36561556D01*
X190983542Y-36379928D01*
X191003504Y-36190000D01*
X191004116Y-36190064D01*
X191022816Y-36126379D01*
X191076472Y-36079886D01*
X191128814Y-36068500D01*
X199975633Y-36068500D01*
X199995018Y-36070000D01*
G37*
%TD.AperFunction*%
%TA.AperFunction,Conductor*%
G36*
X182217704Y-45096375D02*
G01*
X182228911Y-45106323D01*
X183604595Y-46482007D01*
X183638621Y-46544319D01*
X183641500Y-46571102D01*
X183641500Y-48501254D01*
X183621498Y-48569375D01*
X183567842Y-48615868D01*
X183497568Y-48625972D01*
X183449384Y-48608514D01*
X183379968Y-48565725D01*
X183379966Y-48565724D01*
X183373738Y-48561885D01*
X183259518Y-48524000D01*
X183212389Y-48508368D01*
X183212387Y-48508368D01*
X183205861Y-48506203D01*
X183199025Y-48505503D01*
X183199022Y-48505502D01*
X183155969Y-48501091D01*
X183101400Y-48495500D01*
X182365594Y-48495500D01*
X182297473Y-48475498D01*
X182276499Y-48458595D01*
X181717695Y-47899791D01*
X181683669Y-47837479D01*
X181687197Y-47771029D01*
X181709632Y-47703389D01*
X181709632Y-47703387D01*
X181711797Y-47696861D01*
X181722500Y-47592400D01*
X181722500Y-46641600D01*
X181722163Y-46638350D01*
X181712238Y-46542692D01*
X181712237Y-46542688D01*
X181711526Y-46535834D01*
X181708507Y-46526783D01*
X181657868Y-46375002D01*
X181655550Y-46368054D01*
X181562478Y-46217652D01*
X181437303Y-46092695D01*
X181431072Y-46088854D01*
X181292968Y-46003725D01*
X181292966Y-46003724D01*
X181286738Y-45999885D01*
X181126254Y-45946655D01*
X181125389Y-45946368D01*
X181125387Y-45946368D01*
X181118861Y-45944203D01*
X181112025Y-45943503D01*
X181112022Y-45943502D01*
X181068969Y-45939091D01*
X181014400Y-45933500D01*
X180204609Y-45933500D01*
X180136488Y-45913498D01*
X180089995Y-45859842D01*
X180079891Y-45789568D01*
X180109385Y-45724988D01*
X180130544Y-45705567D01*
X180144474Y-45695446D01*
X180148888Y-45690544D01*
X180153801Y-45686120D01*
X180154926Y-45687369D01*
X180208235Y-45654529D01*
X180241421Y-45650080D01*
X180837653Y-45650080D01*
X180848836Y-45650607D01*
X180856329Y-45652282D01*
X180864255Y-45652033D01*
X180864256Y-45652033D01*
X180924406Y-45650142D01*
X180928365Y-45650080D01*
X180956276Y-45650080D01*
X180960211Y-45649583D01*
X180960276Y-45649575D01*
X180972113Y-45648642D01*
X181004371Y-45647628D01*
X181008390Y-45647502D01*
X181016309Y-45647253D01*
X181035763Y-45641601D01*
X181055120Y-45637593D01*
X181067350Y-45636048D01*
X181067351Y-45636048D01*
X181075217Y-45635054D01*
X181109834Y-45621348D01*
X181156218Y-45612500D01*
X181324487Y-45612500D01*
X181330939Y-45611128D01*
X181330944Y-45611128D01*
X181417887Y-45592647D01*
X181511288Y-45572794D01*
X181517319Y-45570109D01*
X181679722Y-45497803D01*
X181679724Y-45497802D01*
X181685752Y-45495118D01*
X181840253Y-45382866D01*
X181931021Y-45282058D01*
X181963621Y-45245852D01*
X181963622Y-45245851D01*
X181968040Y-45240944D01*
X182030698Y-45132417D01*
X182082079Y-45083425D01*
X182151793Y-45069988D01*
X182217704Y-45096375D01*
G37*
%TD.AperFunction*%
%TA.AperFunction,Conductor*%
G36*
X176434527Y-42878502D02*
G01*
X176455501Y-42895405D01*
X176852343Y-43292247D01*
X176859887Y-43300537D01*
X176864000Y-43307018D01*
X176869777Y-43312443D01*
X176913667Y-43353658D01*
X176916509Y-43356413D01*
X176936230Y-43376134D01*
X176939425Y-43378612D01*
X176948447Y-43386318D01*
X176980679Y-43416586D01*
X176987628Y-43420406D01*
X176998432Y-43426346D01*
X177014956Y-43437199D01*
X177030959Y-43449613D01*
X177071543Y-43467176D01*
X177082173Y-43472383D01*
X177120940Y-43493695D01*
X177128617Y-43495666D01*
X177128622Y-43495668D01*
X177140558Y-43498732D01*
X177159266Y-43505137D01*
X177177855Y-43513181D01*
X177185683Y-43514421D01*
X177185690Y-43514423D01*
X177221524Y-43520099D01*
X177233144Y-43522505D01*
X177268289Y-43531528D01*
X177275970Y-43533500D01*
X177296224Y-43533500D01*
X177315934Y-43535051D01*
X177335943Y-43538220D01*
X177343835Y-43537474D01*
X177379961Y-43534059D01*
X177391819Y-43533500D01*
X177491800Y-43533500D01*
X177559921Y-43553502D01*
X177579147Y-43569843D01*
X177579420Y-43569540D01*
X177584332Y-43573963D01*
X177588747Y-43578866D01*
X177743248Y-43691118D01*
X177749276Y-43693802D01*
X177749278Y-43693803D01*
X177911681Y-43766109D01*
X177917712Y-43768794D01*
X178011113Y-43788647D01*
X178098056Y-43807128D01*
X178098061Y-43807128D01*
X178104513Y-43808500D01*
X178295487Y-43808500D01*
X178301939Y-43807128D01*
X178301944Y-43807128D01*
X178379304Y-43790684D01*
X178450095Y-43796086D01*
X178506727Y-43838903D01*
X178531221Y-43905540D01*
X178531501Y-43913918D01*
X178531501Y-44039884D01*
X178547162Y-44158850D01*
X178608476Y-44306876D01*
X178706013Y-44433987D01*
X178711192Y-44437961D01*
X178744836Y-44499573D01*
X178739771Y-44570388D01*
X178730834Y-44589356D01*
X178698694Y-44645024D01*
X178639679Y-44826652D01*
X178638989Y-44833213D01*
X178638989Y-44833215D01*
X178629909Y-44919606D01*
X178619717Y-45016580D01*
X178620407Y-45023145D01*
X178625916Y-45075556D01*
X178639679Y-45206508D01*
X178698694Y-45388136D01*
X178701997Y-45393858D01*
X178701998Y-45393859D01*
X178729917Y-45442216D01*
X178794181Y-45553524D01*
X178798599Y-45558431D01*
X178798600Y-45558432D01*
X178880673Y-45649583D01*
X178921968Y-45695446D01*
X178935896Y-45705565D01*
X178979248Y-45761787D01*
X178985323Y-45832523D01*
X178952191Y-45895315D01*
X178890371Y-45930226D01*
X178861833Y-45933500D01*
X178014600Y-45933500D01*
X178011354Y-45933837D01*
X178011350Y-45933837D01*
X177915692Y-45943762D01*
X177915688Y-45943763D01*
X177908834Y-45944474D01*
X177902298Y-45946655D01*
X177902296Y-45946655D01*
X177770194Y-45990728D01*
X177741054Y-46000450D01*
X177590652Y-46093522D01*
X177465695Y-46218697D01*
X177461855Y-46224927D01*
X177461854Y-46224928D01*
X177453639Y-46238256D01*
X177372885Y-46369262D01*
X177370581Y-46376209D01*
X177323249Y-46518912D01*
X177317203Y-46537139D01*
X177316503Y-46543975D01*
X177316502Y-46543978D01*
X177314516Y-46563361D01*
X177306500Y-46641600D01*
X177306500Y-47477120D01*
X177286498Y-47545241D01*
X177269595Y-47566215D01*
X177238595Y-47597215D01*
X177176283Y-47631241D01*
X177105468Y-47626176D01*
X177048632Y-47583629D01*
X177023821Y-47517109D01*
X177023500Y-47508120D01*
X177023500Y-46641600D01*
X177023163Y-46638350D01*
X177013238Y-46542692D01*
X177013237Y-46542688D01*
X177012526Y-46535834D01*
X177009507Y-46526783D01*
X176958868Y-46375002D01*
X176956550Y-46368054D01*
X176863478Y-46217652D01*
X176738303Y-46092695D01*
X176732072Y-46088854D01*
X176593968Y-46003725D01*
X176593966Y-46003724D01*
X176587738Y-45999885D01*
X176427254Y-45946655D01*
X176426389Y-45946368D01*
X176426387Y-45946368D01*
X176419861Y-45944203D01*
X176413025Y-45943503D01*
X176413022Y-45943502D01*
X176369969Y-45939091D01*
X176315400Y-45933500D01*
X175740980Y-45933500D01*
X175672859Y-45913498D01*
X175626366Y-45859842D01*
X175614980Y-45807500D01*
X175614980Y-43595181D01*
X175634982Y-43527060D01*
X175651885Y-43506085D01*
X176262567Y-42895404D01*
X176324879Y-42861379D01*
X176351662Y-42858500D01*
X176366406Y-42858500D01*
X176434527Y-42878502D01*
G37*
%TD.AperFunction*%
%TD*%
M02*
