%TF.GenerationSoftware,KiCad,Pcbnew,(6.0.5)*%
%TF.CreationDate,2022-07-20T13:20:04-04:00*%
%TF.ProjectId,torque_motor_design,746f7271-7565-45f6-9d6f-746f725f6465,rev?*%
%TF.SameCoordinates,Original*%
%TF.FileFunction,Paste,Top*%
%TF.FilePolarity,Positive*%
%FSLAX46Y46*%
G04 Gerber Fmt 4.6, Leading zero omitted, Abs format (unit mm)*
G04 Created by KiCad (PCBNEW (6.0.5)) date 2022-07-20 13:20:04*
%MOMM*%
%LPD*%
G01*
G04 APERTURE LIST*
G04 Aperture macros list*
%AMRoundRect*
0 Rectangle with rounded corners*
0 $1 Rounding radius*
0 $2 $3 $4 $5 $6 $7 $8 $9 X,Y pos of 4 corners*
0 Add a 4 corners polygon primitive as box body*
4,1,4,$2,$3,$4,$5,$6,$7,$8,$9,$2,$3,0*
0 Add four circle primitives for the rounded corners*
1,1,$1+$1,$2,$3*
1,1,$1+$1,$4,$5*
1,1,$1+$1,$6,$7*
1,1,$1+$1,$8,$9*
0 Add four rect primitives between the rounded corners*
20,1,$1+$1,$2,$3,$4,$5,0*
20,1,$1+$1,$4,$5,$6,$7,0*
20,1,$1+$1,$6,$7,$8,$9,0*
20,1,$1+$1,$8,$9,$2,$3,0*%
G04 Aperture macros list end*
%ADD10RoundRect,0.225000X0.250000X-0.225000X0.250000X0.225000X-0.250000X0.225000X-0.250000X-0.225000X0*%
%ADD11RoundRect,0.250000X0.425000X-0.450000X0.425000X0.450000X-0.425000X0.450000X-0.425000X-0.450000X0*%
%ADD12RoundRect,0.250000X-0.450000X-0.425000X0.450000X-0.425000X0.450000X0.425000X-0.450000X0.425000X0*%
%ADD13R,1.300000X1.600000*%
%ADD14R,2.000000X1.600000*%
%ADD15RoundRect,0.225000X-0.250000X0.225000X-0.250000X-0.225000X0.250000X-0.225000X0.250000X0.225000X0*%
%ADD16RoundRect,0.200000X0.200000X0.275000X-0.200000X0.275000X-0.200000X-0.275000X0.200000X-0.275000X0*%
%ADD17R,5.250000X4.550000*%
%ADD18R,1.100000X4.600000*%
%ADD19RoundRect,0.250000X0.250000X0.750000X-0.250000X0.750000X-0.250000X-0.750000X0.250000X-0.750000X0*%
%ADD20RoundRect,0.200000X-0.200000X-0.275000X0.200000X-0.275000X0.200000X0.275000X-0.200000X0.275000X0*%
%ADD21R,1.200000X0.900000*%
%ADD22RoundRect,0.250000X-0.425000X0.450000X-0.425000X-0.450000X0.425000X-0.450000X0.425000X0.450000X0*%
%ADD23R,0.900000X1.200000*%
%ADD24RoundRect,0.250000X0.750000X-0.250000X0.750000X0.250000X-0.750000X0.250000X-0.750000X-0.250000X0*%
%ADD25RoundRect,0.200000X-0.275000X0.200000X-0.275000X-0.200000X0.275000X-0.200000X0.275000X0.200000X0*%
G04 APERTURE END LIST*
D10*
%TO.C,C8*%
X179070000Y-49543000D03*
X179070000Y-47993000D03*
%TD*%
D11*
%TO.C,C6*%
X177165000Y-50245000D03*
X177165000Y-47545000D03*
%TD*%
D12*
%TO.C,C10*%
X180112000Y-45178000D03*
X182812000Y-45178000D03*
%TD*%
D13*
%TO.C,RV1*%
X183742000Y-41718000D03*
D14*
X184992000Y-38818000D03*
D13*
X186242000Y-41718000D03*
%TD*%
D15*
%TO.C,C7*%
X194665600Y-53581000D03*
X194665600Y-55131000D03*
%TD*%
D16*
%TO.C,R6*%
X179793400Y-41503600D03*
X178143400Y-41503600D03*
%TD*%
D17*
%TO.C,U3*%
X196267000Y-42718000D03*
X190717000Y-42718000D03*
X196267000Y-37868000D03*
X190717000Y-37868000D03*
D18*
X190092000Y-49443000D03*
X191792000Y-49443000D03*
X193492000Y-49443000D03*
X195192000Y-49443000D03*
X196892000Y-49443000D03*
%TD*%
D19*
%TO.C,Motor+1*%
X191820800Y-63601600D03*
%TD*%
D15*
%TO.C,C5*%
X192532000Y-53581000D03*
X192532000Y-55131000D03*
%TD*%
D20*
%TO.C,R5*%
X178143400Y-39624000D03*
X179793400Y-39624000D03*
%TD*%
D21*
%TO.C,D7*%
X196242000Y-64268000D03*
X196242000Y-67568000D03*
%TD*%
D12*
%TO.C,C9*%
X175307000Y-45085000D03*
X178007000Y-45085000D03*
%TD*%
D17*
%TO.C,U2*%
X182767000Y-65768000D03*
X182767000Y-60918000D03*
X177217000Y-60918000D03*
X177217000Y-65768000D03*
D18*
X183392000Y-54193000D03*
X181692000Y-54193000D03*
X179992000Y-54193000D03*
X178292000Y-54193000D03*
X176592000Y-54193000D03*
%TD*%
D11*
%TO.C,C4*%
X190500000Y-56214000D03*
X190500000Y-53514000D03*
%TD*%
D22*
%TO.C,C12*%
X196646800Y-53056800D03*
X196646800Y-55756800D03*
%TD*%
D23*
%TO.C,D1*%
X190342000Y-59568000D03*
X193642000Y-59568000D03*
%TD*%
D24*
%TO.C,External_(-12V)1*%
X175798000Y-41862000D03*
%TD*%
%TO.C,External_(+12V)1*%
X175798000Y-39818000D03*
%TD*%
D19*
%TO.C,Motor-1*%
X189492000Y-63568000D03*
%TD*%
D25*
%TO.C,R1*%
X186892000Y-43643000D03*
X186892000Y-45293000D03*
%TD*%
D10*
%TO.C,C11*%
X180848000Y-49543000D03*
X180848000Y-47993000D03*
%TD*%
D21*
%TO.C,D5*%
X196292000Y-59168000D03*
X196292000Y-62468000D03*
%TD*%
D22*
%TO.C,C3*%
X182880000Y-47672000D03*
X182880000Y-50372000D03*
%TD*%
D23*
%TO.C,D6*%
X193877200Y-66903600D03*
X190577200Y-66903600D03*
%TD*%
G36*
X199226418Y-34166570D02*
G01*
X199294307Y-34187346D01*
X199340186Y-34241528D01*
X199350980Y-34293585D01*
X199263017Y-45122801D01*
X199242462Y-45190757D01*
X199188431Y-45236813D01*
X199136798Y-45247778D01*
X188097328Y-45228222D01*
X188029243Y-45208099D01*
X187982845Y-45154361D01*
X187971552Y-45102672D01*
X187932457Y-34165898D01*
X187952215Y-34097707D01*
X188005704Y-34051022D01*
X188059890Y-34039456D01*
X199226418Y-34166570D01*
G37*
G36*
X185812517Y-57264834D02*
G01*
X185859095Y-57318415D01*
X185870565Y-57371153D01*
X185860780Y-63164397D01*
X185860781Y-63165083D01*
X185871995Y-64747259D01*
X185871996Y-64748812D01*
X185862005Y-66657036D01*
X185862024Y-66658959D01*
X185901961Y-68266430D01*
X185902000Y-68269559D01*
X185902000Y-69201798D01*
X185881998Y-69269919D01*
X185828342Y-69316412D01*
X185775798Y-69327798D01*
X173557694Y-69308202D01*
X173489605Y-69288091D01*
X173443199Y-69234360D01*
X173431896Y-69182307D01*
X173422109Y-57390462D01*
X173442055Y-57322324D01*
X173495672Y-57275787D01*
X173547908Y-57264357D01*
X185744364Y-57244940D01*
X185812517Y-57264834D01*
G37*
M02*
