%TF.GenerationSoftware,KiCad,Pcbnew,(6.0.5)*%
%TF.CreationDate,2022-07-20T13:20:04-04:00*%
%TF.ProjectId,torque_motor_design,746f7271-7565-45f6-9d6f-746f725f6465,rev?*%
%TF.SameCoordinates,Original*%
%TF.FileFunction,Legend,Bot*%
%TF.FilePolarity,Positive*%
%FSLAX46Y46*%
G04 Gerber Fmt 4.6, Leading zero omitted, Abs format (unit mm)*
G04 Created by KiCad (PCBNEW (6.0.5)) date 2022-07-20 13:20:04*
%MOMM*%
%LPD*%
G01*
G04 APERTURE LIST*
%ADD10C,0.037500*%
%ADD11C,0.200000*%
%ADD12C,0.120000*%
G04 APERTURE END LIST*
D10*
X198008857Y-60328785D02*
X197958857Y-60553785D01*
X197908857Y-60328785D01*
X197858857Y-60468071D02*
X197744571Y-60468071D01*
X197801714Y-60553785D02*
X197801714Y-60382357D01*
X197980285Y-59374300D02*
X197994571Y-59363585D01*
X198016000Y-59363585D01*
X198037428Y-59374300D01*
X198051714Y-59395728D01*
X198058857Y-59417157D01*
X198066000Y-59460014D01*
X198066000Y-59492157D01*
X198058857Y-59535014D01*
X198051714Y-59556442D01*
X198037428Y-59577871D01*
X198016000Y-59588585D01*
X198001714Y-59588585D01*
X197980285Y-59577871D01*
X197973142Y-59567157D01*
X197973142Y-59492157D01*
X198001714Y-59492157D01*
X197908857Y-59588585D02*
X197908857Y-59363585D01*
X197823142Y-59588585D01*
X197823142Y-59363585D01*
X197751714Y-59588585D02*
X197751714Y-59363585D01*
X197716000Y-59363585D01*
X197694571Y-59374300D01*
X197680285Y-59395728D01*
X197673142Y-59417157D01*
X197666000Y-59460014D01*
X197666000Y-59492157D01*
X197673142Y-59535014D01*
X197680285Y-59556442D01*
X197694571Y-59577871D01*
X197716000Y-59588585D01*
X197751714Y-59588585D01*
X195507957Y-67206485D02*
X195518671Y-67199342D01*
X195529385Y-67177914D01*
X195529385Y-67163628D01*
X195518671Y-67142200D01*
X195497242Y-67127914D01*
X195475814Y-67120771D01*
X195432957Y-67113628D01*
X195400814Y-67113628D01*
X195357957Y-67120771D01*
X195336528Y-67127914D01*
X195315100Y-67142200D01*
X195304385Y-67163628D01*
X195304385Y-67177914D01*
X195315100Y-67199342D01*
X195325814Y-67206485D01*
X195379385Y-67335057D02*
X195529385Y-67335057D01*
X195379385Y-67270771D02*
X195497242Y-67270771D01*
X195518671Y-67277914D01*
X195529385Y-67292200D01*
X195529385Y-67313628D01*
X195518671Y-67327914D01*
X195507957Y-67335057D01*
X195529385Y-67406485D02*
X195379385Y-67406485D01*
X195422242Y-67406485D02*
X195400814Y-67413628D01*
X195390100Y-67420771D01*
X195379385Y-67435057D01*
X195379385Y-67449342D01*
X195529385Y-67499342D02*
X195379385Y-67499342D01*
X195422242Y-67499342D02*
X195400814Y-67506485D01*
X195390100Y-67513628D01*
X195379385Y-67527914D01*
X195379385Y-67542200D01*
X195518671Y-67649342D02*
X195529385Y-67635057D01*
X195529385Y-67606485D01*
X195518671Y-67592200D01*
X195497242Y-67585057D01*
X195411528Y-67585057D01*
X195390100Y-67592200D01*
X195379385Y-67606485D01*
X195379385Y-67635057D01*
X195390100Y-67649342D01*
X195411528Y-67656485D01*
X195432957Y-67656485D01*
X195454385Y-67585057D01*
X195379385Y-67720771D02*
X195529385Y-67720771D01*
X195400814Y-67720771D02*
X195390100Y-67727914D01*
X195379385Y-67742200D01*
X195379385Y-67763628D01*
X195390100Y-67777914D01*
X195411528Y-67785057D01*
X195529385Y-67785057D01*
X195379385Y-67835057D02*
X195379385Y-67892200D01*
X195304385Y-67856485D02*
X195497242Y-67856485D01*
X195518671Y-67863628D01*
X195529385Y-67877914D01*
X195529385Y-67892200D01*
X195550814Y-67906485D02*
X195550814Y-68020771D01*
X195304385Y-68085057D02*
X195304385Y-68113628D01*
X195315100Y-68127914D01*
X195336528Y-68142200D01*
X195379385Y-68149342D01*
X195454385Y-68149342D01*
X195497242Y-68142200D01*
X195518671Y-68127914D01*
X195529385Y-68113628D01*
X195529385Y-68085057D01*
X195518671Y-68070771D01*
X195497242Y-68056485D01*
X195454385Y-68049342D01*
X195379385Y-68049342D01*
X195336528Y-68056485D01*
X195315100Y-68070771D01*
X195304385Y-68085057D01*
X195304385Y-68213628D02*
X195486528Y-68213628D01*
X195507957Y-68220771D01*
X195518671Y-68227914D01*
X195529385Y-68242200D01*
X195529385Y-68270771D01*
X195518671Y-68285057D01*
X195507957Y-68292200D01*
X195486528Y-68299342D01*
X195304385Y-68299342D01*
X195304385Y-68349342D02*
X195304385Y-68435057D01*
X195529385Y-68392200D02*
X195304385Y-68392200D01*
X193548185Y-67250142D02*
X193323185Y-67250142D01*
X193483900Y-67300142D01*
X193323185Y-67350142D01*
X193548185Y-67350142D01*
X193548185Y-67443000D02*
X193537471Y-67428714D01*
X193526757Y-67421571D01*
X193505328Y-67414428D01*
X193441042Y-67414428D01*
X193419614Y-67421571D01*
X193408900Y-67428714D01*
X193398185Y-67443000D01*
X193398185Y-67464428D01*
X193408900Y-67478714D01*
X193419614Y-67485857D01*
X193441042Y-67493000D01*
X193505328Y-67493000D01*
X193526757Y-67485857D01*
X193537471Y-67478714D01*
X193548185Y-67464428D01*
X193548185Y-67443000D01*
X193398185Y-67535857D02*
X193398185Y-67593000D01*
X193323185Y-67557285D02*
X193516042Y-67557285D01*
X193537471Y-67564428D01*
X193548185Y-67578714D01*
X193548185Y-67593000D01*
X193548185Y-67664428D02*
X193537471Y-67650142D01*
X193526757Y-67643000D01*
X193505328Y-67635857D01*
X193441042Y-67635857D01*
X193419614Y-67643000D01*
X193408900Y-67650142D01*
X193398185Y-67664428D01*
X193398185Y-67685857D01*
X193408900Y-67700142D01*
X193419614Y-67707285D01*
X193441042Y-67714428D01*
X193505328Y-67714428D01*
X193526757Y-67707285D01*
X193537471Y-67700142D01*
X193548185Y-67685857D01*
X193548185Y-67664428D01*
X193548185Y-67778714D02*
X193398185Y-67778714D01*
X193441042Y-67778714D02*
X193419614Y-67785857D01*
X193408900Y-67793000D01*
X193398185Y-67807285D01*
X193398185Y-67821571D01*
X193569614Y-67835857D02*
X193569614Y-67950142D01*
X193323185Y-67964428D02*
X193548185Y-68014428D01*
X193323185Y-68064428D01*
X193569614Y-68078714D02*
X193569614Y-68193000D01*
X193548185Y-68228714D02*
X193323185Y-68228714D01*
X193548185Y-68300142D02*
X193323185Y-68300142D01*
X193548185Y-68385857D01*
X193323185Y-68385857D01*
X194339185Y-67016400D02*
X194339185Y-67102114D01*
X194564185Y-67059257D02*
X194339185Y-67059257D01*
X194564185Y-67173542D02*
X194553471Y-67159257D01*
X194542757Y-67152114D01*
X194521328Y-67144971D01*
X194457042Y-67144971D01*
X194435614Y-67152114D01*
X194424900Y-67159257D01*
X194414185Y-67173542D01*
X194414185Y-67194971D01*
X194424900Y-67209257D01*
X194435614Y-67216400D01*
X194457042Y-67223542D01*
X194521328Y-67223542D01*
X194542757Y-67216400D01*
X194553471Y-67209257D01*
X194564185Y-67194971D01*
X194564185Y-67173542D01*
X194564185Y-67287828D02*
X194414185Y-67287828D01*
X194457042Y-67287828D02*
X194435614Y-67294971D01*
X194424900Y-67302114D01*
X194414185Y-67316400D01*
X194414185Y-67330685D01*
X194414185Y-67444971D02*
X194639185Y-67444971D01*
X194553471Y-67444971D02*
X194564185Y-67430685D01*
X194564185Y-67402114D01*
X194553471Y-67387828D01*
X194542757Y-67380685D01*
X194521328Y-67373542D01*
X194457042Y-67373542D01*
X194435614Y-67380685D01*
X194424900Y-67387828D01*
X194414185Y-67402114D01*
X194414185Y-67430685D01*
X194424900Y-67444971D01*
X194414185Y-67580685D02*
X194564185Y-67580685D01*
X194414185Y-67516400D02*
X194532042Y-67516400D01*
X194553471Y-67523542D01*
X194564185Y-67537828D01*
X194564185Y-67559257D01*
X194553471Y-67573542D01*
X194542757Y-67580685D01*
X194553471Y-67709257D02*
X194564185Y-67694971D01*
X194564185Y-67666400D01*
X194553471Y-67652114D01*
X194532042Y-67644971D01*
X194446328Y-67644971D01*
X194424900Y-67652114D01*
X194414185Y-67666400D01*
X194414185Y-67694971D01*
X194424900Y-67709257D01*
X194446328Y-67716400D01*
X194467757Y-67716400D01*
X194489185Y-67644971D01*
X194585614Y-67744971D02*
X194585614Y-67859257D01*
X194564185Y-67894971D02*
X194339185Y-67894971D01*
X194499900Y-67944971D01*
X194339185Y-67994971D01*
X194564185Y-67994971D01*
X194564185Y-68087828D02*
X194553471Y-68073542D01*
X194542757Y-68066400D01*
X194521328Y-68059257D01*
X194457042Y-68059257D01*
X194435614Y-68066400D01*
X194424900Y-68073542D01*
X194414185Y-68087828D01*
X194414185Y-68109257D01*
X194424900Y-68123542D01*
X194435614Y-68130685D01*
X194457042Y-68137828D01*
X194521328Y-68137828D01*
X194542757Y-68130685D01*
X194553471Y-68123542D01*
X194564185Y-68109257D01*
X194564185Y-68087828D01*
X194564185Y-68266400D02*
X194339185Y-68266400D01*
X194553471Y-68266400D02*
X194564185Y-68252114D01*
X194564185Y-68223542D01*
X194553471Y-68209257D01*
X194542757Y-68202114D01*
X194521328Y-68194971D01*
X194457042Y-68194971D01*
X194435614Y-68202114D01*
X194424900Y-68209257D01*
X194414185Y-68223542D01*
X194414185Y-68252114D01*
X194424900Y-68266400D01*
X194553471Y-68394971D02*
X194564185Y-68380685D01*
X194564185Y-68352114D01*
X194553471Y-68337828D01*
X194532042Y-68330685D01*
X194446328Y-68330685D01*
X194424900Y-68337828D01*
X194414185Y-68352114D01*
X194414185Y-68380685D01*
X194424900Y-68394971D01*
X194446328Y-68402114D01*
X194467757Y-68402114D01*
X194489185Y-68330685D01*
X203421557Y-65314766D02*
X203421560Y-65343337D01*
X203428704Y-65357622D01*
X203435847Y-65364764D01*
X203457277Y-65379048D01*
X203485849Y-65386189D01*
X203542992Y-65386184D01*
X203557277Y-65379039D01*
X203564419Y-65371896D01*
X203571561Y-65357610D01*
X203571558Y-65329038D01*
X203564414Y-65314753D01*
X203557271Y-65307611D01*
X203542984Y-65300469D01*
X203507270Y-65300472D01*
X203492985Y-65307616D01*
X203485843Y-65314760D01*
X203478701Y-65329046D01*
X203478704Y-65357618D01*
X203485848Y-65371903D01*
X203492991Y-65379045D01*
X203507278Y-65386187D01*
X203435855Y-65450479D02*
X203428712Y-65457622D01*
X203421569Y-65450480D01*
X203428711Y-65443336D01*
X203435855Y-65450479D01*
X203421569Y-65450480D01*
X203421582Y-65600480D02*
X203421575Y-65514766D01*
X203421578Y-65557623D02*
X203571578Y-65557610D01*
X203550149Y-65543326D01*
X203535862Y-65529041D01*
X203528717Y-65514756D01*
X203421595Y-65743337D02*
X203421587Y-65657623D01*
X203421591Y-65700480D02*
X203571591Y-65700467D01*
X203550161Y-65686183D01*
X203535874Y-65671898D01*
X203528730Y-65657613D01*
X203421607Y-65886194D02*
X203421600Y-65800480D01*
X203421603Y-65843337D02*
X203571603Y-65843324D01*
X203550174Y-65829040D01*
X203535887Y-65814756D01*
X203528743Y-65800470D01*
X203571619Y-66014752D02*
X203571616Y-65986181D01*
X203564472Y-65971896D01*
X203557328Y-65964754D01*
X203535899Y-65950470D01*
X203507327Y-65943330D01*
X203450184Y-65943335D01*
X203435899Y-65950479D01*
X203428756Y-65957622D01*
X203421615Y-65971908D01*
X203421617Y-66000480D01*
X203428761Y-66014765D01*
X203435905Y-66021907D01*
X203450191Y-66029049D01*
X203485905Y-66029046D01*
X203500191Y-66021902D01*
X203507333Y-66014758D01*
X203514474Y-66000472D01*
X203514472Y-65971900D01*
X203507328Y-65957615D01*
X203500184Y-65950473D01*
X203485898Y-65943331D01*
X203421635Y-66207623D02*
X203521635Y-66207614D01*
X203507350Y-66207615D02*
X203514493Y-66214757D01*
X203521637Y-66229043D01*
X203521639Y-66250471D01*
X203514498Y-66264757D01*
X203500213Y-66271902D01*
X203421641Y-66271908D01*
X203500213Y-66271902D02*
X203514499Y-66279043D01*
X203521643Y-66293328D01*
X203521645Y-66314757D01*
X203514503Y-66329043D01*
X203500218Y-66336187D01*
X203421647Y-66336194D01*
X203421653Y-66407623D02*
X203521653Y-66407614D01*
X203507367Y-66407615D02*
X203514511Y-66414757D01*
X203521655Y-66429043D01*
X203521657Y-66450471D01*
X203514515Y-66464757D01*
X203500230Y-66471902D01*
X203421659Y-66471908D01*
X203500230Y-66471902D02*
X203514516Y-66479043D01*
X203521661Y-66493328D01*
X203521662Y-66514757D01*
X203514521Y-66529043D01*
X203500236Y-66536187D01*
X203421664Y-66536194D01*
D11*
X200602000Y-70477956D02*
X203888788Y-70477667D01*
X200601200Y-61366356D02*
X203887988Y-61366067D01*
X203302368Y-70477719D02*
X203301568Y-61366119D01*
X203302368Y-70477719D02*
X203301568Y-61366119D01*
X203302368Y-70477719D02*
X203888690Y-69351164D01*
X203302368Y-70477719D02*
X202715848Y-69351267D01*
X203301568Y-61366119D02*
X202715246Y-62492674D01*
X203301568Y-61366119D02*
X203888088Y-62492571D01*
D10*
X197568028Y-72207485D02*
X197660885Y-72207485D01*
X197610885Y-72293200D01*
X197632314Y-72293200D01*
X197646600Y-72303914D01*
X197653742Y-72314628D01*
X197660885Y-72336057D01*
X197660885Y-72389628D01*
X197653742Y-72411057D01*
X197646600Y-72421771D01*
X197632314Y-72432485D01*
X197589457Y-72432485D01*
X197575171Y-72421771D01*
X197568028Y-72411057D01*
X197725171Y-72411057D02*
X197732314Y-72421771D01*
X197725171Y-72432485D01*
X197718028Y-72421771D01*
X197725171Y-72411057D01*
X197725171Y-72432485D01*
X197818028Y-72303914D02*
X197803742Y-72293200D01*
X197796600Y-72282485D01*
X197789457Y-72261057D01*
X197789457Y-72250342D01*
X197796600Y-72228914D01*
X197803742Y-72218200D01*
X197818028Y-72207485D01*
X197846600Y-72207485D01*
X197860885Y-72218200D01*
X197868028Y-72228914D01*
X197875171Y-72250342D01*
X197875171Y-72261057D01*
X197868028Y-72282485D01*
X197860885Y-72293200D01*
X197846600Y-72303914D01*
X197818028Y-72303914D01*
X197803742Y-72314628D01*
X197796600Y-72325342D01*
X197789457Y-72346771D01*
X197789457Y-72389628D01*
X197796600Y-72411057D01*
X197803742Y-72421771D01*
X197818028Y-72432485D01*
X197846600Y-72432485D01*
X197860885Y-72421771D01*
X197868028Y-72411057D01*
X197875171Y-72389628D01*
X197875171Y-72346771D01*
X197868028Y-72325342D01*
X197860885Y-72314628D01*
X197846600Y-72303914D01*
X198018028Y-72432485D02*
X197932314Y-72432485D01*
X197975171Y-72432485D02*
X197975171Y-72207485D01*
X197960885Y-72239628D01*
X197946600Y-72261057D01*
X197932314Y-72271771D01*
X198110885Y-72207485D02*
X198125171Y-72207485D01*
X198139457Y-72218200D01*
X198146600Y-72228914D01*
X198153742Y-72250342D01*
X198160885Y-72293200D01*
X198160885Y-72346771D01*
X198153742Y-72389628D01*
X198146600Y-72411057D01*
X198139457Y-72421771D01*
X198125171Y-72432485D01*
X198110885Y-72432485D01*
X198096600Y-72421771D01*
X198089457Y-72411057D01*
X198082314Y-72389628D01*
X198075171Y-72346771D01*
X198075171Y-72293200D01*
X198082314Y-72250342D01*
X198089457Y-72228914D01*
X198096600Y-72218200D01*
X198110885Y-72207485D01*
X198246600Y-72303914D02*
X198232314Y-72293200D01*
X198225171Y-72282485D01*
X198218028Y-72261057D01*
X198218028Y-72250342D01*
X198225171Y-72228914D01*
X198232314Y-72218200D01*
X198246600Y-72207485D01*
X198275171Y-72207485D01*
X198289457Y-72218200D01*
X198296600Y-72228914D01*
X198303742Y-72250342D01*
X198303742Y-72261057D01*
X198296600Y-72282485D01*
X198289457Y-72293200D01*
X198275171Y-72303914D01*
X198246600Y-72303914D01*
X198232314Y-72314628D01*
X198225171Y-72325342D01*
X198218028Y-72346771D01*
X198218028Y-72389628D01*
X198225171Y-72411057D01*
X198232314Y-72421771D01*
X198246600Y-72432485D01*
X198275171Y-72432485D01*
X198289457Y-72421771D01*
X198296600Y-72411057D01*
X198303742Y-72389628D01*
X198303742Y-72346771D01*
X198296600Y-72325342D01*
X198289457Y-72314628D01*
X198275171Y-72303914D01*
X198482314Y-72432485D02*
X198482314Y-72282485D01*
X198482314Y-72303914D02*
X198489457Y-72293200D01*
X198503742Y-72282485D01*
X198525171Y-72282485D01*
X198539457Y-72293200D01*
X198546600Y-72314628D01*
X198546600Y-72432485D01*
X198546600Y-72314628D02*
X198553742Y-72293200D01*
X198568028Y-72282485D01*
X198589457Y-72282485D01*
X198603742Y-72293200D01*
X198610885Y-72314628D01*
X198610885Y-72432485D01*
X198682314Y-72432485D02*
X198682314Y-72282485D01*
X198682314Y-72303914D02*
X198689457Y-72293200D01*
X198703742Y-72282485D01*
X198725171Y-72282485D01*
X198739457Y-72293200D01*
X198746600Y-72314628D01*
X198746600Y-72432485D01*
X198746600Y-72314628D02*
X198753742Y-72293200D01*
X198768028Y-72282485D01*
X198789457Y-72282485D01*
X198803742Y-72293200D01*
X198810885Y-72314628D01*
X198810885Y-72432485D01*
D11*
X200102000Y-70978000D02*
X200102000Y-73179620D01*
X196291200Y-73179620D02*
X196291200Y-71010400D01*
X200102000Y-72593200D02*
X196291200Y-72593200D01*
X200102000Y-72593200D02*
X196291200Y-72593200D01*
X200102000Y-72593200D02*
X198975496Y-72006779D01*
X200102000Y-72593200D02*
X198975496Y-73179621D01*
X196291200Y-72593200D02*
X197417704Y-73179621D01*
X196291200Y-72593200D02*
X197417704Y-72006779D01*
D10*
%TO.C,header_2*%
X199415428Y-57394657D02*
X199415428Y-57244657D01*
X199351142Y-57394657D02*
X199351142Y-57316085D01*
X199358285Y-57301800D01*
X199372571Y-57294657D01*
X199394000Y-57294657D01*
X199408285Y-57301800D01*
X199415428Y-57308942D01*
X199222571Y-57387514D02*
X199236857Y-57394657D01*
X199265428Y-57394657D01*
X199279714Y-57387514D01*
X199286857Y-57373228D01*
X199286857Y-57316085D01*
X199279714Y-57301800D01*
X199265428Y-57294657D01*
X199236857Y-57294657D01*
X199222571Y-57301800D01*
X199215428Y-57316085D01*
X199215428Y-57330371D01*
X199286857Y-57344657D01*
X199086857Y-57394657D02*
X199086857Y-57316085D01*
X199094000Y-57301800D01*
X199108285Y-57294657D01*
X199136857Y-57294657D01*
X199151142Y-57301800D01*
X199086857Y-57387514D02*
X199101142Y-57394657D01*
X199136857Y-57394657D01*
X199151142Y-57387514D01*
X199158285Y-57373228D01*
X199158285Y-57358942D01*
X199151142Y-57344657D01*
X199136857Y-57337514D01*
X199101142Y-57337514D01*
X199086857Y-57330371D01*
X198951142Y-57394657D02*
X198951142Y-57244657D01*
X198951142Y-57387514D02*
X198965428Y-57394657D01*
X198994000Y-57394657D01*
X199008285Y-57387514D01*
X199015428Y-57380371D01*
X199022571Y-57366085D01*
X199022571Y-57323228D01*
X199015428Y-57308942D01*
X199008285Y-57301800D01*
X198994000Y-57294657D01*
X198965428Y-57294657D01*
X198951142Y-57301800D01*
X198822571Y-57387514D02*
X198836857Y-57394657D01*
X198865428Y-57394657D01*
X198879714Y-57387514D01*
X198886857Y-57373228D01*
X198886857Y-57316085D01*
X198879714Y-57301800D01*
X198865428Y-57294657D01*
X198836857Y-57294657D01*
X198822571Y-57301800D01*
X198815428Y-57316085D01*
X198815428Y-57330371D01*
X198886857Y-57344657D01*
X198751142Y-57394657D02*
X198751142Y-57294657D01*
X198751142Y-57323228D02*
X198744000Y-57308942D01*
X198736857Y-57301800D01*
X198722571Y-57294657D01*
X198708285Y-57294657D01*
X198694000Y-57408942D02*
X198579714Y-57408942D01*
X198551142Y-57258942D02*
X198544000Y-57251800D01*
X198529714Y-57244657D01*
X198494000Y-57244657D01*
X198479714Y-57251800D01*
X198472571Y-57258942D01*
X198465428Y-57273228D01*
X198465428Y-57287514D01*
X198472571Y-57308942D01*
X198558285Y-57394657D01*
X198465428Y-57394657D01*
%TO.C,Current_Sense*%
X187637000Y-54911571D02*
X187644142Y-54918714D01*
X187665571Y-54925857D01*
X187679857Y-54925857D01*
X187701285Y-54918714D01*
X187715571Y-54904428D01*
X187722714Y-54890142D01*
X187729857Y-54861571D01*
X187729857Y-54840142D01*
X187722714Y-54811571D01*
X187715571Y-54797285D01*
X187701285Y-54783000D01*
X187679857Y-54775857D01*
X187665571Y-54775857D01*
X187644142Y-54783000D01*
X187637000Y-54790142D01*
X187508428Y-54825857D02*
X187508428Y-54925857D01*
X187572714Y-54825857D02*
X187572714Y-54904428D01*
X187565571Y-54918714D01*
X187551285Y-54925857D01*
X187529857Y-54925857D01*
X187515571Y-54918714D01*
X187508428Y-54911571D01*
X187437000Y-54925857D02*
X187437000Y-54825857D01*
X187437000Y-54854428D02*
X187429857Y-54840142D01*
X187422714Y-54833000D01*
X187408428Y-54825857D01*
X187394142Y-54825857D01*
X187344142Y-54925857D02*
X187344142Y-54825857D01*
X187344142Y-54854428D02*
X187337000Y-54840142D01*
X187329857Y-54833000D01*
X187315571Y-54825857D01*
X187301285Y-54825857D01*
X187194142Y-54918714D02*
X187208428Y-54925857D01*
X187237000Y-54925857D01*
X187251285Y-54918714D01*
X187258428Y-54904428D01*
X187258428Y-54847285D01*
X187251285Y-54833000D01*
X187237000Y-54825857D01*
X187208428Y-54825857D01*
X187194142Y-54833000D01*
X187187000Y-54847285D01*
X187187000Y-54861571D01*
X187258428Y-54875857D01*
X187122714Y-54825857D02*
X187122714Y-54925857D01*
X187122714Y-54840142D02*
X187115571Y-54833000D01*
X187101285Y-54825857D01*
X187079857Y-54825857D01*
X187065571Y-54833000D01*
X187058428Y-54847285D01*
X187058428Y-54925857D01*
X187008428Y-54825857D02*
X186951285Y-54825857D01*
X186987000Y-54775857D02*
X186987000Y-54904428D01*
X186979857Y-54918714D01*
X186965571Y-54925857D01*
X186951285Y-54925857D01*
X186937000Y-54940142D02*
X186822714Y-54940142D01*
X186794142Y-54918714D02*
X186772714Y-54925857D01*
X186737000Y-54925857D01*
X186722714Y-54918714D01*
X186715571Y-54911571D01*
X186708428Y-54897285D01*
X186708428Y-54883000D01*
X186715571Y-54868714D01*
X186722714Y-54861571D01*
X186737000Y-54854428D01*
X186765571Y-54847285D01*
X186779857Y-54840142D01*
X186787000Y-54833000D01*
X186794142Y-54818714D01*
X186794142Y-54804428D01*
X186787000Y-54790142D01*
X186779857Y-54783000D01*
X186765571Y-54775857D01*
X186729857Y-54775857D01*
X186708428Y-54783000D01*
X186587000Y-54918714D02*
X186601285Y-54925857D01*
X186629857Y-54925857D01*
X186644142Y-54918714D01*
X186651285Y-54904428D01*
X186651285Y-54847285D01*
X186644142Y-54833000D01*
X186629857Y-54825857D01*
X186601285Y-54825857D01*
X186587000Y-54833000D01*
X186579857Y-54847285D01*
X186579857Y-54861571D01*
X186651285Y-54875857D01*
X186515571Y-54825857D02*
X186515571Y-54925857D01*
X186515571Y-54840142D02*
X186508428Y-54833000D01*
X186494142Y-54825857D01*
X186472714Y-54825857D01*
X186458428Y-54833000D01*
X186451285Y-54847285D01*
X186451285Y-54925857D01*
X186387000Y-54918714D02*
X186372714Y-54925857D01*
X186344142Y-54925857D01*
X186329857Y-54918714D01*
X186322714Y-54904428D01*
X186322714Y-54897285D01*
X186329857Y-54883000D01*
X186344142Y-54875857D01*
X186365571Y-54875857D01*
X186379857Y-54868714D01*
X186387000Y-54854428D01*
X186387000Y-54847285D01*
X186379857Y-54833000D01*
X186365571Y-54825857D01*
X186344142Y-54825857D01*
X186329857Y-54833000D01*
X186201285Y-54918714D02*
X186215571Y-54925857D01*
X186244142Y-54925857D01*
X186258428Y-54918714D01*
X186265571Y-54904428D01*
X186265571Y-54847285D01*
X186258428Y-54833000D01*
X186244142Y-54825857D01*
X186215571Y-54825857D01*
X186201285Y-54833000D01*
X186194142Y-54847285D01*
X186194142Y-54861571D01*
X186265571Y-54875857D01*
%TO.C,header*%
X189268057Y-69765457D02*
X189268057Y-69615457D01*
X189203771Y-69765457D02*
X189203771Y-69686885D01*
X189210914Y-69672600D01*
X189225200Y-69665457D01*
X189246628Y-69665457D01*
X189260914Y-69672600D01*
X189268057Y-69679742D01*
X189075200Y-69758314D02*
X189089485Y-69765457D01*
X189118057Y-69765457D01*
X189132342Y-69758314D01*
X189139485Y-69744028D01*
X189139485Y-69686885D01*
X189132342Y-69672600D01*
X189118057Y-69665457D01*
X189089485Y-69665457D01*
X189075200Y-69672600D01*
X189068057Y-69686885D01*
X189068057Y-69701171D01*
X189139485Y-69715457D01*
X188939485Y-69765457D02*
X188939485Y-69686885D01*
X188946628Y-69672600D01*
X188960914Y-69665457D01*
X188989485Y-69665457D01*
X189003771Y-69672600D01*
X188939485Y-69758314D02*
X188953771Y-69765457D01*
X188989485Y-69765457D01*
X189003771Y-69758314D01*
X189010914Y-69744028D01*
X189010914Y-69729742D01*
X189003771Y-69715457D01*
X188989485Y-69708314D01*
X188953771Y-69708314D01*
X188939485Y-69701171D01*
X188803771Y-69765457D02*
X188803771Y-69615457D01*
X188803771Y-69758314D02*
X188818057Y-69765457D01*
X188846628Y-69765457D01*
X188860914Y-69758314D01*
X188868057Y-69751171D01*
X188875200Y-69736885D01*
X188875200Y-69694028D01*
X188868057Y-69679742D01*
X188860914Y-69672600D01*
X188846628Y-69665457D01*
X188818057Y-69665457D01*
X188803771Y-69672600D01*
X188675200Y-69758314D02*
X188689485Y-69765457D01*
X188718057Y-69765457D01*
X188732342Y-69758314D01*
X188739485Y-69744028D01*
X188739485Y-69686885D01*
X188732342Y-69672600D01*
X188718057Y-69665457D01*
X188689485Y-69665457D01*
X188675200Y-69672600D01*
X188668057Y-69686885D01*
X188668057Y-69701171D01*
X188739485Y-69715457D01*
X188603771Y-69765457D02*
X188603771Y-69665457D01*
X188603771Y-69694028D02*
X188596628Y-69679742D01*
X188589485Y-69672600D01*
X188575200Y-69665457D01*
X188560914Y-69665457D01*
%TO.C,R3*%
X188609857Y-62303000D02*
X188538428Y-62253000D01*
X188609857Y-62217285D02*
X188459857Y-62217285D01*
X188459857Y-62274428D01*
X188467000Y-62288714D01*
X188474142Y-62295857D01*
X188488428Y-62303000D01*
X188509857Y-62303000D01*
X188524142Y-62295857D01*
X188531285Y-62288714D01*
X188538428Y-62274428D01*
X188538428Y-62217285D01*
X188459857Y-62353000D02*
X188459857Y-62445857D01*
X188517000Y-62395857D01*
X188517000Y-62417285D01*
X188524142Y-62431571D01*
X188531285Y-62438714D01*
X188545571Y-62445857D01*
X188581285Y-62445857D01*
X188595571Y-62438714D01*
X188602714Y-62431571D01*
X188609857Y-62417285D01*
X188609857Y-62374428D01*
X188602714Y-62360142D01*
X188595571Y-62353000D01*
D12*
%TO.C,header_2*%
X199627800Y-59171800D02*
X199627800Y-61046800D01*
X198237800Y-59171800D02*
X198237800Y-61046800D01*
X198538307Y-61046800D02*
X198237800Y-61046800D01*
X199627800Y-57801800D02*
X198932800Y-57801800D01*
X199627800Y-59171800D02*
X199541076Y-59171800D01*
X199627800Y-61046800D02*
X199327293Y-61046800D01*
X199627800Y-58486800D02*
X199627800Y-57801800D01*
X198324524Y-59171800D02*
X198237800Y-59171800D01*
%TO.C,Current_Sense*%
X187657000Y-56813000D02*
X187570276Y-56813000D01*
X187657000Y-55443000D02*
X186962000Y-55443000D01*
X186267000Y-56813000D02*
X186267000Y-56688000D01*
X187657000Y-56813000D02*
X186267000Y-56813000D01*
X187657000Y-56128000D02*
X187657000Y-55443000D01*
X186353724Y-56813000D02*
X186267000Y-56813000D01*
X187657000Y-56813000D02*
X187657000Y-56688000D01*
%TO.C,header*%
X191032600Y-68596200D02*
X195907600Y-68596200D01*
X191032600Y-68596200D02*
X191032600Y-68682924D01*
X191032600Y-69986200D02*
X195907600Y-69986200D01*
X191032600Y-69899476D02*
X191032600Y-69986200D01*
X190347600Y-68596200D02*
X189662600Y-68596200D01*
X195907600Y-69685693D02*
X195907600Y-69986200D01*
X189662600Y-68596200D02*
X189662600Y-69291200D01*
X195907600Y-68596200D02*
X195907600Y-68896707D01*
%TO.C,R3*%
X188172000Y-64505064D02*
X188172000Y-60150936D01*
X184752000Y-64505064D02*
X184752000Y-60150936D01*
%TD*%
M02*
